<?xml version="1.0" encoding="UTF-8"?><svg id="Grouped" xmlns="http://www.w3.org/2000/svg" viewBox="0 0 80 112"><defs><style>.cls-1{fill:#fff;}.cls-2{fill:#c93112;}</style></defs><g id="Card_Back_2_"><rect id="BG-2" class="cls-1" width="80" height="112" rx="5" ry="5"/><path id="_ard_Back_1_" class="cls-2" d="m46.8,62.8c1.03-.69,2.1-1.49,3.18-2.37-.03,1.76-.57,3.13-1.5,4.06-.93.93-2.29,1.46-4.06,1.5.88-1.09,1.68-2.15,2.37-3.18Zm3.18-11.23c-.03-1.76-.57-3.13-1.5-4.06-.93-.93-2.29-1.46-4.06-1.5.88,1.09,1.68,2.15,2.37,3.18,1.03.69,2.1,1.49,3.18,2.37Zm-12.39,15.25c.75.85,1.54,1.72,2.41,2.6.87-.88,1.66-1.75,2.41-2.6-.77-.12-1.57-.31-2.41-.58-.84.27-1.64.46-2.41.58Zm15.83-10.82c-.88-.87-1.75-1.66-2.6-2.41-.12.77-.31,1.57-.58,2.41.27.84.46,1.64.58,2.41.85-.75,1.72-1.54,2.6-2.41Zm-10.36,3.77c0,.11.02.22.02.34,0,1.75-.7,3.61-2.19,5.34.83.23,1.6.38,2.33.46.97-1.17,1.82-2.3,2.57-3.4l-2.73-2.73Zm-13.3-3.77c-.27-.84-.46-1.64-.58-2.41-.85.75-1.72,1.54-2.6,2.41.88.87,1.75,1.66,2.6,2.41.12-.77.31-1.57.58-2.41Zm-12.76,34.55V21.45c2.36-.24,4.21-2.09,4.45-4.45h37.1c.24,2.36,2.09,4.21,4.45,4.45v69.1c-2.36.24-4.21,2.09-4.45,4.45H21.45c-.24-2.36-2.09-4.21-4.45-4.45ZM60.07,23.55c0,.28.22.5.5.5s.5-.22.5-.5-.22-.5-.5-.5-.5.22-.5.5Zm0,4.06c0,.28.22.5.5.5s.5-.22.5-.5-.22-.5-.5-.5-.5.22-.5.5Zm0,4.06c0,.28.22.5.5.5s.5-.22.5-.5-.22-.5-.5-.5-.5.22-.5.5Zm0,4.06c0,.28.22.5.5.5s.5-.22.5-.5-.22-.5-.5-.5-.5.22-.5.5Zm0,4.06c0,.28.22.5.5.5s.5-.22.5-.5-.22-.5-.5-.5-.5.22-.5.5Zm0,4.05c0,.28.22.5.5.5s.5-.22.5-.5-.22-.5-.5-.5-.5.22-.5.5Zm0,4.06c0,.28.22.5.5.5s.5-.22.5-.5-.22-.5-.5-.5-.5.22-.5.5Zm0,4.06c0,.28.22.5.5.5s.5-.22.5-.5-.22-.5-.5-.5-.5.22-.5.5Zm0,4.06c0,.28.22.5.5.5s.5-.22.5-.5-.22-.5-.5-.5-.5.22-.5.5Zm0,4.06c0,.28.22.5.5.5s.5-.22.5-.5-.22-.5-.5-.5-.5.22-.5.5Zm0,4.06c0,.28.22.5.5.5s.5-.22.5-.5-.22-.5-.5-.5-.5.22-.5.5Zm0,4.06c0,.28.22.5.5.5s.5-.22.5-.5-.22-.5-.5-.5-.5.22-.5.5Zm0,4.05c0,.28.22.5.5.5s.5-.22.5-.5-.22-.5-.5-.5-.5.22-.5.5Zm0,4.06c0,.28.22.5.5.5s.5-.22.5-.5-.22-.5-.5-.5-.5.22-.5.5Zm0,4.06c0,.28.22.5.5.5s.5-.22.5-.5-.22-.5-.5-.5-.5.22-.5.5Zm0,4.06c0,.28.22.5.5.5s.5-.22.5-.5-.22-.5-.5-.5-.5.22-.5.5Zm0,4.06c0,.28.22.5.5.5s.5-.22.5-.5-.22-.5-.5-.5-.5.22-.5.5Zm-31.92,4.06c0-.28-.22-.5-.5-.5s-.5.22-.5.5.22.5.5.5.5-.22.5-.5Zm0-4.06c0-.28-.22-.5-.5-.5s-.5.22-.5.5.22.5.5.5.5-.22.5-.5Zm0-4.06c0-.28-.22-.5-.5-.5s-.5.22-.5.5.22.5.5.5.5-.22.5-.5Zm0-4.06c0-.28-.22-.5-.5-.5s-.5.22-.5.5.22.5.5.5.5-.22.5-.5Zm0-4.06c0-.28-.22-.5-.5-.5s-.5.22-.5.5.22.5.5.5.5-.22.5-.5Zm0-4.06c0-.28-.22-.5-.5-.5s-.5.22-.5.5.22.5.5.5.5-.22.5-.5Zm0-4.05c0-.28-.22-.5-.5-.5s-.5.22-.5.5.22.5.5.5.5-.22.5-.5Zm0-4.06c0-.28-.22-.5-.5-.5s-.5.22-.5.5.22.5.5.5.5-.22.5-.5Zm0-4.06c0-.28-.22-.5-.5-.5s-.5.22-.5.5.22.5.5.5.5-.22.5-.5Zm4.12,32.45c0-.28-.22-.5-.5-.5s-.5.22-.5.5.22.5.5.5.5-.22.5-.5Zm0-4.06c0-.28-.22-.5-.5-.5s-.5.22-.5.5.22.5.5.5.5-.22.5-.5Zm0-4.06c0-.28-.22-.5-.5-.5s-.5.22-.5.5.22.5.5.5.5-.22.5-.5Zm0-4.06c0-.28-.22-.5-.5-.5s-.5.22-.5.5.22.5.5.5.5-.22.5-.5Zm0-4.06c0-.28-.22-.5-.5-.5s-.5.22-.5.5.22.5.5.5.5-.22.5-.5Zm0-4.06c0-.28-.22-.5-.5-.5s-.5.22-.5.5.22.5.5.5.5-.22.5-.5Zm0-4.05c0-.28-.22-.5-.5-.5s-.5.22-.5.5.22.5.5.5.5-.22.5-.5Zm4.11,24.34c0-.28-.22-.5-.5-.5s-.5.22-.5.5.22.5.5.5.5-.22.5-.5Zm0-4.06c0-.28-.22-.5-.5-.5s-.5.22-.5.5.22.5.5.5.5-.22.5-.5Zm0-4.06c0-.28-.22-.5-.5-.5s-.5.22-.5.5.22.5.5.5.5-.22.5-.5Zm0-4.06c0-.28-.22-.5-.5-.5s-.5.22-.5.5.22.5.5.5.5-.22.5-.5Zm0-4.06c0-.28-.22-.5-.5-.5s-.5.22-.5.5.22.5.5.5.5-.22.5-.5Zm0-4.06c0-.28-.22-.5-.5-.5s-.5.22-.5.5.22.5.5.5.5-.22.5-.5Zm0-4.05c0-.28-.22-.5-.5-.5s-.5.22-.5.5.22.5.5.5.5-.22.5-.5Zm4.12,24.34c0-.28-.22-.5-.5-.5s-.5.22-.5.5.22.5.5.5.5-.22.5-.5Zm0-4.06c0-.28-.22-.5-.5-.5s-.5.22-.5.5.22.5.5.5.5-.22.5-.5Zm0-4.06c0-.28-.22-.5-.5-.5s-.5.22-.5.5.22.5.5.5.5-.22.5-.5Zm0-4.06c0-.28-.22-.5-.5-.5s-.5.22-.5.5.22.5.5.5.5-.22.5-.5Zm0-4.06c0-.28-.22-.5-.5-.5s-.5.22-.5.5.22.5.5.5.5-.22.5-.5Zm0-4.06c0-.28-.22-.5-.5-.5s-.5.22-.5.5.22.5.5.5.5-.22.5-.5Zm4.12,20.28c0-.28-.22-.5-.5-.5s-.5.22-.5.5.22.5.5.5.5-.22.5-.5Zm0-4.06c0-.28-.22-.5-.5-.5s-.5.22-.5.5.22.5.5.5.5-.22.5-.5Zm0-4.06c0-.28-.22-.5-.5-.5s-.5.22-.5.5.22.5.5.5.5-.22.5-.5Zm0-4.06c0-.28-.22-.5-.5-.5s-.5.22-.5.5.22.5.5.5.5-.22.5-.5Zm0-4.06c0-.28-.22-.5-.5-.5s-.5.22-.5.5.22.5.5.5.5-.22.5-.5Zm0-4.06c0-.28-.22-.5-.5-.5s-.5.22-.5.5.22.5.5.5.5-.22.5-.5Zm0-4.05c0-.28-.22-.5-.5-.5s-.5.22-.5.5.22.5.5.5.5-.22.5-.5Zm4.11,24.34c0-.28-.22-.5-.5-.5s-.5.22-.5.5.22.5.5.5.5-.22.5-.5Zm0-4.06c0-.28-.22-.5-.5-.5s-.5.22-.5.5.22.5.5.5.5-.22.5-.5Zm0-4.06c0-.28-.22-.5-.5-.5s-.5.22-.5.5.22.5.5.5.5-.22.5-.5Zm0-4.06c0-.28-.22-.5-.5-.5s-.5.22-.5.5.22.5.5.5.5-.22.5-.5Zm0-4.06c0-.28-.22-.5-.5-.5s-.5.22-.5.5.22.5.5.5.5-.22.5-.5Zm0-4.06c0-.28-.22-.5-.5-.5s-.5.22-.5.5.22.5.5.5.5-.22.5-.5Zm0-4.05c0-.28-.22-.5-.5-.5s-.5.22-.5.5.22.5.5.5.5-.22.5-.5Zm4.12,24.34c0-.28-.22-.5-.5-.5s-.5.22-.5.5.22.5.5.5.5-.22.5-.5Zm0-4.06c0-.28-.22-.5-.5-.5s-.5.22-.5.5.22.5.5.5.5-.22.5-.5Zm0-4.06c0-.28-.22-.5-.5-.5s-.5.22-.5.5.22.5.5.5.5-.22.5-.5Zm0-4.06c0-.28-.22-.5-.5-.5s-.5.22-.5.5.22.5.5.5.5-.22.5-.5Zm0-4.06c0-.28-.22-.5-.5-.5s-.5.22-.5.5.22.5.5.5.5-.22.5-.5Zm0-4.06c0-.28-.22-.5-.5-.5s-.5.22-.5.5.22.5.5.5.5-.22.5-.5Zm0-4.05c0-.28-.22-.5-.5-.5s-.5.22-.5.5.22.5.5.5.5-.22.5-.5Zm0-4.06c0-.28-.22-.5-.5-.5s-.5.22-.5.5.22.5.5.5.5-.22.5-.5Zm0-4.06c0-.28-.22-.5-.5-.5s-.5.22-.5.5.22.5.5.5.5-.22.5-.5Zm3.11-40.56c0,.28.22.5.5.5s.5-.22.5-.5-.22-.5-.5-.5-.5.22-.5.5Zm0,4.06c0,.28.22.5.5.5s.5-.22.5-.5-.22-.5-.5-.5-.5.22-.5.5Zm0,4.06c0,.28.22.5.5.5s.5-.22.5-.5-.22-.5-.5-.5-.5.22-.5.5Zm0,4.06c0,.28.22.5.5.5s.5-.22.5-.5-.22-.5-.5-.5-.5.22-.5.5Zm0,4.06c0,.28.22.5.5.5s.5-.22.5-.5-.22-.5-.5-.5-.5.22-.5.5Zm0,4.06c0,.28.22.5.5.5s.5-.22.5-.5-.22-.5-.5-.5-.5.22-.5.5Zm0,4.05c0,.28.22.5.5.5s.5-.22.5-.5-.22-.5-.5-.5-.5.22-.5.5Zm0,4.06c0,.28.22.5.5.5s.5-.22.5-.5-.22-.5-.5-.5-.5.22-.5.5Zm0,4.06c0,.28.22.5.5.5s.5-.22.5-.5-.22-.5-.5-.5-.5.22-.5.5Zm0,4.06c0,.28.22.5.5.5s.5-.22.5-.5-.22-.5-.5-.5-.5.22-.5.5Zm0,4.06c0,.28.22.5.5.5s.5-.22.5-.5-.22-.5-.5-.5-.5.22-.5.5Zm0,4.06c0,.28.22.5.5.5s.5-.22.5-.5-.22-.5-.5-.5-.5.22-.5.5Zm0,4.06c0,.28.22.5.5.5s.5-.22.5-.5-.22-.5-.5-.5-.5.22-.5.5Zm0,4.05c0,.28.22.5.5.5s.5-.22.5-.5-.22-.5-.5-.5-.5.22-.5.5Zm0,4.06c0,.28.22.5.5.5s.5-.22.5-.5-.22-.5-.5-.5-.5.22-.5.5Zm0,4.06c0,.28.22.5.5.5s.5-.22.5-.5-.22-.5-.5-.5-.5.22-.5.5Zm0,4.06c0,.28.22.5.5.5s.5-.22.5-.5-.22-.5-.5-.5-.5.22-.5.5Zm0,4.06c0,.28.22.5.5.5s.5-.22.5-.5-.22-.5-.5-.5-.5.22-.5.5Zm0,4.06c0,.28.22.5.5.5s.5-.22.5-.5-.22-.5-.5-.5-.5.22-.5.5Zm-4.11-73.02c0,.28.22.5.5.5s.5-.22.5-.5-.22-.5-.5-.5-.5.22-.5.5Zm0,4.06c0,.28.22.5.5.5s.5-.22.5-.5-.22-.5-.5-.5-.5.22-.5.5Zm0,4.06c0,.28.22.5.5.5s.5-.22.5-.5-.22-.5-.5-.5-.5.22-.5.5Zm0,4.06c0,.28.22.5.5.5s.5-.22.5-.5-.22-.5-.5-.5-.5.22-.5.5Zm0,4.06c0,.28.22.5.5.5s.5-.22.5-.5-.22-.5-.5-.5-.5.22-.5.5Zm0,4.06c0,.28.22.5.5.5s.5-.22.5-.5-.22-.5-.5-.5-.5.22-.5.5Zm0,4.05c0,.28.22.5.5.5s.5-.22.5-.5-.22-.5-.5-.5-.5.22-.5.5Zm0,4.06c0,.28.22.5.5.5s.5-.22.5-.5-.22-.5-.5-.5-.5.22-.5.5Zm0,4.06c0,.28.22.5.5.5s.5-.22.5-.5-.22-.5-.5-.5-.5.22-.5.5Zm-4.12-32.45c0,.28.22.5.5.5s.5-.22.5-.5-.22-.5-.5-.5-.5.22-.5.5Zm0,4.06c0,.28.22.5.5.5s.5-.22.5-.5-.22-.5-.5-.5-.5.22-.5.5Zm0,4.06c0,.28.22.5.5.5s.5-.22.5-.5-.22-.5-.5-.5-.5.22-.5.5Zm0,4.06c0,.28.22.5.5.5s.5-.22.5-.5-.22-.5-.5-.5-.5.22-.5.5Zm0,4.06c0,.28.22.5.5.5s.5-.22.5-.5-.22-.5-.5-.5-.5.22-.5.5Zm0,4.06c0,.28.22.5.5.5s.5-.22.5-.5-.22-.5-.5-.5-.5.22-.5.5Zm0,4.05c0,.28.22.5.5.5s.5-.22.5-.5-.22-.5-.5-.5-.5.22-.5.5Zm-4.11-24.34c0,.28.22.5.5.5s.5-.22.5-.5-.22-.5-.5-.5-.5.22-.5.5Zm0,4.06c0,.28.22.5.5.5s.5-.22.5-.5-.22-.5-.5-.5-.5.22-.5.5Zm0,4.06c0,.28.22.5.5.5s.5-.22.5-.5-.22-.5-.5-.5-.5.22-.5.5Zm0,4.06c0,.28.22.5.5.5s.5-.22.5-.5-.22-.5-.5-.5-.5.22-.5.5Zm0,4.06c0,.28.22.5.5.5s.5-.22.5-.5-.22-.5-.5-.5-.5.22-.5.5Zm0,4.06c0,.28.22.5.5.5s.5-.22.5-.5-.22-.5-.5-.5-.5.22-.5.5Zm0,4.05c0,.28.22.5.5.5s.5-.22.5-.5-.22-.5-.5-.5-.5.22-.5.5Zm-4.12-24.34c0,.28.22.5.5.5s.5-.22.5-.5-.22-.5-.5-.5-.5.22-.5.5Zm0,4.06c0,.28.22.5.5.5s.5-.22.5-.5-.22-.5-.5-.5-.5.22-.5.5Zm0,4.06c0,.28.22.5.5.5s.5-.22.5-.5-.22-.5-.5-.5-.5.22-.5.5Zm0,4.06c0,.28.22.5.5.5s.5-.22.5-.5-.22-.5-.5-.5-.5.22-.5.5Zm0,4.06c0,.28.22.5.5.5s.5-.22.5-.5-.22-.5-.5-.5-.5.22-.5.5Zm0,4.06c0,.28.22.5.5.5s.5-.22.5-.5-.22-.5-.5-.5-.5.22-.5.5Zm-4.12-20.28c0,.28.22.5.5.5s.5-.22.5-.5-.22-.5-.5-.5-.5.22-.5.5Zm0,4.06c0,.28.22.5.5.5s.5-.22.5-.5-.22-.5-.5-.5-.5.22-.5.5Zm0,4.06c0,.28.22.5.5.5s.5-.22.5-.5-.22-.5-.5-.5-.5.22-.5.5Zm0,4.06c0,.28.22.5.5.5s.5-.22.5-.5-.22-.5-.5-.5-.5.22-.5.5Zm0,4.06c0,.28.22.5.5.5s.5-.22.5-.5-.22-.5-.5-.5-.5.22-.5.5Zm0,4.06c0,.28.22.5.5.5s.5-.22.5-.5-.22-.5-.5-.5-.5.22-.5.5Zm0,4.05c0,.28.22.5.5.5s.5-.22.5-.5-.22-.5-.5-.5-.5.22-.5.5Zm-4.11-24.34c0,.28.22.5.5.5s.5-.22.5-.5-.22-.5-.5-.5-.5.22-.5.5Zm0,4.06c0,.28.22.5.5.5s.5-.22.5-.5-.22-.5-.5-.5-.5.22-.5.5Zm0,4.06c0,.28.22.5.5.5s.5-.22.5-.5-.22-.5-.5-.5-.5.22-.5.5Zm0,4.06c0,.28.22.5.5.5s.5-.22.5-.5-.22-.5-.5-.5-.5.22-.5.5Zm0,4.06c0,.28.22.5.5.5s.5-.22.5-.5-.22-.5-.5-.5-.5.22-.5.5Zm0,4.06c0,.28.22.5.5.5s.5-.22.5-.5-.22-.5-.5-.5-.5.22-.5.5Zm0,4.05c0,.28.22.5.5.5s.5-.22.5-.5-.22-.5-.5-.5-.5.22-.5.5Zm-4.12-24.34c0,.28.22.5.5.5s.5-.22.5-.5-.22-.5-.5-.5-.5.22-.5.5Zm0,4.06c0,.28.22.5.5.5s.5-.22.5-.5-.22-.5-.5-.5-.5.22-.5.5Zm0,4.06c0,.28.22.5.5.5s.5-.22.5-.5-.22-.5-.5-.5-.5.22-.5.5Zm0,4.06c0,.28.22.5.5.5s.5-.22.5-.5-.22-.5-.5-.5-.5.22-.5.5Zm0,4.06c0,.28.22.5.5.5s.5-.22.5-.5-.22-.5-.5-.5-.5.22-.5.5Zm0,4.06c0,.28.22.5.5.5s.5-.22.5-.5-.22-.5-.5-.5-.5.22-.5.5Zm0,4.05c0,.28.22.5.5.5s.5-.22.5-.5-.22-.5-.5-.5-.5.22-.5.5Zm0,4.06c0,.28.22.5.5.5s.5-.22.5-.5-.22-.5-.5-.5-.5.22-.5.5Zm0,4.06c0,.28.22.5.5.5s.5-.22.5-.5-.22-.5-.5-.5-.5.22-.5.5Zm-1.65,4.41c1.21,1.21,2.4,2.29,3.56,3.28-.01.21-.06.43-.06.63,0,2.04.62,3.75,1.8,4.92,1.18,1.18,2.88,1.8,4.92,1.8.2,0,.42-.05.63-.06.99,1.16,2.07,2.35,3.28,3.56h.71c1.21-1.21,2.29-2.4,3.28-3.56.21.01.43.06.63.06,2.04,0,3.75-.62,4.92-1.8,1.18-1.18,1.8-2.88,1.8-4.92,0-.2-.05-.42-.06-.63,1.16-.99,2.35-2.07,3.56-3.28v-.71c-1.21-1.21-2.4-2.29-3.56-3.28.01-.21.06-.43.06-.63,0-2.04-.62-3.75-1.8-4.92-1.18-1.18-2.88-1.8-4.92-1.8-.2,0-.42.05-.63.06-.99-1.16-2.07-2.35-3.28-3.56h-.71c-1.21,1.21-2.29,2.4-3.28,3.56-.21-.01-.43-.06-.63-.06-2.04,0-3.75.62-4.92,1.8-1.18,1.18-1.8,2.88-1.8,4.92,0,.2.05.42.06.63-1.16.99-2.35,2.07-3.56,3.28v.71Zm-2.46-36.86c0,.28.22.5.5.5s.5-.22.5-.5-.22-.5-.5-.5-.5.22-.5.5Zm0,4.06c0,.28.22.5.5.5s.5-.22.5-.5-.22-.5-.5-.5-.5.22-.5.5Zm0,4.06c0,.28.22.5.5.5s.5-.22.5-.5-.22-.5-.5-.5-.5.22-.5.5Zm0,4.06c0,.28.22.5.5.5s.5-.22.5-.5-.22-.5-.5-.5-.5.22-.5.5Zm0,4.06c0,.28.22.5.5.5s.5-.22.5-.5-.22-.5-.5-.5-.5.22-.5.5Zm0,4.06c0,.28.22.5.5.5s.5-.22.5-.5-.22-.5-.5-.5-.5.22-.5.5Zm0,4.05c0,.28.22.5.5.5s.5-.22.5-.5-.22-.5-.5-.5-.5.22-.5.5Zm0,4.06c0,.28.22.5.5.5s.5-.22.5-.5-.22-.5-.5-.5-.5.22-.5.5Zm0,4.06c0,.28.22.5.5.5s.5-.22.5-.5-.22-.5-.5-.5-.5.22-.5.5Zm0,4.06c0,.28.22.5.5.5s.5-.22.5-.5-.22-.5-.5-.5-.5.22-.5.5Zm0,4.06c0,.28.22.5.5.5s.5-.22.5-.5-.22-.5-.5-.5-.5.22-.5.5Zm0,4.06c0,.28.22.5.5.5s.5-.22.5-.5-.22-.5-.5-.5-.5.22-.5.5Zm0,4.06c0,.28.22.5.5.5s.5-.22.5-.5-.22-.5-.5-.5-.5.22-.5.5Zm0,4.05c0,.28.22.5.5.5s.5-.22.5-.5-.22-.5-.5-.5-.5.22-.5.5Zm0,4.06c0,.28.22.5.5.5s.5-.22.5-.5-.22-.5-.5-.5-.5.22-.5.5Zm0,4.06c0,.28.22.5.5.5s.5-.22.5-.5-.22-.5-.5-.5-.5.22-.5.5Zm0,4.06c0,.28.22.5.5.5s.5-.22.5-.5-.22-.5-.5-.5-.5.22-.5.5Zm0,4.06c0,.28.22.5.5.5s.5-.22.5-.5-.22-.5-.5-.5-.5.22-.5.5Zm0,4.06c0,.28.22.5.5.5s.5-.22.5-.5-.22-.5-.5-.5-.5.22-.5.5Zm-3.12-4.06c0-.28-.22-.5-.5-.5s-.5.22-.5.5.22.5.5.5.5-.22.5-.5Zm0-4.06c0-.28-.22-.5-.5-.5s-.5.22-.5.5.22.5.5.5.5-.22.5-.5Zm0-4.06c0-.28-.22-.5-.5-.5s-.5.22-.5.5.22.5.5.5.5-.22.5-.5Zm0-4.06c0-.28-.22-.5-.5-.5s-.5.22-.5.5.22.5.5.5.5-.22.5-.5Zm0-4.06c0-.28-.22-.5-.5-.5s-.5.22-.5.5.22.5.5.5.5-.22.5-.5Zm0-4.05c0-.28-.22-.5-.5-.5s-.5.22-.5.5.22.5.5.5.5-.22.5-.5Zm0-4.06c0-.28-.22-.5-.5-.5s-.5.22-.5.5.22.5.5.5.5-.22.5-.5Zm0-4.06c0-.28-.22-.5-.5-.5s-.5.22-.5.5.22.5.5.5.5-.22.5-.5Zm0-4.06c0-.28-.22-.5-.5-.5s-.5.22-.5.5.22.5.5.5.5-.22.5-.5Zm0-4.06c0-.28-.22-.5-.5-.5s-.5.22-.5.5.22.5.5.5.5-.22.5-.5Zm0-4.06c0-.28-.22-.5-.5-.5s-.5.22-.5.5.22.5.5.5.5-.22.5-.5Zm0-4.06c0-.28-.22-.5-.5-.5s-.5.22-.5.5.22.5.5.5.5-.22.5-.5Zm0-4.05c0-.28-.22-.5-.5-.5s-.5.22-.5.5.22.5.5.5.5-.22.5-.5Zm0-4.06c0-.28-.22-.5-.5-.5s-.5.22-.5.5.22.5.5.5.5-.22.5-.5Zm0-4.06c0-.28-.22-.5-.5-.5s-.5.22-.5.5.22.5.5.5.5-.22.5-.5Zm0-4.06c0-.28-.22-.5-.5-.5s-.5.22-.5.5.22.5.5.5.5-.22.5-.5Zm0-4.06c0-.28-.22-.5-.5-.5s-.5.22-.5.5.22.5.5.5.5-.22.5-.5Zm23.15,28.35c0,.12-.04.23-.04.35l2.75-2.75c-.75-1.1-1.6-2.23-2.57-3.4-.73.07-1.5.22-2.33.46,1.49,1.73,2.19,3.59,2.19,5.34Zm-.67-6.72c-.75-.85-1.54-1.72-2.41-2.6-.87.88-1.66,1.75-2.41,2.6.77.12,1.57.31,2.41.58.84-.27,1.64-.46,2.41-.58Zm-5.47,7.05c0-.11-.02-.22-.02-.34,0-1.75.7-3.61,2.19-5.34-.83-.23-1.6-.38-2.33-.46-.97,1.17-1.82,2.3-2.57,3.4l2.73,2.73Zm3.06,3.31c-.16.14-.32.29-.46.45.14.16.29.32.45.46.16-.14.31-.29.46-.45-.14-.16-.29-.31-.45-.46Zm-3.09,4.56c0-.12.04-.23.04-.35l-2.75,2.75c.75,1.1,1.6,2.23,2.57,3.4.73-.07,1.5-.22,2.33-.46-1.49-1.73-2.19-3.59-2.19-5.34Zm3.88-3.04c.97.63,2.09,1.02,3.3,1.02,1.55,0,3.23-.63,4.85-2.08-1.62-1.45-3.3-2.08-4.85-2.08-.49,0-.96.07-1.42.18-.38,1.14-1.03,2.15-1.89,2.96Zm3.3,2.02c-.12,0-.23-.04-.35-.04l2.75,2.75c1.1-.75,2.23-1.6,3.4-2.57-.07-.73-.22-1.5-.46-2.33-1.73,1.49-3.59,2.19-5.34,2.19Zm2.39-8.87l-2.73,2.73c.11,0,.22-.02.34-.02,1.75,0,3.61.7,5.34,2.19.23-.83.38-1.6.46-2.33-1.17-.97-2.3-1.82-3.4-2.57Zm-16.48,10.22c.03,1.76.57,3.13,1.5,4.06.93.93,2.29,1.46,4.06,1.5-.88-1.09-1.68-2.15-2.37-3.18-1.03-.69-2.1-1.49-3.18-2.37Zm7.9-.33c0,1.55.63,3.23,2.08,4.85,1.45-1.62,2.08-3.3,2.08-4.85,0-.49-.07-.96-.18-1.42-1.14-.38-2.15-1.03-2.96-1.89-.63.97-1.02,2.09-1.02,3.3Zm-7.36-3.21c-.23.83-.38,1.6-.46,2.33,1.17.97,2.3,1.82,3.4,2.57l2.73-2.73c-.11,0-.22.02-.34.02-1.75,0-3.61-.7-5.34-2.19Zm-.46-4.11c.07.73.22,1.5.46,2.33,1.73-1.49,3.59-2.19,5.34-2.19.12,0,.23.04.35.04l-2.75-2.75c-1.1.75-2.23,1.6-3.4,2.57Zm7.81-.88c0,.49.07.96.18,1.42,1.14.38,2.15,1.03,2.96,1.88.63-.97,1.02-2.09,1.02-3.3,0-1.55-.63-3.23-2.08-4.85-1.45,1.62-2.08,3.3-2.08,4.85ZM15,15h50v82H15V15Zm2.5,80c0-.28-.22-.5-.5-.5s-.5.22-.5.5.22.5.5.5.5-.22.5-.5Zm46,0c0-.28-.22-.5-.5-.5s-.5.22-.5.5.22.5.5.5.5-.22.5-.5Zm-1-78c0,.28.22.5.5.5s.5-.22.5-.5-.22-.5-.5-.5-.5.22-.5.5Zm-46,0c0,.28.22.5.5.5s.5-.22.5-.5-.22-.5-.5-.5-.5.22-.5.5Zm-.5,74l.5.5c2.21,0,4,1.79,4,4l.5.5h38l.5-.5c0-2.21,1.79-4,4-4l.5-.5V21l-.5-.5c-2.21,0-4-1.79-4-4l-.5-.5H21l-.5.5c0,2.21-1.79,4-4,4l-.5.5v70Zm15.05-35c1.62,1.45,3.3,2.08,4.85,2.08.49,0,.96-.07,1.42-.18.38-1.14,1.03-2.15,1.89-2.96-.97-.63-2.09-1.02-3.3-1.02-1.55,0-3.23.63-4.85,2.08Zm4.52-9.98c-1.76.03-3.13.57-4.06,1.5-.93.93-1.46,2.29-1.5,4.06,1.09-.88,2.15-1.68,3.18-2.37.69-1.03,1.49-2.1,2.37-3.18ZM77,5v102c0,1.1-.9,2-2,2H5c-1.1,0-2-.9-2-2V5c0-1.1.9-2,2-2h70c1.1,0,2,.9,2,2Zm-5,3.5l-.5-.5H8.5l-.5.5v95l.5.5h63l.5-.5V8.5Zm-63,.5h62v94H9V9Zm6.19,91h-1.04v1h1.04v-1Zm3.17,0h-1.04v1h1.04v-1Zm3.17,0h-1.04v1h1.04v-1Zm3.17,0h-1.04v1h1.04v-1Zm3.17,0h-1.04v1h1.04v-1Zm3.17,0h-1.04v1h1.04v-1Zm3.17,0h-1.04v1h1.04v-1Zm3.17,0h-1.04v1h1.04v-1Zm3.17,0h-1.04v1h1.04v-1Zm3.17,0h-1.04v1h1.04v-1Zm3.17,0h-1.04v1h1.04v-1Zm3.17,0h-1.04v1h1.04v-1Zm3.17,0h-1.04v1h1.04v-1Zm3.17,0h-1.04v1h1.04v-1Zm3.17,0h-1.04v1h1.04v-1Zm3.17,0h-1.04v1h1.04v-1Zm3.17,0h-1.04v1h1.04v-1Zm2.13-88h1.04v-1h-1.04v1Zm1.02,82.88v-1.04h-1v1.04h1Zm-1,2.03v1.04h1v-1.04h-1Zm1-5.1v-1.04h-1v1.04h1Zm0-3.07v-1.04h-1v1.04h1Zm0-3.07v-1.04h-1v1.04h1Zm0-3.07v-1.04h-1v1.04h1Zm0-3.07v-1.04h-1v1.04h1Zm0-3.07v-1.04h-1v1.04h1Zm0-3.07v-1.04h-1v1.04h1Zm0-3.07v-1.04h-1v1.04h1Zm0-3.07v-1.04h-1v1.04h1Zm0-3.07v-1.04h-1v1.04h1Zm0-3.07v-1.04h-1v1.04h1Zm0-3.07v-1.04h-1v1.04h1Zm0-3.07v-1.04h-1v1.04h1Zm0-3.07v-1.04h-1v1.04h1Zm0-3.07v-1.04h-1v1.04h1Zm0-3.07v-1.04h-1v1.04h1Zm0-3.07v-1.04h-1v1.04h1Zm0-3.07v-1.04h-1v1.04h1Zm0-3.07v-1.04h-1v1.04h1Zm0-3.07v-1.04h-1v1.04h1Zm0-3.07v-1.04h-1v1.04h1Zm0-3.07v-1.04h-1v1.04h1Zm0-3.07v-1.04h-1v1.04h1Zm0-3.07v-1.04h-1v1.04h1Zm0-3.07v-1.04h-1v1.04h1Zm0-3.07v-1.04h-1v1.04h1Zm-1.02,85.91h1.04v-1h-1.04v1Zm-3.17-89h1.04v-1h-1.04v1Zm-3.17,0h1.04v-1h-1.04v1Zm-3.17,0h1.04v-1h-1.04v1Zm-3.17,0h1.04v-1h-1.04v1Zm-3.17,0h1.04v-1h-1.04v1Zm-3.17,0h1.04v-1h-1.04v1Zm-3.17,0h1.04v-1h-1.04v1Zm-3.17,0h1.04v-1h-1.04v1Zm-3.17,0h1.04v-1h-1.04v1Zm-3.17,0h1.04v-1h-1.04v1Zm-3.17,0h1.04v-1h-1.04v1Zm-3.17,0h1.04v-1h-1.04v1Zm-3.17,0h1.04v-1h-1.04v1Zm-3.17,0h1.04v-1h-1.04v1Zm-3.17,0h1.04v-1h-1.04v1Zm-3.17,0h1.04v-1h-1.04v1Zm-3.17,0h1.04v-1h-1.04v1Zm-.15,86h52V14H14v84ZM10.98,12h1.04v-1h-1.04v1Zm1.02,82.88v-1.04h-1v1.04h1Zm-1,2.03v1.04h1v-1.04h-1Zm1-5.1v-1.04h-1v1.04h1Zm0-3.07v-1.04h-1v1.04h1Zm0-3.07v-1.04h-1v1.04h1Zm0-3.07v-1.04h-1v1.04h1Zm0-3.07v-1.04h-1v1.04h1Zm0-3.07v-1.04h-1v1.04h1Zm0-3.07v-1.04h-1v1.04h1Zm0-3.07v-1.04h-1v1.04h1Zm0-3.07v-1.04h-1v1.04h1Zm0-3.07v-1.04h-1v1.04h1Zm0-3.07v-1.04h-1v1.04h1Zm0-3.07v-1.04h-1v1.04h1Zm0-3.07v-1.04h-1v1.04h1Zm0-3.07v-1.04h-1v1.04h1Zm0-3.07v-1.04h-1v1.04h1Zm0-3.07v-1.04h-1v1.04h1Zm0-3.07v-1.04h-1v1.04h1Zm0-3.07v-1.04h-1v1.04h1Zm0-3.07v-1.04h-1v1.04h1Zm0-3.07v-1.04h-1v1.04h1Zm0-3.07v-1.04h-1v1.04h1Zm0-3.07v-1.04h-1v1.04h1Zm0-3.07v-1.04h-1v1.04h1Zm0-3.07v-1.04h-1v1.04h1Zm0-3.07v-1.04h-1v1.04h1Zm0-3.07v-1.04h-1v1.04h1Zm-1.02,85.91h1.04v-1h-1.04v1Z"/></g></svg>