<svg xmlns="http://www.w3.org/2000/svg" width="103.951" height="103.951" viewBox="0 0 103.951 103.951">
  <path id="Icon_awesome-sad-tear" data-name="Icon awesome-sad-tear" d="M51.975.563a51.975,51.975,0,1,0,51.975,51.975A51.966,51.966,0,0,0,51.975.563ZM68.742,35.772a6.707,6.707,0,1,1-6.707,6.707A6.7,6.7,0,0,1,68.742,35.772ZM31.856,86.07A9.952,9.952,0,0,1,21.8,76.22c0-4.192,5.973-12.659,8.718-16.305a1.669,1.669,0,0,1,2.683,0c2.745,3.647,8.718,12.114,8.718,16.305A9.952,9.952,0,0,1,31.856,86.07Zm3.353-36.886a6.707,6.707,0,1,1,6.707-6.707A6.7,6.7,0,0,1,35.209,49.185ZM70.879,81.5a24.589,24.589,0,0,0-18.9-8.844c-4.443,0-4.443-6.706,0-6.706A31.181,31.181,0,0,1,76.014,77.226C78.906,80.663,73.667,84.876,70.879,81.5Z" transform="translate(0 -0.563)" fill="#fcea8b"/>
</svg>
