<?xml version="1.0" encoding="UTF-8"?><svg id="Grouped" xmlns="http://www.w3.org/2000/svg" viewBox="0 0 80 112"><defs><style>.cls-1{fill:#fff;}.cls-2{fill:#1f1f1f;}</style></defs><g id="_10"><rect id="BG-2" class="cls-1" x="0" width="80" height="112" rx="5" ry="5"/><g id="Suit"><g id="Suit-2"><g id="Suit-3"><path class="cls-2" d="m15.06,23.06c-.59-.59-1.54-.59-2.12,0l-.64.64c.16-.58.49-.87.76-1.15.59-.59.59-1.54,0-2.12-.29-.29-.67-.44-1.06-.44s-.77.15-1.06.44c-.59.59-.59,1.54,0,2.12.27.27.6.57.76,1.15l-.64-.64c-.59-.59-1.54-.59-2.12,0-.59.59-.59,1.54,0,2.12.59.59,1.54.59,2.12,0l.74-.74v.04c.02.65-.09,1.67-.8,2.39v.25h2v-.25c-.71-.71-.82-1.73-.81-2.38v-.05s.74.74.74.74c.59.59,1.54.59,2.12,0s.59-1.54,0-2.12Z"/><path class="cls-2" d="m64.94,88.94c.59.59,1.54.59,2.12,0l.64-.64c-.16.58-.49.87-.77,1.15-.59.59-.59,1.54,0,2.12.29.29.67.44,1.06.44s.77-.15,1.06-.44c.59-.59.59-1.54,0-2.12-.27-.27-.6-.57-.76-1.15l.64.64c.59.59,1.54.59,2.12,0,.59-.59.59-1.54,0-2.12-.59-.59-1.54-.59-2.12,0l-.74.74v-.04c-.02-.65.09-1.67.8-2.39v-.25h-2v.25c.71.71.82,1.73.81,2.38v.05s-.74-.74-.74-.74c-.59-.59-1.54-.59-2.12,0-.59.59-.59,1.54,0,2.12Z"/></g><g id="Value"><path class="cls-2" d="m9.17,8.96v6.84c0,.1.03.18.08.23.05.05.13.09.22.1l1.17.19v.67h-4.67v-.67l1.35-.19c.1-.02.18-.05.24-.11.06-.06.09-.13.09-.23v-5.39c-.09.03-.2.06-.33.09-.13.03-.28.06-.43.09-.15.03-.3.06-.45.08-.15.02-.29.04-.4.05l-.14-.72c.21-.05.44-.12.66-.2.23-.09.45-.18.67-.29.21-.1.42-.22.61-.34.19-.12.36-.24.5-.36l.81.15Z"/><path class="cls-2" d="m14.7,17.15c-.58,0-1.07-.11-1.46-.32-.39-.21-.71-.51-.95-.88-.24-.37-.41-.8-.51-1.3-.1-.5-.15-1.02-.15-1.58,0-.71.08-1.33.23-1.87.15-.53.37-.97.66-1.32.28-.35.63-.61,1.03-.79.4-.17.85-.26,1.34-.26.58,0,1.06.11,1.46.32.39.21.71.5.95.87.24.37.41.8.51,1.29.1.5.15,1.02.15,1.58,0,.72-.08,1.34-.23,1.88-.15.54-.37.98-.66,1.33-.28.35-.62.61-1.03.78-.4.17-.85.26-1.34.26Zm.04-7.56c-.51,0-.87.26-1.09.78-.22.52-.32,1.32-.32,2.38,0,1.15.11,2.04.32,2.67.21.63.61.95,1.19.95.51,0,.87-.26,1.09-.79s.33-1.32.33-2.38c0-1.15-.11-2.04-.32-2.68-.21-.63-.61-.95-1.19-.95Z"/><path class="cls-2" d="m70.82,103.04v-6.84c0-.1-.03-.18-.08-.23-.05-.05-.12-.09-.22-.1l-1.18-.19v-.67h4.67v.67l-1.35.19c-.1.02-.18.05-.24.11-.06.06-.09.13-.09.23v5.39c.09-.03.2-.06.33-.09.13-.03.28-.06.43-.09.15-.03.3-.06.45-.08.15-.02.29-.04.4-.05l.14.72c-.21.05-.43.12-.66.2-.23.09-.45.18-.67.29-.21.1-.42.22-.61.34-.19.12-.36.24-.5.36l-.81-.15Z"/><path class="cls-2" d="m65.29,94.85c.58,0,1.07.11,1.46.32.39.21.71.51.95.88.24.37.41.8.51,1.3.1.5.15,1.02.15,1.58,0,.71-.08,1.33-.23,1.87-.16.53-.37.97-.66,1.32-.28.35-.63.61-1.03.79-.4.17-.85.26-1.34.26-.58,0-1.06-.11-1.46-.32-.39-.21-.71-.5-.95-.87-.24-.37-.41-.8-.51-1.29-.1-.5-.15-1.02-.15-1.58,0-.72.08-1.34.23-1.88.16-.53.37-.98.66-1.33.29-.35.62-.61,1.03-.78.4-.17.85-.26,1.34-.26Zm-.04,7.56c.51,0,.88-.26,1.09-.78.21-.52.32-1.32.32-2.38,0-1.15-.11-2.04-.32-2.67-.21-.63-.61-.95-1.19-.95-.51,0-.87.26-1.09.79-.22.52-.33,1.32-.33,2.38,0,1.15.11,2.04.32,2.68.21.63.61.95,1.19.95Z"/></g></g><g id="Value-2"><path class="cls-2" d="m32.12,21.13c-1.17-1.17-3.07-1.17-4.24,0l-1.29,1.29c.32-1.16.98-1.75,1.53-2.3,1.17-1.17,1.17-3.07,0-4.24-.58-.58-1.35-.88-2.11-.88s-1.54.29-2.13.88c-1.17,1.17-1.17,3.07,0,4.24.55.55,1.21,1.14,1.53,2.3l-1.29-1.29c-1.17-1.17-3.07-1.17-4.24,0s-1.17,3.07,0,4.24c1.17,1.17,3.07,1.17,4.24,0l1.48-1.48s0,.05,0,.08c.03,1.3-.18,3.35-1.61,4.78v.5h4v-.5c-1.42-1.42-1.62-3.46-1.61-4.76,0-.04,0-.07,0-.1l1.48,1.48c1.17,1.17,3.07,1.17,4.24,0,1.17-1.17,1.17-3.07,0-4.24Z"/><path class="cls-2" d="m60.12,21.13c-1.17-1.17-3.07-1.17-4.24,0l-1.29,1.29c.32-1.16.98-1.75,1.53-2.3,1.17-1.17,1.17-3.07,0-4.24-.58-.58-1.35-.88-2.11-.88s-1.54.29-2.13.88c-1.17,1.17-1.17,3.07,0,4.24.55.55,1.21,1.14,1.53,2.3l-1.29-1.29c-1.17-1.17-3.07-1.17-4.24,0s-1.17,3.07,0,4.24c1.17,1.17,3.07,1.17,4.24,0l1.48-1.48s0,.05,0,.08c.03,1.3-.18,3.35-1.61,4.78v.5h4v-.5c-1.42-1.42-1.62-3.46-1.61-4.76,0-.04,0-.07,0-.1l1.48,1.48c1.17,1.17,3.07,1.17,4.24,0,1.17-1.17,1.17-3.07,0-4.24Z"/><path class="cls-2" d="m46.12,32.63c-1.17-1.17-3.07-1.17-4.24,0l-1.29,1.29c.32-1.16.98-1.75,1.53-2.3,1.17-1.17,1.17-3.07,0-4.24-.58-.58-1.35-.88-2.11-.88s-1.54.29-2.13.88c-1.17,1.17-1.17,3.07,0,4.24.55.55,1.21,1.14,1.53,2.3l-1.29-1.29c-1.17-1.17-3.07-1.17-4.24,0-1.17,1.17-1.17,3.07,0,4.24,1.17,1.17,3.07,1.17,4.24,0l1.48-1.48s0,.05,0,.08c.03,1.3-.18,3.35-1.61,4.78v.5h4v-.5c-1.42-1.42-1.62-3.46-1.61-4.76,0-.04,0-.07,0-.1l1.48,1.48c1.17,1.17,3.07,1.17,4.24,0,1.17-1.17,1.17-3.07,0-4.24Z"/><path class="cls-2" d="m32.12,43.13c-1.17-1.17-3.07-1.17-4.24,0l-1.29,1.29c.32-1.16.98-1.75,1.53-2.3,1.17-1.17,1.17-3.07,0-4.24-.58-.58-1.35-.88-2.11-.88s-1.54.29-2.13.88c-1.17,1.17-1.17,3.07,0,4.24.55.55,1.21,1.14,1.53,2.3l-1.29-1.29c-1.17-1.17-3.07-1.17-4.24,0s-1.17,3.07,0,4.24c1.17,1.17,3.07,1.17,4.24,0l1.48-1.48s0,.05,0,.08c.03,1.3-.18,3.35-1.61,4.78v.5h4v-.5c-1.42-1.42-1.62-3.46-1.61-4.76,0-.04,0-.07,0-.1l1.48,1.48c1.17,1.17,3.07,1.17,4.24,0,1.17-1.17,1.17-3.07,0-4.24Z"/><path class="cls-2" d="m60.12,43.13c-1.17-1.17-3.07-1.17-4.24,0l-1.29,1.29c.32-1.16.98-1.75,1.53-2.3,1.17-1.17,1.17-3.07,0-4.24-.58-.58-1.35-.88-2.11-.88s-1.54.29-2.13.88c-1.17,1.17-1.17,3.07,0,4.24.55.55,1.21,1.14,1.53,2.3l-1.29-1.29c-1.17-1.17-3.07-1.17-4.24,0s-1.17,3.07,0,4.24c1.17,1.17,3.07,1.17,4.24,0l1.48-1.48s0,.05,0,.08c.03,1.3-.18,3.35-1.61,4.78v.5h4v-.5c-1.42-1.42-1.62-3.46-1.61-4.76,0-.04,0-.07,0-.1l1.48,1.48c1.17,1.17,3.07,1.17,4.24,0,1.17-1.17,1.17-3.07,0-4.24Z"/><path class="cls-2" d="m32.12,90.87c-1.17,1.17-3.07,1.17-4.24,0l-1.29-1.29c.32,1.16.98,1.75,1.53,2.3,1.17,1.17,1.17,3.07,0,4.24-.58.58-1.35.88-2.11.88s-1.54-.29-2.13-.88c-1.17-1.17-1.17-3.07,0-4.24.55-.55,1.21-1.14,1.53-2.3l-1.29,1.29c-1.17,1.17-3.07,1.17-4.24,0s-1.17-3.07,0-4.24c1.17-1.17,3.07-1.17,4.24,0l1.48,1.48s0-.05,0-.08c.03-1.3-.18-3.35-1.61-4.78v-.5h4v.5c-1.42,1.42-1.62,3.46-1.61,4.76,0,.04,0,.07,0,.1l1.48-1.48c1.17-1.17,3.07-1.17,4.24,0,1.17,1.17,1.17,3.07,0,4.24Z"/><path class="cls-2" d="m60.12,90.87c-1.17,1.17-3.07,1.17-4.24,0l-1.29-1.29c.32,1.16.98,1.75,1.53,2.3,1.17,1.17,1.17,3.07,0,4.24-.58.58-1.35.88-2.11.88s-1.54-.29-2.13-.88c-1.17-1.17-1.17-3.07,0-4.24.55-.55,1.21-1.14,1.53-2.3l-1.29,1.29c-1.17,1.17-3.07,1.17-4.24,0s-1.17-3.07,0-4.24c1.17-1.17,3.07-1.17,4.24,0l1.48,1.48s0-.05,0-.08c.03-1.3-.18-3.35-1.61-4.78v-.5h4v.5c-1.42,1.42-1.62,3.46-1.61,4.76,0,.04,0,.07,0,.1l1.48-1.48c1.17-1.17,3.07-1.17,4.24,0,1.17,1.17,1.17,3.07,0,4.24Z"/><path class="cls-2" d="m46.12,79.37c-1.17,1.17-3.07,1.17-4.24,0l-1.29-1.29c.32,1.16.98,1.75,1.53,2.3,1.17,1.17,1.17,3.07,0,4.24-.58.58-1.35.88-2.11.88s-1.54-.29-2.13-.88c-1.17-1.17-1.17-3.07,0-4.24.55-.55,1.21-1.14,1.53-2.3l-1.29,1.29c-1.17,1.17-3.07,1.17-4.24,0-1.17-1.17-1.17-3.07,0-4.24,1.17-1.17,3.07-1.17,4.24,0l1.48,1.48s0-.05,0-.08c.03-1.3-.18-3.35-1.61-4.78v-.5h4v.5c-1.42,1.42-1.62,3.46-1.61,4.76,0,.04,0,.07,0,.1l1.48-1.48c1.17-1.17,3.07-1.17,4.24,0,1.17,1.17,1.17,3.07,0,4.24Z"/><path class="cls-2" d="m32.12,68.87c-1.17,1.17-3.07,1.17-4.24,0l-1.29-1.29c.32,1.16.98,1.75,1.53,2.3,1.17,1.17,1.17,3.07,0,4.24-.58.58-1.35.88-2.11.88s-1.54-.29-2.13-.88c-1.17-1.17-1.17-3.07,0-4.24.55-.55,1.21-1.14,1.53-2.3l-1.29,1.29c-1.17,1.17-3.07,1.17-4.24,0s-1.17-3.07,0-4.24c1.17-1.17,3.07-1.17,4.24,0l1.48,1.48s0-.05,0-.08c.03-1.3-.18-3.35-1.61-4.78v-.5h4v.5c-1.42,1.42-1.62,3.46-1.61,4.76,0,.04,0,.07,0,.1l1.48-1.48c1.17-1.17,3.07-1.17,4.24,0,1.17,1.17,1.17,3.07,0,4.24Z"/><path class="cls-2" d="m60.12,68.87c-1.17,1.17-3.07,1.17-4.24,0l-1.29-1.29c.32,1.16.98,1.75,1.53,2.3,1.17,1.17,1.17,3.07,0,4.24-.58.58-1.35.88-2.11.88s-1.54-.29-2.13-.88c-1.17-1.17-1.17-3.07,0-4.24.55-.55,1.21-1.14,1.53-2.3l-1.29,1.29c-1.17,1.17-3.07,1.17-4.24,0s-1.17-3.07,0-4.24c1.17-1.17,3.07-1.17,4.24,0l1.48,1.48s0-.05,0-.08c.03-1.3-.18-3.35-1.61-4.78v-.5h4v.5c-1.42,1.42-1.62,3.46-1.61,4.76,0,.04,0,.07,0,.1l1.48-1.48c1.17-1.17,3.07-1.17,4.24,0,1.17,1.17,1.17,3.07,0,4.24Z"/></g></g></g></svg>