<?xml version="1.0" encoding="UTF-8"?><svg id="Grouped" xmlns="http://www.w3.org/2000/svg" viewBox="0 0 80 112"><defs><style>.cls-1{fill:#fff;}.cls-2{fill:#1f1f1f;}</style></defs><g id="_10"><rect id="BG-2" class="cls-1" x="0" width="80" height="112" rx="5" ry="5"/><g id="Suit"><g id="Suit-2"><g id="Suit-3"><path class="cls-2" d="m12,19.38c-.54,1.38-3.25,1.88-3.25,4,0,.97.78,1.75,1.75,1.75.51,0,.96-.22,1.28-.57-.06.59-.25,1.29-.78,1.82v.25h2v-.25c-.53-.53-.72-1.23-.78-1.82.32.35.77.57,1.28.57.97,0,1.75-.78,1.75-1.75,0-2.12-2.71-2.62-3.25-4Z"/><path class="cls-2" d="m68,91.62c.54-1.38,3.25-1.88,3.25-4,0-.97-.78-1.75-1.75-1.75-.51,0-.96.22-1.28.57.06-.59.25-1.29.78-1.82v-.25h-2v.25c.53.53.72,1.23.78,1.82-.32-.35-.77-.57-1.28-.57-.97,0-1.75.78-1.75,1.75,0,2.12,2.71,2.62,3.25,4Z"/></g><g id="Value"><path class="cls-2" d="m9.17,8.46v6.84c0,.1.03.18.08.23.05.05.13.09.22.1l1.17.19v.67h-4.67v-.67l1.35-.19c.1-.02.18-.05.24-.11.06-.06.09-.13.09-.23v-5.39c-.09.03-.2.06-.33.09-.13.03-.28.06-.43.09-.15.03-.3.06-.45.08-.15.02-.29.04-.4.05l-.14-.72c.21-.05.44-.12.66-.2.23-.08.45-.18.67-.29.21-.1.42-.22.61-.34.19-.12.36-.24.5-.36l.81.15Z"/><path class="cls-2" d="m14.7,16.65c-.58,0-1.07-.11-1.46-.32-.39-.21-.71-.51-.95-.88-.24-.37-.41-.8-.51-1.3-.1-.5-.15-1.02-.15-1.58,0-.71.08-1.33.23-1.87.15-.53.37-.97.66-1.32.28-.35.63-.61,1.03-.79.4-.17.85-.26,1.34-.26.58,0,1.06.11,1.46.32.39.21.71.5.95.87.24.37.41.8.51,1.29.1.5.15,1.02.15,1.58,0,.72-.08,1.34-.23,1.88-.15.54-.37.98-.66,1.33-.28.35-.62.61-1.03.78-.4.17-.85.26-1.34.26Zm.04-7.56c-.51,0-.87.26-1.09.78-.22.52-.32,1.32-.32,2.38,0,1.15.11,2.04.32,2.67.21.63.61.95,1.19.95.51,0,.87-.26,1.09-.79s.33-1.32.33-2.38c0-1.15-.11-2.04-.32-2.68-.21-.63-.61-.95-1.19-.95Z"/><path class="cls-2" d="m70.82,102.54v-6.84c0-.1-.03-.18-.08-.23-.05-.05-.12-.09-.22-.1l-1.18-.19v-.67h4.67v.67l-1.35.19c-.1.02-.18.05-.24.11-.06.06-.09.13-.09.23v5.39c.09-.03.2-.06.33-.09.13-.03.28-.06.43-.09.15-.03.3-.06.45-.08.15-.02.29-.04.4-.05l.14.72c-.21.05-.43.12-.66.2-.23.08-.45.18-.67.29-.21.1-.42.22-.61.34-.19.12-.36.24-.5.36l-.81-.15Z"/><path class="cls-2" d="m65.29,94.35c.58,0,1.07.11,1.46.32.39.21.71.51.95.88.24.37.41.8.51,1.3.1.5.15,1.02.15,1.58,0,.71-.08,1.33-.23,1.87-.16.53-.37.97-.66,1.32-.28.35-.63.61-1.03.79-.4.17-.85.26-1.34.26-.58,0-1.06-.11-1.46-.32-.39-.21-.71-.5-.95-.87-.24-.37-.41-.8-.51-1.29-.1-.5-.15-1.02-.15-1.58,0-.72.08-1.34.23-1.88.16-.53.37-.98.66-1.33.29-.35.62-.61,1.03-.78.4-.17.85-.26,1.34-.26Zm-.04,7.56c.51,0,.88-.26,1.09-.78.21-.52.32-1.32.32-2.38,0-1.15-.11-2.04-.32-2.67-.21-.63-.61-.95-1.19-.95-.51,0-.87.26-1.09.79-.22.52-.33,1.32-.33,2.38,0,1.15.11,2.04.32,2.68.21.63.61.95,1.19.95Z"/></g></g><g id="Value-2"><path class="cls-2" d="m26,14.25c-1.08,2.76-6.5,3.76-6.5,8,0,1.93,1.57,3.5,3.5,3.5,1.02,0,1.93-.44,2.57-1.14-.12,1.18-.51,2.58-1.57,3.64v.5h4v-.5c-1.06-1.06-1.45-2.45-1.57-3.63.64.69,1.55,1.13,2.56,1.13,1.93,0,3.5-1.57,3.5-3.5,0-4.24-5.42-5.24-6.5-8Z"/><path class="cls-2" d="m54,14.25c-1.08,2.76-6.5,3.76-6.5,8,0,1.93,1.57,3.5,3.5,3.5,1.02,0,1.93-.44,2.57-1.14-.12,1.18-.51,2.58-1.57,3.64v.5h4v-.5c-1.06-1.06-1.45-2.45-1.57-3.63.64.69,1.55,1.13,2.56,1.13,1.93,0,3.5-1.57,3.5-3.5,0-4.24-5.42-5.24-6.5-8Z"/><path class="cls-2" d="m40,25.75c-1.08,2.76-6.5,3.76-6.5,8,0,1.93,1.57,3.5,3.5,3.5,1.02,0,1.93-.44,2.57-1.14-.12,1.18-.51,2.58-1.56,3.64v.5h4v-.5c-1.06-1.06-1.45-2.45-1.57-3.63.64.69,1.55,1.13,2.56,1.13,1.93,0,3.5-1.57,3.5-3.5,0-4.24-5.42-5.24-6.5-8Z"/><path class="cls-2" d="m26,36.25c-1.08,2.76-6.5,3.76-6.5,8,0,1.93,1.57,3.5,3.5,3.5,1.02,0,1.93-.44,2.57-1.14-.12,1.18-.51,2.58-1.57,3.64v.5h4v-.5c-1.06-1.06-1.45-2.45-1.57-3.63.64.69,1.55,1.13,2.56,1.13,1.93,0,3.5-1.57,3.5-3.5,0-4.24-5.42-5.24-6.5-8Z"/><path class="cls-2" d="m54,36.25c-1.08,2.76-6.5,3.76-6.5,8,0,1.93,1.57,3.5,3.5,3.5,1.02,0,1.93-.44,2.57-1.14-.12,1.18-.51,2.58-1.57,3.64v.5h4v-.5c-1.06-1.06-1.45-2.45-1.57-3.63.64.69,1.55,1.13,2.56,1.13,1.93,0,3.5-1.57,3.5-3.5,0-4.24-5.42-5.24-6.5-8Z"/><path class="cls-2" d="m26,96.75c-1.08-2.76-6.5-3.76-6.5-8,0-1.93,1.57-3.5,3.5-3.5,1.02,0,1.93.44,2.57,1.14-.12-1.18-.51-2.58-1.57-3.64v-.5h4v.5c-1.06,1.06-1.45,2.45-1.57,3.63.64-.69,1.55-1.13,2.56-1.13,1.93,0,3.5,1.57,3.5,3.5,0,4.24-5.42,5.24-6.5,8Z"/><path class="cls-2" d="m54,96.75c-1.08-2.76-6.5-3.76-6.5-8,0-1.93,1.57-3.5,3.5-3.5,1.02,0,1.93.44,2.57,1.14-.12-1.18-.51-2.58-1.57-3.64v-.5h4v.5c-1.06,1.06-1.45,2.45-1.57,3.63.64-.69,1.55-1.13,2.56-1.13,1.93,0,3.5,1.57,3.5,3.5,0,4.24-5.42,5.24-6.5,8Z"/><path class="cls-2" d="m40,85.25c-1.08-2.76-6.5-3.76-6.5-8,0-1.93,1.57-3.5,3.5-3.5,1.02,0,1.93.44,2.57,1.14-.12-1.18-.51-2.58-1.56-3.64v-.5h4v.5c-1.06,1.06-1.45,2.45-1.57,3.63.64-.69,1.55-1.13,2.56-1.13,1.93,0,3.5,1.57,3.5,3.5,0,4.24-5.42,5.24-6.5,8Z"/><path class="cls-2" d="m26,74.75c-1.08-2.76-6.5-3.76-6.5-8,0-1.93,1.57-3.5,3.5-3.5,1.02,0,1.93.44,2.57,1.14-.12-1.18-.51-2.58-1.57-3.64v-.5h4v.5c-1.06,1.06-1.45,2.45-1.57,3.63.64-.69,1.55-1.13,2.56-1.13,1.93,0,3.5,1.57,3.5,3.5,0,4.24-5.42,5.24-6.5,8Z"/><path class="cls-2" d="m54,74.75c-1.08-2.76-6.5-3.76-6.5-8,0-1.93,1.57-3.5,3.5-3.5,1.02,0,1.93.44,2.57,1.14-.12-1.18-.51-2.58-1.57-3.64v-.5h4v.5c-1.06,1.06-1.45,2.45-1.57,3.63.64-.69,1.55-1.13,2.56-1.13,1.93,0,3.5,1.57,3.5,3.5,0,4.24-5.42,5.24-6.5,8Z"/></g></g></g></svg>