<?xml version="1.0" encoding="UTF-8"?><svg id="Grouped" xmlns="http://www.w3.org/2000/svg" viewBox="0 0 80 112"><defs><style>.cls-1{fill:#f9cb19;}.cls-2{fill:#fff;}.cls-3{fill:#c93112;}.cls-4{fill:#1f1f1f;}.cls-5{fill:#234bc2;}</style></defs><g id="Jack"><rect id="BG-2" class="cls-2" x="0" width="80" height="112" rx="5" ry="5"/><g id="Suit"><g id="Suit-2"><g id="Suit-3"><path class="cls-4" d="m12,19.38c-.54,1.38-3.25,1.88-3.25,4,0,.97.78,1.75,1.75,1.75.51,0,.96-.22,1.28-.57-.06.59-.25,1.29-.78,1.82v.25h2v-.25c-.53-.53-.72-1.23-.78-1.82.32.35.77.57,1.28.57.97,0,1.75-.78,1.75-1.75,0-2.12-2.71-2.62-3.25-4Z"/><path class="cls-4" d="m68,91.62c.54-1.38,3.25-1.88,3.25-4,0-.97-.78-1.75-1.75-1.75-.51,0-.96.22-1.28.57.06-.59.25-1.29.78-1.82v-.25h-2v.25c.53.53.72,1.23.78,1.82-.32-.35-.77-.57-1.28-.57-.97,0-1.75.78-1.75,1.75,0,2.12,2.71,2.62,3.25,4Z"/></g><g id="Value"><path class="cls-4" d="m13.12,8.29c-.1.02-.17.06-.22.12-.05.06-.07.14-.07.23v5.53c0,.67-.04,1.25-.11,1.73-.07.48-.22.89-.44,1.24-.22.35-.53.65-.93.91-.4.26-.93.51-1.58.75l-.33-.69c.37-.24.68-.47.91-.7.23-.22.42-.47.54-.74.13-.27.21-.59.26-.95.05-.36.07-.8.07-1.3v-5.78c0-.1-.03-.18-.07-.24-.05-.06-.12-.1-.22-.12l-.92-.18v-.69h3.91v.69l-.81.18Z"/><path class="cls-4" d="m66.87,102.71c.1-.02.17-.06.22-.12.05-.06.07-.14.07-.23v-5.53c0-.67.04-1.25.11-1.73.07-.48.22-.89.44-1.24.22-.35.53-.65.93-.91.4-.26.93-.51,1.58-.75l.33.69c-.37.24-.68.47-.91.7-.23.22-.42.47-.54.74-.13.27-.22.59-.26.95-.05.36-.07.8-.07,1.3v5.78c0,.1.03.18.07.24.05.06.12.1.22.12l.92.18v.69h-3.91v-.69l.81-.18Z"/></g></g><g id="Value-2"><path class="cls-4" d="m61,10.75c-1.08,2.76-6.5,3.76-6.5,8,0,1.93,1.57,3.5,3.5,3.5,1.02,0,1.93-.44,2.57-1.14-.12,1.18-.51,2.58-1.56,3.64v.5h4v-.5c-1.06-1.06-1.45-2.45-1.57-3.63.64.69,1.55,1.13,2.56,1.13,1.93,0,3.5-1.57,3.5-3.5,0-4.24-5.42-5.24-6.5-8Z"/><path class="cls-4" d="m19,101.26c-1.08-2.76-6.5-3.76-6.5-8,0-1.93,1.57-3.5,3.5-3.5,1.02,0,1.93.44,2.57,1.14-.12-1.18-.51-2.58-1.57-3.64v-.5h4v.5c-1.06,1.06-1.45,2.45-1.57,3.63.64-.69,1.55-1.13,2.56-1.13,1.93,0,3.5,1.57,3.5,3.5,0,4.24-5.42,5.24-6.5,8Z"/></g></g><path id="Frame" class="cls-4" d="m72,80h-1V9H22v-1h49.5l.5.5v71.5ZM8,32v71.5l.5.5h49.5v-1H9V32h-1Z"/><g id="Illustration"><g id="Color"><path class="cls-3" d="m52.29,49c2.07-5.64.05-10.92-4.44-15.06-.7.74-2.02.79-2.82-.1-.57.67-1.6.93-2.52.3-.48,2.95-2.35,3.29-2.66,3.6,6.5.18,11.87,5.17,12.44,11.26Z"/><path class="cls-1" d="m49.43,62.28l-3.92,3.92c.43,1.6.69,2.96.56,4.48,1.78-1.56,3.84-3.16,5.42-4.68-.72-.9-1.35-1.82-2.06-3.72Z"/><path class="cls-3" d="m30.57,49.72l3.92-3.92c-.44-1.57-.69-2.98-.56-4.48-1.78,1.56-3.84,3.16-5.42,4.68.65.81,1.23,1.59,2.06,3.72Z"/><path class="cls-5" d="m50.17,34.88c8.43,9.7,1.83,21.96-6.42,22.08,2.94,2.29,3.18,5.33,3.68,7.9l8.24-8.24v-17.08c-1.32-2.02-3.26-3.6-5.5-4.66Z"/><path class="cls-1" d="m43.95,46.72c-2.24-2.5-6.05-2.68-8.54-.4.59,2.95.69,4.13,1.48,5.58,1.9,3.53,6.34,5.17,10.2,3.24-.06-3.54-1.32-6.34-3.14-8.42Z"/><path class="cls-5" d="m36.25,55.04c-2.92-2.27-3.15-5.17-3.7-7.9l-8.22,8.24v17.08c1.32,2.02,3.24,3.6,5.5,4.66-8.41-9.61-1.88-21.96,6.42-22.08Z"/><path class="cls-3" d="m43.11,60.1c-1.89-3.51-6.28-5.17-10.22-3.24.11,4.8,2.79,10.42,7.62,10.42,1.46,0,2.92-.54,4.08-1.6-.58-2.93-.69-4.13-1.48-5.58Z"/><path class="cls-1" d="m34.95,78.16c.67-.75,1.73-.88,2.52-.3.56-2.95,2.48-3.4,2.68-3.6-6.55-.18-11.9-5.24-12.46-11.26-2.06,5.59-.03,10.93,4.46,15.06.68-.72,1.98-.81,2.8.1Z"/><path class="cls-3" d="m41.39,97.26l-.3,1.94c1.54,0,2.83-.15,4.64-.76l-.12-1.5c-1.68.45-2.88.45-4.22.32Z"/><path class="cls-3" d="m35.03,97.42c1.5.94,3.2,1.54,5.04,1.72l.34-2.02c-1.54-.26-3.06-.78-4.48-1.54l-.9,1.84Z"/><path class="cls-3" d="m31.79,92.34l-.86.92c.88,1.42,1.98,2.64,3.26,3.58l.86-1.74c-1.2-.76-2.3-1.7-3.26-2.76Z"/><path class="cls-1" d="m32.47,91.6c3.16,3.57,8.33,5.65,13.06,4.34l-.14-1.54c-.12.02-.24.02-.36.04s-.24.06-.38.06c-.21-.11-5.96.21-11.3-3.84l-.88.94Z"/><path class="cls-5" d="m46.05,92.38c-.43-.32-2.69.16-4.82-1.2-3.46-2.14-3.38-7.41-3.38-11.74,0-.52-.44-.94-.96-.94s-.94.42-.94.94c0,5.96.95,12.83,6.7,13.88,1.56.28,2.43.16,2.64.16.6-.06.88-.48.88-.8l-.12-.3Z"/><path class="cls-5" d="m38.11,91.8c-2.63-2.63-3.16-8.66-3.16-12.36,0-1.24-1.88-1.24-1.88,0,0,5.09.85,9.59,5.04,12.36Z"/><path class="cls-5" d="m34.79,90.1c-2.22-2.88-2.72-7.01-2.72-10.66,0-1.26-1.9-1.24-1.9.02,0,4.34.98,8.22,4.62,10.64Z"/><path class="cls-5" d="m45.21,21.9c2.22,2.87,2.72,7.03,2.72,10.66,0,1.26,1.9,1.24,1.9-.02-.46-.46,1.15-6.45-4.62-10.64Z"/><path class="cls-5" d="m45.03,32.56c0,.52.44.94.96.94s.94-.42.94-.94c0-5.13-.84-9.54-5.04-12.36,2.64,2.64,3.14,8.63,3.14,12.36Z"/><path class="cls-5" d="m33.95,19.62c.06.06.2.14.48.14,7.24,0,7.72,5.69,7.72,12.8,0,1.24,1.88,1.24,1.88,0,.02-5.95-.95-12.85-6.68-13.88-1.6-.29-2.44-.16-2.64-.16-.6.06-.88.48-.88.8l.12.3Z"/><path class="cls-3" d="m48.21,19.66l.86-.92c-.9-1.42-2-2.64-3.28-3.58l-.86,1.74c1.2.76,2.3,1.7,3.28,2.76Z"/><path class="cls-3" d="m44.97,14.56c-1.5-.92-3.2-1.52-5.06-1.7l-.32,2.02c1.54.26,3.06.78,4.48,1.54l.9-1.86Z"/><path class="cls-3" d="m38.59,14.74l.32-1.94c-1.52,0-2.8.14-4.66.76l.14,1.5c1.6-.43,2.86-.45,4.2-.32Z"/><path class="cls-1" d="m47.53,20.4c-3.18-3.59-8.36-5.64-13.06-4.34l.14,1.54c.1-.02.24-.02.36-.04s.24-.06.36-.06c.04,0,.08.02.08.02,0,0,.21-.02.48-.02,3.2,0,7.62,1.46,10.76,3.84l.88-.94Z"/><path class="cls-1" d="m56.63,56.9c.2,0,.36.04.54.04v-17.08h-2v24.28c.46.8,1.96,1.59,1.96,2.82,0,.7-.6,1.32-1.3,1.28-.42,0-.35-.06-.66-.14v12.74h2v-17.69c-.21-.02-.4-.03-.54-.03-.67,0-.65-1,0-1,.14,0,.33.02.54.03v-.79c-.21-.01-.4-.02-.54-.02-.65,0-.67-1,0-1,.14,0,.33,0,.54.02v-.74c-.22-.02-.41-.03-.54-.03-.66,0-.66-1,0-1,.15,0,.34.02.54.03v-.67c-.18-.01-.33-.04-.54-.04-.67,0-.65-1,0-1Z"/><path class="cls-1" d="m22.83,48.85c.21.02.41.03.54.03.28,0,.5.22.5.5,0,.26-.24.5-.5.5-.15,0-.34-.02-.54-.03v.79c.21.01.41.02.54.02.66,0,.66,1,0,1-.15,0-.34,0-.54-.02v.74c.22.02.41.03.54.03.67,0,.65,1,0,1-.15,0-.34-.02-.54-.03v.67c.18.01.33.04.54.04.26,0,.5.22.5.5,0,.26-.24.5-.5.5-.2,0-.36-.04-.54-.04v17.08h2v-24.28c-.46-.8-1.96-1.56-1.96-2.82-.04-.56.45-1.28,1.3-1.28.4,0,.33.06.66.14v-12.74h-2v17.69Z"/></g><path id="Line" class="cls-4" d="m36.22,24.64q0,.37,0,.75c0,.28-.22.5-.49.51-.28,0-.5-.22-.51-.49q0-.37,0-.75c0-.28.22-.5.49-.51.28,0,.5.22.51.49Zm.4,17.41l-.26-.96-.97.26.26.96.97-.26Zm11.78,5.96c-.25-.58-.16-.37-.4-.92l-.92.4.4.92.92-.4Zm-9.02-7.21c-.61-.01-.37,0-1-.02l-.02,1,1,.02.02-1Zm5.58,2.28c-.5-.38-.32-.24-.8-.61l-.61.8.8.61.61-.8Zm2.02,2.26c-.37-.48-.23-.3-.61-.8l-.8.61.61.8.8-.61Zm-4.62-3.85c-.57-.2-.35-.12-.95-.33l-.33.94.95.33.33-.94Zm5.79,9.61l.99-.17-.17-.99-.99.17.17.99Zm-3.85,36.75c.28,0,.5-.23.49-.51q0-.38,0-.75c0-.28-.23-.5-.51-.49-.28,0-.5.23-.49.51q0,.38,0,.75c0,.28.23.5.51.49Zm21.5-5.81c-.94,1.62-1.87,2.53-1.89,2.56l-.71-.02-2.36-2.52c-.22-.73-.08-.13-.08-1.18,0-1.57-.51-2.92-2.07-3.14v3.59l-.5.5h-3l-.5-.5v-3.59c-.9.13-1.46.48-2.04.87-.26.18-.6.08-.73-.17-1.06-2.02-1.01-4.5,0-6.41.13-.24.43-.34.68-.21.16.08.9.74,2.1.91v-4.96c-.56-.27-1.04-.61-1.49-1.04-3.77,3.61-10.4,7.74-8.42,10.09,1.04.03,2.04.29,2.3,1.31.2.77-.12,1.59.29,1.88.27.19.29.61,0,.82.19.05.63.17.77.3.24.21.22.57-.02.76-.11.08-.27.16-.42.5-.09.21-.15.49-.15.79l.89.26.27.76c-.7,1.01-1.29,1.7-1.66,2.8-.43,1.29,1.19,1.89-.2,4.37.95.42,1.09,1.58.45,2.38l.07.05.42,4.93-.33.51c-6.87,2.51-13.23-.1-16.58-5.79l.06-.59,2.64-2.85c-3.1-2.76-3.89-6.44-3.89-10.59,0-.53.21-1.05.64-1.44-2.32-1.11-4.35-2.75-5.76-4.86h-2.73l-.5-.5v-17.68c-1.13-.23-2.03-.76-2.03-1.92,0-.24.04-.47.15-.69-.53-.61-.58-1.39-.25-2-.31-.58-.27-1.27.08-1.77-.43-.96.25-2.14,2.05-2.33v-6.99c-.5.07-.93.25-1.29.63-.6.63-.78,1.65-.78,2.52,0,.43.04.74.05.76l-.13.42-2.36,2.52-.71.02s-.96-.93-1.89-2.56c-2.57-4.45-2.43-9.4,0-13.61.94-1.62,1.87-2.53,1.89-2.56l.71.02,2.36,2.52c.15.48.13.4.12.47-.12.95-.01,2.24.56,3.03.36.49.86.75,1.47.83v-3.59l.5-.5h3l.5.5v3.59c.9-.13,1.47-.48,2.04-.87.26-.18.6-.08.73.17,1.05,2,1.02,4.47,0,6.41l-.02.03-.02.03c-.14.2-.42.27-.64.15-.16-.08-.9-.74-2.1-.91v4.96c.56.27,1.04.61,1.49,1.04,3.78-3.62,10.4-7.74,8.42-10.09-1.05-.03-2.04-.29-2.3-1.31-.2-.77.12-1.59-.29-1.88-.27-.19-.29-.61,0-.82-.19-.05-.63-.17-.78-.3-.26-.23-.21-.64.08-.8.37-.22.52-.81.51-1.25l-.89-.26-.27-.76c.71-1.02,1.3-1.71,1.66-2.8.43-1.31-1.2-1.88.2-4.37-.95-.42-1.09-1.58-.45-2.38l-.07-.05-.42-4.93.33-.51c6.84-2.5,13.21.08,16.58,5.79l-.06.59-2.64,2.85c3.1,2.76,3.89,6.44,3.89,10.59,0,.52-.21,1.05-.64,1.44,2.32,1.11,4.35,2.75,5.76,4.86h2.73l.5.5v17.68c1.13.23,2.03.76,2.03,1.92,0,.24-.04.47-.15.68.53.6.59,1.38.25,2,.33.61.25,1.3-.08,1.77.43.96-.26,2.14-2.05,2.33v6.99c.5-.07.93-.25,1.29-.63.6-.63.78-1.65.78-2.52,0-.43-.04-.74-.05-.76l.13-.42,2.36-2.52.71-.02s.96.94,1.89,2.56c2.57,4.44,2.44,9.39,0,13.61ZM25.33,36.25h2.53c-.05-.62-.19-1.2-.41-1.74-.66.4-1.34.66-2.12.74v.99Zm0,1.99c.78.09,1.46.36,2.12.75.22-.54.36-1.12.41-1.74h-2.53v.99Zm29.33,37.5h-2.53c.05.62.19,1.2.41,1.74.67-.4,1.34-.66,2.12-.74v-.99Zm0-1.99c-.78-.09-1.46-.36-2.12-.75-.22.54-.36,1.12-.41,1.74h2.53v-.99Zm4,0v.99h4.68c-.84-1.39-.55-3.79-1.64-5.81.22,2.38-.64,4.56-3.04,4.82Zm-13.98-51.9c2.26,2.95,2.75,7,2.75,10.71,0,.52.42.94.94.94.51,0,.93-.41.94-.93-.05-.3.13-3.32-.92-6.06-.79-2.05-2.01-3.43-3.71-4.65Zm-8.5,15.82c1.85-.67,3.5-1,4.17-2.92.11-.33.2-.71.25-1.16-1.41.84-2.97,1.34-4.22,1.5.41.86.23,1.74-.21,2.58Zm2.7.05c3.58.11,6.96,1.68,9.33,4.36,1.82,2.06,2.84,4.03,3.1,6.95,1.83-4.84.68-10.43-4.43-15.12-.77.79-2.06.78-2.83-.07-.67.74-1.73.84-2.51.32-.32,1.75-1.19,2.83-2.65,3.54Zm-4.79-19.21c-.64.12-.89.73-.69,1.03.12.17.34.21.55.21,5.22,0,7.11,2.96,7.56,8,.13,1.5.15,3.12.15,4.8,0,.26.1.49.28.67.6.6,1.61.16,1.61-.67,0-7.77-1.74-14.59-9.46-14.04Zm10.46,14.04c0,.83,1.01,1.26,1.61.67.17-.17.28-.4.28-.67,0-3.04-.36-5.34-.98-7.12-.83-2.41-2.14-3.98-4.04-5.25,2.66,3.07,3.13,8.32,3.13,12.37Zm1.99-12.18c-3.47-3.91-8.76-5.53-13.06-4.35l.13,1.53c.12-.01.25-.03.38-.04.12-.02.3-.04.42-.02,3.32-.1,7.91,1.28,11.25,3.83l.88-.95Zm-1.73-5.25l-.86,1.77c1.2.75,2.31,1.67,3.27,2.75l.86-.93c-.89-1.42-1.99-2.63-3.27-3.59Zm-6.21-.29c1.48.25,2.98.75,4.48,1.56l.9-1.84c-1.59-.99-3.28-1.55-5.05-1.72l-.33,2.01Zm-5.34-1.3l.13,1.47c1.33-.34,2.74-.45,4.22-.31l.32-1.93c-1.6-.02-3.16.26-4.66.77Zm7.4,18.83c0-1.82-.03-3.54-.2-5.06-.47-4.15-2-6.44-6.21-6.55-.07.11-.14.22-.2.32-.07.23-.17.68-.07.9.29.58,2.77-.16,3.91,1.27.17.22.14.53-.08.7-.22.17-.53.14-.7-.08-.71-.89-2.43-.38-3.43-.87.18.61.58,1.25.24,2.27-.32.98-.79,1.67-1.38,2.49,1.24.37,1.27.37,1.36.42.08.05-.08-.1,2.27,2.25.19.2.19.51,0,.71-.2.2-.51.2-.71,0l-2-2c-.04.39-.14.74-.34,1.08.24.05.45.06.65.05.28,0,.51.21.51.49,0,.28-.21.51-.49.51-.59.01-.45-.13-.21.21.61.86,0,2.01.52,2.4.32.23.97.26,1.36.26,1.37,0,3.4-.56,5.19-1.78Zm-6.32,12.69c2.89-2.12,6.97-1.74,9.38.99,1.87,2.12,3.19,4.98,3.38,8.52,1.23-.83,2.38-2.06,3.26-3.56.11-3.68-.78-5.88-2.9-8.27-2.69-3.05-6.7-4.43-10.4-3.95-.81.1-1.74.33-2.37.85-1.23,1.27-.79,3.7-.36,5.42Zm11.78,10.08c-.07-3.56-1.33-6.36-3.15-8.43-2.23-2.53-6.1-2.67-8.55-.42l.69,3.43c1,4.99,6.45,7.67,11.01,5.42Zm-12.22,1.69c.07,3.56,1.33,6.36,3.15,8.43,2.23,2.53,6.1,2.67,8.55.42l-.69-3.43c-1-5.01-6.47-7.66-11.01-5.42Zm-6.38-10.87c.9,1.08,1.57,2.41,2.07,3.73l3.9-3.9c-.38-1.38-.73-3.05-.56-4.48-1.74,1.53-3.85,3.15-5.41,4.65Zm-9.22-15.53c-1.08,1.99-.82,4.45-1.64,5.81h4.68v-.99c-2.41-.26-3.26-2.44-3.04-4.81Zm-.71,13.38c-1.55-2.52-.99-5.81-2.17-6.44-.14-.08-.33-.13-.6-.13-.28,0-.5-.22-.5-.5s.22-.5.5-.5c.57,0,.89-.22,1.12-.78.54-1.3.39-3.74,1.65-5.79l-1.12-1.19c-1.89,2.2-3.13,5.21-3.13,8.26,0,3.13,1.29,6.13,3.13,8.27l1.12-1.19Zm3.75-5.58v-.99h-4.68c.84,1.39.55,3.8,1.64,5.81-.22-2.36.63-4.56,3.04-4.82Zm3,9.61c-.45-.74-1.39-1.21-1.81-2.15-.49-1.09.27-1.96,1.14-1.96.19,0,.49.06.67.11v-12.69h-2v16.79c0,.28-.22.5-.5.5s-.5-.22-.5-.5v-.7c-.39.06-.9.2-1.11.54-.17.28.02.54.3.72.06.04.21.1.4.15.54.14,1.38.2,1.94.2.28,0,.5.23.5.5,0,.28-.23.5-.5.5-.74,0-2.19-.09-2.85-.5-.09.41.16.71.51.94.06.04.21.1.4.15.54.14,1.38.2,1.94.2.28,0,.5.23.5.5s-.23.5-.5.5c-.64,0-1.55-.07-2.18-.23-.67-.17-.69-.33-.69-.25,0,.34.24.59.53.78.41.27,1.81.46,2.34.46.28,0,.5.23.5.5s-.23.5-.5.5c-.65,0-1.88-.17-2.56-.45-.02.19.04.38.1.47.04.07.21.25.6.39.39.15.99.27,1.86.27.28,0,.5.22.5.5s-.22.5-.5.5c-.19,0-.36,0-.53-.02v17.06h2v-24.28Zm.9-.45c.06.08.1.19.1.3v6.25l3.48-3.48c-.88-2.5-2.48-5.36-5.1-5.73h-.04c-.16,0-.3.13-.3.28,0,.2.16.45.29.61.44.57,1.12.97,1.58,1.76Zm5.57,29.7c-2.41-2.77-3.91-6.08-3.91-9.75,0-6,4.33-12.27,10.35-12.31-.89-.71-1.65-1.6-2.23-2.66-.79-1.46-.89-2.46-1.45-5.24l-8.23,8.23v17.11c1.31,2,3.23,3.57,5.47,4.63Zm13.02-2.79c-1.82.66-3.49.99-4.17,2.92-.11.33-.2.71-.25,1.16,1.41-.84,2.96-1.34,4.22-1.5-.41-.86-.23-1.74.21-2.58Zm-2.7-.05c-3.58-.11-6.96-1.68-9.33-4.36-1.82-2.06-2.84-4.03-3.1-6.95-1.83,4.84-.68,10.43,4.43,15.12.79-.79,2.07-.78,2.83.07.67-.74,1.74-.84,2.51-.32.32-1.76,1.2-2.83,2.65-3.54Zm4.79,19.21c.64-.12.89-.73.69-1.03-.11-.17-.34-.21-.55-.21-5.22,0-7.11-2.96-7.56-8-.13-1.5-.15-3.12-.15-4.8,0-.26-.1-.49-.28-.67-.6-.6-1.61-.17-1.61.67,0,7.74,1.72,14.6,9.46,14.04Zm-10.46-14.04c0-.52-.42-.94-.94-.94-.52,0-.94.42-.94.94,0,4.05.57,8.36,3.5,11.17.47.45.97.84,1.51,1.2-2.65-3.07-3.13-8.31-3.13-12.37Zm-.14,10.71c-2.26-2.95-2.75-7-2.75-10.71,0-.52-.42-.94-.94-.94-.51,0-.93.41-.94.93.05.28-.12,3.34.92,6.06.79,2.05,2.01,3.43,3.71,4.65Zm-1.85,1.47c3.47,3.91,8.76,5.53,13.06,4.35l-.13-1.53c-.12.02-.25.03-.38.04-.12.02-.3.04-.42.02-3.77.12-8.28-1.56-11.25-3.83l-.88.95Zm1.73,5.25l.86-1.77c-1.2-.75-2.31-1.67-3.27-2.75l-.86.93c.89,1.42,1.99,2.63,3.27,3.59Zm6.21.29c-1.48-.25-2.98-.75-4.48-1.56l-.9,1.84c1.6,1,3.3,1.55,5.05,1.72l.33-2.01Zm5.34,1.3l-.13-1.47c-1.34.34-2.75.45-4.22.31l-.32,1.93c1.61.02,3.17-.26,4.66-.77Zm-7.4-18.83c0,1.82.03,3.54.2,5.06.47,4.15,1.99,6.44,6.21,6.55.07-.11.14-.22.2-.32.07-.23.17-.68.07-.9-.29-.58-2.77.16-3.91-1.27-.17-.22-.14-.53.08-.7.22-.17.53-.14.7.08.71.89,2.43.37,3.43.87-.18-.6-.58-1.25-.24-2.27.32-.98.79-1.67,1.38-2.49-1.24-.37-1.27-.37-1.36-.42-.08-.05.03.05-2.27-2.25-.2-.2-.2-.51,0-.71s.51-.2.71,0l2,2c.04-.39.14-.74.34-1.08-.24-.04-.45-.06-.65-.05-.28,0-.51-.21-.51-.49,0-.28.21-.51.49-.51.59-.01.45.13.21-.21-.6-.85,0-2.02-.52-2.4-.32-.23-.97-.26-1.36-.26-1.37,0-3.4.56-5.19,1.78Zm6.32-12.69c-2.89,2.12-6.97,1.74-9.38-.99-1.87-2.12-3.19-4.98-3.38-8.52-1.23.83-2.38,2.06-3.26,3.56-.11,3.66.78,5.87,2.9,8.27,2.69,3.05,6.7,4.43,10.4,3.95.81-.1,1.74-.33,2.37-.85,1.23-1.27.79-3.7.36-5.42Zm.77-2.07l8.23-8.23v-17.11c-1.31-2-3.23-3.57-5.47-4.63,2.41,2.77,3.91,6.08,3.91,9.75,0,6.01-4.34,12.27-10.35,12.31.89.71,1.65,1.6,2.23,2.66.79,1.45.88,2.41,1.45,5.24Zm6.05,1.17c-.9-1.08-1.57-2.41-2.07-3.73l-3.9,3.9c.38,1.38.73,3.05.56,4.48,1.74-1.53,3.85-3.15,5.41-4.65Zm3.81,1.22h.04c.16,0,.3-.13.3-.28,0-.2-.16-.46-.29-.61-.44-.57-1.13-.98-1.58-1.76-.06-.08-.1-.19-.1-.3v-6.25l-3.48,3.48c.88,2.5,2.49,5.36,5.1,5.73Zm2.37-3.2v.7c.39-.06.9-.2,1.11-.54.17-.28-.02-.54-.3-.72-.06-.04-.21-.1-.4-.15-.54-.14-1.38-.2-1.94-.2-.28,0-.5-.23-.5-.5,0-.28.23-.5.5-.5.73,0,2.18.09,2.85.5.09-.41-.16-.71-.51-.94-.06-.04-.21-.1-.4-.15-.54-.14-1.38-.2-1.94-.2-.28,0-.5-.23-.5-.5s.23-.5.5-.5c.64,0,1.55.07,2.18.23.67.17.69.33.69.25,0-.34-.24-.59-.53-.78-.41-.27-1.81-.46-2.34-.46-.28,0-.5-.23-.5-.5s.23-.5.5-.5c.65,0,1.88.17,2.56.45.02-.19-.04-.38-.1-.47-.04-.07-.22-.25-.6-.39-.39-.15-.99-.27-1.86-.27-.28,0-.5-.22-.5-.5s.22-.5.5-.5c.19,0,.36,0,.53.02v-17.06h-2v24.28c.36.58.98.97,1.47,1.6,1.16,1.5.04,2.64-.98,2.5-.17-.02-.33-.06-.49-.1v12.69h2v-16.79c0-.28.22-.5.5-.5s.5.22.5.5Zm3.04,17.51c1.08-1.99.82-4.44,1.64-5.81h-4.68v.99c2.41.26,3.26,2.44,3.04,4.81Zm4.96-6.3c0-3.12-1.28-6.12-3.13-8.27l-1.12,1.19c1.39,2.26,1.08,5.11,1.84,6.15.23.31.52.42.92.42.28,0,.5.22.5.5s-.22.5-.5.5c-.4,0-.7.1-.93.43-.75,1.06-.46,3.9-1.84,6.14l1.12,1.19c1.85-2.15,3.13-5.17,3.13-8.26Zm-23.28-5.29l.26.96.97-.26-.26-.96-.97.26Zm-5.73.55c.57.2.35.12.95.33l.33-.94-.95-.33-.33.94Zm2.97.7c.61.01.37,0,1,.02l.02-1-1-.02-.02,1Zm-5.58-2.28c.49.37.31.24.8.61l.61-.8-.8-.61-.61.8Zm-2.02-2.26c.38.5.23.3.61.8l.8-.61-.61-.8-.8.61Zm-1.43-2.66c.25.58.15.35.4.92l.92-.4-.4-.92-.92.4Zm.26-3.1l-.99.17.17.99.99-.17-.17-.99Z"/></g></g></svg>