<?xml version="1.0" encoding="UTF-8"?><svg id="Grouped" xmlns="http://www.w3.org/2000/svg" viewBox="0 0 80 112"><defs><style>.cls-1{fill:#f9cb19;}.cls-2{fill:#fff;}.cls-3{fill:#c93112;}.cls-4{fill:#1f1f1f;}.cls-5{fill:#234bc2;}</style></defs><g id="Queen"><rect id="BG-2" class="cls-2" y="0" width="80" height="112" rx="5" ry="5"/><g id="Suit"><g id="Suit-2"><g id="Suit-3"><path class="cls-3" d="m12,26.75c-.9-1.4-2.1-2.6-3.5-3.5,1.4-.9,2.6-2.1,3.5-3.5.9,1.4,2.1,2.6,3.5,3.5-1.4.9-2.6,2.1-3.5,3.5Z"/><path class="cls-3" d="m68,83.75c.9,1.4,2.1,2.6,3.5,3.5-1.4.9-2.6,2.1-3.5,3.5-.9-1.4-2.1-2.6-3.5-3.5,1.4-.9,2.6-2.1,3.5-3.5Z"/></g><g id="Value"><path class="cls-3" d="m15.34,18.68c-.42,0-.79-.09-1.09-.27-.3-.18-.58-.39-.84-.63s-.51-.49-.77-.75c-.25-.26-.54-.46-.87-.62-.63,0-1.19-.12-1.66-.34-.47-.22-.87-.52-1.18-.92s-.54-.87-.7-1.43c-.16-.56-.23-1.18-.23-1.87,0-.77.1-1.45.29-2.06.19-.61.46-1.11.82-1.53.36-.41.79-.73,1.31-.95.52-.22,1.09-.33,1.73-.33s1.21.11,1.69.32c.48.21.88.52,1.2.91.32.39.55.87.71,1.43.16.56.24,1.19.24,1.88,0,1.23-.25,2.24-.74,3.05-.5.81-1.17,1.35-2.04,1.62.21.08.41.17.59.28s.37.22.56.34c.3.2.59.37.87.51.29.14.61.2.95.2.11,0,.21,0,.31-.01s.19-.02.27-.03l.16.6c-.13.13-.34.26-.64.39s-.61.2-.96.2Zm-3.33-10.92c-.72,0-1.27.32-1.66.96-.39.64-.59,1.64-.59,3.02s.19,2.31.55,2.95c.37.64.92.96,1.66.96s1.27-.32,1.67-.97c.39-.64.59-1.65.59-3.03s-.19-2.31-.55-2.94c-.37-.64-.92-.95-1.66-.95Z"/><path class="cls-3" d="m64.65,91.82c.42,0,.79.09,1.09.27.3.18.58.39.84.63.26.24.51.49.77.75.25.26.54.46.87.62.63,0,1.19.12,1.66.34.47.22.87.52,1.18.92.31.39.54.87.7,1.43.16.56.23,1.18.23,1.87,0,.77-.1,1.45-.29,2.06-.19.61-.46,1.12-.82,1.53-.36.41-.79.73-1.31.95-.52.22-1.09.33-1.73.33s-1.21-.11-1.69-.32c-.48-.21-.88-.52-1.2-.91-.32-.39-.55-.87-.71-1.43-.16-.56-.24-1.19-.24-1.88,0-1.22.25-2.24.74-3.05.5-.81,1.17-1.35,2.04-1.62-.21-.08-.41-.17-.59-.28-.19-.11-.37-.22-.56-.34-.3-.2-.59-.37-.87-.51-.29-.13-.61-.21-.95-.21-.11,0-.21,0-.31.01-.1,0-.19.02-.27.04l-.16-.6c.13-.13.34-.26.64-.39s.61-.2.96-.2Zm3.33,10.92c.72,0,1.27-.32,1.66-.96.39-.64.59-1.64.59-3.02s-.19-2.31-.55-2.95c-.37-.64-.92-.96-1.66-.96s-1.27.32-1.67.97c-.39.64-.59,1.65-.59,3.02s.19,2.31.55,2.95c.37.64.92.95,1.66.95Z"/></g></g><g id="Value-2"><path class="cls-3" d="m61,26c-1.8-2.81-4.19-5.2-7-7,2.81-1.8,5.2-4.19,7-7,1.8,2.81,4.19,5.2,7,7-2.81,1.8-5.2,4.19-7,7Z"/><path class="cls-3" d="m26,93c-2.81,1.8-5.2,4.19-7,7-1.8-2.81-4.19-5.2-7-7,2.81-1.8,5.2-4.19,7-7,1.8,2.81,4.19,5.2,7,7Z"/></g></g><path id="Frame" class="cls-4" d="m72,80h-1V9H22v-1h49.5l.5.5v71.5ZM8,32v71.5l.5.5h49.5v-1H9V32h-1Z"/><g id="Illustration"><g id="Color"><path class="cls-1" d="m57.87,73.62c-.38-.18-.7-.4-.98-.64.3-1.28.18-2.36.04-3,.21,0,.43.05.66,0,.54.66.86,1.9.28,3.64Z"/><path class="cls-1" d="m54.25,75.9c-.32-1.1-.62-3.44,1.26-6.1.06,0,.18.04.38.06.2.72.72,3.32-1.64,6.04Z"/><path class="cls-5" d="m58.63,52.74c-.58,4.6-2.72,9.04-6.32,12.62-2.37-2.97-4.69-6.35-8.34-8.34,4.77.3,12.01-.39,14.66-4.28Z"/><path class="cls-3" d="m47.55,69c-2.22,1.32-4.74,2.4-7.48,3.2-.1-.68-.46-1.28-1.04-1.66-.02-.02-.04-.02-.06-.04,2.42-.94,4.78-2.16,6.96-3.58.46.58,1.62,2.08,1.62,2.08Z"/><path class="cls-5" d="m45.15,91.38c0,.28-.24.7-.7.7-5.38,0-8.22-3.16-8.22-9.1,0-2.93-.32-3.92-.32-4.38-.53-2.72,2.03-5.24,4.18-5.24,1.69,0,2.4,1.24,2.18,2.36-.88-.42-1.76-.4-2.54.02-1.56.82-2.44,3.16-2.46,6.42l-.02.02c0,6.02,3.16,8.92,7.54,8.92.3,0,.36.1.36.28Z"/><path class="cls-5" d="m39.61,72.44c-1.74.22-3.56,1.51-4.34,3.46-.06-.18-.12-.38-.18-.58v-.04c-.88-2.74,2.4-4.87,3.88-3.92.38.26.6.64.64,1.08Z"/><path class="cls-5" d="m35.73,71c-.66.5-1.24,1.2-1.56,2.06-.48-1-1.06-1.92-1.72-2.78,1.7-1.17,3.09-.42,3.28.72Z"/><path class="cls-1" d="m45.29,66.14c-2.56,1.66-5.4,3.06-8.24,4.02,0,0,0,.02-.02.02-.12.02-.24.06-.36.08,1.12-2.84,1.92-5.92,2.24-8.72,2.5.42,4.18,1.9,6.38,4.6Z"/><path class="cls-3" d="m37.91,61.42c-.3,2.68-1.06,5.64-2.14,8.4-.98-1.48-2.94-1.41-4.46-.32-1.94-2.09-2.02-2.18-2.76-3.12,3.65-2.94,5.92-5.17,9.36-4.96Z"/><path class="cls-1" d="m42.41,92.94c-3.34.46-6.76-.34-9.4-2.24.04-1.56-.14-8.84-6.06-13.32-5.57-4.22-7.01-9.8-1.86-14.56.18.46,1.16,2.2,2.36,3.8v.02c.66.86,1.46,1.8,2.4,2.74,3.24,3.24,4.88,7.82,4.88,13.6s2.74,9.38,7.68,9.96Z"/><path class="cls-1" d="m24.75,42.18c-.08-.02-.2-.04-.38-.08-.2-.7-.72-3.32,1.64-6.02.3,1.1.6,3.44-1.26,6.1Z"/><path class="cls-1" d="m23.31,41.98h-.64c-.56-.66-.88-1.88-.28-3.62.38.18.68.4.98.62-.3,1.28-.2,2.36-.06,3Z"/><path class="cls-5" d="m36.21,54.9c-4.81-.24-11.78.4-14.58,4.32.58-4.58,2.7-9.04,6.32-12.6,2.28,3.11,5.08,6.53,8.26,8.28Z"/><path class="cls-1" d="m51.71,45.58c-4.03,3.35-6.17,5.17-9.38,4.98.32-2.7,1.08-5.66,2.14-8.4,1.14,1.49,2.9,1.44,4.5.32,1.28,1.5,1.25,1.25,2.74,3.1Z"/><path class="cls-3" d="m43.59,41.7c-1.12,2.86-1.92,5.94-2.24,8.74-2.52-.44-4.18-1.92-6.38-4.6,2.56-1.66,5.48-3.08,8.54-4.1.02,0,.02-.02.02-.02.02,0,.06-.02.06-.02Z"/><path class="cls-1" d="m41.33,41.48c-2.5.98-4.88,2.18-7,3.56-.46-.58-1.62-2.08-1.62-2.08,2.22-1.32,4.72-2.38,7.48-3.18.09.74.56,1.41,1.14,1.7Z"/><path class="cls-1" d="m48.69,18.4c-.32.66-.58,1.4-.76,2.1-3.44-2.54-8.04-3.3-12.32-2.06.04-.8-.04-1.7-.18-2.56,1.37,1.02,2.8.86,3.32-.78,0,0,.04,0,.06-.02.96,1.73,2.65,1.59,3.72.02.54,2.06,2.22,2.37,3.44,1.31h.04c-.06,1.5.85,2.38,2.68,1.99Z"/><path class="cls-1" d="m31.56,93.57c.32-.66.58-1.4.76-2.1,3.44,2.54,8.04,3.3,12.32,2.06-.04.8.04,1.7.18,2.56-1.37-1.02-2.8-.86-3.32.78,0,0-.04,0-.06.02-.96-1.73-2.65-1.59-3.72-.02-.54-2.06-2.22-2.37-3.44-1.31h-.04c.06-1.5-.85-2.38-2.68-1.99Z"/><path class="cls-5" d="m47.81,41.7c-1.66,1.15-3.11.43-3.3-.72.68-.5,1.26-1.2,1.56-2.06.5,1,1.08,1.92,1.74,2.78Z"/><path class="cls-5" d="m43.71,40.32c-1.69,1.1-2.95.33-3.06-.78,1.6-.21,3.43-1.34,4.34-3.48.06.2.12.4.18.58,0,0-.02.04,0,.06.64,2.04-.94,3.3-1.46,3.62Z"/><path class="cls-5" d="m40.13,38.62v-.02c-1.24.14-2.38-.92-2.16-2.34.88.4,1.78.4,2.56-.02,1.54-.84,2.45-3.18,2.46-6.44.02-6.13-3.22-8.94-7.54-8.94-.23,0-.36-.05-.36-.28,0-.28.26-.68.72-.68,5.36,0,8.2,3.14,8.2,9.1,0,1.52.12,2.98.34,4.36.47,2.84-2.05,5.26-4.22,5.26Z"/><path class="cls-1" d="m55.17,49.16c-.63-1.26-1.3-2.41-2.36-3.82h-.02c-.64-.86-1.44-1.8-2.38-2.74-3.24-3.24-4.9-7.82-4.9-13.6s-2.72-9.4-7.68-9.98c3.36-.44,6.78.36,9.42,2.24-.04,1.58.14,8.86,6.04,13.34,5.63,4.24,7.01,9.77,1.88,14.56Z"/></g><path id="Line" class="cls-4" d="m37.03,25.01v.77c0,.28-.21.5-.49.5-.28,0-.5-.22-.5-.5,0-.26,0-.51,0-.77,0-.28.22-.5.5-.5.28,0,.5.22.5.5Zm13.9,24.74c.28,0,.5-.22.5-.5s-.22-.5-.5-.5-.5.22-.5.5.22.5.5.5Zm-19.17-1.86c.21-.17.25-.49.07-.7-.17-.21-.49-.25-.7-.07-.21.17-.25.49-.07.7.17.21.49.25.7.07Zm13.95,5.44c.26-.11.38-.4.27-.65-.11-.26-.4-.38-.65-.27-.26.11-.38.4-.27.65.11.26.4.38.65.27Zm2.93-1.67c.23-.16.28-.47.12-.7-.16-.23-.47-.28-.7-.12-.23.16-.28.47-.12.7.16.23.47.28.7.12Zm-6.26,2.42c.28-.01.49-.25.47-.52-.01-.28-.25-.49-.52-.48-.28.01-.49.25-.48.52.01.28.25.49.52.48Zm-5.83-1.8c.15-.23.07-.54-.16-.69-.23-.15-.54-.08-.69.16-.15.23-.08.54.16.69.23.15.54.08.69-.16Zm-2.59-1.97c.2-.19.2-.51,0-.71-.19-.2-.51-.2-.71,0s-.2.51,0,.71c.19.2.51.2.71,0Zm5.04,3.45c.27.06.54-.1.6-.37.06-.27-.1-.54-.37-.6-.27-.06-.54.1-.6.37-.06.27.1.54.37.6Zm-9.57-8.33c.28,0,.5-.22.5-.5s-.22-.5-.5-.5-.5.22-.5.5.22.5.5.5Zm14.29,42.03c.28,0,.5-.23.5-.5,0-.26,0-.51,0-.77,0-.28-.23-.5-.5-.5-.28,0-.5.23-.49.5v.77c0,.28.23.5.51.5Zm-14.41-25.24c-.28,0-.5.22-.5.5s.22.5.5.5.5-.22.5-.5-.22-.5-.5-.5Zm5.22-3.57c-.26.11-.38.4-.27.65.11.26.4.38.65.27.26-.11.38-.4.27-.65-.11-.26-.4-.38-.65-.27Zm3.33-.75c-.28.01-.49.25-.48.52.01.28.25.49.52.47.28-.01.49-.25.47-.52-.01-.28-.25-.49-.52-.47Zm5.83,1.8c-.15.23-.08.54.16.69.23.15.54.08.69-.16.15-.23.08-.54-.16-.69-.23-.15-.54-.08-.69.16Zm2.59,1.97c-.2.19-.2.51,0,.71.19.2.51.2.71,0s.2-.51,0-.71c-.19-.2-.51-.2-.71,0Zm2.12,3.12c.17.21.49.25.7.07s.25-.49.07-.7c-.17-.21-.49-.25-.7-.07-.21.17-.25.49-.07.7Zm-7.16-6.57c-.27-.06-.54.1-.6.37-.06.27.1.54.37.6.27.06.54-.1.6-.37.06-.27-.1-.54-.37-.6Zm-9.64,2.1c-.23.16-.28.47-.12.7.16.23.47.28.7.12.23-.16.28-.47.12-.7-.16-.23-.47-.28-.7-.12Zm19.21,7.24c.28,0,.5-.22.5-.5s-.22-.5-.5-.5-.5.22-.5.5.22.5.5.5Zm13.59,12.98l-.14.69c-1,.67-1.97,1.03-2.84,1.14-.44.77-1.14,1.52-2.15,2.19l-.69-.14c-.67-1-1.03-1.97-1.14-2.84-.77-.44-1.52-1.14-2.19-2.15l.14-.69c.82-.55,1.61-.89,2.34-1.06-.39-.72-.75-1.64-1.03-2.89-.41.78-.99,1.6-1.8,2.39l-.79-.12s-.6-1.15-.6-2.87c0-1.26.32-2.84,1.39-4.53h-5.47c-2.07,1.27-4.41,2.34-7,3.18,1.38.87,1.7,2.58,1.09,3.83l-.73.2c-.17-.11-.33-.2-.49-.27l.22,1.2c.78-.3,1.9-.62,2.7-.4,1.42.39.78,2.16,1.11,2.5.02.02.05.04.1.07.37.17.39.69.04.89.21.05.73.22.89.37.25.24.18.64-.11.8-.31.17-.41.63-.4.99l.8.23.27.76c-.61.9-1.17,1.67-1.5,2.69-.41,1.29.35,1.81-.11,3.79.53.55.42,1.42-.09,2l.49.4c-.14,1.05-.1,2.41.14,3.47,1.33,0,2,1.62,1.06,2.56-.94.94-2.56.28-2.56-1.06,0-.26.07-.51.18-.72-.22-.2-.43-.36-.63-.47-.77-.44-1.19-.23-1.44.37.47.28.73.78.73,1.28,0,1.34-1.63,2-2.56,1.06-.55-.55-.6-1.44-.07-2.05-.5-.96-1.3-.87-1.94-.03.89.94.23,2.51-1.08,2.51-.82,0-1.49-.67-1.49-1.49,0-.49.24-.98.7-1.26-.26-1-.95-1.46-1.78-.79.19.42.17.88-.02,1.28-.6-.3-.59-.3,0,0-.13.26-.33.47-.56.61-.99.6-2.26-.11-2.26-1.28,0-.65.43-1.27,1.13-1.44.02-.43-.08-.78-.48-.92-.43-.15-1.02,0-1.45.16.25.96-.48,1.87-1.44,1.87-.82,0-1.49-.67-1.49-1.49,0-1.03,1.03-1.76,2.01-1.4.53-.9.9-2.15,1.12-3.17l.47-.16c-.04-2.93-.87-6.21-2.55-8.81-.78-1.2-1.79-2.36-3.1-3.35-1.6-1.21-2.83-2.47-3.71-3.76-.04-.03-.07-.06-.1-.1-5.16-7.12-5.5-16.37-.91-23.89-.4,0-1.17-.01-1.19-.01-2.09,0-2.73-1.36-2.2-2.37-.24-.44-.21-.93,0-1.34-.24-.44-.22-.93,0-1.34-.46-.85.04-1.97,1.23-2.25.02-.38.23-.71.61-.9-.83-1.41-.56-3.21.07-4.72l.65-.27c.29.12.56.25.81.38-.2-.93-.48-1.88-.92-2.72-.44.59-1.04,1.17-1.82,1.69l-.69-.14c-.67-1-1.03-1.97-1.14-2.84-.77-.44-1.52-1.14-2.19-2.15l.14-.69c1-.67,1.97-1.03,2.84-1.14.44-.77,1.14-1.52,2.15-2.19l.69.14c.67,1,1.03,1.97,1.14,2.84.77.44,1.52,1.14,2.19,2.15l-.14.69c-.82.55-1.61.89-2.34,1.06.39.72.75,1.64,1.03,2.89.41-.78.99-1.6,1.8-2.39l.79.12s.6,1.15.6,2.87c0,1.26-.32,2.84-1.39,4.53h5.47c2.07-1.27,4.41-2.34,7-3.18-1.38-.87-1.7-2.58-1.09-3.83l.73-.2c.17.11.33.2.49.27l-.22-1.2c-1.14.43-2.97.88-3.5-.23-.34-.73-.09-1.64-.32-1.88-.02-.02-.05-.04-.1-.07-.37-.17-.39-.69-.04-.89-.23-.06-.65-.2-.83-.32-.29-.2-.29-.61-.01-.82.1-.07.23-.12.34-.37.08-.17.12-.39.12-.65l-.8-.23-.27-.76c.61-.9,1.17-1.67,1.5-2.69.41-1.28-.35-1.83.11-3.79-.53-.55-.42-1.42.09-2l-.49-.4c.14-1.05.1-2.41-.14-3.47-1.33,0-2-1.62-1.06-2.56.58-.59,1.54-.59,2.12,0,.46.46.58,1.19.26,1.78.51.46,1.33.99,1.81.5.09-.09.17-.22.25-.41-.85-.51-.96-1.67-.29-2.34.94-.94,2.56-.28,2.56,1.06,0,.38-.14.72-.37.99.5.95,1.3.88,1.94.03-.89-.95-.22-2.51,1.08-2.51.82,0,1.49.67,1.49,1.49,0,.49-.24.98-.7,1.26.26,1,.95,1.46,1.78.79-.58-1.28.77-2.57,2.02-1.95,1.22.61,1.06,2.43-.3,2.78-.02.43.08.78.48.92.43.15,1.02,0,1.45-.16-.14-.53.03-1.07.39-1.43.58-.58,1.53-.58,2.11,0,.58.58.58,1.53,0,2.11-.4.4-1,.55-1.57.34-.53.9-.9,2.15-1.12,3.17l-.47.16c0,.71.08,1.96.4,3.45.74,3.49,2.44,6.58,5.26,8.71,1.6,1.21,2.83,2.47,3.71,3.76.04.03.07.06.1.1,5.16,7.12,5.5,16.36.91,23.89.4,0,1.17.01,1.19.01,2.1,0,2.73,1.36,2.2,2.37.24.44.21.93,0,1.34.24.44.22.93,0,1.34.49.9-.1,1.98-1.23,2.25-.02.37-.22.71-.61.9.83,1.41.56,3.21-.07,4.72l-.65.27c-.29-.12-.56-.25-.81-.38.2.93.48,1.88.92,2.72.44-.59,1.04-1.17,1.82-1.69l.69.14c.67,1,1.03,1.97,1.14,2.84.77.44,1.52,1.14,2.19,2.15Zm-15.4-63.27c.19.19.5.19.69,0,.19-.19.19-.5,0-.69-.19-.19-.5-.19-.69,0-.19.2-.19.5,0,.69Zm-15.11-3.15c0-.28-.22-.5-.5-.5-.28,0-.5.22-.5.5,0,.28.22.5.5.5.28,0,.5-.22.5-.5Zm-14.93,16.49c-.59.07-1.26.29-2,.72.35.46.71.81,1.06,1.09.11-.67.41-1.32.94-1.8Zm1.85,3.78c-.68-.11-1.33-.42-1.8-.94.07.59.29,1.26.72,2,.46-.35.81-.71,1.09-1.06Zm.72-2.15c-.08-.59-.4-1.06-.89-1.34-.59.08-1.06.4-1.34.89.08.59.4,1.05.89,1.34.59-.08,1.06-.4,1.34-.89Zm.28-1.67c-.07-.59-.29-1.26-.72-2-.46.35-.81.71-1.09,1.06.68.11,1.33.42,1.8.94Zm.04,2.84c.59-.07,1.26-.29,2-.72-.35-.46-.71-.81-1.06-1.09-.11.68-.42,1.33-.94,1.8Zm9.38,61.32c-.19-.19-.5-.19-.69,0-.19.2-.19.5,0,.69.19.19.5.19.69,0,.19-.19.19-.5,0-.69Zm15.11,3.15c0,.28.22.5.5.5.28,0,.5-.22.5-.5,0-.28-.22-.5-.5-.5-.28,0-.5.22-.5.5Zm13.34-45.2c-2.74,3.98-9.74,4.63-14.57,4.4,3.36,1.87,5.75,5.13,8.19,8.3,3.7-3.64,5.82-8.12,6.38-12.7Zm-1.34-10.03c.05,3.03-1.61,5.66-3.94,7.66-.03.04-.07.07-.11.1-2.78,2.36-5.57,4.7-8.86,5.68,6.3.25,14.66-1.12,14.34-7.4-.16-2.05-.64-4.08-1.43-6.03Zm-12.1-21.4c-2.5-1.8-5.85-2.72-9.38-2.25,5.41.64,7.65,4.61,7.65,10.01,0,5.14,1.28,9.99,4.89,13.6,1.97,1.97,3.62,4.24,4.77,6.57,4.49-4.19,4.52-9.72-1.88-14.57-1.42-1.07-2.51-2.32-3.34-3.61-1.84-2.85-2.77-6.54-2.71-9.75Zm-1.43,16.41c0-.57-.15-.92-.33-1.51-.83,1.91-2.69,3.22-4.34,3.43.11,1.07,1.37,1.84,3.06.76.93-.61,1.6-1.58,1.6-2.69Zm-.81,3.35c.2,1.18,1.71,1.83,3.31.73-.67-.87-1.25-1.81-1.73-2.78-.31.84-.88,1.53-1.58,2.05Zm-10.06,4.83c1.93,2.36,3.64,4.17,6.37,4.64.34-2.96,1.17-6.04,2.22-8.73h-.03c-3.12,1.1-5.75,2.27-8.56,4.09Zm7.36,4.75c3.25.21,5.13-1.53,9.4-5-1.3-1.65-1.94-2.13-2.77-3.08-1.77,1.26-3.63.91-4.51-.32-1.01,2.6-1.8,5.57-2.13,8.4Zm4.09-35.06c.33.16.71-.08.71-.44,0-.38-.42-.62-.75-.42-.33.2-.31.68.04.86Zm-4.05-1.53c.19.19.5.19.69,0,.19-.2.19-.5,0-.69-.19-.19-.5-.19-.69,0-.19.2-.19.5,0,.69Zm-4.16,0c.2.2.51.19.71,0,.2-.2.19-.51,0-.71-.2-.2-.51-.19-.71,0-.2.2-.19.51,0,.71Zm-2.72,1.93c.12.74.17,1.63.12,2.52,4.35-1.26,8.96-.42,12.32,2.06.19-.72.42-1.42.73-2.09-.27.06-.53.1-.78.1-1.18,0-1.96-.75-1.89-2.08h-.03c-1.4,1.18-3,.49-3.44-1.29-1.07,1.54-2.83,1.63-3.71-.02h-.04c-.48,1.45-1.79,1.88-3.29.8Zm7.01,13.88c0-1.87-.28-3.86-1.33-5.41-1.19-1.74-3.11-2.53-5.2-2.53-.03,0-.05,0-.08,0-.03.15-.05.3-.07.43,0,.22.07.31.25.4.58.28,1.87.17,2.79.67.24.13.33.44.2.68-.13.24-.44.33-.68.2-.61-.34-1.73-.29-2.48-.54.04.24.07.5.07.79,0,1.21-.75,2.48-1.42,3.47l1.11.32c.27.08.42.35.34.62-.07.26-.34.41-.6.35-.03.34-.11.64-.27.93.24.05.46.07.67.07.28,0,.51.21.51.49,0,.28-.21.51-.49.51-.11,0-.21,0-.36,0,.89.63.4,1.93.7,2.32.09.08.34.1.47.1,1.83,0,5.85-2.25,5.87-3.84Zm-2.82,3.97l.32,1.77c1.43-.2,2.09-2.13,2.33-3.55-.75.73-1.72,1.34-2.65,1.79Zm.95,4.84h.03c2.3-.07,4.69-2.57,4.2-5.25v-.05c-.23-1.39-.33-2.83-.33-4.32,0-5.71-2.57-9.1-8.21-9.1-.57,0-.83.62-.68.85.06.1.21.11.32.11,2.13,0,4.15.73,5.54,2.33,1.56,1.79,2,4.21,2,6.59,0,1.28-.16,2.73-.59,3.95-.93,2.62-2.76,3.28-4.44,2.51-.25,1.39.9,2.48,2.15,2.36Zm-7.92,4.35c.58.75,1.12,1.44,1.62,2.08,2.06-1.34,4.42-2.56,6.97-3.56-.65-.4-1.03-1.03-1.12-1.71-2.8.81-5.29,1.89-7.47,3.19Zm-6.1.36c.46.51.95,1.13,1.37,1.67,3.99,5.26,6.85,9.19,11.98,10.29.42.06.84.13,1.25.21,5.54.65,8.96-2.06,13.2-5.64-.58-1.17-1.13-2.16-2.08-3.47-4.56,3.7-6.59,5.6-10.61,5.15-4.15-.48-6.18-3.29-10-8.2h-5.11Zm-1.92-2.67c0,.67.11,1.18.18,1.45.14.02.27.05.38.08,1.27-1.82,1.86-3.98,1.26-6.1-1.13,1.3-1.82,2.84-1.82,4.57Zm-1.55,1.33c.22-.01.39-.01.68,0-.19-.94-.18-1.98.07-3.03-.28-.21-.61-.41-.99-.6-.4,1.18-.55,2.66.24,3.63Zm1.14,7.45c.87-1.28,1.89-2.49,3.05-3.63-.48-.63-1.7-2.21-2.35-2.66-.56-.13-1.56-.22-2.15-.12-.1.02-.27.05-.35.11l-.02.02s.03.08.05.11c.05.07.15.16.29.24.29.17.77.31,1.4.31l.48.35.54,1.7c.08.26-.06.54-.33.63-.26.08-.54-.06-.63-.33l-.43-1.36c-.69-.05-1.45-.26-1.94-.74-1.22.09-1.28,1.62,1.23,1.16.27-.05.53.13.58.4.05.27-.13.53-.4.58-.73.13-1.55.17-2.23-.12.01.11.06.21.2.32.45.34,1.31.26,1.86.16.27-.05.53.13.58.4s-.13.53-.4.58c-.73.14-1.56.17-2.24-.12.01.11.06.21.2.32.44.33,1.28.26,1.81.17.27-.05.53.13.58.4.05.27-.13.53-.4.58-.72.13-1.53.16-2.2-.13,0,.13.06.25.23.38.19.14.55.27,1.14.27.69,0,.39,0,1.83.02Zm-2.71,9.87c2.73-3.97,9.73-4.63,14.57-4.4-3.36-1.87-5.75-5.13-8.19-8.3-3.7,3.64-5.82,8.12-6.38,12.7Zm1.34,10.03c-.05-3.04,1.62-5.66,3.94-7.66.03-.04.07-.07.11-.1,2.78-2.36,5.57-4.7,8.86-5.68-6.28-.25-14.68,1.13-14.34,7.41.16,2.05.64,4.08,1.43,6.03Zm12.1,21.4c2.58,1.86,5.96,2.71,9.38,2.25-5.41-.64-7.65-4.61-7.65-10.01,0-5.14-1.28-9.99-4.89-13.6-1.89-1.89-3.58-4.16-4.77-6.57-4.53,4.23-4.47,9.76,1.88,14.57,1.42,1.07,2.51,2.32,3.34,3.61,1.84,2.86,2.77,6.55,2.71,9.75Zm1.43-16.41c0,.57.15.93.33,1.5.83-1.9,2.69-3.22,4.34-3.43-.11-1.06-1.37-1.85-3.06-.76-.93.61-1.6,1.57-1.6,2.69Zm.81-3.35c-.2-1.18-1.71-1.83-3.31-.73.67.87,1.25,1.81,1.73,2.78.31-.84.88-1.53,1.58-2.05Zm10.06-4.83c-1.92-2.35-3.63-4.17-6.37-4.64-.34,2.96-1.17,6.04-2.22,8.73.13-.04.25-.07.38-.09,3.04-1.04,5.83-2.45,8.21-4Zm-7.36-4.75c-3.25-.21-5.11,1.51-9.4,5,1.29,1.65,1.94,2.13,2.77,3.08,1.77-1.26,3.64-.9,4.51.32,1.01-2.6,1.8-5.57,2.13-8.4Zm-4.09,35.06c-.33-.16-.71.07-.71.44,0,.38.42.62.75.42.33-.2.31-.69-.04-.86Zm4.05,1.53c-.2-.19-.5-.19-.69,0-.19.19-.19.5,0,.69.2.19.5.19.69,0,.19-.19.19-.5,0-.69Zm4.16,0c-.2-.2-.51-.19-.71,0-.2.2-.19.51,0,.71.2.2.51.19.71,0,.2-.2.19-.51,0-.71Zm2.72-1.93c-.12-.74-.17-1.62-.12-2.52-4.36,1.26-8.97.41-12.32-2.06-.19.72-.42,1.42-.73,2.09,1.6-.37,2.75.36,2.66,1.98h.03c1.4-1.18,2.99-.49,3.44,1.29,1.07-1.54,2.83-1.62,3.71.02h.04c.48-1.43,1.77-1.9,3.29-.8Zm-7.01-13.88c-.01,1.87.28,3.86,1.33,5.4,1.19,1.74,3.11,2.53,5.2,2.53.03,0,.05,0,.08,0,.03-.15.05-.3.07-.43,0-.22-.07-.31-.25-.4-.58-.28-1.87-.17-2.79-.67-.24-.13-.33-.44-.2-.68.13-.24.44-.33.68-.2.61.34,1.73.29,2.48.54-.04-.24-.07-.5-.07-.79,0-1.22.76-2.49,1.42-3.47l-1.11-.32c-.27-.08-.42-.35-.34-.62.07-.26.34-.41.6-.35.03-.36.13-.67.27-.93-.24-.05-.46-.07-.67-.07-.28,0-.51-.21-.51-.49,0-.28.21-.51.49-.51.13,0,.23,0,.36,0-.67-.48-.54-1.27-.59-1.87,0-.12-.04-.35-.11-.45-.09-.08-.34-.1-.47-.1-1.82,0-5.85,2.25-5.87,3.84Zm2.82-3.97l-.32-1.77c-1.43.2-2.09,2.13-2.33,3.56.75-.73,1.72-1.34,2.65-1.79Zm-.95-4.84h-.03c-2.22.06-4.7,2.5-4.2,5.25v.05c.23,1.39.33,2.83.33,4.32,0,5.73,2.59,9.1,8.21,9.1.57,0,.83-.62.68-.85-.06-.1-.21-.11-.32-.11-2.13,0-4.15-.73-5.54-2.33-1.56-1.79-2-4.21-2-6.59,0-1.25.16-2.73.59-3.95.93-2.62,2.76-3.28,4.44-2.51.25-1.39-.9-2.48-2.15-2.36Zm7.92-4.35c-.58-.75-1.12-1.44-1.62-2.08-2.05,1.34-4.39,2.58-6.93,3.58.62.4.99,1.02,1.09,1.68,2.8-.81,5.29-1.89,7.47-3.19Zm6.1-.36c-2.73-3.05-5.93-8.76-10.64-11.04-1.03-.5-2.2-.85-2.82-.94-.39-.06-.77-.12-1.14-.19-5.54-.65-8.96,2.06-13.2,5.64.58,1.17,1.13,2.16,2.08,3.47,4.54-3.68,6.58-5.6,10.61-5.15,4.19.48,6.24,3.37,10,8.2h5.11Zm1.92,2.67c0-.67-.11-1.18-.18-1.45-.14-.02-.27-.05-.38-.08-1.27,1.82-1.86,3.99-1.26,6.1,1.13-1.3,1.82-2.84,1.82-4.57Zm1.85-2.36c.1-.02.27-.05.35-.11l.02-.02s-.03-.08-.05-.11c-.05-.07-.15-.16-.29-.24-.29-.17-.77-.31-1.4-.31l-.48-.35-.54-1.7c-.08-.26.06-.54.33-.63.26-.08.54.06.63.33l.43,1.36c.69.05,1.44.26,1.94.74,1.22-.09,1.28-1.62-1.23-1.16-.27.05-.53-.13-.58-.4s.13-.53.4-.58c.73-.13,1.55-.17,2.22.12-.01-.11-.06-.21-.2-.32-.45-.34-1.31-.26-1.86-.16-.27.05-.53-.13-.58-.4-.05-.27.13-.53.4-.58.73-.14,1.56-.17,2.24.12-.01-.11-.06-.21-.2-.32-.44-.33-1.28-.26-1.81-.17-.27.05-.53-.13-.58-.4s.13-.53.4-.58c.72-.13,1.53-.16,2.2.13,0-.13-.06-.25-.23-.38-.19-.14-.55-.27-1.14-.27-.69,0-.37,0-1.83-.02-.87,1.28-1.89,2.49-3.05,3.63.48.63,1.7,2.21,2.35,2.66.56.13,1.56.22,2.15.12Zm-1.05,4.06c.28.21.61.41.99.6.4-1.18.55-2.66-.24-3.63-.22.01-.39.01-.68,0,.19.93.18,1.97-.07,3.03Zm1.03,5.56c-.59.07-1.26.29-2,.72.35.46.71.81,1.06,1.09.11-.68.42-1.33.94-1.8Zm1.85,3.78c-.68-.11-1.33-.42-1.8-.94.07.59.29,1.26.72,2,.46-.35.81-.71,1.09-1.06Zm.72-2.15c-.08-.59-.4-1.05-.89-1.34-.59.08-1.06.4-1.34.89.08.59.4,1.06.89,1.34.59-.08,1.06-.4,1.34-.89Zm.28-1.67c-.07-.59-.29-1.26-.72-2-.46.35-.81.71-1.09,1.06.67.11,1.33.42,1.8.94Zm2.04,2.13c-.35-.46-.71-.81-1.06-1.09-.11.67-.41,1.33-.94,1.8.59-.07,1.26-.29,2-.72Z"/></g></g></svg>