<?xml version="1.0" encoding="UTF-8"?><svg id="Grouped" xmlns="http://www.w3.org/2000/svg" viewBox="0 0 80 112"><defs><style>.cls-1{fill:#f9cb19;}.cls-2{fill:#fff;}.cls-3{fill:#c93112;}.cls-4{fill:#1f1f1f;}.cls-5{fill:#234bc2;}</style></defs><g id="Queen"><rect id="BG-2" class="cls-2" width="80" height="112" rx="5" ry="5"/><g id="Suit"><g id="Suit-2"><g id="Suit-3"><path class="cls-3" d="m13.62,21c-.7,0-1.3.39-1.62.96-.32-.57-.93-.96-1.62-.96-1.04,0-1.88.84-1.88,1.88,0,2.07,2.95,3.18,3.5,4.5.55-1.32,3.5-2.43,3.5-4.5,0-1.04-.84-1.88-1.88-1.88Z"/><path class="cls-3" d="m66.37,90.5c.7,0,1.3-.39,1.62-.96.32.57.93.96,1.62.96,1.04,0,1.88-.84,1.88-1.88,0-2.07-2.95-3.18-3.5-4.5-.55,1.32-3.5,2.43-3.5,4.5,0,1.04.84,1.88,1.88,1.88Z"/></g><g id="Value"><path class="cls-3" d="m15.34,19.18c-.42,0-.79-.09-1.09-.27-.3-.18-.58-.39-.84-.63s-.51-.49-.77-.75c-.25-.26-.54-.46-.87-.62-.63,0-1.19-.12-1.66-.34-.47-.22-.87-.52-1.18-.92s-.54-.87-.7-1.43c-.16-.56-.23-1.18-.23-1.87,0-.77.1-1.45.29-2.06.19-.61.46-1.11.82-1.53.36-.41.79-.73,1.31-.95.52-.22,1.09-.33,1.73-.33s1.21.11,1.69.32c.48.21.88.52,1.2.91.32.39.55.87.71,1.43.16.56.24,1.19.24,1.88,0,1.23-.25,2.24-.74,3.05-.5.81-1.17,1.35-2.04,1.62.21.08.41.17.59.28s.37.22.56.34c.3.2.59.37.87.51.29.14.61.2.95.2.11,0,.21,0,.31-.01s.19-.02.27-.03l.16.6c-.13.13-.34.26-.64.39s-.61.2-.96.2Zm-3.33-10.92c-.72,0-1.27.32-1.66.96-.39.64-.59,1.64-.59,3.02s.19,2.31.55,2.95c.37.64.92.96,1.66.96s1.27-.32,1.67-.97c.39-.64.59-1.65.59-3.03s-.19-2.31-.55-2.94c-.37-.64-.92-.95-1.66-.95Z"/><path class="cls-3" d="m64.65,92.32c.42,0,.79.09,1.09.27.3.18.58.39.84.63.26.24.51.49.77.75.25.26.54.46.87.62.63,0,1.19.12,1.66.34.47.22.87.52,1.18.92s.54.87.7,1.43c.16.56.23,1.18.23,1.87,0,.77-.1,1.45-.29,2.06-.19.61-.46,1.11-.82,1.53-.36.41-.79.73-1.31.95-.52.22-1.09.33-1.73.33s-1.21-.11-1.69-.32c-.48-.21-.88-.52-1.2-.91-.32-.39-.55-.87-.71-1.43-.16-.56-.24-1.19-.24-1.88,0-1.23.25-2.24.74-3.05.5-.81,1.17-1.35,2.04-1.62-.21-.08-.41-.17-.59-.28s-.37-.22-.56-.34c-.3-.2-.59-.37-.87-.51-.29-.14-.61-.2-.95-.2-.11,0-.21,0-.31.01-.1,0-.19.02-.27.03l-.16-.6c.13-.13.34-.26.64-.39s.61-.2.96-.2Zm3.33,10.92c.72,0,1.27-.32,1.66-.96.39-.64.59-1.64.59-3.02s-.19-2.31-.55-2.95c-.37-.64-.92-.96-1.66-.96s-1.27.32-1.67.97c-.39.64-.59,1.65-.59,3.03s.19,2.31.55,2.94c.37.64.92.95,1.66.95Z"/></g></g><g id="Value-2"><path class="cls-3" d="m64.25,13.5c-1.4,0-2.61.78-3.25,1.91-.64-1.14-1.85-1.91-3.25-1.91-2.07,0-3.75,1.68-3.75,3.75,0,4.14,5.9,6.36,7,9,1.1-2.64,7-4.86,7-9,0-2.07-1.68-3.75-3.75-3.75Z"/><path class="cls-3" d="m22.25,98.51c-1.4,0-2.61-.78-3.25-1.91-.64,1.14-1.85,1.91-3.25,1.91-2.07,0-3.75-1.68-3.75-3.75,0-4.14,5.9-6.36,7-9,1.1,2.64,7,4.86,7,9,0,2.07-1.68,3.75-3.75,3.75Z"/></g></g><path id="Frame" class="cls-4" d="m72,80h-1V9H22v-1h49.5l.5.5v71.5ZM8,32v71.5l.5.5h49.5v-1H9V32h-1Z"/><g id="Illustration"><g id="Color"><path class="cls-1" d="m44.33,95.52c-.08.74-.1,1.46-.06,2.14-1.08-.67-2.41-.63-3.58.5-1.47-2.12-2.52-2.02-4.78-.76-1.2-2.2-2.04-2.92-4.44-1.86-.34-1.37-1.23-2.14-2.38-2.3.52-.48,1.08-1.1,1.58-1.82,3.64,3.16,8.45,4.79,13.66,4.1Z"/><path class="cls-3" d="m44.75,64.4c-1.32.8-2.68,1.84-4.04,3.16-.24-.08-.5-.12-.78-.12.73,0-9.66-.38-11.5,3.3-1,1.95.38,4.36.94,6.6-1.16-.8-3.08-2.38-4.66-4.8-.96-1.42-1.34-3.08-1.14-4.8.64-5.51,14.53-8.99,21.18-3.34Z"/><path class="cls-5" d="m41.39,77.06l-.66-3.58c1.69-1.7,2.58-3.96.92-5.44,3.42-3.24,6.82-4.52,10-5.32,1.35,8.68-5.73,10.43-10.26,14.34Z"/><path class="cls-1" d="m45.29,91.76c.02.16-.06.44-.4.52-7.17,1.07-8.88-5.41-8.94-12.52-.04-6.56,4.08-7.45,2.2-11.26.72-.04,1.48-.06,2.28-.06,1.33,0,2.01,1.22,1.32,2.72-.87,1.89-4.6,3.73-4.54,9.8,0,.55.08,1.14.08,1.52.4,5.86,2.86,8.86,7.38,8.86.34,0,.62.08.62.42Z"/><path class="cls-1" d="m38.61,91.66c-4.32-1.87-4.58-7.19-4.88-11.96-.36-5.61,1.39-8.25-.22-10.56,1.02-.24,2.2-.44,3.58-.54,1.8,3.82-2.18,4.11-2.14,11.18.04,4.13.54,9.2,3.66,11.88Z"/><path class="cls-1" d="m35.17,90.26c-3.06-1.84-3.42-5.7-3.76-9.22-.29-3.26-.47-3.81-1.12-5.76-1.06-3.18-1.35-4.68,2.18-5.84,1.66,1.95-.11,4.37.26,10.32.22,3.45.44,7.76,2.44,10.5Z"/><path class="cls-1" d="m61.71,73.6c-.38.38-1.04.38-1.42,0-.24-.24-1-1.56-2-3.42,2.22,1.18,3.22,1.82,3.42,2,.38.38.38,1.02,0,1.42Z"/><path class="cls-1" d="m56.69,72.62c-.31.78-1.49.85-1.84,0-.1-.26-.1-.52,0-.78.08-.22.62-.82,1.86-1.86.12,1.58.08,2.4-.02,2.64Z"/><path class="cls-1" d="m25.41,40.12c-.09.22-.64.84-1.86,1.88-.18-2.06-.02-2.56.02-2.64.24-.58.9-.74,1.3-.54.5.2.75.8.54,1.3Z"/><path class="cls-1" d="m21.95,41.78c-2.22-1.18-3.22-1.8-3.4-1.98-.94-.94.46-2.38,1.42-1.42.18.18.8,1.2,1.98,3.4Z"/><path class="cls-1" d="m57.73,60.04c-1.04,1.74-2.65,1.48-5.3,1.56-.38-1.14-1.94-4.32-7.6-5.58,3.88-.56,8.26-1.6,13.08-3.12.72,3.1.72,5.66-.18,7.14Z"/><path class="cls-1" d="m35.47,55.94c-3.88.56-8.28,1.6-13.14,3.14-.72-3.1-.7-5.68.18-7.16.91-1.48,2.33-1.5,4-1.5.3-.02.66-.04,1.3-.04.4,1.14,1.96,4.3,7.66,5.56Z"/><path class="cls-5" d="m56.69,44.24c-.65,5.49-14.53,8.98-21.2,3.32,1.34-.8,2.68-1.82,4.04-3.14,1.06.26,2.69,0,3.86,0,.02,0,.04-.02.08-.02,2.67-.2,7.12-.8,8.36-3.18,1.05-2.01-.54-4.63-.94-6.6,1.14.82,3.06,2.4,4.66,4.8.94,1.44,1.34,3.1,1.14,4.82Z"/><path class="cls-3" d="m38.09,40.4c-.71,1.56-.29,2.91.5,3.52-3.42,3.24-6.8,4.52-9.98,5.32-1.35-8.65,5.71-10.41,10.26-14.34l.66,3.58c-.78.78-1.32,1.68-1.44,1.92Z"/><path class="cls-1" d="m47.79,42.54c-1.74-2,.19-4.35-.32-11.06-.26-3.44-.5-7.2-2.4-9.76,4.24,2.12,3.36,9.8,4.42,13.46,1.03,3.83,2.67,5.9-1.7,7.36Z"/><path class="cls-1" d="m46.73,42.82c-1,.26-2.2.44-3.56.56-1.84-3.68,2.18-4.27,2.14-11.18-.04-4.12-.55-9.21-3.66-11.88,4.43,1.89,4.51,7.25,4.88,11.96.44,5.66-1.4,8.2.2,10.54Z"/><path class="cls-1" d="m42.09,43.46c-.7.04-1.46.06-2.26.08.2,0-.85.12-1.36-.68-.34-.52-.32-1.26.04-2.04.22-.5.68-1,1.2-1.6,2.86-3.27,3.45-5.28,3.26-9.6-.15-.3.1-9-7.38-9-.93,0-.7-.83-.24-.94,7.26-.69,8.89,5.15,8.96,12.52.04,6.58-4.09,7.51-2.22,11.26Z"/><path class="cls-1" d="m51.17,18.72c-.52.48-1.1,1.12-1.6,1.84-3.78-3.28-8.78-4.78-13.66-4.1.08-.74.12-1.48.08-2.14,1.29.75,2.52.51,3.58-.52,1.48,2.16,2.58,2,4.76.78,1.22,2.2,2.04,2.92,4.46,1.86.32,1.24,1.13,2.16,2.38,2.28Z"/></g><path id="Line" class="cls-4" d="m63.96,78.53c.38-1.29-.81-2.51-2.12-2.1-.48-.91-1.62-1.17-2.45-.61-.19-1.03-.25-2.09-.26-2.94.2.35.65,1.13.94,1.42.39.39.9.59,1.41.59,1.79,0,2.66-2.17,1.41-3.41-.48-.48-2.71-1.67-3.36-2.01.14-.18.22-.35.23-.6,1.12-.26,1.71-1.34,1.23-2.25.22-.42.24-.9,0-1.34.22-.42.24-.91,0-1.34.54-1.02-.13-2.4-2.27-2.37,2.38-2,1.81-6.39,1.04-9.41-.37-1.65-1.45-4.75-3.09-7.96.19-1.95-.3-3.79-1.31-5.32-2.19-3.32-4.99-5.15-5.78-5.64-.4-2.75-.36-6.14-1.57-8.93.26-.06.44-.32.38-.6.04-1.61,1.29-3.19,2.47-4.29.34-.32.77-.69,1.16-.96l-.15-.89s0,0-.3,0c-1.6.52-2.7-.06-2.94-1.94l-.72-.38c-.46.23-.84.4-1.17.5-1.31.44-1.68-.01-2.8-2.11l-.69-.2c-2.01,1.17-2.57,1.35-3.39.44-.24-.27-.52-.66-.83-1.17l-.81-.05c-1.19,1.45-2.42,1.4-3.52.1l-.88.4c.08.55.16,1.27.16,2.03,0,1.51-.27,2.23-.56,3.23-.09.32-.02.68.22.95-.39.64-.26,1.46.31,1.91-.25.97-.23,1.6-.1,2.42.09.58.14.95-.05,1.55-.33,1.02-.89,1.79-1.5,2.69l.27.76.8.23c.01.36-.09.82-.4.99-.29.15-.36.55-.11.8.16.16.68.32.9.38-.35.2-.33.72.04.89.05.02.08.05.1.06.23.24-.03,1.15.32,1.88.41.86,1.59.83,2.53.63-3.52,2.79-8.78,4.74-10.06,10.08-.44-.56-1.71-2.17-2.37-2.45.46-.41,1.27-1.17,1.5-1.7.55-1.32-.43-2.77-1.85-2.77-.87,0-1.62.56-1.88,1.31,0-.98-.08-2.22-.34-3.44,1.18.08,2.08-1.04,1.73-2.19,1.21-.64,1.2-2.34.01-2.98.38-1.29-.81-2.51-2.12-2.1-.64-1.21-2.34-1.2-2.98-.01-1.28-.38-2.51.81-2.1,2.12-1.21.64-1.2,2.34-.01,2.98-.38,1.29.81,2.51,2.12,2.1.48.92,1.62,1.17,2.45.61.19,1.03.25,2.09.26,2.94-.21-.35-.65-1.13-.94-1.42-1.25-1.25-3.42-.37-3.41,1.41,0,.51.2,1.02.59,1.41.48.48,2.71,1.67,3.36,2.02-.14.18-.22.35-.23.6-1.12.26-1.71,1.34-1.23,2.25-.22.42-.24.91,0,1.34-.22.41-.24.9,0,1.34-.55,1.04.15,2.39,2.27,2.37-2.66,2.24-1.68,7.46-.66,10.78.65,2.14,1.58,4.39,2.71,6.59-.19,1.95.3,3.79,1.31,5.32,2.19,3.32,4.99,5.15,5.78,5.64.4,2.75.36,6.14,1.57,8.93-.25.06-.44.31-.38.6-.04,1.61-1.29,3.19-2.47,4.29-.35.32-.78.69-1.16.96l.15.89s0,0,.3,0c1.6-.52,2.69.05,2.94,1.93l.72.38c.46-.23.84-.4,1.17-.5,1.29-.43,1.67-.02,2.8,2.11l.69.2c.6-.35,1.72-1.02,2.37-1.01.42,0,.72.25,1.01.57.24.27.52.66.83,1.17l.81.05c1.18-1.44,2.41-1.41,3.52-.1l.88-.4c-.08-.55-.16-1.27-.16-2.03,0-1.51.26-2.22.56-3.23.09-.32.02-.68-.22-.95.38-.63.27-1.45-.31-1.91.55-2.08-.26-2.66.15-3.97.33-1.02.89-1.79,1.5-2.69l-.27-.76-.8-.23c-.01-.36.09-.82.4-.99.29-.16.36-.56.11-.8-.16-.16-.68-.32-.89-.37.35-.2.33-.72-.04-.89-.05-.02-.08-.05-.1-.06-.23-.24.02-1.16-.32-1.88-.41-.86-1.59-.83-2.53-.63,3.52-2.79,8.78-4.74,10.06-10.08.44.57,1.71,2.17,2.37,2.45-.41.36-1.01.93-1.32,1.38-.68,1-.26,2.44.91,2.93,1.08.45,2.29-.14,2.64-1.16,0,.98.08,2.22.34,3.43-1.19-.08-2.08,1.05-1.73,2.19-1.21.64-1.2,2.34-.01,2.98-.38,1.29.81,2.51,2.12,2.1.63,1.2,2.33,1.21,2.98.01,1.29.39,2.51-.82,2.1-2.12,1.2-.63,1.2-2.34.01-2.98Zm-3.61-2.01c.38,0,.67.3.69.66.02.42.52.62.83.34.27-.24.69-.25.96.02.27.27.27.72,0,.99,0,0-.06.05-.15.1-.47.27-1.46.6-1.99.76-.19-.63-.6-1.89-.99-2.42.11-.29.37-.46.66-.46Zm1.85-4.35c.38.4.39,1.02,0,1.41-.39.39-1.02.38-1.41,0-.34-.33-1.77-2.99-1.99-3.41.42.22,3.08,1.65,3.41,1.99Zm-3.51-20.25c-5.81,1.84-12.76,3.56-18.82,3.56-3.99,0-8.89-.79-11.31-3.99-.29-.39-.55-.83-.73-1.28,2.03-.51,3.86-1.13,5.71-2.11,6.35,5.8,20.26,3.4,22.78-2.43.94,1.96,1.79,4.1,2.37,6.24Zm-4.14-12.5c.95,1.44,1.34,3.12,1.14,4.81-.66,5.63-14.73,8.88-21.23,3.36,1.34-.8,2.71-1.83,4.08-3.17.28.08.53.11.8.11,3.1-.03,8.83-.31,10.96-2.56,1.91-2.02.21-4.8-.43-7.36,1.14.81,3.1,2.41,4.69,4.82Zm-13.26-3.03c.72-1.32,1.25-3.02,1.25-5.27,0-5.74-1.77-10.49-7.45-10.49-.11,0-.23,0-.37-.05-.18-.07-.27-.22-.27-.4,0-.25.16-.47.44-.51.29-.04.93-.1,1.13-.1,2.13,0,3.95.63,5.29,2.29,2.09,2.58,2.47,7.04,2.5,10.35,0,1.16-.1,2.28-.4,3.43-.95,3.56-3.31,4.82-1.8,7.84-.8.04-1.75.07-2.28.07-.93,0-1.58-.61-1.59-1.56,0-1.89,2.07-2.81,3.57-5.57Zm-2.59-2.48c1.01-.47,2.16-1.19,2.82-2.08-.13,2.29-.84,4-2.16,5.67l-.66-3.59Zm7.55,8.94c-.98.24-2.16.42-3.57.54-.29-.58-.56-1.09-.57-1.79,0-2.08,2.72-3.72,2.69-9.4-.03-4.06-.56-9.33-3.68-11.95,3.09,1.28,4.08,4.3,4.52,7.59.19,1.38.45,4.67.45,6.14,0,4.47-1.3,6.77.16,8.87Zm2.27-10.21c.3,2.49.62,2.95,1.27,5.01.28.91.58,2.01.26,2.88-.4,1.08-1.67,1.66-2.76,2.02-1.51-1.74-.19-3.85-.19-8.57,0-1.48-.25-4.55-.39-5.77-.27-2.29-.78-4.69-2.15-6.53,3.57,2.17,3.49,6.9,3.97,10.96Zm-13.53-18.33c1.16.72,2.44.59,3.58-.51,1.45,2.14,2.57,2,4.77.77,1.22,2.22,2.09,2.91,4.46,1.86.32,1.27,1.11,2.14,2.37,2.29-.6.57-1.11,1.14-1.58,1.81-3.76-3.26-8.72-4.79-13.63-4.11.08-.71.08-1.42.04-2.12Zm-.21,3.16c4.87-.78,9.7.76,13.28,3.93-.22.41-.39.85-.51,1.32-.87-.83-1.51-1.25-2.13-1.68l-.04-.02c-1.49-.95-3.16-1.61-4.9-2.05-.08-.02-.06-.02-.14-.03-1.87-.42-3.86-.52-5.92-.22.23-.8.29-.99.35-1.25Zm.99,16.22c-.17,0-.46-.02-.58-.13-.09-.08-.12-.35-.13-.47-.04-.57.09-1.39-.59-1.87.14.01.25.01.36,0,.28,0,.49-.24.49-.51,0-.28-.24-.49-.51-.49-.21,0-.43-.01-.67-.07.16-.29.24-.59.27-.93.26.06.52-.09.6-.35.08-.27-.08-.54-.34-.62l-1.11-.32c.67-.99,1.42-2.26,1.42-3.47,0-.29-.04-.55-.07-.79.76.25,1.88.2,2.48.54.24.13.55.05.68-.2s.05-.55-.2-.68c-.92-.51-2.2-.39-2.79-.67-.18-.09-.25-.18-.25-.4.02-.2.06-.42.12-.67.02,0,.04,0,.06,0,4.62-.02,6.21,3.4,6.49,7.97l-.55,1.26c-.57,1.34-3.6,2.84-5.18,2.84Zm2.12,1.26l.65,3.53c-.53.6-1.12,1.24-1.43,1.92-.69,1.51-.35,2.81.51,3.53-3.03,2.88-6.13,4.35-10.01,5.32-1.38-8.74,5.83-10.48,10.28-14.3Zm-14.81,4.41c.16-.39.53-.62.92-.62.71,0,1.2.72.92,1.38-.16.41-1.52,1.59-1.86,1.87-.04-.44-.17-2.23,0-2.64Zm-3.16-10.92c.38,0,.67.3.69.66.02.42.52.62.83.34.27-.24.69-.25.95.02.27.27.27.72,0,.99,0,0-.06.05-.15.1-.47.27-1.47.6-1.99.76-.19-.63-.6-1.89-.99-2.42.11-.29.37-.46.66-.46Zm-3.5,3.5c0-.38.3-.67.66-.69.42-.02.62-.52.34-.83-.24-.27-.25-.69.02-.95.27-.27.72-.27.99,0,0,0,.05.06.1.15.27.47.6,1.47.76,1.99-.63.19-1.89.6-2.42.99-.29-.11-.46-.37-.46-.66Zm3.5,3.5c-.38,0-.67-.3-.69-.66-.02-.42-.52-.62-.83-.34-.27.24-.69.25-.96-.02-.27-.27-.27-.72,0-.99,0,0,.06-.05.15-.1.47-.27,1.47-.6,1.99-.76.19.63.6,1.89.99,2.42-.11.3-.37.46-.66.46Zm.62-3.16c.62-.19,1.89-.6,2.42-.99.29.11.46.37.46.66,0,.38-.3.67-.66.69-.42.02-.62.52-.34.83.24.27.25.69-.02.96-.27.27-.72.27-.99,0,0,0-.05-.06-.1-.15-.27-.47-.6-1.46-.76-1.99Zm-2.47,7.51c-.38-.4-.39-1.02,0-1.41.39-.39,1.02-.38,1.41,0,.34.33,1.82,3.07,1.99,3.41-.42-.22-3.08-1.65-3.41-1.99Zm3.39,9.62c-.52,0-1.34-.13-1.37-.65.67.29,1.48.26,2.2.13.27-.05.45-.31.4-.58-.05-.27-.31-.45-.58-.4-.31.06-.58.08-.81.08-.46,0-1.16-.12-1.21-.57.68.29,1.51.26,2.24.12.27-.05.45-.31.4-.58s-.31-.45-.58-.4c-.33.06-.61.09-.85.09-.46,0-1.16-.12-1.21-.57.68.29,1.49.26,2.23.12.27-.05.45-.31.4-.58-.05-.27-.31-.45-.58-.4-2.48.46-2.47-1.06-1.23-1.16.5.48,1.25.69,1.94.74l.43,1.36c.08.26.36.41.63.33.26-.08.41-.36.33-.63l-.54-1.7-.48-.35c-.63,0-1.11-.14-1.4-.31-.15-.08-.24-.17-.29-.24-.02-.03-.06-.09-.05-.11.11-.16.78-.18.97-.18.53,0,1.16.08,1.54.17.7.49,2.02,2.24,2.5,2.86-.11,1.13-.05,2.23.13,3.38-1.11.02-1.19.06-2.19.07-.13,0-2.95-.03-2.97-.03Zm2.98,1.03c1.05,0,1.09-.05,2.4-.07.06.18.15.41.29.67,1.36,2.71,4.34,4.21,7.34,4.89-3.64.51-7.97,1.5-13.12,3.14-.92-3.96-.98-8.6,3.1-8.63Zm-2.86,9.6c5.8-1.84,12.76-3.56,18.82-3.56,3.99,0,8.89.79,11.31,3.99.29.39.55.83.73,1.28-2.04.51-3.86,1.13-5.71,2.11-6.35-5.8-20.26-3.4-22.78,2.43-.96-2-1.8-4.13-2.37-6.24Zm4.14,12.5c-.95-1.44-1.34-3.12-1.14-4.81.66-5.65,14.75-8.87,21.23-3.36-1.34.8-2.71,1.83-4.08,3.17-.28-.08-.53-.11-.81-.11-3.1.03-8.82.31-10.96,2.56-1.91,2.02-.22,4.79.43,7.36-1.14-.81-3.1-2.41-4.69-4.82Zm13.26,3.03c-.72,1.32-1.25,3.02-1.25,5.27,0,11.64,7.21,10.3,7.82,10.54.18.07.27.22.27.4,0,.25-.15.47-.44.51-.29.04-.93.1-1.13.1-2.13,0-3.95-.63-5.29-2.29-2.09-2.58-2.47-7.04-2.5-10.35-.05-6.61,4.09-7.48,2.21-11.26.8-.04,1.75-.07,2.28-.07,1.27,0,2.02,1.15,1.31,2.71-.49,1.08-2.13,2.28-3.29,4.42Zm2.59,2.48c-1.01.47-2.16,1.19-2.82,2.08.13-2.29.84-4,2.16-5.67l.66,3.59Zm-7.54-8.94c.98-.24,2.16-.42,3.57-.54.29.58.56,1.09.57,1.79,0,2.04-2.75,3.83-2.69,9.4.03,4.07.57,9.33,3.68,11.95-3.09-1.28-4.08-4.3-4.52-7.59-.19-1.39-.45-4.68-.45-6.14,0-4.47,1.3-6.77-.16-8.87Zm-2.27,10.21c-.3-2.49-.62-2.95-1.27-5.01-.29-.92-.58-2.02-.26-2.88.4-1.08,1.67-1.66,2.76-2.02,1.51,1.74.19,3.85.19,8.57,0,1.47.25,4.54.39,5.77.27,2.29.78,4.69,2.15,6.53-3.57-2.17-3.49-6.9-3.97-10.96Zm13.53,18.33c-1.16-.72-2.44-.59-3.58.51-1.45-2.13-2.55-2.01-4.77-.77-1.21-2.21-2.08-2.91-4.46-1.86-.33-1.27-1.11-2.14-2.37-2.29.6-.56,1.11-1.14,1.58-1.81,3.75,3.25,8.71,4.79,13.63,4.11-.08.7-.08,1.41-.04,2.12Zm.21-3.16c-4.87.78-9.7-.76-13.28-3.93.22-.41.39-.85.51-1.32.85.81,1.46,1.22,2.13,1.68l.04.02c1.49.95,3.16,1.61,4.9,2.05.08.02.06.02.14.03,2.01.45,4.02.5,5.92.22-.29,1-.3,1-.35,1.25Zm-.99-16.22c.17,0,.46.02.58.13.09.08.12.35.13.47.04.57-.09,1.39.59,1.87-.13,0-.24-.01-.36,0-.28,0-.49.24-.49.51s.24.49.51.49c.23,0,.45.02.67.07-.16.29-.24.59-.27.93-.26-.06-.52.09-.6.35-.08.27.08.54.34.62l1.11.32c-.67.99-1.42,2.26-1.42,3.47,0,.29.04.55.07.79-.76-.25-1.88-.2-2.48-.54-.24-.13-.55-.05-.68.2-.13.24-.05.55.2.68.92.5,2.2.39,2.79.67.18.09.25.18.25.4-.02.2-.06.42-.12.67-.02,0-.04,0-.06,0-4.6.02-6.2-3.37-6.49-7.97l.55-1.26c.57-1.34,3.6-2.84,5.18-2.84Zm-2.12-1.26l-.65-3.53c.53-.6,1.12-1.24,1.43-1.92.59-1.28.51-2.68-.51-3.53,3.03-2.88,6.13-4.35,10.01-5.32,1.38,8.74-5.83,10.48-10.28,14.3Zm11.06-15.42c-.06-.18-.15-.41-.29-.67-1.36-2.71-4.34-4.21-7.34-4.89,3.64-.51,7.97-1.5,13.12-3.14.92,3.96.98,8.6-3.1,8.63-1.05,0-1.09.05-2.4.07Zm3.76,11.02c-.16.39-.54.62-.92.62-.71,0-1.2-.72-.92-1.38.16-.42,1.52-1.58,1.86-1.87.04.45.17,2.22-.01,2.64Zm1.23-3.66c-.59.1-1.59,0-2.15-.12-.68-.47-2.01-2.21-2.5-2.87.11-1.13.05-2.23-.13-3.37,1.1-.02,1.23-.06,2.18-.07.12,0,2.95.03,2.97.03.59,0,.95.13,1.14.27.17.12.23.25.23.38-.67-.29-1.48-.26-2.2-.13-.27.05-.45.31-.4.58.05.27.31.45.58.4.54-.1,1.38-.16,1.81.17.14.11.19.21.2.32-.68-.29-1.51-.26-2.24-.12-.27.05-.45.31-.4.58.05.27.31.45.58.4.55-.1,1.41-.18,1.86.16.14.11.19.21.2.32-.68-.29-1.49-.26-2.22-.12-.27.05-.45.31-.4.58s.31.45.58.4c2.51-.46,2.45,1.07,1.23,1.16-.5-.48-1.25-.69-1.94-.74l-.43-1.36c-.08-.26-.36-.41-.63-.33-.26.08-.41.36-.33.63l.54,1.7.48.35c.63,0,1.11.14,1.4.31.15.08.24.17.29.24.02.03.06.09.05.11l-.02.02c-.08.06-.25.1-.35.11Zm-1.56,11.07c0-.38.3-.67.66-.69.42-.02.62-.52.34-.83-.24-.27-.25-.69.02-.95.27-.27.72-.27.99,0,0,0,.05.06.1.15.27.47.6,1.47.76,1.99-.63.19-1.89.6-2.42.99-.29-.11-.46-.37-.46-.66Zm3.5,3.5c-.38,0-.67-.3-.69-.66-.02-.42-.52-.62-.83-.34-.27.24-.68.25-.96-.02-.27-.27-.27-.72,0-.99,0,0,.06-.05.15-.1.47-.27,1.47-.6,1.99-.76.19.63.6,1.89.99,2.42-.11.29-.37.46-.66.46Zm2.84-2.81c-.42.02-.62.52-.34.83.24.27.25.69-.02.96-.27.27-.72.27-.99,0,0,0-.05-.06-.1-.15-.27-.47-.6-1.47-.76-1.99.63-.19,1.89-.6,2.42-.99.29.11.46.37.46.66,0,.38-.3.67-.66.69Zm-26.16-55.7v.77c0,.28-.21.5-.49.5-.28,0-.5-.22-.5-.5,0-.26,0-.51,0-.77,0-.28.22-.5.5-.5.28,0,.5.22.5.5Zm-4.2,25.7c0,.28-.22.5-.5.5s-.5-.22-.5-.5.22-.5.5-.5.5.22.5.5Zm20.83.22c.11.26-.01.55-.27.65-.25.11-.55-.01-.65-.27-.11-.25.01-.55.27-.65.25-.11.55.01.65.27Zm-2.91,1.08c.08.26-.07.54-.34.62s-.54-.07-.62-.34c-.08-.26.07-.54.34-.62s.54.07.62.34Zm-6.07,1.28c.02.27-.18.52-.45.54-.27.02-.52-.18-.54-.45-.02-.28.18-.52.45-.54.28-.02.52.18.54.45Zm3.06-.5c.05.27-.12.53-.39.59-.27.05-.53-.12-.59-.39-.05-.27.12-.53.39-.59.27-.05.53.12.59.39Zm-6.16.63c-.01.28-.24.49-.52.48-.28-.01-.49-.24-.48-.52.01-.28.24-.49.52-.48.28.01.49.24.48.52Zm-6.1-1c-.1.26-.39.38-.65.28-.26-.1-.38-.39-.28-.65s.39-.38.65-.28c.26.1.38.39.28.65Zm3.01.74c-.05.27-.31.45-.58.4-.27-.05-.45-.31-.4-.58.05-.27.31-.45.58-.4.27.05.45.31.4.58Zm16.97-3.45c0-.28.22-.5.5-.5s.5.22.5.5-.22.5-.5.5-.5-.22-.5-.5Zm-12.25,37.24v-.77c0-.28.21-.5.49-.5.28,0,.5.22.5.5v.77c0,.28-.21.5-.49.5-.28,0-.5-.22-.5-.5Zm4.2-25.7c0-.28.22-.5.5-.5s.5.22.5.5-.22.5-.5.5-.5-.22-.5-.5Zm-8.76-2.71c.01-.28.24-.49.52-.48s.49.24.48.52c-.01.28-.24.49-.52.48-.28-.01-.49-.24-.48-.52Zm-9.17,1.41c-.08-.26.07-.54.34-.62.27-.08.54.07.62.34.08.26-.07.54-.34.62-.27.08-.54-.07-.62-.34Zm3-.78c-.05-.27.12-.53.39-.59.27-.05.53.12.59.39.05.27-.12.53-.39.59-.27.05-.53-.12-.59-.39Zm12.26.37c.1-.26.39-.38.65-.28.26.1.38.39.28.65s-.39.38-.65.28c-.26-.1-.38-.39-.28-.65Zm-18.18,1.49c-.11-.25.01-.55.27-.65.25-.11.55.01.65.27s-.01.55-.27.65c-.25.11-.55-.01-.65-.27Zm8.98-2.36c-.02-.28.18-.52.45-.54.28-.02.52.18.54.45.02.28-.18.52-.45.54-.28.02-.52-.18-.54-.45Zm6.19.13c.05-.27.31-.45.58-.4.27.05.45.31.4.58-.05.27-.31.45-.58.4-.27-.05-.45-.31-.4-.58Zm-16.97,3.45c0,.28-.22.5-.5.5s-.5-.22-.5-.5.22-.5.5-.5.5.22.5.5Z"/></g></g></svg>