<?xml version="1.0" encoding="UTF-8"?><svg id="Grouped" xmlns="http://www.w3.org/2000/svg" viewBox="0 0 80 112"><defs><style>.cls-1{fill:#f9cb19;}.cls-2{fill:#fff;}.cls-3{fill:#c93112;}.cls-4{fill:#1f1f1f;}.cls-5{fill:#234bc2;}</style></defs><g id="Queen"><rect id="BG-2" class="cls-2" width="80" height="112" rx="5" ry="5"/><g id="Suit"><g id="Suit-2"><g id="Suit-3"><path class="cls-4" d="m12,19.38c-.54,1.38-3.25,1.88-3.25,4,0,.97.78,1.75,1.75,1.75.51,0,.96-.22,1.28-.57-.06.59-.25,1.29-.78,1.82v.25h2v-.25c-.53-.53-.72-1.23-.78-1.82.32.35.77.57,1.28.57.97,0,1.75-.78,1.75-1.75,0-2.12-2.71-2.62-3.25-4Z"/><path class="cls-4" d="m68,91.62c.54-1.38,3.25-1.88,3.25-4,0-.97-.78-1.75-1.75-1.75-.51,0-.96.22-1.28.57.06-.59.25-1.29.78-1.82v-.25h-2v.25c.53.53.72,1.23.78,1.82-.32-.35-.77-.57-1.28-.57-.97,0-1.75.78-1.75,1.75,0,2.12,2.71,2.62,3.25,4Z"/></g><g id="Value"><path class="cls-4" d="m15.34,18.93c-.42,0-.79-.09-1.09-.27-.3-.18-.58-.39-.84-.63s-.51-.49-.77-.75c-.25-.26-.54-.46-.87-.62-.63,0-1.19-.12-1.66-.34-.47-.22-.87-.52-1.18-.92s-.54-.87-.7-1.43c-.16-.56-.23-1.18-.23-1.87,0-.77.1-1.45.29-2.06.19-.61.46-1.11.82-1.53.36-.41.79-.73,1.31-.95.52-.22,1.09-.33,1.73-.33s1.21.11,1.69.32c.48.21.88.52,1.2.91.32.39.55.87.71,1.43.16.56.24,1.19.24,1.88,0,1.23-.25,2.24-.74,3.05-.5.81-1.17,1.35-2.04,1.62.21.08.41.17.59.28s.37.22.56.34c.3.2.59.37.87.51.29.14.61.2.95.2.11,0,.21,0,.31-.01s.19-.02.27-.03l.16.6c-.13.13-.34.26-.64.39s-.61.2-.96.2Zm-3.33-10.92c-.72,0-1.27.32-1.66.96-.39.64-.59,1.64-.59,3.02s.19,2.31.55,2.95c.37.64.92.96,1.66.96s1.27-.32,1.67-.97c.39-.64.59-1.65.59-3.03s-.19-2.31-.55-2.94c-.37-.64-.92-.95-1.66-.95Z"/><path class="cls-4" d="m64.65,92.07c.42,0,.79.09,1.09.27.3.18.58.39.84.63.26.24.51.49.77.75.25.26.54.46.87.62.63,0,1.19.12,1.66.34.47.22.87.52,1.18.92s.54.87.7,1.43c.16.56.23,1.18.23,1.87,0,.77-.1,1.45-.29,2.06-.19.61-.46,1.11-.82,1.53-.36.41-.79.73-1.31.95-.52.22-1.09.33-1.73.33s-1.21-.11-1.69-.32c-.48-.21-.88-.52-1.2-.91-.32-.39-.55-.87-.71-1.43-.16-.56-.24-1.19-.24-1.88,0-1.23.25-2.24.74-3.05.5-.81,1.17-1.35,2.04-1.62-.21-.08-.41-.17-.59-.28s-.37-.22-.56-.34c-.3-.2-.59-.37-.87-.51-.29-.14-.61-.2-.95-.2-.11,0-.21,0-.31.01-.1,0-.19.02-.27.03l-.16-.6c.13-.13.34-.26.64-.39s.61-.2.96-.2Zm3.33,10.92c.72,0,1.27-.32,1.66-.96.39-.64.59-1.64.59-3.02s-.19-2.31-.55-2.95c-.37-.64-.92-.96-1.66-.96s-1.27.32-1.67.97c-.39.64-.59,1.65-.59,3.03s.19,2.31.55,2.94c.37.64.92.95,1.66.95Z"/></g></g><g id="Value-2"><path class="cls-4" d="m61,10.75c-1.08,2.76-6.5,3.76-6.5,8,0,1.93,1.57,3.5,3.5,3.5,1.02,0,1.93-.44,2.57-1.14-.12,1.18-.51,2.58-1.57,3.64v.5h4v-.5c-1.06-1.06-1.45-2.45-1.57-3.63.64.69,1.55,1.13,2.56,1.13,1.93,0,3.5-1.57,3.5-3.5,0-4.24-5.42-5.24-6.5-8Z"/><path class="cls-4" d="m19,101.26c-1.08-2.76-6.5-3.76-6.5-8,0-1.93,1.57-3.5,3.5-3.5,1.02,0,1.93.44,2.57,1.14-.12-1.18-.51-2.58-1.57-3.64v-.5h4v.5c-1.06,1.06-1.45,2.45-1.57,3.63.64-.69,1.55-1.13,2.56-1.13,1.93,0,3.5,1.57,3.5,3.5,0,4.24-5.42,5.24-6.5,8Z"/></g></g><path id="Frame" class="cls-4" d="m72,80h-1V9H22v-1h49.5l.5.5v71.5ZM8,32v71.5l.5.5h49.5v-1H9V32h-1Z"/><g id="Illustration"><g id="Color"><path class="cls-3" d="m42.43,95.86c-4.01,3.82-10.93,1.51-11.84-3.94,3.42,2.85,7.38,3.94,11.84,3.94Z"/><path class="cls-1" d="m45.05,91.74c.04.18-.06.42-.28.52-6.67.7-8.76-4.57-9.04-11.3-.14-3.54.06-6.12,1.46-8.74.66-.22,1.32-.44,1.88-.7-.86,2.78-1.68,5.94-1.78,9.18-.16,5.79,1.28,10.68,7.12,10.68.36,0,.59.07.64.36Z"/><path class="cls-1" d="m38.95,91.92c-4.44-1.25-4.9-6.42-5.78-11.28-.6-2.9-.82-4.88.94-7.54.58-.14,1.18-.3,1.76-.46-1.22,2.82-1.24,5.66-1.14,8.36.1,2.32.34,8.22,4.22,10.92Z"/><path class="cls-1" d="m35.05,90.44c-.84-.5-1.62-1.1-2.36-1.8-.16-3.21-2.3-8.1-2.62-11.6-.18-1.64.98-3.18,2.66-3.6-1.69,3.12-.87,5.55-.18,9.36.48,2.68.98,5.58,2.5,7.64Z"/><path class="cls-5" d="m25.95,67.36c-1.23,1.85-1.53,4.29-.32,6.56-5.54-4.61-6.75-12.67-2.44-18.68,2.7,2.66,4.28,5.92,4.7,9.56-.74.88-1.4,1.76-1.94,2.56Z"/><path class="cls-3" d="m39.05,70.16c-1.32.76-3.78,1.56-6.96,2.28-1.98.46-3.38,2.08-3.52,3.96-.34-.08-.68-.16-1.02-.28-3.39-1.14-4.73-5.25-2.78-8.2,2.56-3.78,7.12-8.82,14.4-11.44,1.42-.52,2.7-1.14,3.92-1.8,1.62,5.22.1,11.24-4.04,15.48Z"/><path class="cls-3" d="m56.81,56.76c-2.63-2.59-4.22-5.73-4.7-9.56,2.64-3.14,4.02-5.39,2.28-9.12,5.51,4.62,6.74,12.67,2.42,18.68Z"/><path class="cls-5" d="m55.23,44.08c-2.54,3.76-7.1,8.82-14.4,11.44-1.4.52-2.7,1.14-3.92,1.8-1.62-5.22-.1-11.24,4.04-15.48,1.32-.76,3.78-1.56,6.98-2.28,1.96-.46,3.36-2.08,3.5-3.96.34.08.68.16,1.02.28,3.34,1.13,4.79,5.17,2.78,8.2Z"/><path class="cls-1" d="m33.69,59.32c-1.96,1.42-3.58,2.96-4.94,4.48-.69-3.93-2.41-6.97-5.16-9.56,1.46-3.92,4.7-7.16,8.66-8.7-1.8,5.04-1.08,9.84,1.44,13.78Z"/><path class="cls-1" d="m56.41,57.76c-1.46,3.92-4.7,7.16-8.66,8.7,1.8-5.02,1.11-9.79-1.42-13.78,1.94-1.42,3.58-2.96,4.92-4.48.69,3.91,2.47,7.02,5.16,9.56Z"/><path class="cls-1" d="m47.27,38.56c1.74-3.21.84-5.71.18-9.36-.46-2.68-.98-5.56-2.5-7.64.84.5,1.64,1.1,2.36,1.8.16,3.11,2.28,8.15,2.64,11.6.16,1.64-.98,3.18-2.68,3.6Z"/><path class="cls-1" d="m45.91,38.9c-.6.14-1.18.3-1.78.46,1.24-2.82,1.24-5.66,1.14-8.36-.1-2.32-.34-8.22-4.2-10.92,3.92,1.1,4.68,5.24,5.4,9.3.72,3.95,1.6,6.22-.56,9.52Z"/><path class="cls-1" d="m42.81,39.78c-.66.22-1.3.44-1.88.7.88-2.78,1.68-5.94,1.78-9.18.2-5.98-1.3-10.57-7.2-10.68-.34-.04-.5-.12-.56-.36-.02-.18.06-.42.28-.52,6.66-.7,8.76,4.56,9.04,11.3.14,3.54-.06,6.12-1.46,8.74Z"/><path class="cls-3" d="m49.41,20.08c-3.86-3.24-8.2-3.96-11.84-3.94,4.05-3.84,10.93-1.49,11.84,3.94Z"/><path class="cls-5" d="m20.14,33.86c.22.62.86,1.65,2.61,2.55.03-.38.06-.96.04-1.67-.5-.24-1.65-.74-2.65-.88Z"/><path class="cls-5" d="m23.78,34.53c.04.77.02,1.43-.02,1.88.67-.37,2.29-1.56,2.55-4.57-.79.45-2.01,1.35-2.53,2.69Z"/><path class="cls-5" d="m56.24,75.59c-.67.37-2.29,1.56-2.55,4.57.79-.45,2.01-1.35,2.53-2.69-.04-.77-.02-1.43.02-1.88Z"/><path class="cls-5" d="m59.86,78.14c-.22-.62-.86-1.65-2.61-2.55-.03.38-.06.96-.04,1.67.5.24,1.65.74,2.65.88Z"/></g><path id="Line" class="cls-4" d="m37.15,25c0,.26,0,.51,0,.77,0,.28-.22.5-.5.5s-.5-.22-.5-.5c0-.26,0-.51,0-.77,0-.28.22-.5.5-.5.28,0,.5.22.5.5Zm6.19,62.49c.28,0,.5-.22.5-.5,0-.26,0-.51,0-.77,0-.28-.22-.5-.5-.5-.28,0-.5.22-.5.5,0,.26,0,.51,0,.77,0,.28.22.5.5.5Zm-2.03-15.93l.66.75.75-.66-.66-.75-.75.66Zm5.41-12.68l.99-.12-.12-1-.99.12c.07.63.04.37.12,1Zm-1.83,8.26l.89.45c.28-.56.18-.36.45-.9l-.89-.45-.45.9Zm1.14-2.62l.96.28.28-.96-.96-.28c-.17.59-.12.4-.28.96Zm-2.73,5.01l.8.6.6-.8-.8-.6c-.21.28-.39.52-.6.8Zm3.45-8.79c-.06.63-.04.4-.09,1l1,.09.09-1-1-.09Zm.38-4.95l-.29-.96-.96.29.29.96.96-.29Zm-8.44-15.35l-.66-.75-.75.66.66.75.75-.66Zm-5.44,10.83c.06-.63.04-.4.09-1l-1-.09-.09,1,1,.09Zm1.86-6.41l-.89-.45c-.28.56-.18.36-.45.9l.89.45.45-.9Zm-1.14,2.62l-.96-.28-.28.96.96.28c.18-.6.11-.38.28-.96Zm2.73-5.01l-.8-.6-.61.8.8.6c.38-.5.24-.32.6-.8Zm-3.42,10.64l-.99.12.12,1,.99-.12c-.07-.62-.05-.4-.12-1Zm-.4,3.1l.29.96.96-.29-.29-.96-.96.29Zm-6.52-10.35l-.62-.78-.78.62.62.78c.48-.38.3-.24.78-.62Zm-4.01,4.46l-.88-.47-.47.88.88.47.47-.88Zm9.45-6.95l-.24-.97-.97.24.24.97c.6-.15.37-.09.97-.24Zm-7.67,4.52l-.77-.64c-.4.47-.24.29-.64.77l.77.64.64-.77Zm4.82-3.57l-.45-.89-.89.45.45.89c.55-.28.34-.17.89-.45Zm19.28,24.31l.24.97.97-.24-.24-.97-.97.24Zm5.44-2.49l.62.78.78-.62-.62-.78c-.48.38-.3.24-.78.62Zm5.36-4.87l-.88-.47-.47.88.88.47c.29-.55.17-.33.47-.88Zm-7.95,6.41l.45.89.89-.45-.45-.89c-.55.28-.34.17-.89.45Zm5.47-4.33l-.64.77.77.64.64-.77-.77-.64Zm5.66,20.11c.43.9.24,1.91-.18,2.81-.21.44-.41.72-.42.73l-.35.2c-.36.04-.96.02-1.49-.1-.76-.17-1.44-.52-1.87-1.15-1.25-.1-2.22-1.16-2.77-2.29v-.41c.43-.93,1.27-1.91,2.29-2.2-.23-.64-.39-1.28-.49-1.9-.8,1.03-2.01,1.86-3.06,2.29l-.68-.47c0-2.73.99-4.63,2.36-5.76-1.63-1.03-2.65-3.27-3.72-4.39-1.95.79-4.03,1.18-6.16,1.06-1.11,1.32-2.41,2.48-3.85,3.42l.41,2.36c.96-.3,2.47-.63,3.23.03.71.61.36,1.81.55,2.2.03.05.06.09.14.13.37.17.38.69.03.89.21.05.77.23.93.41.13.16.14.38.06.54-.11.21-.23.19-.38.35-.19.22-.26.56-.25.86l.8.24.27.76c-.64.93-1.66,2.31-1.66,3.48,0,.74.37,1.51-.02,3.05.69.43.85,1.35.4,2.05.05.05.01-.24.25,2.52l-.45.54c-.4.04-.82.07-1.26.09-4.74,5.73-14.11,2.53-14.36-4.89-.24-.24-.48-.49-.72-.75l.04-.71,1.86-1.67.45.02c-.41-2.86-2.05-6.91-2.49-10.18-10.08-2.7-14.3-14.72-8.18-23.13-.8-.7-1.67-1.31-2.59-1.84l-.24-.55c.56-2.39,1.74-4.59,3.34-6.44l-.95-.85c-1.7-.12-2.24-1.34-1.75-2.28-.24-.44-.22-.93,0-1.34-.24-.44-.22-.93,0-1.34-.47-.86.05-1.97,1.23-2.25.02-.35.2-.64.45-.81-1-.66-1.59-1.37-1.93-1.99-.46-.81-.47-1.43-.47-1.49l.48-.5c1.02-.04,2.27.38,3.2.78-.08-.67-.23-1.4-.47-2.12-.32.28-.68.47-1.09.6-.64.21-1.4.25-1.88.2l-.35-.2s-.22-.3-.42-.73c-.42-.91-.6-1.91-.18-2.81-.43-.9-.24-1.91.18-2.81.21-.44.41-.72.42-.73l.35-.2c.36-.04.96-.02,1.49.1.76.17,1.44.52,1.87,1.15,1.25.1,2.22,1.15,2.77,2.29v.41c-.43.93-1.27,1.91-2.29,2.2.23.64.39,1.28.49,1.9.79-1.02,2-1.85,3.06-2.29l.68.47c0,2.73-.99,4.63-2.36,5.76,1.63,1.02,2.66,3.28,3.72,4.39,1.95-.79,4.03-1.18,6.16-1.06,1.11-1.32,2.41-2.48,3.86-3.42l-.41-2.36c-.61.19-1.3.35-1.94.35-2.32,0-1.58-2.05-1.84-2.58-.03-.05-.06-.09-.14-.13-.37-.17-.38-.69-.03-.89-.25-.07-.71-.23-.86-.35-.21-.17-.25-.49-.08-.7.11-.13.19-.11.32-.26.19-.22.26-.56.25-.86l-.8-.24-.27-.76c.64-.91,1.66-2.3,1.66-3.48,0-.77-.38-1.49.02-3.05-.7-.44-.84-1.37-.4-2.05-.05-.05-.01.24-.25-2.52l.45-.54c.4-.04.82-.07,1.26-.09,4.73-5.72,14.11-2.54,14.36,4.89.24.24.48.49.72.75l-.04.71-1.86,1.67-.45-.02c.41,2.87,2.05,6.91,2.49,10.18,10.08,2.7,14.3,14.72,8.18,23.13.8.7,1.67,1.31,2.59,1.84l.24.55c-.56,2.39-1.74,4.59-3.34,6.44l.95.85c1.72.12,2.24,1.35,1.75,2.28.24.44.22.93,0,1.34.24.45.21.93,0,1.35.46.86-.05,1.97-1.23,2.24-.01.35-.2.63-.45.81,1,.66,1.59,1.37,1.93,1.99.46.81.47,1.43.47,1.49l-.48.5c-1.02.04-2.27-.38-3.2-.78.08.67.23,1.4.47,2.12.32-.28.68-.47,1.09-.6.64-.21,1.4-.25,1.88-.2l.35.2s.21.3.42.73c.42.9.61,1.9.18,2.81Zm-4.44-7.87c-.05.52-.06,1.09-.04,1.68.78.37,1.8.76,2.65.88-.41-1.14-1.51-2-2.61-2.56Zm-2.33-37.49c1.05,2.07.97,4.56-.37,6.54-.56.83-1.2,1.71-1.94,2.6.45,3.74,2.12,7.04,4.71,9.59,4.19-5.87,3.2-14.04-2.4-18.73Zm-6.64,28.38c3.85-1.51,7.14-4.71,8.64-8.66-2.74-2.57-4.52-5.87-5.16-9.57-1.55,1.73-3.18,3.19-4.91,4.44,2.69,4.24,3.1,9.18,1.44,13.79Zm-1.86-26.92c-1.97.44-5.22,1.28-6.98,2.29-3.93,4.04-5.78,9.96-4.07,15.46,1.22-.66,2.54-1.26,3.95-1.77,5.92-2.13,10.82-6.16,14.39-11.46,1.99-2.96.6-7.07-2.78-8.2-.34-.11-.67-.21-1-.3-.14,1.94-1.6,3.55-3.52,3.98Zm-1.51-.67c1.71-2.58,1.55-4.49.93-7.53-.96-4.73-1.19-10.08-5.82-11.32,3.75,2.59,4.29,8.24,4.29,12.78,0,2.31-.24,4.42-1.18,6.55.6-.17,1.21-.33,1.78-.48Zm1.39-15.57c-.76-.72-1.55-1.31-2.38-1.8,1.9,2.54,2.22,6.33,2.89,9.63.57,2.8.8,4.89-.55,7.4,1.53-.38,2.68-1.72,2.68-3.29,0-1.18-.67-3.68-.99-4.81-.66-2.33-1.59-5.15-1.66-7.14Zm-10.24-7.18c4.48-.02,8.48,1.11,11.85,3.93-.94-5.45-7.8-7.76-11.85-3.93Zm-2.08,1.09l.13,1.49c1.95-.14,3.88-.11,5.81.26h.05c.72.17,1.46.32,2.5.73,1.88.73,3.57,1.87,5.05,3.42l1.12-1c-3.97-4.17-8.95-5.33-14.66-4.9Zm.03,3.19c.1.16.29.2.48.2,5.82-.03,7.35,4.66,7.22,10.44.02.71-.2,3.19-.55,4.74-.32,1.58-.75,3.14-1.23,4.68.48-.21,1.05-.44,1.89-.72,1.48-2.78,1.57-5.54,1.44-8.72-.25-6.14-1.92-11.48-8.08-11.37-.32,0-.64.03-.97.05-.28.14-.34.5-.21.7Zm6.61,12.14c-.68.58-1.54,1.05-2.37,1.41l.38,2.15c.52-.29,1.05-.55,1.6-.79.18-.92.31-1.84.4-2.77Zm.08-1.6c.11-5.07-1.04-9.35-6.14-9.34-.06.24-.1.45-.12.64,0,.14.03.21.06.25.31.46,1.92.25,2.97.84.24.14.33.44.19.68-.14.24-.44.33-.68.19-.62-.35-1.71-.3-2.48-.56.1.67.11,1.18-.12,1.88-.3.9-.73,1.6-1.26,2.37l1.11.33c.26.08.42.36.34.62-.08.26-.34.41-.6.34-.03.33-.11.64-.28.93.26.06.46.07.67.07.28,0,.5.22.51.49,0,.28-.22.5-.49.51-.52,0-.39-.1-.15.18.56.65.21,1.61.45,2.11.03.05.09.09.15.11,1.08.45,5.03-1.03,5.88-2.63Zm-7.73,27.78c.49-.33.99-.64,1.51-.95-1.94-5.91.01-12.25,4.15-16.57.51-1.55.97-3.11,1.33-4.68-7.84,3.8-12.13,14.06-7,22.2Zm-2.26-13.22c-3.86,1.51-7.15,4.72-8.63,8.66,2.74,2.57,4.52,5.87,5.16,9.57,1.55-1.73,3.19-3.2,4.91-4.44-2.69-4.23-3.1-9.18-1.44-13.79Zm-7.97-9.12c1.26-.71,2.35-2.24,2.55-4.57-1.07.62-2.07,1.51-2.53,2.67.03.68.02,1.32-.03,1.91Zm-4.49-8.21c.09.16.26.25.43.25.38,0,.63-.41.43-.75-.14-.25-.05-.55.19-.68.23-.13.52-.06.67.16.08-.33.27-.63.57-.85-.5-.43-1.29-.57-1.95-.55-.43.73-.75,1.7-.33,2.43Zm2.17,1.41c-.17,0-.34.09-.43.25-.14.24-.44.32-.68.18-.23-.13-.32-.43-.2-.66-.35.1-.7.08-1.02-.06-.12.66.15,1.4.49,1.97.84.01,1.85-.2,2.27-.93.19-.33-.05-.75-.43-.75Zm1.49.33c.63-.22,1.14-.84,1.46-1.41-.41-.73-1.09-1.5-1.94-1.5-.28,0-.5.22-.5.5,0,.28.22.5.5.5.28,0,.5.22.5.5,0,.27-.21.48-.48.5.27.25.42.57.46.92Zm-.17,6.46c.05-.52.06-1.09.04-1.68-.78-.37-1.79-.76-2.65-.88.41,1.14,1.51,2,2.61,2.56Zm.37,8.52c1.38-1.42,2.95-2.53,4.62-3.35-1.02-1.19-1.98-3.13-3.27-3.95-.59-.14-1.87-.26-2.4-.06-.1.03-.1.05-.12.07,0,.02.03.08.05.11.05.07.15.16.29.24.29.17.77.31,1.4.31l.48.35.54,1.7c.08.26-.06.54-.33.63-.26.08-.54-.06-.63-.33l-.43-1.36c-.69-.05-1.45-.26-1.94-.74-1.22.09-1.28,1.62,1.23,1.16.27-.05.53.13.58.4.05.27-.13.53-.4.58-.73.13-1.55.17-2.23-.12.01.11.06.21.2.32.45.34,1.31.26,1.86.16.27-.05.53.13.58.4s-.13.53-.4.58c-.74.14-1.56.17-2.24-.12.01.11.06.21.2.32.44.33,1.28.26,1.81.17.27-.05.53.13.58.4.05.27-.13.53-.4.58-.72.13-1.52.16-2.19-.13.04.43.7.56,1.14.57.26,0,.33.14,1.41,1.1Zm-.83,8.55c1.75-4.31,5.52-7.77,9.93-9.2.51-1.13,1.13-2.2,1.87-3.21-6.28,0-12.3,4.77-13.92,10.91.74.45,1.45.95,2.12,1.5Zm2.79,20.42c-1.05-2.07-.97-4.56.37-6.54.56-.83,1.2-1.71,1.94-2.6-.45-3.74-2.12-7.05-4.71-9.59-4.18,5.86-3.21,14.03,2.4,18.73Zm8.5-1.47c1.98-.45,5.23-1.28,6.98-2.29,3.93-4.04,5.78-9.96,4.07-15.46-1.22.66-2.54,1.26-3.95,1.77-5.92,2.13-10.82,6.16-14.39,11.46-1.99,2.96-.6,7.07,2.78,8.2.34.11.67.21,1,.3.14-1.94,1.6-3.55,3.52-3.98Zm1.51.67c-1.7,2.57-1.55,4.48-.93,7.53.96,4.71,1.19,10.08,5.82,11.32-3.75-2.59-4.29-8.24-4.29-12.78,0-2.31.24-4.42,1.18-6.55-.6.17-1.21.33-1.78.48Zm-1.39,15.57c.76.72,1.55,1.31,2.38,1.8-1.9-2.54-2.22-6.33-2.89-9.63-.57-2.8-.8-4.89.55-7.4-1.53.38-2.68,1.72-2.68,3.29,0,1.18.67,3.67.99,4.81.65,2.3,1.59,5.15,1.66,7.14Zm10.24,7.17c-4.48.02-8.47-1.11-11.85-3.93.94,5.45,7.8,7.76,11.85,3.93Zm2.08-1.09l-.13-1.49c-1.95.14-3.88.11-5.81-.26h-.05c-.72-.17-1.46-.32-2.5-.73-1.87-.73-3.56-1.86-5.05-3.42l-1.12,1c3.97,4.17,8.95,5.33,14.66,4.9Zm-.03-3.19c-.1-.16-.29-.2-.48-.2-5.79.03-7.36-4.62-7.22-10.44-.03-.71.2-3.21.55-4.74.32-1.58.75-3.14,1.23-4.68-.48.21-1.05.44-1.89.72-1.48,2.78-1.57,5.55-1.44,8.73.25,6.15,1.92,11.48,8.08,11.37.32,0,.64-.03.97-.05.28-.14.34-.5.21-.7Zm-6.61-12.14c.69-.58,1.55-1.06,2.37-1.41l-.38-2.15c-.52.29-1.05.55-1.6.79-.18.92-.31,1.84-.4,2.77Zm-.08,1.6c-.11,5.08,1.05,9.35,6.14,9.34.06-.24.1-.45.12-.64,0-.14-.03-.21-.06-.25-.31-.46-1.92-.25-2.97-.84-.24-.14-.33-.44-.19-.68.14-.24.44-.33.68-.19.62.35,1.7.3,2.48.56-.1-.66-.12-1.18.12-1.88.3-.9.73-1.6,1.26-2.37l-1.1-.33c-.26-.08-.42-.36-.34-.62.08-.26.34-.41.6-.34.03-.33.11-.64.28-.93-.25-.06-.46-.07-.67-.07-.28,0-.5-.22-.51-.49,0-.28.22-.5.49-.51.52,0,.39.1.15-.18-.56-.65-.21-1.61-.45-2.11-.03-.05-.09-.09-.15-.11-1.1-.45-5.04,1.05-5.88,2.63Zm7.73-27.78c-.49.33-.99.64-1.51.95,1.93,5.91,0,12.24-4.15,16.57-.51,1.55-.97,3.11-1.33,4.68,7.88-3.81,12.12-14.09,7-22.2Zm13.81,6.76c-.74-.45-1.45-.95-2.12-1.5-1.75,4.31-5.53,7.77-9.93,9.2-.49,1.09-1.1,2.16-1.87,3.21,6.29,0,12.3-4.78,13.92-10.91Zm-3.58,15.57c-1.26.71-2.35,2.24-2.55,4.57,1.08-.62,2.07-1.51,2.53-2.67-.03-.66-.02-1.3.03-1.91Zm1.43-1.1c.1-.02.27-.05.35-.11l.02-.02s-.03-.08-.05-.11c-.05-.07-.15-.16-.29-.24-.29-.17-.77-.31-1.4-.31l-.48-.35-.54-1.7c-.08-.26.06-.54.33-.63.26-.08.54.06.63.33l.43,1.36c.69.05,1.45.26,1.94.74,1.23-.09,1.28-1.62-1.23-1.16-.27.05-.53-.13-.58-.4-.05-.27.13-.53.4-.58.73-.13,1.55-.17,2.22.12-.01-.11-.06-.21-.2-.32-.45-.34-1.31-.26-1.86-.16-.27.05-.53-.13-.58-.4s.13-.53.4-.58c.73-.14,1.56-.17,2.24.12-.01-.11-.06-.21-.2-.32-.44-.33-1.28-.26-1.81-.17-.27.05-.53-.13-.58-.4-.05-.27.13-.53.4-.58.72-.13,1.52-.16,2.19.13-.04-.43-.7-.56-1.14-.57-.25,0-.29-.1-1.41-1.1-1.39,1.43-2.95,2.54-4.62,3.35,1.02,1.19,1.98,3.13,3.26,3.95.56.13,1.56.22,2.15.12Zm.39,9.97c0-.28-.22-.5-.5-.5-.28,0-.5-.22-.5-.5,0-.27.21-.48.48-.5-.27-.25-.42-.57-.46-.92-.63.22-1.14.84-1.46,1.41.41.74,1.1,1.5,1.94,1.5.28,0,.5-.22.5-.5Zm2.67-.67c-.09-.16-.26-.25-.43-.25-.38,0-.62.42-.43.75.14.25.05.55-.19.69-.23.13-.52.06-.67-.16-.08.34-.27.64-.57.85.5.43,1.29.56,1.95.55.43-.73.75-1.7.33-2.43Zm-.33-3.09c-.84-.01-1.85.2-2.27.93-.19.33.05.75.43.75.17,0,.34-.09.43-.25.14-.24.44-.32.68-.18.23.13.32.43.2.66.35-.1.7-.08,1.02.06.12-.66-.15-1.39-.49-1.97Z"/></g></g></svg>