<?xml version="1.0" encoding="UTF-8"?><svg id="Grouped" xmlns="http://www.w3.org/2000/svg" viewBox="0 0 80 112"><defs><style>.cls-1{fill:#f9cb19;}.cls-2{fill:#fff;}.cls-3{fill:#c93112;}.cls-4{fill:#1f1f1f;}.cls-5{fill:#234bc2;}</style></defs><g id="King"><rect id="BG-2" class="cls-2" width="80" height="112" rx="5" ry="5"/><g id="Suit"><g id="Suit-2"><g id="Suit-3"><path class="cls-3" d="m13.62,21c-.7,0-1.3.39-1.62.96-.32-.57-.93-.96-1.62-.96-1.04,0-1.88.84-1.88,1.88,0,2.07,2.95,3.18,3.5,4.5.55-1.32,3.5-2.43,3.5-4.5,0-1.04-.84-1.88-1.88-1.88Z"/><path class="cls-3" d="m66.37,90.5c.7,0,1.3-.39,1.62-.96.32.57.93.96,1.62.96,1.04,0,1.88-.84,1.88-1.88,0-2.07-2.95-3.18-3.5-4.5-.55,1.32-3.5,2.43-3.5,4.5,0,1.04.84,1.88,1.88,1.88Z"/></g><g id="Value"><path class="cls-3" d="m12.03,16.08v.67h-4.07v-.67l.91-.17c.1-.02.17-.06.22-.11.05-.06.08-.13.08-.23v-6.67c0-.1-.03-.18-.08-.24-.05-.06-.12-.1-.22-.12l-.91-.18v-.69h4.02v.69l-.93.18c-.09.02-.17.06-.21.12-.05.06-.08.14-.08.24v3.66l3.42-4-1.05-.2v-.69h3.3v.69l-.86.18c-.08.02-.15.04-.2.07-.06.03-.12.07-.17.13l-2.26,2.51c.2.24.4.5.58.79.18.29.39.63.63,1.04l1.41,2.4c.07.12.14.22.21.29.07.07.17.12.31.15l.62.15v.67h-2.09c-.14,0-.29-.11-.46-.34-.16-.22-.34-.52-.54-.9,0,0-1.21-2.3-1.34-2.51-.12-.22-.24-.42-.36-.59l-1.15,1.3v1.87c0,.1.03.17.08.23.05.06.13.09.23.11l.95.17Z"/><path class="cls-3" d="m67.96,95.42v-.67h4.07v.67l-.91.17c-.1.02-.17.06-.22.11-.05.06-.08.13-.08.23v6.67c0,.1.03.18.08.24.05.06.12.1.22.12l.91.18v.69h-4.02v-.69l.93-.18c.09-.02.16-.06.21-.12.05-.06.07-.14.07-.24v-3.66l-3.42,4,1.05.2v.69h-3.3v-.69l.86-.18c.08-.02.15-.04.2-.07.06-.03.12-.07.17-.13l2.26-2.51c-.2-.24-.4-.5-.58-.79-.18-.29-.39-.63-.63-1.04l-1.41-2.4c-.07-.12-.15-.22-.21-.29-.07-.07-.17-.12-.31-.15l-.62-.15v-.67h2.09c.14,0,.29.11.45.34.16.22.34.52.55.9,0,0,1.21,2.3,1.34,2.51.12.22.24.42.36.59l1.14-1.3v-1.87c0-.1-.03-.17-.08-.23-.05-.06-.13-.09-.23-.11l-.95-.17Z"/></g></g><g id="Value-2"><path class="cls-3" d="m64.25,13.5c-1.4,0-2.61.78-3.25,1.91-.64-1.14-1.85-1.91-3.25-1.91-2.07,0-3.75,1.68-3.75,3.75,0,4.14,5.9,6.36,7,9,1.1-2.64,7-4.86,7-9,0-2.07-1.68-3.75-3.75-3.75Z"/><path class="cls-3" d="m22.25,98.51c-1.4,0-2.61-.78-3.25-1.91-.64,1.14-1.85,1.91-3.25,1.91-2.07,0-3.75-1.68-3.75-3.75,0-4.14,5.9-6.36,7-9,1.1,2.64,7,4.86,7,9,0,2.07-1.68,3.75-3.75,3.75Z"/></g></g><path id="Frame" class="cls-4" d="m72,80h-1V9H22v-1h49.5l.5.5v71.5ZM8,32v71.5l.5.5h49.5v-1H9V32h-1Z"/><g id="Illustration"><g id="Color"><path class="cls-1" d="m44.48,97.38c-1.11-.51-2.21-.28-3.1.54-.02-.62-.04-1.48.04-2.62.05-.69-.98-.72-.98-.08-.08,1.06-.08,1.88-.06,2.52-1.24-1.08-2.18-.92-3.58.02l.56-2.68c.14-.59-.83-.89-.98-.2l-.6,2.86c-1.06-1.36-1.9-1.86-3.34-1.26.26-.56.6-1.26.96-2.14.25-.66-.69-.98-.92-.38-.48,1.16-.92,2.04-1.2,2.62-.61-1.18-1.41-1.6-2.52-1.6.66-.86,1.46-2.14,1.88-3.54,5.53-.85,8.68.08,13.68,2.4,0,.2-.28,1.41.16,3.54Z"/><path class="cls-5" d="m37.78,90.4c-.46-.08-.92-.14-1.34-.18,1.46-6.71-5.72-8.06-6.74-12.1,4.47,3.6,9.71,3.67,8.08,12.28Z"/><path class="cls-5" d="m35.42,90.16c-.46-.02-.9-.02-1.34,0-.23-4.37-4.22-5.91-4.92-10.62,1.97,3.65,7.62,4.98,6.26,10.62Z"/><path class="cls-5" d="m33.06,90.22c-.3.02-.6.06-.88.08-1.27-.8-3.33-4.43-3.38-8.36,1.47,3.5,4.09,4.93,4.26,8.28Z"/><polygon class="cls-1" points="59.74 70 59.74 85.6 58.62 89.06 57.5 85.6 57.5 70 59.74 70"/><rect class="cls-3" x="57.5" y="66.7" width="2.24" height="2.3"/><path class="cls-1" d="m63.9,60.8c-.46.1-.9.24-1.36.36-.04,0-.06,0-.1.02-3.44.94-6.78,2.32-9.9,4.08h-.04c0,.2-3.18,1.51-7.54,5.38-6.96,1.85-11.28,8.82-11.38,9.14-.77-.51-2.47-1.35-3.94-2.62,5.92-6.78,13.98-11.6,22.78-13.54l.4-.5c-.02-1.13-.2-3.05-.2-2.84t-.02-.02c-.14-1.22-.36-2.28-.66-3.18,3.09,2.14,7.32,2.07,10.42-.7l1.54,4.42Z"/><path class="cls-3" d="m51.58,59.96c-6.02,1.04-10.88,3.1-14.84,5.5l-6.54-6.54c.3.04.6.12.92.12,2.42,0,5.28-1.32,8.08-2.58,7.08-3.23,11.26-4.42,12.38,3.5Z"/><path class="cls-5" d="m35.86,66c-4.14,2.66-7.26,5.7-9.6,8.3-1.98-.96-3.62-2.28-4.86-3.88,3.9-.08,7.14-2.76,8.06-6.38.02-.04.04-.06.04-.12.58-2.33,0-3.79,0-4,0-.39-1.68-1.96,6.36,6.08Z"/><path class="cls-1" d="m30.3,64.42c-2.37,6.65-11.71,6.66-14.08,0h14.08Z"/><path class="cls-1" d="m30.3,59.42h-3.54v-4.08c1.64.88,2.9,2.32,3.54,4.08Z"/><path class="cls-1" d="m19.76,55.34v4.08h-3.54c.64-1.76,1.9-3.2,3.54-4.08Z"/><path class="cls-1" d="m63.78,52.58c-.64,1.76-1.9,3.2-3.54,4.08v-4.08h3.54Z"/><path class="cls-1" d="m53.24,52.58v4.08c-1.64-.88-2.9-2.32-3.54-4.08h3.54Z"/><path class="cls-1" d="m63.78,47.58h-14.08c2.37-6.65,11.71-6.66,14.08,0Z"/><path class="cls-5" d="m50.5,48.08c-.58,2.34,0,3.78,0,4,0,.36,1.7,1.96-6.36-6.08,4.16-2.66,7.26-5.7,9.6-8.3,1.98.96,3.62,2.28,4.86,3.88-3.9.08-7.14,2.76-8.06,6.38-.02.04-.04.06-.04.12Z"/><path class="cls-1" d="m49.8,53.08c-7.44-1.2-19.47,12.45-21.38-1.04,6.02-1.04,10.88-3.1,14.84-5.5l6.54,6.54Z"/><path class="cls-3" d="m27.58,48.38l-.4.5c.04,1.94.29,4.27.88,6.04-3.09-2.14-7.32-2.07-10.42.7l-1.54-4.42c6.5-1.48,13.51-5.02,18.94-9.84,6.96-1.85,11.28-8.82,11.38-9.14.78.52,2.47,1.35,3.94,2.62-5.92,6.78-13.98,11.6-22.78,13.54Z"/><rect class="cls-3" x="20.26" y="43" width="2.24" height="2.3"/><polygon class="cls-1" points="22.5 26.4 22.5 42 20.26 42 20.26 26.4 21.38 22.94 22.5 26.4"/><path class="cls-5" d="m51.2,30.06c-1.47-3.5-4.09-4.93-4.26-8.28.3-.02.58-.06.88-.1,1.27.8,3.33,4.45,3.38,8.38Z"/><path class="cls-5" d="m50.84,32.46c-1.97-3.65-7.62-4.98-6.26-10.62.41,0,.36.06,1.34-.02.23,4.42,4.22,5.93,4.92,10.64Z"/><path class="cls-5" d="m50.3,33.88c-4.44-3.57-9.7-3.66-8.1-12.26.48.08.94.12,1.36.16-1.44,6.78,5.71,8.02,6.74,12.1Z"/><path class="cls-1" d="m51.24,17.02c-.66.86-1.46,2.14-1.88,3.54-3,.46-5.13.36-6.94,0-.29-.06-1-.1-3.26-.9-1.2-.44-2.36-.98-3.48-1.5,0-.21.28-1.42-.16-3.54,1.1.51,2.21.28,3.1-.54.02.62.04,1.48-.04,2.62-.05.7.98.7.98.08.08-1.06.08-1.88.06-2.52,1.24,1.08,2.18.92,3.58-.02l-.56,2.68c-.15.63.87.86.98.2l.6-2.86c1.06,1.36,1.9,1.86,3.34,1.26-.26.56-.6,1.26-.96,2.14-.25.64.67,1,.92.38.48-1.16.92-2.04,1.2-2.62.61,1.18,1.41,1.6,2.52,1.6Z"/></g><path id="Line" class="cls-4" d="m37.17,24.01c0,.26.02.53.02.8,0,.28-.21.51-.48.51-.28,0-.51-.21-.51-.48,0-.26-.02-.53-.02-.8,0-.28.21-.51.48-.51s.51.21.51.48Zm27,31.62l1.85,5.36-.36.65c-.34.08-.69.16-1.03.25.4.58.38,1.28.02,1.81.43.63.34,1.38-.07,1.89.51.72.34,1.62-.65,2.13-.83.42-1.8.43-2.68.43v.86h3.88c.28,0,.5.22.5.5s-.22.5-.5.5h-3.88v15.67c-.03.22.16-.4-1.65,5.15h-.95l-1.62-5c-.04-.23-.02,1.05-.02-15.82h-3.88c-.28,0-.5-.22-.5-.5s.22-.5.5-.5h3.88v-.49c-1.33-.35-2.4-1.14-3.29-2.22-2.25,1.29-4.38,2.78-6.35,4.46,3.15,1.25,1.87,9.34.47,11.13.27.96-.29,1.99-1.16,2.48.24.11.48.22.72.33l.16.8c-.69.73-1.44,1.54-1.68,2.5-.32,1.26.25,3.29-.67,4.69.86.4.91.42.97.46.11.07.18.18.21.31.07.36-.54,1.75.38,4.91l-.82.51c-1.27-1.15-2.5-1.03-3.48.56l-.81.05c-.34-.42-.64-.75-.9-.98-.95-.86-1.47-.65-3.37.82l-.71-.11c-.41-.58-1.14-1.62-1.73-1.9-.39-.18-.79-.07-1.2.11-.33.15-.73.38-1.22.71l-.76-.29c-.48-1.81-1.63-2.27-3.16-1.54-.3.04-.28.04-.3.04l-.28-.85c.4-.41.82-.94,1.16-1.41.91-1.26,1.35-2.28,1.61-3.25.02-.09.07-.18.15-.25.13-.12.26-.12.43-.14-.63-.71-1.19-1.65-1.61-2.5-1.6-3.32-2.06-7.29-.47-10.61-.73-.67-1.47-1.34-2.2-2.01-2.42-1.12-4.53-2.81-5.99-4.99-4.14-.57-7.33-4.12-7.33-8.42,0-2.13.78-4.07,2.07-5.56l-1.85-5.36.36-.65c.34-.08.69-.16,1.03-.25-.42-.6-.37-1.3-.02-1.81-.42-.63-.34-1.37.07-1.89-.39-.54-.36-1.14-.02-1.59.6-.8,1.95-.97,2.95-.97h.4v-.86h-3.88c-.28,0-.5-.22-.5-.5s.22-.5.5-.5h3.88c0-16.85-.01-15.59.02-15.82l1.62-5h.95c1.8,5.55,1.61,4.93,1.65,5.16v15.67h3.88c.28,0,.5.22.5.5s-.22.5-.5.5h-3.88v.49c1.34.35,2.41,1.15,3.29,2.22,2.28-1.31,4.45-2.83,6.45-4.54-2.79-1.42-1.74-8.67-.47-10.78-.48-1.01.09-2.2,1.06-2.75-.24-.11-.48-.22-.72-.33l-.16-.8c.69-.73,1.44-1.54,1.68-2.5.32-1.26-.25-3.29.67-4.69-.92-.43-.99-.44-1.1-.6-.04-.05-.06-.11-.07-.18-.07-.36.54-1.75-.38-4.91l.82-.51c1.26,1.15,2.49,1.03,3.48-.56l.81-.05c.34.42.64.75.9.98.96.86,1.48.64,3.37-.82l.71.11c.41.58,1.14,1.62,1.73,1.9.39.18.79.07,1.2-.11.33-.15.73-.38,1.22-.71l.76.29c.48,1.81,1.63,2.27,3.16,1.54.3-.04.28-.04.3-.04l.28.85c-.4.41-.82.94-1.16,1.41-.91,1.26-1.37,2.32-1.61,3.25-.02.09-.08.18-.15.25-.13.12-.27.12-.43.14.63.71,1.19,1.64,1.61,2.5,1.59,3.28,2.07,7.26.47,10.61.73.67,1.47,1.34,2.2,2.01,2.42,1.12,4.53,2.81,5.99,4.99,3.59.5,6.36,3.24,7.06,6.32.66,2.6.08,5.48-1.81,7.66Zm.65-3.06h-3.57v4.13c1.67-.89,2.94-2.37,3.57-4.13Zm.28-4h-14.7c-.2.99-.2,2.01,0,3h4.35l.5.5v5.07c1.62.57,3.39.57,5.01,0v-5.07l.5-.5h4.34c.2-.99.2-2.01,0-3Zm-16.33,4.46l-6.49-6.49c-3.92,2.38-8.81,4.46-14.84,5.51.22,1.56.66,3.43,1.66,4.64,3.92,4.73,13.62-4.56,19.68-3.65Zm-23,2.27v4.13h3.57c-.62-1.75-1.88-3.24-3.57-4.13Zm5.48,3.67l6.49,6.49c3.92-2.38,8.81-4.45,14.84-5.5-.22-1.56-.66-3.43-1.66-4.64-3.92-4.74-13.6,4.56-19.67,3.66Zm23-2.27v-4.13h-3.57c.62,1.75,1.88,3.24,3.57,4.13Zm-1.8-11.94c-.78.78-1.39,1.74-1.77,2.8h14.14c-1.82-5.15-8.44-6.74-12.38-2.8Zm.33-7.08c-2.9,3.2-5.9,5.92-9.62,8.3l6.43,6.43c-1.55-5.39,2.45-10.78,8.06-10.85-1.25-1.64-2.94-2.95-4.86-3.88Zm-2.62-2.21c-5.96,6.84-14.11,11.73-22.95,13.79.02.63.06,1.23.11,1.78,6.69-1.17,11.93-3.63,15.97-6.34,3.92-2.62,6.72-5.47,8.66-7.6-.6-.54-1.19-1.09-1.79-1.63Zm-7.11-13.69c-.43-.04-.88-.09-1.34-.17-1.61,8.65,3.78,8.74,8.15,12.28-.93-3.93-8.29-5.38-6.81-12.11Zm7.33,10.69c-.72-4.75-4.74-6.19-4.96-10.63-.51.02-.87.02-1.36,0-1.34,5.63,4.4,7.04,6.32,10.62Zm-3.03-10.78c-.3.03-.62.07-.94.09.16,3.34,2.9,4.85,4.31,8.2-.05-3.72-2.07-7.43-3.37-8.3Zm-6.04-1.16c.09,0,.13.02.17.03,2.58.48,4.39.3,6.88,0,.38-1.27,1.1-2.5,1.9-3.55-1.15.04-2.01-.53-2.55-1.53-.3.6-.72,1.47-1.18,2.57-.11.25-.4.38-.65.27-.25-.11-.38-.4-.27-.65.35-.85.68-1.56.95-2.12-1.49.61-2.35,0-3.34-1.26l-.59,2.84c-.06.27-.32.44-.59.39-.27-.06-.44-.32-.39-.59l.55-2.67c-1.35.91-2.34,1.11-3.57.02.03.82,0,1.69-.05,2.51-.02.28-.26.48-.53.46-.28-.02-.48-.26-.46-.53.06-.85.09-1.77.04-2.63-.93.88-2.03,1.01-3.09.54.3,1.47.29,2.61.15,3.54,2.15,1.02,4.11,1.89,6.63,2.38Zm-8.2,9.19c1.24,0,3.57.07,4.68.64,0-.21-.27-.48-.44-.62-.38-.33-1.07-.76-2.16-1.26-1.18-.53-2.19.44-2.09,1.24Zm.64,10.68c2.74-.73,5.03-2.24,6.8-3.85,1.85-1.67,3.33-3.66,3.96-4.9-3.26-2.11-4.82-4.69-3.79-10.22-1.82-.39-3.41-.98-4.98-1.69-.15.18-.19.29-.23.4-.04.16-.05.29-.05.4,0,.27.08.39.29.49.23.11.59.19.84.24,1.66.35,1.76.58,2.66,1.48.19.2.19.51,0,.71-.2.19-.51.19-.71,0-.65-.65-.75-.85-1.51-1.06-.61-.17-1.23-.21-1.77-.5,0,1.96.14,2.86-1.59,4.78,1.73.78,2.95,1.29,3.92,1.97.58.41,1.21.98,1.21,1.69,0,.59-.22,1.35-.46,1.87-.12.25-.42.36-.67.24s-.36-.42-.24-.67c.03-.06.14-.32.14-.36,0,0,0-.01-.02-.03-.23-.27-1.12-.44-1.47-.49-.99-.16-2.18-.18-2.82-.18-.98,1.21-1.92,6.79-.68,8.91.27.47.63.75,1.18.77Zm-13.99,1.59h2.24v-15.59l-1.12-3.46-1.12,3.46v15.59Zm0,3.3h2.24v-2.3h-2.24v2.3Zm-.16,1.94c0,.28-.23.5-.5.5-1.03,0-2.04-.13-2.91-.66l-.02.03c-.05.09-.08.2-.08.3,0,.39.44.68.79.86.65.33,1.42.42,2.23.42.15,0,.29.07.38.18,2.04-.74,4.02-1.63,5.92-2.67-.66-.77-1.44-1.36-2.4-1.68v1.27l-.5.5h-3.24l-.5-.5v-.94c-.59,0-1.29-.01-1.92.2-.25.08-.69.28-.69.54,0,.29.45.59.72.73.65.33,1.42.42,2.23.42.28,0,.5.23.5.5Zm-3.48,1.76c-.13.34.06.61.35.83.33-.09.67-.19,1-.29-.55-.12-.97-.3-1.35-.53Zm.5,6.58c2.93-2.6,7.23-2.85,10.43-.67-.61-1.84-.82-4.08-.87-6.01l.39-.5c8.79-1.95,16.92-6.78,22.83-13.57-1.25-1.05-2.65-1.8-4.04-2.63-.21.39-.46.8-.7,1.16-2.44,3.62-6.28,6.84-10.61,8.01-2.33,2.07-4.88,3.88-7.6,5.41-.02.01-.04.02-.06.03-3.09,1.73-6.39,3.09-9.81,4.03-.07.03-1.2.31-1.48.38l1.51,4.37Zm-1.43,3.85h3.57v-4.13c-1.69.9-2.95,2.39-3.57,4.13Zm-.28,4h14.7c.2-.99.2-2.01,0-3h-4.35l-.5-.5v-5.07c-1.62-.57-3.39-.57-5.01,0v5.07l-.5.5h-4.34c-.2.99-.2,2.01,0,3Zm12.65,3.8c.78-.78,1.39-1.74,1.77-2.8h-14.14c1.82,5.15,8.44,6.74,12.38,2.8Zm-.33,7.08c2.9-3.2,5.9-5.92,9.62-8.31l-6.44-6.44c.43,1.5.43,3.04.07,4.47-.93,3.64-4.21,6.34-8.13,6.39,1.25,1.64,2.94,2.95,4.87,3.88Zm2.62,2.21c5.96-6.84,14.11-11.73,22.95-13.79-.02-.63-.06-1.23-.11-1.78-6.69,1.17-11.93,3.63-15.97,6.34-3.92,2.62-6.72,5.47-8.66,7.6.6.54,1.19,1.09,1.79,1.63Zm7.11,13.69c.43.04.88.09,1.34.17,1.61-8.65-3.78-8.74-8.15-12.28.93,3.93,8.28,5.39,6.81,12.11Zm-7.33-10.68c.72,4.74,4.74,6.2,4.96,10.63.5-.02.86-.02,1.36,0,1.34-5.63-4.4-7.04-6.32-10.62Zm3.03,10.78c.3-.03.62-.07.94-.09-.16-3.34-2.9-4.86-4.31-8.2.05,3.72,2.07,7.43,3.37,8.3Zm6.04,1.16c-.09,0-.12-.02-.17-.03-2.58-.48-4.4-.3-6.88,0-.38,1.28-1.1,2.5-1.9,3.55,1.14-.04,2.01.52,2.55,1.53.3-.6.72-1.47,1.18-2.57.11-.25.4-.38.65-.27.25.11.38.4.27.65-.35.85-.68,1.56-.95,2.12,1.48-.61,2.35,0,3.34,1.26l.59-2.84c.06-.27.32-.44.59-.39.27.06.44.32.39.59l-.55,2.67c1.35-.91,2.34-1.1,3.57-.02-.03-.82,0-1.69.05-2.51.02-.28.26-.48.53-.46.28.02.48.26.46.53-.06.85-.09,1.77-.04,2.63.93-.88,2.02-1.02,3.09-.54-.23-1.16-.33-2.37-.15-3.54-2.16-1.02-4.11-1.89-6.63-2.38Zm8.2-9.19c-1.24,0-3.57-.07-4.68-.64,0,.21.27.48.44.62.38.34,1.07.76,2.16,1.26,1.19.54,2.19-.45,2.09-1.24Zm-.56-10.7c-2.77.73-5.1,2.25-6.88,3.87-1.85,1.67-3.33,3.67-3.96,4.9,3.27,2.12,4.81,4.75,3.79,10.22,1.82.39,3.41.99,4.98,1.69.15-.18.19-.29.23-.4.03-.16.05-.29.05-.4,0-.27-.08-.39-.29-.49-.64-.32-2.03-.24-2.91-1.13l-.59-.59c-.19-.2-.19-.51,0-.71.2-.19.51-.19.71,0l.59.59c.63.63,1.87.52,2.69.97,0-.86-.04-1.64.14-2.35.23-.95.81-1.71,1.45-2.43-1.73-.78-2.95-1.29-3.92-1.97-.58-.41-1.21-.98-1.21-1.69,0-.59.22-1.35.46-1.87.12-.25.42-.36.67-.24.23.11.37.38.23.69-.04.08-.13.31-.13.33,0,0,0,.01.02.03.23.27,1.12.44,1.47.49.94.15,2.16.19,3.11.18.12-.15.24-.38.31-.56.88-1.97,1.45-6.49.36-8.35-.52-.89-1.17-.73-1.38-.8Zm13.91-1.57h-2.24v15.59l1.12,3.46,1.12-3.46v-15.59Zm0-3.3h-2.24v2.3h2.24v-2.3Zm3.68-2.12c0-.39-.44-.68-.79-.86-.65-.33-1.42-.42-2.23-.42-.15,0-.29-.07-.38-.18-2.04.74-4.02,1.63-5.92,2.67.66.77,1.43,1.36,2.4,1.68v-1.27l.5-.5h3.24l.5.5v.94c.59,0,1.29.01,1.92-.2.25-.08.69-.28.69-.54,0-.29-.45-.59-.72-.73-.65-.33-1.42-.42-2.23-.42-.28,0-.5-.23-.5-.5,0-.28.23-.5.5-.5,1.03,0,2.04.13,2.91.66l.02-.03c.05-.09.08-.2.08-.3Zm-.04-1.58c.13-.34-.06-.6-.35-.83-.33.09-.67.19-1,.29.54.12.97.3,1.35.53Zm-.5-6.58c-2.95,2.62-7.26,2.83-10.43.67.61,1.84.82,4.08.87,6.01l-.39.5c-8.79,1.95-16.92,6.78-22.83,13.57,1.25,1.05,2.65,1.8,4.04,2.63.21-.39.45-.79.7-1.16,2.44-3.62,6.28-6.84,10.61-8.01,2.33-2.07,4.88-3.88,7.6-5.41.02-.01.04-.02.06-.03,3.44-1.93,7.24-3.45,11.28-4.41l-1.51-4.37Zm-44.62,5.01h-2c-.28,0-.5.22-.5.5s.22.5.5.5h2c.28,0,.5-.22.5-.5s-.22-.5-.5-.5Zm4.5,0h-2c-.28,0-.5.22-.5.5s.22.5.5.5h2c.28,0,.5-.22.5-.5s-.22-.5-.5-.5Zm4.5,0h-2c-.28,0-.5.22-.5.5s.22.5.5.5h2c.28,0,.5-.22.5-.5s-.22-.5-.5-.5Zm15.59,27.05c.28,0,.49-.24.48-.51,0-.27-.02-.53-.02-.8,0-.28-.24-.49-.51-.48-.28,0-.49.24-.48.51l.02.8c0,.28.24.49.51.48Zm17.89-37.91h2c.28,0,.5-.22.5-.5s-.22-.5-.5-.5h-2c-.28,0-.5.22-.5.5s.22.5.5.5Zm-4.5,0h2c.28,0,.5-.22.5-.5s-.22-.5-.5-.5h-2c-.28,0-.5.22-.5.5s.22.5.5.5Zm-4.5,0h2c.28,0,.5-.22.5-.5s-.22-.5-.5-.5h-2c-.28,0-.5.22-.5.5s.22.5.5.5Zm-2.79-13.08c0,.28.22.5.5.5s.5-.22.5-.5-.22-.5-.5-.5-.5.22-.5.5Zm-14.8,9.94c-.26.1-.38.4-.27.65s.4.38.65.27c.26-.1.38-.4.27-.65-.1-.26-.4-.38-.65-.27Zm10.45-6.17c-.22.17-.25.49-.08.7.17.22.49.25.7.08.22-.17.25-.49.08-.7-.17-.22-.49-.25-.7-.08Zm-5,3.46c-.24.14-.32.45-.18.68.14.24.45.32.68.18.24-.14.32-.45.18-.68-.14-.24-.45-.32-.68-.18Zm7.32-5.45c-.2.19-.22.5-.03.71s.5.22.71.03c.2-.19.22-.5.03-.71-.19-.2-.5-.22-.71-.03Zm-9.99,6.9c-.25.12-.35.42-.23.67.12.25.42.35.67.23.25-.12.35-.42.23-.67-.12-.25-.42-.35-.67-.23Zm-5.63,2.29c-.26.08-.41.37-.32.63s.37.41.63.32.41-.37.32-.63-.37-.41-.63-.32Zm10.87-5.39c-.23.16-.28.47-.13.7.16.23.47.28.7.13s.28-.47.13-.7c-.16-.23-.47-.28-.7-.13Zm-13.68,6.2c-.28,0-.5.22-.5.5s.22.5.5.5.5-.22.5-.5-.22-.5-.5-.5Zm1.56,25.23c0-.28-.22-.5-.5-.5s-.5.22-.5.5.22.5.5.5.5-.22.5-.5Zm12.02-8.69c.25-.12.35-.42.23-.67-.12-.25-.42-.35-.67-.23-.25.12-.35.42-.23.67.12.25.42.35.67.23Zm-2.67,1.45c.24-.14.32-.45.18-.69-.14-.24-.45-.32-.68-.18s-.32.45-.18.68.45.32.68.18Zm5.45-2.7c.26-.1.38-.4.27-.65-.1-.26-.4-.38-.65-.27-.26.1-.38.4-.27.65s.4.38.65.27Zm-12.76,8.15c.2-.19.22-.5.03-.71-.19-.2-.5-.22-.71-.03-.2.19-.22.5-.03.71.19.2.5.22.71.03Zm2.31-1.98c.22-.17.25-.49.08-.7s-.49-.25-.7-.08c-.22.17-.25.49-.08.7.17.22.49.25.7.08Zm13.31-7.21c.26-.09.41-.37.32-.63-.08-.26-.37-.41-.63-.32s-.41.37-.32.63.37.41.63.32Zm-10.87,5.39c.23-.16.28-.47.13-.7s-.47-.28-.7-.13c-.23.16-.28.47-.13.7.16.23.47.28.7.13Zm13.68-6.2c.28,0,.5-.22.5-.5s-.22-.5-.5-.5-.5.22-.5.5.22.5.5.5Z"/></g></g></svg>