<?xml version="1.0" encoding="UTF-8"?><svg id="Grouped" xmlns="http://www.w3.org/2000/svg" viewBox="0 0 80 112"><defs><style>.cls-1{fill:#fff;}.cls-2{fill:#1f1f1f;}</style></defs><g id="_3"><rect id="BG-2" class="cls-1" x="0" width="80" height="112" rx="5" ry="5"/><g id="Suit"><g id="Suit-2"><g id="Suit-3"><path class="cls-2" d="m15.06,23.06c-.59-.59-1.54-.59-2.12,0l-.64.64c.16-.58.49-.87.77-1.15.59-.59.59-1.54,0-2.12-.29-.29-.67-.44-1.06-.44s-.77.15-1.06.44c-.59.59-.59,1.54,0,2.12.27.27.6.57.77,1.15l-.64-.64c-.59-.59-1.54-.59-2.12,0-.59.59-.59,1.54,0,2.12.59.59,1.54.59,2.12,0l.74-.74v.04c.02.65-.09,1.67-.8,2.39v.25h2v-.25c-.71-.71-.82-1.73-.81-2.38v-.05s.74.74.74.74c.59.59,1.54.59,2.12,0s.59-1.54,0-2.12Z"/><path class="cls-2" d="m64.94,88.94c.59.59,1.54.59,2.12,0l.64-.64c-.16.58-.49.87-.77,1.15-.59.59-.59,1.54,0,2.12.29.29.67.44,1.06.44s.77-.15,1.06-.44c.59-.59.59-1.54,0-2.12-.27-.27-.6-.57-.77-1.15l.64.64c.59.59,1.54.59,2.12,0s.59-1.54,0-2.12c-.59-.59-1.54-.59-2.12,0l-.74.74v-.04c-.02-.65.09-1.67.8-2.39v-.25h-2v.25c.71.71.82,1.73.81,2.38v.05s-.74-.74-.74-.74c-.59-.59-1.54-.59-2.12,0-.59.59-.59,1.54,0,2.12Z"/></g><g id="Value"><path class="cls-2" d="m14.76,14.68c0,.36-.08.7-.24,1.01-.16.31-.38.57-.66.79-.28.22-.61.39-.99.51-.38.12-.78.18-1.2.18-.58,0-1.09-.1-1.54-.31-.44-.2-.8-.43-1.06-.69l.4-.56c.25.17.53.31.84.42.31.11.66.17,1.03.17.23,0,.45-.03.65-.08.21-.06.39-.14.54-.26.16-.12.28-.27.38-.46.09-.19.14-.42.15-.69,0-.43-.12-.79-.37-1.05-.25-.27-.59-.43-1.01-.48-.14.04-.28.07-.44.1-.16.04-.3.06-.44.08l-.2-.73c.29-.06.56-.14.81-.24.25-.1.47-.22.66-.36.19-.14.34-.31.45-.49.11-.19.16-.4.16-.64,0-.29-.1-.53-.3-.72-.2-.2-.48-.29-.82-.29s-.65.08-.94.26c-.29.17-.54.36-.73.57l-.47-.45c.23-.4.57-.73,1.02-1,.45-.27.98-.4,1.61-.4.3,0,.59.04.87.12.28.08.52.2.72.35.21.15.37.34.49.57.12.23.18.49.18.79,0,.26-.05.5-.16.72-.11.22-.24.43-.41.6-.17.18-.36.33-.57.45-.21.13-.42.22-.63.28.25,0,.5.03.76.1.26.07.5.19.71.35.21.16.39.37.53.62s.21.55.21.89Z"/><path class="cls-2" d="m65.24,97.32c0-.36.08-.7.24-1.01.16-.31.38-.57.66-.79.28-.22.61-.39.99-.51.38-.12.78-.18,1.2-.18.58,0,1.09.1,1.54.31.44.2.8.43,1.06.69l-.4.56c-.25-.17-.53-.31-.84-.42-.31-.11-.66-.17-1.03-.17-.23,0-.45.03-.65.08-.21.06-.39.14-.54.26-.16.12-.28.27-.38.46-.09.19-.14.42-.15.69,0,.43.12.79.37,1.05.25.27.59.43,1.01.48.14-.04.28-.07.44-.1s.3-.06.44-.08l.2.73c-.29.06-.56.14-.81.24-.25.1-.47.22-.66.36-.19.14-.34.31-.45.49-.11.19-.16.4-.16.64,0,.29.1.53.3.72.2.2.48.29.82.29s.65-.08.94-.26c.29-.17.54-.36.73-.57l.47.45c-.23.4-.57.73-1.02,1-.45.27-.98.4-1.61.4-.3,0-.59-.04-.87-.12-.28-.08-.52-.2-.72-.35-.21-.15-.37-.34-.49-.57-.12-.23-.18-.49-.18-.79,0-.26.05-.5.16-.72.11-.22.24-.43.41-.6.17-.18.36-.33.57-.45.21-.13.42-.22.63-.28-.25,0-.5-.03-.76-.1-.26-.07-.5-.19-.71-.35-.21-.16-.39-.37-.53-.62s-.21-.55-.21-.89Z"/></g></g><g id="Value-2"><path class="cls-2" d="m45.99,23.07c-1.52-1.52-3.99-1.52-5.52,0l-1.67,1.67c.42-1.5,1.28-2.27,1.99-2.98,1.52-1.52,1.52-3.99,0-5.52-.76-.76-1.75-1.14-2.75-1.14s-2.01.38-2.77,1.14c-1.52,1.52-1.52,3.99,0,5.52.71.71,1.57,1.48,1.99,2.98l-1.67-1.67c-1.52-1.52-3.99-1.52-5.52,0s-1.52,3.99,0,5.52,3.99,1.52,5.52,0l1.93-1.93s0,.07,0,.11c.04,1.69-.23,4.35-2.09,6.21v.65h5.2v-.65c-1.85-1.85-2.11-4.49-2.09-6.18,0-.05,0-.09.01-.14l1.93,1.93c1.52,1.52,3.99,1.52,5.52,0,1.52-1.52,1.52-3.99,0-5.52Z"/><path class="cls-2" d="m45.99,53.07c-1.52-1.52-3.99-1.52-5.52,0l-1.67,1.67c.42-1.5,1.28-2.27,1.99-2.98,1.52-1.52,1.52-3.99,0-5.52-.76-.76-1.75-1.14-2.75-1.14s-2.01.38-2.77,1.14c-1.52,1.52-1.52,3.99,0,5.52.71.71,1.57,1.48,1.99,2.98l-1.67-1.67c-1.52-1.52-3.99-1.52-5.52,0s-1.52,3.99,0,5.52c1.52,1.52,3.99,1.52,5.52,0l1.93-1.93s0,.07,0,.11c.04,1.69-.23,4.35-2.09,6.21v.65h5.2v-.65c-1.85-1.85-2.11-4.49-2.09-6.18,0-.05,0-.09.01-.14l1.93,1.93c1.52,1.52,3.99,1.52,5.52,0,1.52-1.52,1.52-3.99,0-5.52Z"/><path class="cls-2" d="m45.99,88.93c-1.52,1.52-3.99,1.52-5.52,0l-1.67-1.67c.42,1.5,1.28,2.27,1.99,2.98,1.52,1.52,1.52,3.99,0,5.52-.76.76-1.75,1.14-2.75,1.14s-2.01-.38-2.77-1.14c-1.52-1.52-1.52-3.99,0-5.52.71-.71,1.57-1.48,1.99-2.98l-1.67,1.67c-1.52,1.52-3.99,1.52-5.52,0s-1.52-3.99,0-5.52,3.99-1.52,5.52,0l1.93,1.93s0-.07,0-.11c.04-1.69-.23-4.35-2.09-6.21v-.65h5.2v.65c-1.85,1.85-2.11,4.49-2.09,6.18,0,.05,0,.09.01.14l1.93-1.93c1.52-1.52,3.99-1.52,5.52,0,1.52,1.52,1.52,3.99,0,5.52Z"/></g></g></g></svg>