<?xml version="1.0" encoding="UTF-8"?><svg id="Grouped" xmlns="http://www.w3.org/2000/svg" viewBox="0 0 80 112"><defs><style>.cls-1{fill:#fff;}.cls-2{fill:#1f1f1f;}</style></defs><g id="_6"><rect id="BG-2" class="cls-1" x="0" width="80" height="112" rx="5" ry="5"/><g id="Suit"><g id="Suit-2"><g id="Suit-3"><path class="cls-2" d="m15.06,23.06c-.59-.59-1.54-.59-2.12,0l-.64.64c.16-.58.49-.87.76-1.15.59-.59.59-1.54,0-2.12-.29-.29-.67-.44-1.06-.44s-.77.15-1.06.44c-.59.59-.59,1.54,0,2.12.27.27.6.57.77,1.15l-.64-.64c-.59-.59-1.54-.59-2.12,0-.59.59-.59,1.54,0,2.12.59.59,1.54.59,2.12,0l.74-.74v.04c.02.65-.09,1.67-.8,2.39v.25h2v-.25c-.71-.71-.82-1.73-.81-2.38v-.05s.74.74.74.74c.59.59,1.54.59,2.12,0,.59-.59.59-1.54,0-2.12Z"/><path class="cls-2" d="m64.94,88.94c.59.59,1.54.59,2.12,0l.64-.64c-.16.58-.49.87-.77,1.15-.59.59-.59,1.54,0,2.12.29.29.67.44,1.06.44s.77-.15,1.06-.44c.59-.59.59-1.54,0-2.12-.27-.27-.6-.57-.77-1.15l.64.64c.59.59,1.54.59,2.12,0,.59-.59.59-1.54,0-2.12s-1.54-.59-2.12,0l-.74.74v-.04c-.02-.65.09-1.67.8-2.39v-.25h-2v.25c.71.71.82,1.73.81,2.38v.05s-.74-.74-.74-.74c-.59-.59-1.54-.59-2.12,0-.59.59-.59,1.54,0,2.12Z"/></g><g id="Value"><path class="cls-2" d="m15.09,14.29c0,.41-.07.79-.21,1.14-.14.35-.34.66-.6.91-.26.26-.57.46-.94.6-.37.15-.78.22-1.24.22s-.9-.08-1.28-.24c-.39-.16-.71-.4-.98-.71s-.48-.7-.62-1.16c-.15-.46-.22-.99-.22-1.58,0-.68.09-1.3.28-1.88.19-.57.45-1.06.79-1.47.34-.41.75-.72,1.23-.95.48-.23,1.01-.34,1.59-.34.33,0,.65.04.95.11.31.07.58.18.81.33l-.24.69c-.21-.08-.4-.14-.6-.18-.19-.04-.37-.05-.54-.05-.71,0-1.3.25-1.75.76-.45.51-.73,1.18-.84,2.03.22-.23.5-.41.86-.54.36-.13.73-.19,1.11-.19s.71.06,1.01.19c.3.12.55.3.76.52.21.22.37.48.48.79.11.31.17.64.17,1Zm-2.9,2.1c.43,0,.76-.17.99-.51.23-.34.35-.78.35-1.33s-.13-1.01-.39-1.33c-.26-.32-.61-.48-1.05-.48-.22,0-.47.04-.74.11-.27.07-.5.18-.69.32v.53c0,.4.03.77.1,1.11.07.33.16.62.29.85.13.23.29.41.48.54.19.13.41.19.66.19Z"/><path class="cls-2" d="m64.9,97.71c0-.41.07-.79.21-1.14.14-.35.34-.66.6-.91.26-.26.57-.46.94-.6.37-.15.78-.22,1.24-.22s.9.08,1.28.24c.39.16.71.4.98.71s.48.7.62,1.16c.15.46.22.99.22,1.58,0,.68-.09,1.3-.28,1.88-.19.57-.45,1.06-.79,1.47-.34.41-.75.72-1.23.95-.48.23-1.01.34-1.59.34-.33,0-.65-.04-.95-.11-.31-.07-.58-.18-.81-.33l.24-.69c.21.08.4.14.6.18.19.04.37.05.54.05.71,0,1.3-.25,1.75-.76.45-.51.73-1.18.84-2.03-.22.23-.5.41-.86.54-.36.13-.73.19-1.11.19s-.71-.06-1.01-.19c-.3-.12-.55-.3-.76-.52-.21-.22-.37-.48-.48-.79-.11-.31-.17-.64-.17-1Zm2.9-2.1c-.43,0-.76.17-.99.51-.23.34-.35.78-.35,1.33s.13,1.01.39,1.33c.26.32.61.48,1.05.48.22,0,.47-.04.74-.11.27-.07.5-.18.69-.32v-.53c0-.4-.03-.77-.1-1.11-.07-.33-.16-.62-.29-.85-.13-.23-.29-.41-.48-.54-.19-.13-.41-.19-.66-.19Z"/></g></g><g id="Value-2"><path class="cls-2" d="m32.12,21.13c-1.17-1.17-3.07-1.17-4.24,0l-1.29,1.29c.32-1.16.98-1.75,1.53-2.3,1.17-1.17,1.17-3.07,0-4.24-.58-.58-1.35-.88-2.11-.88s-1.54.29-2.13.88c-1.17,1.17-1.17,3.07,0,4.24.55.55,1.21,1.14,1.53,2.3l-1.29-1.29c-1.17-1.17-3.07-1.17-4.24,0-1.17,1.17-1.17,3.07,0,4.24,1.17,1.17,3.07,1.17,4.24,0l1.48-1.48s0,.05,0,.08c.03,1.3-.18,3.35-1.61,4.78v.5h4v-.5c-1.42-1.42-1.62-3.46-1.61-4.76,0-.04,0-.07,0-.1l1.48,1.48c1.17,1.17,3.07,1.17,4.24,0s1.17-3.07,0-4.24Z"/><path class="cls-2" d="m60.12,21.13c-1.17-1.17-3.07-1.17-4.24,0l-1.29,1.29c.32-1.16.98-1.75,1.53-2.3,1.17-1.17,1.17-3.07,0-4.24-.58-.58-1.35-.88-2.11-.88s-1.54.29-2.13.88c-1.17,1.17-1.17,3.07,0,4.24.55.55,1.21,1.14,1.53,2.3l-1.29-1.29c-1.17-1.17-3.07-1.17-4.24,0-1.17,1.17-1.17,3.07,0,4.24,1.17,1.17,3.07,1.17,4.24,0l1.48-1.48s0,.05,0,.08c.03,1.3-.18,3.35-1.61,4.78v.5h4v-.5c-1.42-1.42-1.62-3.46-1.61-4.76,0-.04,0-.07,0-.1l1.48,1.48c1.17,1.17,3.07,1.17,4.24,0s1.17-3.07,0-4.24Z"/><path class="cls-2" d="m60.12,53.63c-1.17-1.17-3.07-1.17-4.24,0l-1.29,1.29c.32-1.16.98-1.75,1.53-2.3,1.17-1.17,1.17-3.07,0-4.24-.58-.58-1.35-.88-2.11-.88s-1.54.29-2.13.88c-1.17,1.17-1.17,3.07,0,4.24.55.55,1.21,1.14,1.53,2.3l-1.29-1.29c-1.17-1.17-3.07-1.17-4.24,0-1.17,1.17-1.17,3.07,0,4.24,1.17,1.17,3.07,1.17,4.24,0l1.48-1.48s0,.05,0,.08c.03,1.3-.18,3.35-1.61,4.78v.5h4v-.5c-1.42-1.42-1.62-3.46-1.61-4.76,0-.04,0-.07,0-.1l1.48,1.48c1.17,1.17,3.07,1.17,4.24,0s1.17-3.07,0-4.24Z"/><path class="cls-2" d="m32.12,53.63c-1.17-1.17-3.07-1.17-4.24,0l-1.29,1.29c.32-1.16.98-1.75,1.53-2.3,1.17-1.17,1.17-3.07,0-4.24-.58-.58-1.35-.88-2.11-.88s-1.54.29-2.13.88c-1.17,1.17-1.17,3.07,0,4.24.55.55,1.21,1.14,1.53,2.3l-1.29-1.29c-1.17-1.17-3.07-1.17-4.24,0-1.17,1.17-1.17,3.07,0,4.24,1.17,1.17,3.07,1.17,4.24,0l1.48-1.48s0,.05,0,.08c.03,1.3-.18,3.35-1.61,4.78v.5h4v-.5c-1.42-1.42-1.62-3.46-1.61-4.76,0-.04,0-.07,0-.1l1.48,1.48c1.17,1.17,3.07,1.17,4.24,0s1.17-3.07,0-4.24Z"/><path class="cls-2" d="m32.12,90.87c-1.17,1.17-3.07,1.17-4.24,0l-1.29-1.29c.32,1.16.98,1.75,1.53,2.3,1.17,1.17,1.17,3.07,0,4.24-.58.58-1.35.88-2.11.88s-1.54-.29-2.13-.88c-1.17-1.17-1.17-3.07,0-4.24.55-.55,1.21-1.14,1.53-2.3l-1.29,1.29c-1.17,1.17-3.07,1.17-4.24,0-1.17-1.17-1.17-3.07,0-4.24,1.17-1.17,3.07-1.17,4.24,0l1.48,1.48s0-.05,0-.08c.03-1.3-.18-3.35-1.61-4.78v-.5h4v.5c-1.42,1.42-1.62,3.46-1.61,4.76,0,.04,0,.07,0,.1l1.48-1.48c1.17-1.17,3.07-1.17,4.24,0s1.17,3.07,0,4.24Z"/><path class="cls-2" d="m60.12,90.87c-1.17,1.17-3.07,1.17-4.24,0l-1.29-1.29c.32,1.16.98,1.75,1.53,2.3,1.17,1.17,1.17,3.07,0,4.24-.58.58-1.35.88-2.11.88s-1.54-.29-2.13-.88c-1.17-1.17-1.17-3.07,0-4.24.55-.55,1.21-1.14,1.53-2.3l-1.29,1.29c-1.17,1.17-3.07,1.17-4.24,0-1.17-1.17-1.17-3.07,0-4.24,1.17-1.17,3.07-1.17,4.24,0l1.48,1.48s0-.05,0-.08c.03-1.3-.18-3.35-1.61-4.78v-.5h4v.5c-1.42,1.42-1.62,3.46-1.61,4.76,0,.04,0,.07,0,.1l1.48-1.48c1.17-1.17,3.07-1.17,4.24,0s1.17,3.07,0,4.24Z"/></g></g></g></svg>