<?xml version="1.0" encoding="UTF-8"?><svg id="Grouped" xmlns="http://www.w3.org/2000/svg" viewBox="0 0 80 112"><defs><style>.cls-1{fill:#fff;}.cls-2{fill:#1f1f1f;}</style></defs><g id="_8"><rect id="BG-2" class="cls-1" x="0" width="80" height="112" rx="5" ry="5"/><g id="Suit"><g id="Suit-2"><g id="Suit-3"><path class="cls-2" d="m14.94,23.1c-.56-.56-1.47-.56-2.04,0l-.62.62c.16-.55.47-.84.73-1.1.56-.56.56-1.47,0-2.04-.28-.28-.65-.42-1.01-.42s-.74.14-1.02.42c-.56.56-.56,1.47,0,2.04.26.26.58.55.73,1.1l-.62-.62c-.56-.56-1.47-.56-2.04,0s-.56,1.47,0,2.04,1.47.56,2.04,0l.71-.71v.04c.02.62-.08,1.61-.77,2.29v.24h1.92v-.24c-.68-.68-.78-1.66-.77-2.28v-.05s.72.71.72.71c.56.56,1.47.56,2.04,0,.56-.56.56-1.47,0-2.04Z"/><path class="cls-2" d="m64.94,88.94c.59.59,1.54.59,2.12,0l.64-.64c-.16.58-.49.87-.76,1.15-.59.59-.59,1.54,0,2.12.29.29.67.44,1.06.44s.77-.15,1.06-.44c.59-.59.59-1.54,0-2.12-.27-.27-.6-.57-.77-1.15l.64.64c.59.59,1.54.59,2.12,0s.59-1.54,0-2.12c-.59-.59-1.54-.59-2.12,0l-.74.74v-.04c-.02-.65.09-1.67.8-2.39v-.25h-2v.25c.71.71.82,1.73.81,2.38v.05s-.74-.74-.74-.74c-.59-.59-1.54-.59-2.12,0-.59.59-.59,1.54,0,2.12Z"/></g><g id="Value"><path class="cls-2" d="m11.94,17.16c-.44,0-.84-.05-1.21-.15-.37-.1-.69-.24-.96-.42-.27-.18-.48-.4-.63-.67-.15-.27-.23-.57-.23-.91,0-.48.15-.91.46-1.29.3-.37.71-.64,1.23-.81-.34-.22-.64-.48-.89-.8-.25-.31-.37-.7-.37-1.16,0-.32.07-.61.2-.87.13-.26.32-.49.56-.67.24-.19.53-.33.87-.43.34-.1.71-.15,1.12-.15.38,0,.74.05,1.06.14.32.09.6.22.83.38.23.16.41.36.54.59.13.23.19.49.19.77,0,.43-.14.81-.43,1.15-.29.34-.65.6-1.08.77.25.13.49.26.72.41.23.14.43.3.6.48.17.18.31.38.41.6.1.22.15.48.15.77,0,.35-.08.67-.23.95-.15.28-.37.52-.64.72-.27.2-.61.35-.99.45-.39.11-.81.16-1.28.16Zm.1-.74c.45,0,.8-.12,1.05-.35.25-.23.38-.52.38-.87,0-.22-.05-.42-.15-.59-.1-.17-.24-.32-.41-.45s-.37-.25-.6-.36c-.23-.11-.99-.48-1.04-.5-.3.19-.53.42-.68.7-.15.28-.22.57-.22.89,0,.26.04.48.14.67.09.19.21.35.37.48.15.13.33.22.54.28.2.06.42.1.64.1Zm-1.29-5.81c0,.2.04.38.13.53.09.16.21.3.37.43.15.13.34.25.55.37.21.11.44.23.68.34.29-.19.51-.41.64-.66.13-.25.2-.51.2-.78,0-.41-.12-.73-.37-.95-.24-.22-.56-.33-.96-.33s-.7.1-.91.3c-.22.2-.33.45-.33.76Z"/><path class="cls-2" d="m68.06,94.84c.44,0,.84.05,1.21.15.37.1.69.24.96.42.27.18.48.4.63.67s.23.57.23.91c0,.48-.15.91-.46,1.29-.3.37-.71.64-1.23.81.34.22.64.48.89.8.25.31.38.7.38,1.16,0,.32-.07.61-.2.87-.13.26-.32.49-.56.67-.24.19-.53.33-.87.43-.34.1-.71.15-1.12.15-.38,0-.74-.05-1.06-.14-.32-.09-.6-.22-.83-.38-.23-.16-.41-.36-.54-.59-.13-.23-.2-.49-.2-.77,0-.43.14-.81.43-1.15.29-.34.65-.6,1.08-.77-.25-.13-.49-.26-.72-.41-.23-.14-.43-.3-.6-.48-.17-.18-.3-.38-.41-.6-.1-.22-.15-.48-.15-.77,0-.35.08-.67.23-.95.15-.28.37-.52.64-.72.27-.2.6-.35.99-.45.39-.11.81-.16,1.28-.16Zm-.1.75c-.45,0-.8.12-1.05.35-.25.23-.38.52-.38.87,0,.22.05.42.15.59.1.17.24.32.41.45.17.13.37.25.6.36.23.11.99.48,1.04.5.3-.19.53-.42.68-.7s.22-.57.22-.89c0-.26-.04-.48-.14-.67-.09-.19-.21-.35-.37-.48-.15-.13-.33-.22-.54-.28-.21-.06-.42-.1-.64-.1Zm1.29,5.81c0-.2-.04-.38-.13-.53-.09-.16-.21-.3-.37-.43-.16-.13-.34-.25-.55-.37-.21-.11-.44-.23-.68-.34-.3.19-.51.41-.64.66-.13.25-.2.51-.2.78,0,.41.12.73.37.95.24.22.56.33.96.33s.7-.1.91-.3c.22-.2.33-.45.33-.76Z"/></g></g><g id="Value-2"><path class="cls-2" d="m32.12,21.13c-1.17-1.17-3.07-1.17-4.24,0l-1.29,1.29c.32-1.16.98-1.75,1.53-2.3,1.17-1.17,1.17-3.07,0-4.24-.58-.58-1.35-.88-2.11-.88s-1.54.29-2.13.88c-1.17,1.17-1.17,3.07,0,4.24.55.55,1.21,1.14,1.53,2.3l-1.29-1.29c-1.17-1.17-3.07-1.17-4.24,0s-1.17,3.07,0,4.24,3.07,1.17,4.24,0l1.48-1.48s0,.05,0,.08c.03,1.3-.18,3.35-1.61,4.78v.5h4v-.5c-1.42-1.42-1.62-3.46-1.61-4.76,0-.04,0-.07,0-.1l1.48,1.48c1.17,1.17,3.07,1.17,4.24,0,1.17-1.17,1.17-3.07,0-4.24Z"/><path class="cls-2" d="m46.12,37.63c-1.17-1.17-3.07-1.17-4.24,0l-1.29,1.29c.32-1.16.98-1.75,1.53-2.3,1.17-1.17,1.17-3.07,0-4.24-.58-.58-1.35-.88-2.11-.88s-1.54.29-2.13.88c-1.17,1.17-1.17,3.07,0,4.24.55.55,1.21,1.14,1.53,2.3l-1.29-1.29c-1.17-1.17-3.07-1.17-4.24,0s-1.17,3.07,0,4.24,3.07,1.17,4.24,0l1.48-1.48s0,.05,0,.08c.03,1.3-.18,3.35-1.61,4.78v.5h4v-.5c-1.42-1.42-1.62-3.46-1.61-4.76,0-.04,0-.07,0-.1l1.48,1.48c1.17,1.17,3.07,1.17,4.24,0,1.17-1.17,1.17-3.07,0-4.24Z"/><path class="cls-2" d="m46.12,74.37c-1.17,1.17-3.07,1.17-4.24,0l-1.29-1.29c.32,1.16.98,1.75,1.53,2.3,1.17,1.17,1.17,3.07,0,4.24-.58.58-1.35.88-2.11.88s-1.54-.29-2.13-.88c-1.17-1.17-1.17-3.07,0-4.24.55-.55,1.21-1.14,1.53-2.3l-1.29,1.29c-1.17,1.17-3.07,1.17-4.24,0s-1.17-3.07,0-4.24,3.07-1.17,4.24,0l1.48,1.48s0-.05,0-.08c.03-1.3-.18-3.35-1.61-4.78v-.5h4v.5c-1.42,1.42-1.62,3.46-1.61,4.76,0,.04,0,.07,0,.1l1.48-1.48c1.17-1.17,3.07-1.17,4.24,0,1.17,1.17,1.17,3.07,0,4.24Z"/><path class="cls-2" d="m60.12,21.13c-1.17-1.17-3.07-1.17-4.24,0l-1.29,1.29c.32-1.16.98-1.75,1.53-2.3,1.17-1.17,1.17-3.07,0-4.24-.58-.58-1.35-.88-2.11-.88s-1.54.29-2.13.88c-1.17,1.17-1.17,3.07,0,4.24.55.55,1.21,1.14,1.53,2.3l-1.29-1.29c-1.17-1.17-3.07-1.17-4.24,0s-1.17,3.07,0,4.24,3.07,1.17,4.24,0l1.48-1.48s0,.05,0,.08c.03,1.3-.18,3.35-1.61,4.78v.5h4v-.5c-1.42-1.42-1.62-3.46-1.61-4.76,0-.04,0-.07,0-.1l1.48,1.48c1.17,1.17,3.07,1.17,4.24,0,1.17-1.17,1.17-3.07,0-4.24Z"/><path class="cls-2" d="m60.12,53.63c-1.17-1.17-3.07-1.17-4.24,0l-1.29,1.29c.32-1.16.98-1.75,1.53-2.3,1.17-1.17,1.17-3.07,0-4.24-.58-.58-1.35-.88-2.11-.88s-1.54.29-2.13.88c-1.17,1.17-1.17,3.07,0,4.24.55.55,1.21,1.14,1.53,2.3l-1.29-1.29c-1.17-1.17-3.07-1.17-4.24,0s-1.17,3.07,0,4.24,3.07,1.17,4.24,0l1.48-1.48s0,.05,0,.08c.03,1.3-.18,3.35-1.61,4.78v.5h4v-.5c-1.42-1.42-1.62-3.46-1.61-4.76,0-.04,0-.07,0-.1l1.48,1.48c1.17,1.17,3.07,1.17,4.24,0,1.17-1.17,1.17-3.07,0-4.24Z"/><path class="cls-2" d="m32.12,53.63c-1.17-1.17-3.07-1.17-4.24,0l-1.29,1.29c.32-1.16.98-1.75,1.53-2.3,1.17-1.17,1.17-3.07,0-4.24-.58-.58-1.35-.88-2.11-.88s-1.54.29-2.13.88c-1.17,1.17-1.17,3.07,0,4.24.55.55,1.21,1.14,1.53,2.3l-1.29-1.29c-1.17-1.17-3.07-1.17-4.24,0s-1.17,3.07,0,4.24,3.07,1.17,4.24,0l1.48-1.48s0,.05,0,.08c.03,1.3-.18,3.35-1.61,4.78v.5h4v-.5c-1.42-1.42-1.62-3.46-1.61-4.76,0-.04,0-.07,0-.1l1.48,1.48c1.17,1.17,3.07,1.17,4.24,0,1.17-1.17,1.17-3.07,0-4.24Z"/><path class="cls-2" d="m32.12,90.87c-1.17,1.17-3.07,1.17-4.24,0l-1.29-1.29c.32,1.16.98,1.75,1.53,2.3,1.17,1.17,1.17,3.07,0,4.24-.58.58-1.35.88-2.11.88s-1.54-.29-2.13-.88c-1.17-1.17-1.17-3.07,0-4.24.55-.55,1.21-1.14,1.53-2.3l-1.29,1.29c-1.17,1.17-3.07,1.17-4.24,0s-1.17-3.07,0-4.24,3.07-1.17,4.24,0l1.48,1.48s0-.05,0-.08c.03-1.3-.18-3.35-1.61-4.78v-.5h4v.5c-1.42,1.42-1.62,3.46-1.61,4.76,0,.04,0,.07,0,.1l1.48-1.48c1.17-1.17,3.07-1.17,4.24,0,1.17,1.17,1.17,3.07,0,4.24Z"/><path class="cls-2" d="m60.12,90.87c-1.17,1.17-3.07,1.17-4.24,0l-1.29-1.29c.32,1.16.98,1.75,1.53,2.3,1.17,1.17,1.17,3.07,0,4.24-.58.58-1.35.88-2.11.88s-1.54-.29-2.13-.88c-1.17-1.17-1.17-3.07,0-4.24.55-.55,1.21-1.14,1.53-2.3l-1.29,1.29c-1.17,1.17-3.07,1.17-4.24,0s-1.17-3.07,0-4.24,3.07-1.17,4.24,0l1.48,1.48s0-.05,0-.08c.03-1.3-.18-3.35-1.61-4.78v-.5h4v.5c-1.42,1.42-1.62,3.46-1.61,4.76,0,.04,0,.07,0,.1l1.48-1.48c1.17-1.17,3.07-1.17,4.24,0,1.17,1.17,1.17,3.07,0,4.24Z"/></g></g></g></svg>