<?xml version="1.0" encoding="UTF-8"?><svg id="Grouped" xmlns="http://www.w3.org/2000/svg" viewBox="0 0 80 112"><defs><style>.cls-1{fill:#fff;}.cls-2{fill:#1f1f1f;}</style></defs><g id="_9"><rect id="BG-2" class="cls-1" x="0" width="80" height="112" rx="5" ry="5"/><g id="Suit"><g id="Suit-2"><g id="Suit-3"><path class="cls-2" d="m15.06,23.06c-.59-.59-1.54-.59-2.12,0l-.64.64c.16-.58.49-.87.77-1.15.59-.59.59-1.54,0-2.12-.29-.29-.67-.44-1.06-.44s-.77.15-1.06.44c-.59.59-.59,1.54,0,2.12.27.27.6.57.77,1.15l-.64-.64c-.59-.59-1.54-.59-2.12,0s-.59,1.54,0,2.12,1.54.59,2.12,0l.74-.74v.04c.02.65-.09,1.67-.8,2.39v.25h2v-.25c-.71-.71-.82-1.73-.81-2.38v-.05s.74.74.74.74c.59.59,1.54.59,2.12,0s.59-1.54,0-2.12Z"/><path class="cls-2" d="m64.94,88.94c.59.59,1.54.59,2.12,0l.64-.64c-.16.58-.49.87-.76,1.15-.59.59-.59,1.54,0,2.12.29.29.67.44,1.06.44s.77-.15,1.06-.44c.59-.59.59-1.54,0-2.12-.27-.27-.6-.57-.76-1.15l.64.64c.59.59,1.54.59,2.12,0,.59-.59.59-1.54,0-2.12-.59-.59-1.54-.59-2.12,0l-.74.74v-.04c-.02-.65.09-1.67.8-2.39v-.25h-2v.25c.71.71.82,1.73.81,2.38v.05s-.74-.74-.74-.74c-.59-.59-1.54-.59-2.12,0-.59.59-.59,1.54,0,2.12Z"/></g><g id="Value"><path class="cls-2" d="m11.32,17.16c-.39,0-.77-.05-1.13-.16-.36-.11-.66-.26-.89-.46l.28-.66c.17.1.38.18.63.26.25.08.51.11.8.11.61,0,1.12-.24,1.54-.72.42-.48.67-1.17.75-2.07-.21.22-.49.39-.85.53-.36.14-.73.2-1.12.2s-.73-.06-1.03-.19c-.3-.12-.56-.3-.77-.52-.21-.22-.37-.48-.48-.78-.11-.3-.17-.63-.17-.99,0-.41.07-.79.21-1.15.14-.36.34-.66.59-.91.26-.25.57-.45.94-.6.37-.15.79-.22,1.25-.22s.9.08,1.28.24c.38.16.71.4.98.72.27.32.48.71.62,1.18.15.47.22,1.01.22,1.63,0,.71-.09,1.34-.27,1.91-.18.57-.43,1.04-.76,1.43-.32.39-.71.69-1.16.9-.45.21-.95.32-1.49.32Zm.61-3.92c.22,0,.46-.04.73-.11.27-.07.49-.18.68-.31v-.52c0-.38-.03-.73-.1-1.06-.06-.33-.16-.62-.29-.86-.13-.24-.29-.43-.48-.57-.2-.14-.42-.21-.68-.21-.22,0-.41.05-.58.14-.17.09-.31.22-.42.39-.11.16-.2.36-.25.59-.06.22-.09.47-.09.73,0,.55.13.99.39,1.32.26.32.62.48,1.08.48Z"/><path class="cls-2" d="m68.68,94.84c.39,0,.77.05,1.13.16.36.11.66.26.89.46l-.29.66c-.18-.1-.39-.18-.63-.26-.25-.08-.51-.11-.8-.11-.61,0-1.12.24-1.54.72-.42.48-.67,1.17-.75,2.07.21-.22.49-.39.85-.53.36-.14.73-.2,1.11-.2s.73.06,1.03.19c.3.12.56.3.77.52.21.22.37.48.48.78.11.3.17.63.17.99,0,.41-.07.79-.21,1.15-.14.36-.34.66-.59.91-.26.25-.57.45-.94.6-.37.15-.79.22-1.25.22s-.9-.08-1.28-.24c-.38-.16-.71-.4-.98-.72-.27-.32-.48-.71-.62-1.18-.15-.47-.22-1.01-.22-1.63,0-.71.09-1.34.27-1.91.18-.57.43-1.04.76-1.43.32-.39.71-.69,1.16-.9.45-.21.95-.32,1.49-.32Zm-.61,3.92c-.22,0-.46.04-.73.11-.27.07-.5.18-.69.31v.52c0,.38.03.73.1,1.06.07.33.16.62.29.86.13.24.29.43.49.57s.42.21.68.21c.22,0,.41-.05.58-.14.17-.09.3-.22.41-.39.11-.17.2-.36.25-.59.06-.22.09-.47.09-.73,0-.55-.13-.99-.39-1.32-.26-.32-.62-.48-1.08-.48Z"/></g></g><g id="Value-2"><path class="cls-2" d="m32.12,21.13c-1.17-1.17-3.07-1.17-4.24,0l-1.29,1.29c.32-1.16.98-1.75,1.53-2.3,1.17-1.17,1.17-3.07,0-4.24-.58-.58-1.35-.88-2.11-.88s-1.54.29-2.13.88c-1.17,1.17-1.17,3.07,0,4.24.55.55,1.21,1.14,1.53,2.3l-1.29-1.29c-1.17-1.17-3.07-1.17-4.24,0-1.17,1.17-1.17,3.07,0,4.24,1.17,1.17,3.07,1.17,4.24,0l1.48-1.48s0,.05,0,.08c.03,1.3-.18,3.35-1.61,4.78v.5h4v-.5c-1.42-1.42-1.62-3.46-1.61-4.76,0-.04,0-.07,0-.1l1.48,1.48c1.17,1.17,3.07,1.17,4.24,0s1.17-3.07,0-4.24Z"/><path class="cls-2" d="m60.12,21.13c-1.17-1.17-3.07-1.17-4.24,0l-1.29,1.29c.32-1.16.98-1.75,1.53-2.3,1.17-1.17,1.17-3.07,0-4.24-.58-.58-1.35-.88-2.11-.88s-1.54.29-2.13.88c-1.17,1.17-1.17,3.07,0,4.24.55.55,1.21,1.14,1.53,2.3l-1.29-1.29c-1.17-1.17-3.07-1.17-4.24,0-1.17,1.17-1.17,3.07,0,4.24,1.17,1.17,3.07,1.17,4.24,0l1.48-1.48s0,.05,0,.08c.03,1.3-.18,3.35-1.61,4.78v.5h4v-.5c-1.42-1.42-1.62-3.46-1.61-4.76,0-.04,0-.07,0-.1l1.48,1.48c1.17,1.17,3.07,1.17,4.24,0s1.17-3.07,0-4.24Z"/><path class="cls-2" d="m46.12,54.13c-1.17-1.17-3.07-1.17-4.24,0l-1.29,1.29c.32-1.16.98-1.75,1.53-2.3,1.17-1.17,1.17-3.07,0-4.24-.58-.58-1.35-.88-2.11-.88s-1.54.29-2.13.88c-1.17,1.17-1.17,3.07,0,4.24.55.55,1.21,1.14,1.53,2.3l-1.29-1.29c-1.17-1.17-3.07-1.17-4.24,0-1.17,1.17-1.17,3.07,0,4.24s3.07,1.17,4.24,0l1.48-1.48s0,.05,0,.08c.03,1.3-.18,3.35-1.61,4.78v.5h4v-.5c-1.42-1.42-1.62-3.46-1.61-4.76,0-.04,0-.07,0-.1l1.48,1.48c1.17,1.17,3.07,1.17,4.24,0s1.17-3.07,0-4.24Z"/><path class="cls-2" d="m32.12,43.13c-1.17-1.17-3.07-1.17-4.24,0l-1.29,1.29c.32-1.16.98-1.75,1.53-2.3,1.17-1.17,1.17-3.07,0-4.24-.58-.58-1.35-.88-2.11-.88s-1.54.29-2.13.88c-1.17,1.17-1.17,3.07,0,4.24.55.55,1.21,1.14,1.53,2.3l-1.29-1.29c-1.17-1.17-3.07-1.17-4.24,0-1.17,1.17-1.17,3.07,0,4.24,1.17,1.17,3.07,1.17,4.24,0l1.48-1.48s0,.05,0,.08c.03,1.3-.18,3.35-1.61,4.78v.5h4v-.5c-1.42-1.42-1.62-3.46-1.61-4.76,0-.04,0-.07,0-.1l1.48,1.48c1.17,1.17,3.07,1.17,4.24,0s1.17-3.07,0-4.24Z"/><path class="cls-2" d="m60.12,43.13c-1.17-1.17-3.07-1.17-4.24,0l-1.29,1.29c.32-1.16.98-1.75,1.53-2.3,1.17-1.17,1.17-3.07,0-4.24-.58-.58-1.35-.88-2.11-.88s-1.54.29-2.13.88c-1.17,1.17-1.17,3.07,0,4.24.55.55,1.21,1.14,1.53,2.3l-1.29-1.29c-1.17-1.17-3.07-1.17-4.24,0-1.17,1.17-1.17,3.07,0,4.24,1.17,1.17,3.07,1.17,4.24,0l1.48-1.48s0,.05,0,.08c.03,1.3-.18,3.35-1.61,4.78v.5h4v-.5c-1.42-1.42-1.62-3.46-1.61-4.76,0-.04,0-.07,0-.1l1.48,1.48c1.17,1.17,3.07,1.17,4.24,0s1.17-3.07,0-4.24Z"/><path class="cls-2" d="m32.12,90.87c-1.17,1.17-3.07,1.17-4.24,0l-1.29-1.29c.32,1.16.98,1.75,1.53,2.3,1.17,1.17,1.17,3.07,0,4.24-.58.58-1.35.88-2.11.88s-1.54-.29-2.13-.88c-1.17-1.17-1.17-3.07,0-4.24.55-.55,1.21-1.14,1.53-2.3l-1.29,1.29c-1.17,1.17-3.07,1.17-4.24,0-1.17-1.17-1.17-3.07,0-4.24,1.17-1.17,3.07-1.17,4.24,0l1.48,1.48s0-.05,0-.08c.03-1.3-.18-3.35-1.61-4.78v-.5h4v.5c-1.42,1.42-1.62,3.46-1.61,4.76,0,.04,0,.07,0,.1l1.48-1.48c1.17-1.17,3.07-1.17,4.24,0s1.17,3.07,0,4.24Z"/><path class="cls-2" d="m60.12,90.87c-1.17,1.17-3.07,1.17-4.24,0l-1.29-1.29c.32,1.16.98,1.75,1.53,2.3,1.17,1.17,1.17,3.07,0,4.24-.58.58-1.35.88-2.11.88s-1.54-.29-2.13-.88c-1.17-1.17-1.17-3.07,0-4.24.55-.55,1.21-1.14,1.53-2.3l-1.29,1.29c-1.17,1.17-3.07,1.17-4.24,0-1.17-1.17-1.17-3.07,0-4.24,1.17-1.17,3.07-1.17,4.24,0l1.48,1.48s0-.05,0-.08c.03-1.3-.18-3.35-1.61-4.78v-.5h4v.5c-1.42,1.42-1.62,3.46-1.61,4.76,0,.04,0,.07,0,.1l1.48-1.48c1.17-1.17,3.07-1.17,4.24,0s1.17,3.07,0,4.24Z"/><path class="cls-2" d="m32.12,68.87c-1.17,1.17-3.07,1.17-4.24,0l-1.29-1.29c.32,1.16.98,1.75,1.53,2.3,1.17,1.17,1.17,3.07,0,4.24-.58.58-1.35.88-2.11.88s-1.54-.29-2.13-.88c-1.17-1.17-1.17-3.07,0-4.24.55-.55,1.21-1.14,1.53-2.3l-1.29,1.29c-1.17,1.17-3.07,1.17-4.24,0-1.17-1.17-1.17-3.07,0-4.24,1.17-1.17,3.07-1.17,4.24,0l1.48,1.48s0-.05,0-.08c.03-1.3-.18-3.35-1.61-4.78v-.5h4v.5c-1.42,1.42-1.62,3.46-1.61,4.76,0,.04,0,.07,0,.1l1.48-1.48c1.17-1.17,3.07-1.17,4.24,0s1.17,3.07,0,4.24Z"/><path class="cls-2" d="m60.12,68.87c-1.17,1.17-3.07,1.17-4.24,0l-1.29-1.29c.32,1.16.98,1.75,1.53,2.3,1.17,1.17,1.17,3.07,0,4.24-.58.58-1.35.88-2.11.88s-1.54-.29-2.13-.88c-1.17-1.17-1.17-3.07,0-4.24.55-.55,1.21-1.14,1.53-2.3l-1.29,1.29c-1.17,1.17-3.07,1.17-4.24,0-1.17-1.17-1.17-3.07,0-4.24,1.17-1.17,3.07-1.17,4.24,0l1.48,1.48s0-.05,0-.08c.03-1.3-.18-3.35-1.61-4.78v-.5h4v.5c-1.42,1.42-1.62,3.46-1.61,4.76,0,.04,0,.07,0,.1l1.48-1.48c1.17-1.17,3.07-1.17,4.24,0s1.17,3.07,0,4.24Z"/></g></g></g></svg>