<?xml version="1.0" encoding="UTF-8"?><svg id="Grouped" xmlns="http://www.w3.org/2000/svg" viewBox="0 0 80 112"><defs><style>.cls-1{fill:#fff;}.cls-2{fill:#1f1f1f;}</style></defs><g id="_9"><rect id="BG-2" class="cls-1" x="0" width="80" height="112" rx="5" ry="5"/><g id="Suit"><g id="Suit-2"><g id="Suit-3"><path class="cls-2" d="m12,19.38c-.54,1.38-3.25,1.88-3.25,4,0,.97.78,1.75,1.75,1.75.51,0,.96-.22,1.28-.57-.06.59-.25,1.29-.78,1.82v.25h2v-.25c-.53-.53-.72-1.23-.78-1.82.32.35.77.57,1.28.57.97,0,1.75-.78,1.75-1.75,0-2.12-2.71-2.62-3.25-4Z"/><path class="cls-2" d="m68,91.62c.54-1.38,3.25-1.88,3.25-4,0-.97-.78-1.75-1.75-1.75-.51,0-.96.22-1.28.57.06-.59.25-1.29.78-1.82v-.25h-2v.25c.53.53.72,1.23.78,1.82-.32-.35-.77-.57-1.28-.57-.97,0-1.75.78-1.75,1.75,0,2.12,2.71,2.62,3.25,4Z"/></g><g id="Value"><path class="cls-2" d="m11.32,16.66c-.39,0-.77-.05-1.13-.16-.36-.11-.66-.26-.89-.46l.28-.66c.17.1.38.18.63.26.25.08.51.11.8.11.61,0,1.12-.24,1.54-.72.42-.48.67-1.17.75-2.07-.21.22-.49.39-.85.53-.36.14-.73.2-1.12.2s-.73-.06-1.03-.19c-.3-.12-.56-.3-.77-.52-.21-.22-.37-.48-.48-.78-.11-.3-.17-.63-.17-.99,0-.41.07-.79.21-1.15.14-.36.34-.66.59-.91.26-.25.57-.45.94-.6.37-.15.79-.22,1.25-.22s.9.08,1.28.24c.38.16.71.4.98.72.27.32.48.71.62,1.18.15.47.22,1.01.22,1.63,0,.71-.09,1.34-.27,1.91-.18.57-.43,1.04-.76,1.43-.32.39-.71.69-1.16.9-.45.21-.95.32-1.49.32Zm.61-3.92c.22,0,.46-.04.73-.11.27-.07.49-.18.68-.31v-.52c0-.38-.03-.73-.1-1.06-.06-.33-.16-.62-.29-.86-.13-.24-.29-.43-.48-.57-.2-.14-.42-.21-.68-.21-.22,0-.41.05-.58.14-.17.09-.31.22-.42.39-.11.17-.2.36-.25.59-.06.22-.09.47-.09.73,0,.55.13.99.39,1.32.26.32.62.48,1.08.48Z"/><path class="cls-2" d="m68.68,94.34c.39,0,.77.05,1.13.16.36.11.66.26.89.46l-.29.66c-.18-.1-.39-.18-.63-.26-.25-.08-.51-.11-.8-.11-.61,0-1.12.24-1.54.72-.42.48-.67,1.17-.75,2.07.21-.22.49-.39.85-.53.36-.14.73-.2,1.11-.2s.73.06,1.03.19c.3.12.56.3.77.52.21.22.37.48.48.78.11.3.17.63.17.99,0,.41-.07.79-.21,1.15-.14.36-.34.66-.59.91-.26.25-.57.45-.94.6-.37.15-.79.22-1.25.22s-.9-.08-1.28-.24c-.38-.16-.71-.4-.98-.72-.27-.32-.48-.71-.62-1.18-.15-.47-.22-1.01-.22-1.63,0-.71.09-1.34.27-1.91.18-.57.43-1.04.76-1.43.32-.39.71-.69,1.16-.9.45-.21.95-.32,1.49-.32Zm-.61,3.92c-.22,0-.46.04-.73.11-.27.07-.5.18-.69.31v.52c0,.38.03.73.1,1.06.07.33.16.62.29.86.13.24.29.43.49.57s.42.21.68.21c.22,0,.41-.05.58-.14.17-.09.3-.22.41-.39.11-.17.2-.36.25-.59.06-.22.09-.47.09-.73,0-.55-.13-.99-.39-1.32-.26-.32-.62-.48-1.08-.48Z"/></g></g><g id="Value-2"><path class="cls-2" d="m26,14.25c-1.08,2.76-6.5,3.76-6.5,8,0,1.93,1.57,3.5,3.5,3.5,1.02,0,1.93-.44,2.57-1.14-.12,1.18-.51,2.58-1.56,3.64v.5h4v-.5c-1.06-1.06-1.45-2.45-1.57-3.63.64.69,1.55,1.13,2.56,1.13,1.93,0,3.5-1.57,3.5-3.5,0-4.24-5.42-5.24-6.5-8Z"/><path class="cls-2" d="m54,14.25c-1.08,2.76-6.5,3.76-6.5,8,0,1.93,1.57,3.5,3.5,3.5,1.02,0,1.93-.44,2.57-1.14-.12,1.18-.51,2.58-1.56,3.64v.5h4v-.5c-1.06-1.06-1.45-2.45-1.57-3.63.64.69,1.55,1.13,2.56,1.13,1.93,0,3.5-1.57,3.5-3.5,0-4.24-5.42-5.24-6.5-8Z"/><path class="cls-2" d="m40,47.25c-1.08,2.76-6.5,3.76-6.5,8,0,1.93,1.57,3.5,3.5,3.5,1.02,0,1.93-.44,2.57-1.14-.12,1.18-.51,2.58-1.57,3.64v.5h4v-.5c-1.06-1.06-1.45-2.45-1.57-3.63.64.69,1.55,1.13,2.56,1.13,1.93,0,3.5-1.57,3.5-3.5,0-4.24-5.42-5.24-6.5-8Z"/><path class="cls-2" d="m26,36.25c-1.08,2.76-6.5,3.76-6.5,8,0,1.93,1.57,3.5,3.5,3.5,1.02,0,1.93-.44,2.57-1.14-.12,1.18-.51,2.58-1.56,3.64v.5h4v-.5c-1.06-1.06-1.45-2.45-1.57-3.63.64.69,1.55,1.13,2.56,1.13,1.93,0,3.5-1.57,3.5-3.5,0-4.24-5.42-5.24-6.5-8Z"/><path class="cls-2" d="m54,36.25c-1.08,2.76-6.5,3.76-6.5,8,0,1.93,1.57,3.5,3.5,3.5,1.02,0,1.93-.44,2.57-1.14-.12,1.18-.51,2.58-1.56,3.64v.5h4v-.5c-1.06-1.06-1.45-2.45-1.57-3.63.64.69,1.55,1.13,2.56,1.13,1.93,0,3.5-1.57,3.5-3.5,0-4.24-5.42-5.24-6.5-8Z"/><path class="cls-2" d="m26,96.75c-1.08-2.76-6.5-3.76-6.5-8,0-1.93,1.57-3.5,3.5-3.5,1.02,0,1.93.44,2.57,1.14-.12-1.18-.51-2.58-1.56-3.64v-.5h4v.5c-1.06,1.06-1.45,2.45-1.57,3.63.64-.69,1.55-1.13,2.56-1.13,1.93,0,3.5,1.57,3.5,3.5,0,4.24-5.42,5.24-6.5,8Z"/><path class="cls-2" d="m54,96.75c-1.08-2.76-6.5-3.76-6.5-8,0-1.93,1.57-3.5,3.5-3.5,1.02,0,1.93.44,2.57,1.14-.12-1.18-.51-2.58-1.56-3.64v-.5h4v.5c-1.06,1.06-1.45,2.45-1.57,3.63.64-.69,1.55-1.13,2.56-1.13,1.93,0,3.5,1.57,3.5,3.5,0,4.24-5.42,5.24-6.5,8Z"/><path class="cls-2" d="m26,74.75c-1.08-2.76-6.5-3.76-6.5-8,0-1.93,1.57-3.5,3.5-3.5,1.02,0,1.93.44,2.57,1.14-.12-1.18-.51-2.58-1.56-3.64v-.5h4v.5c-1.06,1.06-1.45,2.45-1.57,3.63.64-.69,1.55-1.13,2.56-1.13,1.93,0,3.5,1.57,3.5,3.5,0,4.24-5.42,5.24-6.5,8Z"/><path class="cls-2" d="m54,74.75c-1.08-2.76-6.5-3.76-6.5-8,0-1.93,1.57-3.5,3.5-3.5,1.02,0,1.93.44,2.57,1.14-.12-1.18-.51-2.58-1.56-3.64v-.5h4v.5c-1.06,1.06-1.45,2.45-1.57,3.63.64-.69,1.55-1.13,2.56-1.13,1.93,0,3.5,1.57,3.5,3.5,0,4.24-5.42,5.24-6.5,8Z"/></g></g></g></svg>