<?xml version="1.0" encoding="UTF-8"?><svg id="Grouped" xmlns="http://www.w3.org/2000/svg" viewBox="0 0 80 112"><defs><style>.cls-1{fill:#fff;}.cls-2{fill:#c93112;}</style></defs><g id="_10"><rect id="BG-2" class="cls-1" x="0" y="0" width="80" height="112" rx="5" ry="5"/><g id="Suit"><g id="Suit-2"><g id="Suit-3"><path class="cls-2" d="m12,26.75c-.9-1.4-2.1-2.6-3.5-3.5,1.4-.9,2.6-2.1,3.5-3.5.9,1.4,2.1,2.6,3.5,3.5-1.4.9-2.6,2.1-3.5,3.5Z"/><path class="cls-2" d="m68,83.75c.9,1.4,2.1,2.6,3.5,3.5-1.4.9-2.6,2.1-3.5,3.5-.9-1.4-2.1-2.6-3.5-3.5,1.4-.9,2.6-2.1,3.5-3.5Z"/></g><g id="Value"><path class="cls-2" d="m9.17,8.21v6.84c0,.1.03.18.08.23.05.05.13.09.22.1l1.17.19v.67h-4.67v-.67l1.35-.19c.1-.02.18-.05.24-.11.06-.06.09-.13.09-.23v-5.39c-.09.03-.2.06-.33.09-.13.03-.28.06-.43.09-.15.03-.3.06-.45.08-.15.02-.29.04-.4.05l-.14-.72c.21-.05.44-.12.66-.2.23-.08.45-.18.67-.29.21-.1.42-.22.61-.34.19-.12.36-.24.5-.36l.81.15Z"/><path class="cls-2" d="m14.7,16.4c-.58,0-1.07-.11-1.46-.32-.39-.21-.71-.51-.95-.88-.24-.37-.41-.8-.51-1.3-.1-.5-.15-1.02-.15-1.58,0-.71.08-1.33.23-1.87.15-.53.37-.97.66-1.32.28-.35.63-.61,1.03-.79.4-.17.85-.26,1.34-.26.58,0,1.06.11,1.46.32.39.21.71.5.95.87.24.37.41.8.51,1.29.1.5.15,1.02.15,1.58,0,.72-.08,1.34-.23,1.88-.15.54-.37.98-.66,1.33-.28.35-.62.61-1.03.78-.4.17-.85.26-1.34.26Zm.04-7.56c-.51,0-.87.26-1.09.78-.22.52-.32,1.32-.32,2.38,0,1.15.11,2.04.32,2.67.21.63.61.95,1.19.95.51,0,.87-.26,1.09-.79s.33-1.32.33-2.38c0-1.15-.11-2.04-.32-2.68-.21-.63-.61-.95-1.19-.95Z"/><path class="cls-2" d="m70.82,102.29v-6.84c0-.1-.03-.18-.08-.23-.05-.05-.12-.09-.22-.1l-1.18-.19v-.67h4.67v.67l-1.35.19c-.1.02-.18.05-.24.11-.06.06-.09.13-.09.23v5.39c.09-.03.2-.06.33-.09.13-.03.28-.06.43-.09.15-.03.3-.05.45-.08.15-.02.29-.04.4-.05l.14.71c-.21.05-.43.12-.66.2-.23.08-.45.18-.67.29-.21.1-.42.22-.61.34-.19.12-.36.24-.5.37l-.81-.15Z"/><path class="cls-2" d="m65.29,94.11c.58,0,1.07.11,1.46.32.39.21.71.51.95.88.24.37.41.8.51,1.3.1.5.15,1.02.15,1.58,0,.71-.08,1.33-.23,1.86-.16.54-.37.98-.66,1.32-.28.35-.63.61-1.03.79-.4.18-.85.26-1.34.26-.58,0-1.06-.11-1.46-.32-.39-.21-.71-.5-.95-.87-.24-.37-.41-.8-.51-1.3s-.15-1.02-.15-1.58c0-.72.08-1.34.23-1.88.16-.53.37-.98.66-1.33.29-.35.62-.61,1.03-.78.4-.17.85-.26,1.34-.26Zm-.04,7.56c.51,0,.88-.26,1.09-.78.21-.52.32-1.32.32-2.38,0-1.15-.11-2.04-.32-2.67-.21-.63-.61-.95-1.19-.95-.51,0-.87.26-1.09.79-.22.52-.33,1.32-.33,2.38,0,1.15.11,2.04.32,2.68.21.63.61.95,1.19.95Z"/></g></g><g id="Value-2"><path class="cls-2" d="m26,29.25c-1.8-2.81-4.19-5.2-7-7,2.81-1.8,5.2-4.19,7-7,1.8,2.81,4.19,5.2,7,7-2.81,1.8-5.2,4.19-7,7Z"/><path class="cls-2" d="m54,29.25c-1.8-2.81-4.19-5.2-7-7,2.81-1.8,5.2-4.19,7-7,1.8,2.81,4.19,5.2,7,7-2.81,1.8-5.2,4.19-7,7Z"/><path class="cls-2" d="m40,40.75c-1.8-2.81-4.19-5.2-7-7,2.81-1.8,5.2-4.19,7-7,1.8,2.81,4.19,5.2,7,7-2.81,1.8-5.2,4.19-7,7Z"/><path class="cls-2" d="m26,51.25c-1.8-2.81-4.19-5.2-7-7,2.81-1.8,5.2-4.19,7-7,1.8,2.81,4.19,5.2,7,7-2.81,1.8-5.2,4.19-7,7Z"/><path class="cls-2" d="m54,51.25c-1.8-2.81-4.19-5.2-7-7,2.81-1.8,5.2-4.19,7-7,1.8,2.81,4.19,5.2,7,7-2.81,1.8-5.2,4.19-7,7Z"/><path class="cls-2" d="m33,88.25c-2.81,1.8-5.2,4.19-7,7-1.8-2.81-4.19-5.2-7-7,2.81-1.8,5.2-4.19,7-7,1.8,2.81,4.19,5.2,7,7Z"/><path class="cls-2" d="m61,88.25c-2.81,1.8-5.2,4.19-7,7-1.8-2.81-4.19-5.2-7-7,2.81-1.8,5.2-4.19,7-7,1.8,2.81,4.19,5.2,7,7Z"/><path class="cls-2" d="m47,76.75c-2.81,1.8-5.2,4.19-7,7-1.8-2.81-4.19-5.2-7-7,2.81-1.8,5.2-4.19,7-7,1.8,2.81,4.19,5.2,7,7Z"/><path class="cls-2" d="m33,66.25c-2.81,1.8-5.2,4.19-7,7-1.8-2.81-4.19-5.2-7-7,2.81-1.8,5.2-4.19,7-7,1.8,2.81,4.19,5.2,7,7Z"/><path class="cls-2" d="m61,66.25c-2.81,1.8-5.2,4.19-7,7-1.8-2.81-4.19-5.2-7-7,2.81-1.8,5.2-4.19,7-7,1.8,2.81,4.19,5.2,7,7Z"/></g></g></g></svg>