<?xml version="1.0" encoding="UTF-8"?><svg id="Grouped" xmlns="http://www.w3.org/2000/svg" viewBox="0 0 80 112"><defs><style>.cls-1{fill:#fff;}.cls-2{fill:#c93112;}</style></defs><g id="_10"><rect id="BG-2" class="cls-1" x="0" width="80" height="112" rx="5" ry="5"/><g id="Suit"><g id="Suit-2"><g id="Suit-3"><path class="cls-2" d="m13.62,21c-.7,0-1.3.39-1.62.96-.32-.57-.93-.96-1.62-.96-1.04,0-1.87.84-1.87,1.88,0,2.07,2.95,3.18,3.5,4.5.55-1.32,3.5-2.43,3.5-4.5,0-1.04-.84-1.88-1.87-1.88Z"/><path class="cls-2" d="m66.37,90.5c.7,0,1.3-.39,1.62-.96.32.57.93.96,1.62.96,1.04,0,1.87-.84,1.87-1.88,0-2.07-2.95-3.18-3.5-4.5-.55,1.32-3.5,2.43-3.5,4.5,0,1.04.84,1.88,1.87,1.88Z"/></g><g id="Value"><path class="cls-2" d="m9.17,8.71v6.84c0,.1.03.18.08.23.05.05.13.09.22.1l1.17.19v.67h-4.67v-.67l1.35-.19c.1-.02.18-.05.24-.11.06-.06.09-.13.09-.23v-5.39c-.09.03-.2.06-.33.09-.13.03-.28.06-.43.09-.15.03-.3.06-.45.08-.15.02-.29.04-.4.05l-.14-.72c.21-.05.44-.12.66-.2.23-.08.45-.18.67-.29.21-.1.42-.22.61-.34.19-.12.36-.24.5-.36l.81.15Z"/><path class="cls-2" d="m14.7,16.9c-.58,0-1.07-.11-1.46-.32-.39-.21-.71-.51-.95-.88-.24-.37-.41-.8-.51-1.3-.1-.5-.15-1.02-.15-1.58,0-.71.08-1.33.23-1.87.15-.53.37-.97.66-1.32.28-.35.63-.61,1.03-.79.4-.17.85-.26,1.34-.26.58,0,1.06.11,1.46.32.39.21.71.5.95.87.24.37.41.8.51,1.29.1.5.15,1.02.15,1.58,0,.72-.08,1.34-.23,1.88-.15.54-.37.98-.66,1.33-.28.35-.62.61-1.03.78-.4.17-.85.26-1.34.26Zm.04-7.56c-.51,0-.87.26-1.09.78-.22.52-.32,1.32-.32,2.38,0,1.15.11,2.04.32,2.67.21.63.61.95,1.19.95.51,0,.87-.26,1.09-.79s.33-1.32.33-2.38c0-1.15-.11-2.04-.32-2.68-.21-.63-.61-.95-1.19-.95Z"/><path class="cls-2" d="m70.82,102.79v-6.84c0-.1-.03-.18-.08-.23-.05-.05-.12-.09-.22-.1l-1.18-.19v-.67h4.67v.67l-1.35.19c-.1.02-.18.05-.24.11-.06.06-.09.13-.09.23v5.39c.09-.03.2-.06.33-.09.13-.03.28-.06.43-.09.15-.03.3-.06.45-.08.15-.02.29-.04.4-.05l.14.72c-.21.05-.43.12-.66.2-.23.08-.45.18-.67.29-.21.1-.42.22-.61.34-.19.12-.36.24-.5.36l-.81-.15Z"/><path class="cls-2" d="m65.29,94.6c.58,0,1.07.11,1.46.32.39.21.71.51.95.88.24.37.41.8.51,1.3.1.5.15,1.02.15,1.58,0,.71-.08,1.33-.23,1.87-.16.53-.37.97-.66,1.32-.28.35-.63.61-1.03.79-.4.17-.85.26-1.34.26-.58,0-1.06-.11-1.46-.32-.39-.21-.71-.5-.95-.87-.24-.37-.41-.8-.51-1.29-.1-.5-.15-1.02-.15-1.58,0-.72.08-1.34.23-1.88.16-.53.37-.98.66-1.33.29-.35.62-.61,1.03-.78.4-.17.85-.26,1.34-.26Zm-.04,7.56c.51,0,.88-.26,1.09-.78.21-.52.32-1.32.32-2.38,0-1.15-.11-2.04-.32-2.67-.21-.63-.61-.95-1.19-.95-.51,0-.87.26-1.09.79-.22.52-.33,1.32-.33,2.38,0,1.15.11,2.04.32,2.68.21.63.61.95,1.19.95Z"/></g></g><g id="Value-2"><path class="cls-2" d="m29.25,17.25c-1.4,0-2.61.78-3.25,1.91-.64-1.14-1.85-1.91-3.25-1.91-2.07,0-3.75,1.68-3.75,3.75,0,4.14,5.9,6.36,7,9,1.1-2.64,7-4.86,7-9,0-2.07-1.68-3.75-3.75-3.75Z"/><path class="cls-2" d="m57.25,17.25c-1.4,0-2.61.78-3.25,1.91-.64-1.14-1.85-1.91-3.25-1.91-2.07,0-3.75,1.68-3.75,3.75,0,4.14,5.9,6.36,7,9,1.1-2.64,7-4.86,7-9,0-2.07-1.68-3.75-3.75-3.75Z"/><path class="cls-2" d="m43.25,28.75c-1.4,0-2.61.78-3.25,1.91-.64-1.14-1.85-1.91-3.25-1.91-2.07,0-3.75,1.68-3.75,3.75,0,4.14,5.9,6.36,7,9,1.1-2.64,7-4.86,7-9,0-2.07-1.68-3.75-3.75-3.75Z"/><path class="cls-2" d="m29.25,39.25c-1.4,0-2.61.78-3.25,1.91-.64-1.14-1.85-1.91-3.25-1.91-2.07,0-3.75,1.68-3.75,3.75,0,4.14,5.9,6.36,7,9,1.1-2.64,7-4.86,7-9,0-2.07-1.68-3.75-3.75-3.75Z"/><path class="cls-2" d="m57.25,39.25c-1.4,0-2.61.78-3.25,1.91-.64-1.14-1.85-1.91-3.25-1.91-2.07,0-3.75,1.68-3.75,3.75,0,4.14,5.9,6.36,7,9,1.1-2.64,7-4.86,7-9,0-2.07-1.68-3.75-3.75-3.75Z"/><path class="cls-2" d="m29.25,94.25c-1.4,0-2.61-.78-3.25-1.91-.64,1.14-1.85,1.91-3.25,1.91-2.07,0-3.75-1.68-3.75-3.75,0-4.14,5.9-6.36,7-9,1.1,2.64,7,4.86,7,9,0,2.07-1.68,3.75-3.75,3.75Z"/><path class="cls-2" d="m57.25,94.25c-1.4,0-2.61-.78-3.25-1.91-.64,1.14-1.85,1.91-3.25,1.91-2.07,0-3.75-1.68-3.75-3.75,0-4.14,5.9-6.36,7-9,1.1,2.64,7,4.86,7,9,0,2.07-1.68,3.75-3.75,3.75Z"/><path class="cls-2" d="m43.25,82.75c-1.4,0-2.61-.78-3.25-1.91-.64,1.14-1.85,1.91-3.25,1.91-2.07,0-3.75-1.68-3.75-3.75,0-4.14,5.9-6.36,7-9,1.1,2.64,7,4.86,7,9,0,2.07-1.68,3.75-3.75,3.75Z"/><path class="cls-2" d="m29.25,72.25c-1.4,0-2.61-.78-3.25-1.91-.64,1.14-1.85,1.91-3.25,1.91-2.07,0-3.75-1.68-3.75-3.75,0-4.14,5.9-6.36,7-9,1.1,2.64,7,4.86,7,9,0,2.07-1.68,3.75-3.75,3.75Z"/><path class="cls-2" d="m57.25,72.25c-1.4,0-2.61-.78-3.25-1.91-.64,1.14-1.85,1.91-3.25,1.91-2.07,0-3.75-1.68-3.75-3.75,0-4.14,5.9-6.36,7-9,1.1,2.64,7,4.86,7,9,0,2.07-1.68,3.75-3.75,3.75Z"/></g></g></g></svg>