<?xml version="1.0" encoding="UTF-8"?><svg id="Grouped" xmlns="http://www.w3.org/2000/svg" viewBox="0 0 80 112"><defs><style>.cls-1{fill:#f9cb19;}.cls-2{fill:#fff;}.cls-3{fill:#c93112;}.cls-4{fill:#1f1f1f;}.cls-5{fill:#234bc2;}</style></defs><g id="Jack"><rect id="BG-2" class="cls-2" x="0" width="80" height="112" rx="5" ry="5"/><g id="Suit"><g id="Suit-2"><g id="Suit-3"><path class="cls-4" d="m15.06,23.06c-.59-.59-1.54-.59-2.12,0l-.64.64c.16-.58.49-.87.76-1.15.59-.59.59-1.54,0-2.12-.29-.29-.67-.44-1.06-.44s-.77.15-1.06.44c-.59.59-.59,1.54,0,2.12.27.27.6.57.77,1.15l-.64-.64c-.59-.59-1.54-.59-2.12,0-.59.59-.59,1.54,0,2.12.59.59,1.54.59,2.12,0l.74-.74v.04c.02.65-.09,1.67-.8,2.39v.25h2v-.25c-.71-.71-.82-1.73-.81-2.38v-.05s.74.74.74.74c.59.59,1.54.59,2.12,0,.59-.59.59-1.54,0-2.12Z"/><path class="cls-4" d="m64.94,88.94c.59.59,1.54.59,2.12,0l.64-.64c-.16.58-.49.87-.77,1.15-.59.59-.59,1.54,0,2.12.29.29.67.44,1.06.44s.77-.15,1.06-.44c.59-.59.59-1.54,0-2.12-.27-.27-.6-.57-.77-1.15l.64.64c.59.59,1.54.59,2.12,0,.59-.59.59-1.54,0-2.12s-1.54-.59-2.12,0l-.74.74v-.04c-.02-.65.09-1.67.8-2.39v-.25h-2v.25c.71.71.82,1.73.81,2.38v.05s-.74-.74-.74-.74c-.59-.59-1.54-.59-2.12,0-.59.59-.59,1.54,0,2.12Z"/></g><g id="Value"><path class="cls-4" d="m13.12,8.79c-.1.02-.17.06-.22.12-.05.06-.07.14-.07.23v5.53c0,.67-.04,1.25-.11,1.73-.07.48-.22.89-.44,1.24-.22.35-.53.65-.93.91-.4.26-.93.51-1.58.75l-.33-.69c.37-.24.68-.47.91-.7.23-.22.42-.47.54-.74.13-.27.21-.59.26-.95.05-.36.07-.8.07-1.3v-5.78c0-.1-.03-.18-.07-.24-.05-.06-.12-.1-.22-.12l-.92-.18v-.69h3.91v.69l-.81.18Z"/><path class="cls-4" d="m66.87,103.21c.1-.02.17-.06.22-.12.05-.06.07-.14.07-.23v-5.53c0-.67.04-1.25.11-1.73.07-.48.22-.89.44-1.24.22-.35.53-.65.93-.91.4-.26.93-.51,1.58-.75l.33.69c-.37.24-.68.47-.91.7-.23.22-.42.47-.54.74-.13.27-.22.59-.26.95-.05.36-.07.8-.07,1.3v5.78c0,.1.03.18.07.24.05.06.12.1.22.12l.92.18v.69h-3.91v-.69l.81-.18Z"/></g></g><g id="Value-2"><path class="cls-4" d="m67.12,17.13c-1.17-1.17-3.07-1.17-4.24,0l-1.29,1.29c.32-1.16.98-1.75,1.53-2.3,1.17-1.17,1.17-3.07,0-4.24-.58-.58-1.35-.88-2.11-.88s-1.54.29-2.13.88c-1.17,1.17-1.17,3.07,0,4.24.55.55,1.21,1.14,1.53,2.3l-1.29-1.29c-1.17-1.17-3.07-1.17-4.24,0-1.17,1.17-1.17,3.07,0,4.24,1.17,1.17,3.07,1.17,4.24,0l1.48-1.48s0,.05,0,.08c.03,1.3-.18,3.35-1.61,4.78v.5h4v-.5c-1.42-1.42-1.62-3.46-1.61-4.76,0-.04,0-.07,0-.1l1.48,1.48c1.17,1.17,3.07,1.17,4.24,0s1.17-3.07,0-4.24Z"/><path class="cls-4" d="m25.12,94.88c-1.17,1.17-3.07,1.17-4.24,0l-1.29-1.29c.32,1.15.98,1.75,1.53,2.3,1.17,1.17,1.17,3.07,0,4.24-.58.58-1.35.88-2.11.88s-1.54-.29-2.13-.88c-1.17-1.17-1.17-3.07,0-4.24.55-.55,1.21-1.14,1.53-2.3l-1.29,1.29c-1.17,1.17-3.07,1.17-4.24,0-1.17-1.17-1.17-3.07,0-4.24,1.17-1.17,3.07-1.17,4.24,0l1.48,1.48s0-.05,0-.08c.03-1.3-.18-3.35-1.61-4.78v-.5h4v.5c-1.42,1.42-1.62,3.46-1.61,4.76,0,.04,0,.07,0,.1l1.48-1.48c1.17-1.17,3.07-1.17,4.24,0,1.17,1.17,1.17,3.07,0,4.24Z"/></g></g><path id="Frame" class="cls-4" d="m72,80h-1V9H22v-1h49.5l.5.5v71.5ZM8,32v71.5l.5.5h49.5v-1H9V32h-1Z"/><g id="Illustration"><g id="Color"><path class="cls-3" d="m45.73,98.22c-1.04.64-2.3,1-3.64,1.1.32-1.94,2.26-3.7,3.34-4.54l.3,3.44Z"/><path class="cls-3" d="m44.17,94.52c-.98.84-2.18,2.1-2.78,3.6l-1.5-4.02c2.48.61,4.07.42,4.28.42Z"/><path class="cls-3" d="m40.79,99.36c-2.28-.11-4.48-.9-6.16-2.02l4.24-3.14,1.92,5.16Z"/><path class="cls-3" d="m34.75,96c.3-1.54,0-3.22-.36-4.46.72.54,1.48,1,2.28,1.4.06.02.1.08.16.1l.02-.02c.4.2.8.36,1.22.52l-3.32,2.46Z"/><path class="cls-3" d="m33.55,96.52c-1.18-1.02-2-2.24-2.36-3.54l1.92-2.06c.46,1.2,1.18,3.74.44,5.6Z"/><path class="cls-1" d="m45.41,92.84c0,1.74-8.91.57-7.82-6.82.58-4.12.62-6.18-1.46-7.36.78-.22,1.54.02,2.32.74,2.87,2.71-1.27,8.69,1.84,10.9,1.6,1.14,2.96,1.74,4.28,1.9.56.06.86.38.84.64Z"/><path class="cls-1" d="m38.97,92.64c-5.03-1.68-4.39-7.5-2.6-12.48.7.92.68,2.46.22,5.72-.44,3.1.78,5.12,1.84,6.28.16.18.36.32.54.48Z"/><path class="cls-1" d="m34.71,90.12c-3.19-3.19-2.17-7.95.82-10.54-.84,2.22-2.28,7.04-.82,10.54Z"/><path class="cls-1" d="m57.17,44.5v12.44c-.2-.03-.24-.02-2-.02,0-11.5-.02-7.56-.02-8.42.52-1.78.82-3.6.88-5.42.72.17,1.14.79,1.14,1.42Z"/><rect class="cls-1" x="55.17" y="64.56" width="2" height="17.78"/><path class="cls-5" d="m50.97,66.72c-.26,3.92-4.86,8.2-9.88,10.7,0,0-.02.02-.04.02-.56.26-1.1.6-1.62,1,.52-2.92,3.06-5.42,8.78-8.72,1.26-.62,2.22-1.68,2.76-3Z"/><path class="cls-3" d="m40.83,73.88c-1.42,1.5-2.18,3-2.42,4.64-1.26-1.06-2.66-1.2-3.98-.38-.8-.24-4.68-1.52-7.98-4.68-.14-3.9.8-7.54,2.46-10.82,1.88,5.5,6.38,9.78,11.92,11.24Z"/><path class="cls-3" d="m50.21,66c-1.52,4.7-8.12,4.11-12.18,1.06,4.34-2.06,8.08-4.96,10.98-8.34,1.76,3.5,1.64,5.88,1.2,7.28Z"/><path class="cls-1" d="m45.17,70.42c-1.42.92-2.58,1.8-3.54,2.66-5.76-1.32-10.48-5.84-12.08-11.66.7-1.24,1.52-2.42,2.42-3.54.18,2.22.84,4.28,1.92,6.08,0,.02.02.04.02.04v.06s.06.08.1.12c2.53,4.01,6.88,6.28,10.78,6.28.12,0,.24-.04.38-.04Z"/><path class="cls-5" d="m47.09,55.26c-2.7,3.08-6.02,5.6-9.44,7.4l7.96-13.5c.94,1.82,1.46,3.88,1.48,6.1Z"/><path class="cls-3" d="m42.35,49.36l-7.98,13.48c-.94-1.8-1.44-3.88-1.48-6.1,2.72-3.08,6.04-5.6,9.46-7.38Z"/><path class="cls-5" d="m53.55,38.54c.14,3.9-.8,7.56-2.46,10.84-1.88-5.52-6.4-9.78-11.94-11.26,1.44-1.5,2.2-2.98,2.44-4.62,1.39,1.15,2.69,1.16,3.98.36.82.24,4.68,1.52,7.98,4.68Z"/><path class="cls-1" d="m50.45,50.58c-.7,1.24-1.52,2.42-2.42,3.54-.33-4.05-1.94-5.91-1.94-6.12v-.06c-.38-.38-1.36-2.5-4.32-4.36-2.22-1.42-4.7-2.08-6.92-2,1.4-.92,2.56-1.78,3.5-2.64,5.78,1.3,10.48,5.82,12.1,11.64Z"/><path class="cls-3" d="m40.57,33.56c-.52,2.94-3.06,5.42-8.78,8.72-1.28.62-2.22,1.68-2.78,3,.26-3.92,4.88-8.18,9.9-10.7l.02-.02c.58-.26,1.12-.6,1.64-1Z"/><path class="cls-5" d="m41.95,44.94c-4.34,2.08-8.08,4.96-10.98,8.34-1.74-3.5-1.62-5.88-1.18-7.28,1.55-4.73,8.15-4.07,12.16-1.06Z"/><path class="cls-1" d="m24.85,63.5c-.52,1.78-.82,3.6-.9,5.44-.24-.08-.46-.18-.66-.36-.63-.59-.46-.07-.46-13.5.32,0-.32.02,2,.02v8.38l.02.02Z"/><rect class="cls-1" x="22.83" y="29.66" width="2" height="17.8"/><path class="cls-1" d="m44.47,32.42c.82-2.22,2.28-7.04.82-10.54,3.09,3.08,2.22,7.94-.82,10.54Z"/><path class="cls-1" d="m43.61,31.84c-.68-.92-.68-2.46-.22-5.7.46-3.12-.74-5.14-1.82-6.3-.16-.18-.38-.32-.56-.48.42.16.84.32,1.24.52,4.26,2.42,2.42,9.08,1.36,11.96Z"/><path class="cls-1" d="m43.87,33.36c-.78.22-1.54-.04-2.32-.76-2.88-2.68,1.29-8.66-1.86-10.9-1.6-1.14-2.94-1.74-4.26-1.88-1.21-.17-1.17-1.21.28-1.36,4.46,0,7.3,3.28,6.7,7.54-.58,4.12-.64,6.16,1.46,7.36Z"/><path class="cls-3" d="m48.79,19.02l-1.92,2.08c-.44-1.22-1.16-3.76-.44-5.62,1.18,1.02,2.02,2.24,2.36,3.54Z"/><path class="cls-3" d="m45.61,20.44c-1.42-1.04-2.29-1.33-2.44-1.48h-.02c-.38-.18-.8-.36-1.2-.52l3.3-2.44c-.3,1.54,0,3.22.36,4.44Z"/><path class="cls-3" d="m45.37,14.66l-4.24,3.14-1.92-5.14c2.28.11,4.51.9,6.16,2Z"/><path class="cls-3" d="m40.09,17.9c-1.47-.35-2.59-.44-3.86-.44,0,0-.31.04-.42.04.98-.84,2.18-2.12,2.8-3.62l1.48,4.02Z"/><path class="cls-3" d="m37.91,12.68c-.34,1.94-2.26,3.72-3.34,4.54l-.3-3.44c1.04-.64,2.28-1,3.64-1.1Z"/></g><path id="Line" class="cls-4" d="m36.22,24.64q0,.37,0,.75c0,.28-.22.5-.49.51-.28,0-.5-.22-.51-.49q0-.37,0-.75c0-.28.22-.5.49-.51.28,0,.5.22.51.49Zm29.43,56.77c-.79,1.22-1.57,1.81-1.61,1.83h-.57s-2.4-1.59-2.4-1.59l.04-.86c.56-.3.88-.69.6-1.25-.44-.87-1.95-1.59-2.66-1.31-.15.06-.26.16-.32.34-.09.26-.07.23-.07,4.26l-.5.5h-3l-.5-.5v-3.8c0-.2-.04-.38-.17-.53-.38-.43-1.3-.38-1.86-.17l-.64-.29c-.81-2.17-.79-2.1-.79-2.12-.04-.12-.04-.22,0-.34,0,0-.02.05.79-2.12l.64-.29c.54.2,1.39.26,1.81-.11.14-.12.23-.3.23-.59v-4.67c-.63-.3-1.18-.71-1.68-1.22-.13,4.17-4.37,8.03-7.91,10.29.93.08,1.75.38,1.98,1.29.2.78-.12,1.59.29,1.88.27.19.29.61,0,.82.19.05.63.17.77.3.21.19.22.5.04.7-.13.14-.31.15-.48.56-.09.21-.15.49-.15.79l.89.26.27.76c-.7,1.01-1.29,1.71-1.66,2.8-.3.93.38,1.36.38,2.49,0,.83-.41,1.65-.87,2.34.37.42.5,1,.26,1.54l.54.43.4,4.61-.22.46c-5.38,3.67-15.07.09-16.37-5.95l.12-.44,2.39-2.58c-.4-.55-.71-1.13-.94-1.72-1.23-3.2.02-6.91,2.3-9.12-1.3-.39-3.07-1.17-4.73-2.18-2.81-1.71-5.24-4.02-6.82-6.93-1.22-.16-2.16-1.21-2.16-2.47v-12.55c-.65-.13-1.42-.42-1.78-.98-.31-.49-.34-1.18-.1-1.62-.55-.62-.57-1.42-.25-2-.33-.6-.26-1.29.08-1.77-.41-.91.19-2.14,2.05-2.33v-6.72c0-.55-.21-.84-.76-.84-1.1,0-2.88,1.28-2.27,2.16.1.14.28.3.58.46l.04.86-2.4,1.6h-.57s-.82-.62-1.61-1.85c-2.09-3.26-2.09-8.06,0-11.32.79-1.23,1.57-1.81,1.61-1.83h.57s2.4,1.59,2.4,1.59l-.04.86c-.3.16-.48.32-.58.46-.81,1.15,2.51,2.98,2.96,1.75.09-.26.07-.23.07-4.26l.5-.5h3l.5.5v3.8c0,.2.04.38.17.53.38.43,1.3.38,1.86.17l.64.29c.81,2.17.79,2.1.79,2.12.04.12.04.22,0,.34,0,.02.02-.05-.79,2.12l-.64.29c-.54-.2-1.39-.25-1.8.11-.14.12-.23.3-.23.59v4.67c.63.3,1.18.71,1.68,1.22.13-4.17,4.37-8.03,7.91-10.29-.93-.08-1.75-.39-1.98-1.29-.2-.77.12-1.59-.29-1.88-.27-.19-.29-.61,0-.82-.18-.05-.55-.16-.71-.25-.32-.2-.31-.67,0-.85.37-.22.52-.82.51-1.25l-.89-.26-.27-.76c.71-1.02,1.3-1.71,1.66-2.8.1-.32.1-.56.03-.85-.23-.87-.98-1.83.46-3.98-.37-.43-.5-1-.26-1.54l-.54-.43-.4-4.61.22-.46c5.4-3.69,15.08-.05,16.37,5.95l-.12.44-2.39,2.58c1.85,2.55,1.81,5.7.4,8.44-.48.92-1.08,1.74-1.76,2.4,2.78.84,6.21,2.81,8.45,5.04,1.15,1.13,2.23,2.47,3.1,4.06,1.22.16,2.16,1.21,2.16,2.47v12.55c.65.13,1.42.42,1.78.98.31.5.33,1.18.1,1.62.53.6.58,1.39.25,2,.32.6.26,1.29-.08,1.77.41.91-.19,2.14-2.05,2.33v6.72c0,.28.06.46.13.57.45.68,2.22-.03,2.83-.95.33-.5.29-.97-.51-1.4l-.04-.86,2.4-1.6h.57s.82.62,1.61,1.85c2.09,3.26,2.09,8.06,0,11.32ZM25.33,35.76h2.28l-.38-1.01c-.63.14-1.32.12-1.9-.16v1.17Zm0,2.17c.47-.22,1.13-.32,1.9-.16l.38-1.01h-2.28v1.17Zm29.33,38.32h-2.28l.38,1.01c.63-.14,1.32-.12,1.9.16v-1.17Zm0-2.17c-.47.22-1.13.32-1.9.16l-.38,1.01h2.28v-1.17Zm1-17.17c1.67,0,1.7,0,2,.01v-12.42c0-.69-.46-1.27-1.11-1.45-.07,1.9-.38,3.75-.89,5.54v8.31Zm-19.57,7.14c.58.86,1.26,1.63,2.06,2.34,9.6-4.41,17.35-13.57,17.42-23.97-.58-1.05-1.26-1.99-2-2.82-.15,10.6-7.89,19.85-17.48,24.46Zm15.4-7.14h3.17v-5.52c-.83,1.94-1.9,3.79-3.17,5.52Zm-4.44-2.77c.88-1.11,1.67-2.24,2.41-3.55-1.69-6.1-6.55-10.41-12.09-11.66-.95.87-2.11,1.74-3.5,2.64,2.4-.08,4.85.71,6.89,1.99,3.52,2.22,5.92,5.9,6.3,10.58Zm-12.85-11.58c-2,0-3.87.66-4.92,2.37-1.5,2.46-.61,5.77.68,8.34,3.01-3.49,6.83-6.36,11.01-8.36-2.16-1.59-4.63-2.36-6.77-2.36Zm10.42,6.59l-7.98,13.5c3.57-1.86,6.83-4.39,9.46-7.39-.03-2.37-.59-4.41-1.48-6.12Zm-1.28.19c-3.57,1.86-6.83,4.39-9.46,7.39.03,2.37.59,4.41,1.48,6.12l7.98-13.5Zm-10.41,8.52c-.89,1.12-1.67,2.26-2.41,3.55,1.69,6.1,6.56,10.41,12.09,11.66.95-.87,2.11-1.74,3.5-2.64-2.4.08-4.85-.72-6.89-1.99-3.52-2.22-5.92-5.9-6.3-10.58Zm17.77,9.21c1.5-2.46.61-5.77-.68-8.34-3.01,3.49-6.83,6.36-11.01,8.36,2.16,1.59,4.63,2.36,6.77,2.36,2,0,3.87-.65,4.92-2.37Zm-6.11-33.2c-1.28.82-2.68.78-4.01-.34-.27,1.8-1.15,3.26-2.39,4.57,5.33,1.43,9.98,5.51,11.92,11.24,1.68-3.38,2.56-7.01,2.43-10.8-2.38-2.27-5.55-3.97-7.95-4.68Zm-1.71-7.73c-.2,1.41-.53,3.66-.19,4.92.09.34.22.59.4.82,1.5-4.12,2.45-9.86-1.4-12.01-.36-.18-.73-.33-1.11-.48,1.8,1.61,2.7,3.96,2.3,6.76Zm-6.69-7.67c-.56-.03-.75-.01-.96-.01-.4.03-.95.16-1.13.52-.1.2-.03.4.13.56.62.58,1.65-.17,4.95,2.17,3.14,2.22-1.05,8.18,1.85,10.9.67.62,1.43,1,2.31.75-.88-.5-1.42-1.16-1.66-2.21-.32-1.43-.02-3.6.2-5.15.26-1.82-.07-3.57-1.17-5.01-1.1-1.44-2.82-2.35-4.53-2.52Zm9.67,2.63l1.92-2.07c-.37-1.41-1.26-2.61-2.39-3.58-.65,1.66-.15,3.97.47,5.65Zm-1.1.75c1.34,3.13.36,7.48-.83,10.65,1.62-1.38,2.8-3.74,2.8-6.03,0-1.62-.57-3.15-1.79-4.46-.06-.05-.12-.1-.18-.16Zm-.16-1.4c-.41-1.4-.67-2.98-.4-4.42l-3.26,2.42c.95.36,1.2.54,1.21.52.33.18,1.24.59,2.45,1.49Zm-6.4-7.8l1.92,5.16,4.24-3.14c-1.83-1.21-4.05-1.92-6.16-2.02Zm-3.36,4.82c.68-.03.87-.04,1.38,0,.98.06,1.93.18,2.85.4l-1.47-3.94c-.56,1.36-1.65,2.57-2.77,3.54Zm-1.28-.25c1.42-1.09,3.09-2.79,3.38-4.56-1.34.1-2.61.46-3.68,1.13l.3,3.44Zm1.9,16.94c1.15,0,2.74-.59,4.09-1.89-1.76-3.25,1.22-8.21-.93-9.76-2.59-1.84-3.58-1.58-4.32-1.83-.09.14-.18.27-.25.4-.07.23-.17.68-.07.9.29.58,2.77-.16,3.91,1.27.17.22.14.53-.08.7-.22.17-.53.14-.7-.08-.71-.89-2.43-.37-3.43-.87.18.6.58,1.25.24,2.27-.32.98-.79,1.67-1.38,2.49,1.25.37,1.23.36,1.25.37-.02,0,.69.16,1.29.82.49.54.71,1.14.9,1.43.03-.03.08-.07.13-.12.2-.2.51-.19.71,0s.2.51,0,.71c-.13.13-.26.24-.39.32-.32.19-.65.18-.9.03-.71-.43-.71-1.84-2.06-2.24-.03.4-.14.78-.35,1.14.29.05.53.07.79.05.28-.02.51.19.53.46s-.19.51-.46.53c-.8.06-.65-.15-.39.22.6.86,0,2.02.52,2.4.32.23.97.26,1.36.26Zm-7.44,11.05c.56-1.35,1.55-2.35,2.77-2.94,2.41-1.39,4.28-2.65,5.65-3.87,1.51-1.33,2.76-2.86,3.12-4.83-.51.4-1.06.72-1.65,1-1.93.93-3.59,2.04-5.25,3.45-2.11,1.78-4.43,4.42-4.64,7.18Zm-5.69,2.24h2v-17.79h-2v17.79Zm-1-9.63v-1.07h-3.67v1c0,.28-.22.5-.5.5s-.5-.22-.5-.5v-1h-1.5c-.28,0-.5-.22-.5-.5s.22-.5.5-.5h1.5v-1c0-.28.22-.5.5-.5s.5.22.5.5v1h3.67v-1.07c-1.95.8-5.6-1.98-3.56-3.9l-1.48-.99c-3.35,3.14-3.33,9.8,0,12.92l1.48-.99c-.36-.34-.6-.76-.59-1.27,0-1.69,2.65-3.25,4.16-2.63Zm1.5,16.27h6.42c-1.03-1.96-1.82-4.19-1.75-6.4-.56-.91-1.26-1.77-2.18-2.34v2.6l-.5.5h-3l-.5-.5v-.7c-.39.06-.9.2-1.11.54-.17.28.02.54.3.72.06.04.21.1.4.15.54.14,1.38.2,1.94.2.28,0,.5.23.5.5,0,.28-.23.5-.5.5-.74,0-2.19-.09-2.85-.5-.05.25.02.46.17.65.3.36.73.49,1.18.57.35.06.72.08,1,.08.28,0,.5.23.5.5s-.23.5-.5.5c-.75,0-1.73-.11-2.37-.51,0,.18.05.34.19.51.36.43,1.27.75,1.68.75.28,0,.5.22.5.5s-.22.5-.5.5c-.48,0-1.11-.21-1.56-.44,0,.1,0,.2.03.28.04.15.1.23.24.34.55.4,1.58.49,2.26.49Zm2.5,1v5.52c.83-1.95,1.9-3.79,3.17-5.52h-3.17Zm-1,0c-1.63,0-1.68,0-2-.01v12.42c0,.69.46,1.27,1.11,1.45.07-1.9.38-3.75.89-5.54v-8.31Zm19.57-7.14c-.59-.86-1.26-1.63-2.06-2.34-9.6,4.41-17.35,13.57-17.42,23.97.58,1.05,1.26,1.99,2,2.82.15-10.61,7.91-19.86,17.48-24.46Zm-8.51,30.18c1.28-.82,2.68-.78,4.01.34.27-1.8,1.15-3.26,2.39-4.57-5.33-1.43-9.98-5.51-11.92-11.24-1.68,3.37-2.56,7-2.43,10.8,2.38,2.27,5.55,3.97,7.95,4.68Zm1.71,7.73c.2-1.41.53-3.66.19-4.92-.09-.34-.22-.59-.4-.82-1.5,4.12-2.45,9.86,1.4,12.01.36.18.73.33,1.11.48-1.81-1.61-2.7-3.96-2.3-6.76Zm6.69,7.67c.56.03.75.01.96.01.4-.03.95-.16,1.13-.52.1-.2.03-.4-.13-.56-.62-.58-1.65.17-4.95-2.17-3.15-2.22,1.05-8.17-1.85-10.9-.67-.62-1.44-1-2.31-.75.86.49,1.41,1.15,1.66,2.21.32,1.43.02,3.6-.2,5.15-.26,1.83.08,3.57,1.17,5.01,1.1,1.44,2.82,2.35,4.53,2.52Zm-9.66-2.63l-1.92,2.07c.37,1.41,1.26,2.61,2.39,3.58.65-1.66.15-3.97-.47-5.65Zm1.1-.75c-1.34-3.13-.36-7.48.83-10.65-1.62,1.38-2.8,3.74-2.8,6.03,0,1.63.58,3.16,1.79,4.46.06.05.12.1.18.16Zm.16,1.4c.41,1.4.67,2.98.4,4.42l3.26-2.42c-.95-.36-1.2-.54-1.21-.52-.4-.22-1.27-.61-2.45-1.49Zm6.4,7.8l-1.92-5.16-4.24,3.14c1.84,1.22,4.06,1.92,6.16,2.02Zm3.36-4.82c-.71.03-.89.03-1.38,0-.98-.06-1.93-.18-2.85-.4l1.47,3.94c.56-1.37,1.65-2.58,2.77-3.54Zm1.28.25c-1.42,1.09-3.1,2.79-3.38,4.56,1.34-.1,2.61-.46,3.68-1.13l-.3-3.44Zm-1.9-16.94c-1.15,0-2.74.59-4.09,1.89,1.77,3.26-1.23,8.21.93,9.76,2.59,1.84,3.58,1.58,4.32,1.83.09-.14.18-.27.25-.4.07-.23.17-.68.07-.9-.29-.58-2.77.16-3.91-1.27-.17-.22-.14-.53.08-.7s.53-.14.7.08c.72.89,2.42.37,3.43.87-.18-.6-.58-1.25-.24-2.27.32-.98.79-1.67,1.38-2.49-1.25-.37-1.23-.36-1.25-.37.02,0-.69-.16-1.29-.82-.49-.54-.71-1.14-.9-1.43-.03.03-.08.07-.13.12-.2.2-.51.2-.71,0-.2-.2-.2-.51,0-.71.13-.13.26-.24.39-.32.29-.17.62-.2.9-.03.71.43.71,1.84,2.06,2.24.03-.4.14-.78.35-1.14-.26-.05-.51-.07-.78-.05-.28.02-.51-.19-.53-.46-.02-.28.19-.51.46-.53.8-.06.65.15.39-.22-.61-.86,0-2.01-.52-2.4-.32-.23-.97-.26-1.36-.26Zm7.44-11.05c-.56,1.35-1.55,2.35-2.78,2.94-2.41,1.39-4.27,2.65-5.65,3.87-1.51,1.33-2.76,2.86-3.12,4.83.52-.41,1.07-.72,1.65-1,2.01-.96,3.73-2.15,5.26-3.45,2.11-1.79,4.43-4.42,4.64-7.18Zm5.69-2.24h-2v17.79h2v-17.79Zm1-.5v.7c.24-.03.45-.09.61-.16.62-.27.78-.72.19-1.1-.39-.27-1.84-.35-2.34-.35-.28,0-.5-.23-.5-.5,0-.28.23-.5.5-.5.77,0,2.19.1,2.85.5.09-.41-.16-.71-.51-.94-.42-.28-1.34-.35-1.84-.35-.28,0-.5-.23-.5-.5,0-.28.23-.5.5-.5.75,0,1.73.11,2.37.51,0-.35-.23-.6-.53-.8-.43-.28-1.07-.46-1.34-.46-.28,0-.5-.22-.5-.5s.22-.5.5-.5c.47,0,1.09.2,1.56.44.01-.18-.04-.35-.1-.45-.11-.17-.41-.32-.6-.39-.39-.15-.98-.27-1.83-.27h-6.42c1.03,1.96,1.82,4.19,1.75,6.4.56.91,1.26,1.77,2.18,2.34v-2.6l.5-.5h3l.5.5Zm5.05,5.24l-1.48.99c2.03,1.91-1.6,4.7-3.56,3.9v1.07h3.67v-1c0-.28.22-.5.5-.5s.5.22.5.5v1h1.5c.28,0,.5.22.5.5s-.22.5-.5.5h-1.5v1c0,.28-.22.5-.5.5s-.5-.22-.5-.5v-1h-3.67v1.07c1.97-.81,5.58,1.99,3.56,3.9l1.48.99c3.34-3.13,3.34-9.8,0-12.92Zm-8.72-26.18l-.98-.2-.2.98.98.2.2-.98Zm-14.61,19.78l.54.84.84-.54-.54-.84c-.53.34-.32.2-.84.54Zm2.48-1.7l.62.79.79-.62-.61-.79c-.5.39-.31.24-.79.62Zm3-1.19l.73-.69-.68-.73c-.45.43-.29.27-.73.69l.68.73Zm6.35-8.06l-.87-.49c-.3.53-.2.36-.49.88l.87.49.49-.88Zm1.3-2.83l-.93-.38c-.24.58-.15.37-.38.93l.93.38.38-.93Zm-4.79,7.94l-.75-.66c-.41.47-.26.3-.66.75l.75.66.66-.75Zm1.88-2.46l-.82-.58c-.36.51-.23.32-.58.82l.81.58.58-.82Zm3.84-8.45l-.97-.26c-.16.61-.1.38-.26.97l.97.26.26-.97Zm-16.68,18.25l.49.87.88-.49-.49-.87-.88.49Zm6.53,23.48c.28,0,.5-.23.49-.51q0-.38,0-.75c0-.28-.23-.5-.51-.49s-.5.23-.49.51q0,.38,0,.75c0,.28.23.5.51.49Zm-19.23-18.91l1,.09.09-1-1-.09-.09,1Zm2.75-8.88l.87.49c.17-.3.31-.57.49-.88l-.87-.49-.49.88Zm1.61-2.65l.81.58c.36-.51.23-.33.58-.82l-.81-.58-.58.82Zm-3.84,8.45l.97.26c.15-.56.1-.39.26-.97l-.97-.26-.26.97Zm.93-2.97l.93.38c.24-.58.15-.37.38-.93l-.93-.38-.38.93Zm13.11-13.78l-.54-.84-.84.54.54.84c.52-.34.34-.22.84-.54Zm-2.48,1.7l-.61-.79-.79.62.61.79c.5-.39.3-.23.79-.62Zm-5.85,4.14l.75.66c.4-.46.27-.31.66-.75l-.75-.66-.66.75Zm2.85-2.95l-.73.69.68.73c.45-.42.3-.28.73-.69l-.68-.73Zm8.1-4.39l-.49-.87-.88.49.49.87.88-.49Z"/></g></g></svg>