<?xml version="1.0" encoding="UTF-8"?><svg id="Grouped" xmlns="http://www.w3.org/2000/svg" viewBox="0 0 80 112"><defs><style>.cls-1{fill:#f9cb19;}.cls-2{fill:#fff;}.cls-3{fill:#c93112;}.cls-4{fill:#1f1f1f;}.cls-5{fill:#234bc2;}</style></defs><g id="Jack"><rect id="BG-2" class="cls-2" x="0" y="0" width="80" height="112" rx="5" ry="5"/><g id="Suit"><g id="Suit-2"><g id="Suit-3"><path class="cls-3" d="m12,26.75c-.9-1.4-2.1-2.6-3.5-3.5,1.4-.9,2.6-2.1,3.5-3.5.9,1.4,2.1,2.6,3.5,3.5-1.4.9-2.6,2.1-3.5,3.5Z"/><path class="cls-3" d="m68,83.75c.9,1.4,2.1,2.6,3.5,3.5-1.4.9-2.6,2.1-3.5,3.5-.9-1.4-2.1-2.6-3.5-3.5,1.4-.9,2.6-2.1,3.5-3.5Z"/></g><g id="Value"><path class="cls-3" d="m13.12,8.04c-.1.02-.17.06-.22.12-.05.06-.07.14-.07.23v5.53c0,.67-.04,1.25-.11,1.73-.07.48-.22.89-.44,1.24-.22.35-.53.65-.93.91-.4.26-.93.51-1.58.75l-.33-.69c.37-.24.68-.47.91-.7.23-.22.42-.47.54-.74.13-.27.21-.59.26-.95.05-.36.07-.8.07-1.3v-5.78c0-.1-.03-.18-.07-.24-.05-.06-.12-.1-.22-.12l-.92-.18v-.69h3.91v.69l-.81.18Z"/><path class="cls-3" d="m66.87,102.46c.1-.02.17-.06.22-.12.05-.06.07-.14.07-.23v-5.53c0-.68.04-1.25.11-1.73.07-.48.22-.89.44-1.24.22-.35.53-.65.93-.91.4-.26.93-.51,1.58-.75l.33.69c-.37.24-.68.47-.91.7-.23.22-.42.47-.54.74-.13.27-.22.59-.26.95-.05.36-.07.79-.07,1.3v5.78c0,.1.03.18.07.24.05.06.12.1.22.12l.92.18v.69h-3.91v-.69l.81-.18Z"/></g></g><g id="Value-2"><path class="cls-3" d="m61,26c-1.8-2.81-4.19-5.2-7-7,2.81-1.8,5.2-4.19,7-7,1.8,2.81,4.19,5.2,7,7-2.81,1.8-5.2,4.19-7,7Z"/><path class="cls-3" d="m26,93c-2.81,1.8-5.2,4.19-7,7-1.8-2.81-4.19-5.2-7-7,2.81-1.8,5.2-4.19,7-7,1.8,2.81,4.19,5.2,7,7Z"/></g></g><path id="Frame" class="cls-4" d="m72,80h-1V9H22v-1h49.5l.5.5v71.5ZM8,32v71.5l.5.5h49.5v-1H9V32h-1Z"/><g id="Illustration"><g id="Color"><path class="cls-1" d="m45.37,92.88c-7.47.34-9.16-6.26-9.16-13.76,0-1.28.84-2.64,1.98-3.24,1.89-1.01,3.82.86,3.08,2.54-.34.78-1.24,1.09-1.9.96-1.08-.2-.27-1.68.36-1.32.58.29,1.02-.61.44-.9-.94-.45-2.32.25-2.32,1.68,0,6,0,12.8,7.7,12.8.97,0,.72,1.07-.18,1.24Z"/><path class="cls-1" d="m38.57,91.52c-3.86-2.1-4.72-7.9-4.72-12.62,0-.68.32-1.38.82-1.78.34-.28.78-.38,1.24-.4-.44.74-.7,1.58-.7,2.4,0,5.94,1.12,10.04,3.36,12.4Z"/><path class="cls-1" d="m35.39,89.9c-2.58-1.88-3.54-6.06-3.54-9.5,0-.72.36-1.52,1.04-1.94-.02.14-.04.3-.04.44,0,4.86.86,8.54,2.54,11Z"/><path class="cls-3" d="m46.67,97.88c-1.78.62-3.48.9-5.1.92l.44-5.1c.46.08.9.15,1.34.16.1,0,.12.04.2.04.02,0,.04-.02.04-.02.36.02.7.02,1.02.02.02,0,.04.02.04.02.08,0,.14-.04.22-.04.2-.02.42-.02.62-.04l1.18,4.04Z"/><path class="cls-3" d="m41.03,93.52l-.46,5.24c-2.14-.14-4.14-.8-6.02-1.98l2.6-4.52c1.48.65,2.95,1.07,3.88,1.26Z"/><path class="cls-3" d="m36.23,91.86l-2.54,4.38c-1.28-.92-2.5-2.1-3.7-3.54l3.3-2.66c.91.71,1.98,1.32,2.94,1.82Z"/><path class="cls-1" d="m44.13,69.82c-7.21,5.47-6.67,5.1-6.92,5.16-.38.2-.72.48-1.02.78h-.02c-1.48-.31-2.71.29-3.38,1.5-1.2.24-1.98,1.16-2.28,2.18-1.14-.56-2.32-1.28-3.34-2.18,3.28-4.82,10.5-7.3,16.52-7.46.16,0,.3,0,.44.02Z"/><path class="cls-1" d="m56.63,61.54c.06,0,.27,0,.54.02v-.8c-.18-.01-.37-.02-.54-.02-.66,0-.66-1,0-1,.09,0,.29,0,.54.02v-.72c-.2-.02-.39-.03-.54-.03-.66,0-.66-1,0-1,.12,0,.32.01.54.04v-.68c-.18-.01-.33-.04-.54-.04-.66,0-.66-1,0-1,.2,0,.36.02.54.02v-18.06h-2v25.26c.32.57,1.05,1.07,1.46,1.6,1.06,1.37.23,2.52-.8,2.52-.25,0-.46-.09-.66-.14,0,4.85.05,5.85-.16,6.06-.02,0-.02.02-.02.02l-1.84,1.64,1.84,1.64s0,.02.02.02c.06.06.13.33.16.36v2.98h2v-17.68c-.18-.01-.37-.02-.54-.02-.66,0-.66-1,0-1Z"/><path class="cls-3" d="m45.11,55.82v12.98c-.42-.02-.84-.02-1.26,0-5.39-.54-10.61-5.14-10.92-12.14,4.83,1.61,7.88-2.64,12.18-.84Z"/><path class="cls-1" d="m24.99,34.52c-.23-.34-.16-.9-.16-3.36h-2v17.69c.18.01.37.02.54.03.28,0,.5.22.5.5,0,.26-.24.5-.5.5-.1,0-.29,0-.54-.02v.78c.18,0,.37.02.54.02.66,0,.66,1,0,1-.1,0-.29,0-.54-.01v.74c.2.02.39.03.54.03.67,0,.65,1,0,1-.12,0-.32-.01-.54-.04v.68c.18.01.33.04.54.04.26,0,.5.22.5.5,0,.26-.24.5-.5.5-.2,0-.36-.02-.54-.04v18.08h2v-25.26c-.37-.59-1.01-1.03-1.48-1.62-1.1-1.43-.06-2.64.98-2.5.18.02.34.1.5.14,0-5.09-.06-5.84.16-6.06v-.02l1.86-1.66-1.86-1.64Z"/><path class="cls-3" d="m55.67,56.04l-3.92,3.9c-.84-2.3-2.06-3.9-3.64-4.78-.08-4.42-1.86-7.42-3.62-9.32,4.84-1.16,8.82-3.46,11.16-6.44.03.19.02-.74.02,16.64Z"/><path class="cls-5" d="m35.49,65.58c-4.86,1.16-8.82,3.46-11.14,6.42-.03-.19-.02.79-.02-16.62l3.92-3.92c.84,2.32,2.06,3.92,3.64,4.78.08,4.44,1.86,7.44,3.6,9.34Z"/><path class="cls-1" d="m47.07,54.76c-1.74-.58-3.82-.44-6.26.48-2.36.9-4.34,1-5.92.36v-12.98c3.17,0,5.88,1.11,8.12,3.14,1.78,1.62,3.86,4.5,4.06,9Z"/><path class="cls-5" d="m52.81,34.16c-3.37,4.97-10.96,7.44-16.94,7.44l6.68-5.08s0-.02.02-.02c.38-.13.91-.51,1.24-.84.2,0,.18.08.76.08,1.14,0,2.11-.61,2.62-1.58,1.2-.26,2-1.16,2.3-2.18,1.14.56,2.3,1.28,3.32,2.18Z"/><path class="cls-1" d="m48.15,31c0,.74-.36,1.54-1.06,1.96.02-.16.06-.3.06-.46,0-4.84-.88-8.54-2.54-10.98,2.58,1.88,3.54,6.06,3.54,9.48Z"/><path class="cls-1" d="m46.15,32.5c0,1.08-.71,2.18-2.08,2.18.46-.72.72-1.56.72-2.38,0-5.94-1.12-10.04-3.36-12.4,3.86,2.1,4.72,7.9,4.72,12.6Z"/><path class="cls-1" d="m43.79,32.3c0,2.13-2.35,4.45-4.28,3.16-1.86-1.27-.71-3.83,1.12-3.44,1.05.25.32,1.63-.36,1.34-.59-.3-1.01.61-.44.9,1.24.5,2.32-.51,2.32-1.7,0-6,0-12.8-7.72-12.8-.96,0-.68-1.09.2-1.22.44-.04.9-.04,1.4,0,5.2.38,7.76,4.88,7.76,13.76Z"/><path class="cls-3" d="m49.99,18.72l-3.28,2.66c-1.07-.83-1.28-.82-1.48-1.02h-.02c-.46-.28-.96-.56-1.44-.8l2.52-4.4c1.3.94,2.52,2.12,3.7,3.56Z"/><path class="cls-3" d="m45.45,14.64l-2.6,4.5c-1.52-.65-2.48-.95-3.88-1.26l.46-5.22c2.12.14,4.12.8,6.02,1.98Z"/><path class="cls-3" d="m38.43,12.62l-.44,5.08c-.65-.1-1.42-.18-1.52-.18-.02,0-.02.02-.04.02-.84-.08-.8-.02-1.04-.02-.02,0-.04-.02-.06-.02-.06,0-.12.02-.2.04-.2,0-.44,0-.62.04l-1.18-4.06c1.78-.6,3.46-.88,5.1-.9Z"/></g><path id="Line" class="cls-4" d="m36.22,24.64q0,.37,0,.75c0,.28-.22.5-.49.51-.28,0-.5-.22-.51-.49q0-.37,0-.75c0-.28.22-.5.49-.51.28,0,.5.22.51.49Zm-4.84,26.3c-.28,0-.5.22-.5.5s.22.5.5.5.5-.22.5-.5-.22-.5-.5-.5Zm0-7.59c.28,0,.5-.22.5-.5s-.22-.5-.5-.5-.5.22-.5.5.22.5.5.5Zm0,2.86c.28,0,.5-.22.5-.5s-.22-.5-.5-.5-.5.22-.5.5.22.5.5.5Zm0,2.86c.28,0,.5-.22.5-.5s-.22-.5-.5-.5-.5.22-.5.5.22.5.5.5Zm3.69-9.91c.22-.17.26-.48.1-.7-.17-.22-.48-.26-.7-.1-.22.17-.26.48-.1.7.17.22.48.26.7.1Zm-2.28,1.73c.22-.17.26-.48.1-.7-.17-.22-.48-.26-.7-.1-.22.17-.26.48-.1.7.17.22.48.26.7.1Zm4.26-3.36c.28,0,.5-.22.5-.5s-.22-.5-.5-.5-.5.22-.5.5.22.5.5.5Zm5.7,5.03c-.28,0-.5.22-.5.5s.22.5.5.5.5-.22.5-.5-.22-.5-.5-.5Zm7.4-3.43c-.22.17-.27.48-.1.7s.48.27.7.1.27-.48.1-.7c-.17-.22-.48-.27-.7-.1Zm-2.34,1.47c-.24.13-.34.43-.21.68.13.24.43.34.68.21s.34-.43.21-.68-.43-.34-.68-.21Zm-2.53,1.14c-.26.1-.39.39-.29.64s.39.39.64.29c.26-.1.39-.39.29-.64-.1-.26-.39-.39-.64-.29Zm7.62-3.76c.19-.19.2-.51,0-.71-.19-.19-.51-.2-.71,0-.19.19-.2.51,0,.71.19.19.51.2.71,0Zm-8.62,49.27c.28,0,.5-.23.49-.51q0-.38,0-.75c0-.28-.23-.5-.51-.49s-.5.23-.49.51q0,.38,0,.75c0,.28.23.5.51.49Zm4.33-26.8c.28,0,.5-.22.5-.5s-.22-.5-.5-.5-.5.22-.5.5.22.5.5.5Zm0,1.86c-.28,0-.5.22-.5.5s.22.5.5.5.5-.22.5-.5-.22-.5-.5-.5Zm-3.69,9.91c-.22.17-.26.48-.1.7.17.22.48.26.7.1.22-.17.26-.48.1-.7-.17-.22-.48-.26-.7-.1Zm3.69-4.18c-.28,0-.5.22-.5.5s.22.5.5.5.5-.22.5-.5-.22-.5-.5-.5Zm0-2.86c-.28,0-.5.22-.5.5s.22.5.5.5.5-.22.5-.5-.22-.5-.5-.5Zm-1.41,5.31c-.22.17-.26.48-.1.7.17.22.48.26.7.1.22-.17.26-.48.1-.7-.17-.22-.48-.26-.7-.1Zm-4.26,3.36c-.28,0-.5.22-.5.5s.22.5.5.5.5-.22.5-.5-.22-.5-.5-.5Zm-5.7-5.03c.28,0,.5-.22.5-.5s-.22-.5-.5-.5-.5.22-.5.5.22.5.5.5Zm-5.06,1.96c.24-.13.34-.43.21-.68-.13-.24-.43-.34-.68-.21-.24.13-.34.43-.21.68.13.24.43.34.68.21Zm-2.34,1.47c.22-.17.27-.48.1-.7-.17-.22-.48-.27-.7-.1-.22.17-.27.48-.1.7.17.22.48.27.7.1Zm4.87-2.61c.26-.1.39-.39.29-.64-.1-.26-.39-.39-.64-.29-.26.1-.39.39-.29.64.1.26.39.39.64.29Zm-7.62,3.76c-.19.19-.2.51,0,.71s.51.2.71,0c.19-.19.2-.51,0-.71-.19-.19-.51-.2-.71,0Zm40.27,1.84c0,3.42-.83,5.53-1.7,6.79-.87,1.26-1.76,1.65-1.83,1.67l-.69-.46c0-1.19-.31-2.1-.76-2.83-.82-1.31-2.24-2.18-3.73-2.61v2.93l-.5.5h-3l-.5-.5v-3.26c-2.32-2.06-2.13-1.88-2.19-1.97-.13-.19-.1-.45.07-.62.05-.05.47-.42,2.12-1.9v-5.8c-1.61-.77-2.74-2.29-3.55-3.89v7.51l-.2.4-6.64,5.04c.88-.03,1.99.05,2.52.76.66.87.04,2.06.54,2.43.27.19.29.61,0,.82.18.05.6.17.74.27.22.16.27.48.11.7-.11.15-.19.12-.35.31-.18.22-.33.61-.32,1.07l.89.26.27.76c-.36.52-.69.95-.97,1.39-.3.46-.77,1.33-.77,1.88,0,.91,1.09,1.72-.1,3.85-.04.08-.05.01.15.13.75.45.88,1.47.31,2.24.02.01-.1-.37,1.44,4.94l-.31.61c-7.11,2.59-13.32.85-18.54-5.74l.08-.7,3.76-3.04c-1.75-2.36-2.38-5.8-2.39-8.72-2.82-1.34-5.57-3.38-6.6-6.35h-2.92l-.5-.5v-18.68c-.66-.14-1.41-.42-1.78-.99-.29-.47-.35-1.15-.1-1.62-.55-.62-.57-1.41-.25-2-.32-.6-.26-1.29.08-1.77-.41-.91.19-2.14,2.05-2.33v-7.53c-1.46.43-2.88,1.28-3.71,2.58-.47.74-.78,1.66-.78,2.86l-.69.46c-.07-.03-.96-.41-1.83-1.67-.87-1.26-1.7-3.37-1.7-6.79,0-3.42.83-5.53,1.7-6.79.87-1.26,1.76-1.65,1.83-1.67l.69.46c0,1.19.31,2.1.76,2.83.82,1.31,2.24,2.18,3.73,2.61v-2.93l.5-.5h3l.5.5v3.26c2.29,2.04,2.13,1.88,2.19,1.97.13.2.1.46-.07.62-.05.06-.46.42-2.12,1.9v5.8c1.61.77,2.74,2.29,3.55,3.89v-7.51l.2-.4,6.64-5.04c-.88.03-1.99-.05-2.52-.76-.66-.87-.04-2.07-.54-2.43-.27-.19-.29-.61,0-.82-.18-.05-.6-.17-.74-.27-.18-.13-.25-.36-.17-.57.09-.25.24-.23.41-.44.18-.22.33-.61.32-1.07l-.89-.26-.27-.76c.36-.52.69-.95.97-1.39.3-.46.77-1.33.77-1.88,0-.92-1.09-1.71.1-3.85.04-.07.05-.01-.15-.13-.75-.45-.88-1.47-.31-2.24-.02-.01.1.37-1.44-4.94l.31-.61c7.11-2.6,13.32-.85,18.54,5.74l-.08.7-3.76,3.04c1.75,2.36,2.38,5.8,2.39,8.72,2.84,1.35,5.57,3.39,6.6,6.35h2.92l.5.5v18.68c.66.14,1.41.42,1.78.99.31.5.33,1.18.1,1.62.54.61.57,1.41.25,2,.33.6.25,1.29-.08,1.77.41.91-.19,2.14-2.05,2.33v7.53c1.47-.43,2.89-1.28,3.71-2.58.47-.74.78-1.66.78-2.86l.69-.46c.07.03.96.41,1.83,1.67.87,1.26,1.7,3.37,1.7,6.79Zm-14.79-40.4c-3.05,4.35-9,6.76-14.22,7.51,1.57.6,3.04,1.5,4.31,2.65,4.44-.98,9.28-3.23,11.76-7-.33-1.2-.98-2.23-1.86-3.17Zm-6.48,19.86c-.26-5.42-3.45-9.55-7.87-11.33-.98-.4-1.98-.65-2.93-.76-.53.01-.94,0-1.4,0v13.01c1.87.77,4.04.34,5.94-.39,2.01-.77,4.24-1.2,6.27-.53Zm-5.92,1.46c-2.01.77-4.24,1.2-6.27.53.26,5.42,3.45,9.55,7.87,11.33.98.4,1.98.65,2.93.76.53-.01.94,0,1.4,0v-13.01c-1.87-.77-4.04-.34-5.94.39Zm6.03-22c-.72,1.28-2.09,1.79-3.4,1.49-.38.38-.81.68-1.3.89l-6.63,5.03c.15.01.3.02.45.04,5.85-.17,13.21-2.62,16.51-7.48-.95-.84-2.1-1.56-3.34-2.17-.32,1.09-1.15,1.95-2.29,2.2Zm-1.92-1.88c0,.86-.27,1.7-.74,2.45,1.3,0,2.1-1.12,2.1-2.23,0-4.54-.76-10.56-4.8-12.66,2.91,2.98,3.43,8.28,3.43,12.45Zm-.17-10.82c2.06,2.99,2.54,7.38,2.54,11.03,0,.15-.01.29-.03.44.66-.41,1.03-1.2,1.03-1.94,0-3.29-.86-7.61-3.54-9.53Zm1.19-6.31l-2.53,4.39c1.15.57,2.07,1.16,2.93,1.82l3.3-2.66c-1.19-1.45-2.43-2.62-3.7-3.54Zm-7.33,2.7c1.29.28,2.62.7,3.89,1.26l2.61-4.52c-1.96-1.23-3.97-1.86-6.04-1.99l-.46,5.26Zm-2.46.65c-.52-.03-.91-.04-1.43,0-.47.09-.76.45-.75.79,0,.36.3.45.66.45,7.5-.01,7.67,6.34,7.67,12.8,0,1.37-1.33,2.17-2.32,1.69-.25-.12-.35-.42-.23-.67.12-.25.42-.35.67-.23.31.15.88-.15.88-.79,0-.17-.05-.3-.19-.4-.13-.1-.35-.17-.63-.17-1.77,0-2.52,2.29-.81,3.46,1.91,1.29,4.26-1.01,4.26-3.17,0-3.42-.36-7.78-2.25-10.64-1.32-1.99-3.17-2.96-5.52-3.13Zm-2-.95c.15-.02.31-.04.48-.05.12-.02.3-.04.42-.02.86-.03,1.73.05,2.58.19l.45-5.1c-1.63.02-3.33.33-5.09.93l1.17,4.05Zm3.56,16.39c-.03-.48.06-.95.24-1.37.57-1.32,2.19-1.89,3.34-1.45-.06-5.86-.64-10.22-6.4-10.37-.07.11-.14.22-.2.32-.07.23-.17.68-.07.9.29.58,2.77-.16,3.91,1.27.17.22.14.53-.08.7-.22.17-.53.14-.7-.08-.72-.89-2.42-.37-3.43-.87.18.61.58,1.25.24,2.27-.32.98-.79,1.67-1.38,2.49,1.38.41,1.6.43,2.39.89.61.36,1.17.8,1.66.32.08-.08.13-.16.16-.25.08-.26.37-.41.63-.32s.41.37.32.63c-.22.69-.91,1.16-1.62,1.16-.96,0-1.57-.8-2.62-1.11-.03.4-.14.78-.35,1.14.29.05.54.07.79.05.28-.02.51.19.53.46.02.28-.19.51-.46.53-.27.02-.41,0-.6,0,.58.53.49,1.17.5,1.89,0,.53.08.75.59.89.73.2,1.81.09,2.61-.09Zm-7.18,16.28c.55,1.83,1.44,3.72,3,4.83,0-13.54-.01-12.95.01-13.07.03-.13.1-.23.18-.3.01-.02-.06.04,6.49-4.93-.93-.2-1.76-.86-2.17-1.63l-7.52,5.71v9.4Zm-13.25-14.59h4.69v-1.02c-1.58-.4-3.15-1.26-4.18-2.55-.28.93-.48,2.1-.52,3.58Zm-.17-4.66c-.28-.56-.48-1.21-.57-1.93-1.8,1.62-2.27,4.66-2.27,7.09,0,2.42.47,5.47,2.27,7.09.09-.73.29-1.37.57-1.93-1.13-2.88-1.13-7.45,0-10.32Zm4.86,6.68v-1.02h-4.69c.04,1.47.24,2.65.52,3.58,1.02-1.28,2.58-2.15,4.17-2.55Zm3,10.17c-.36-.58-.98-.97-1.47-1.6-1.16-1.49-.05-2.64.98-2.5.17.02.33.06.49.1v-5.67c0-.11.04-.23.12-.32.05-.06-.12.1,1.9-1.7-2.01-1.78-1.85-1.64-1.89-1.69-.06-.07-.1-.15-.12-.26,0-.07,0,.19,0-3.05h-2v16.79c0,.28-.22.5-.5.5s-.5-.22-.5-.5v-.7c-.39.06-.9.2-1.11.54-.17.28.02.54.3.72.06.04.21.1.4.15.54.14,1.38.2,1.94.2.28,0,.5.23.5.5,0,.28-.23.5-.5.5-.74,0-2.19-.09-2.85-.5-.09.41.16.71.51.94.06.04.21.1.4.15.54.14,1.38.2,1.94.2.28,0,.5.23.5.5,0,.28-.23.5-.5.5-.64,0-1.55-.07-2.18-.23-.67-.18-.69-.33-.69-.25,0,.34.24.59.53.78.41.27,1.81.46,2.34.46.28,0,.5.23.5.5,0,.28-.23.5-.5.5-.65,0-1.88-.17-2.56-.45-.02.19.04.38.1.47.04.07.21.25.6.39.39.15.99.27,1.86.27.28,0,.5.22.5.5s-.22.5-.5.5c-.19,0-.36,0-.53-.02v18.06h2v-25.28Zm.9-.45c.06.08.1.19.1.3v6.25l3.48-3.48c-.88-2.51-2.49-5.36-5.1-5.73h-.04c-.16,0-.3.13-.3.28,0,.2.16.45.29.61.43.55,1.13.98,1.58,1.76Zm.11,24.59c2.64-3.35,7.02-5.43,11.15-6.44-2.4-2.59-3.54-5.83-3.6-9.31-1.83-1.01-2.94-2.83-3.65-4.79l-3.91,3.91c0,17.37,0,16.34.01,16.63Zm2.08,4.56c3.05-4.35,9-6.76,14.22-7.51-1.57-.6-3.04-1.5-4.31-2.65-4.44.98-9.28,3.23-11.76,7,.34,1.22.99,2.25,1.86,3.17Zm6.36.68c.72-1.28,2.08-1.79,3.4-1.49.38-.38.81-.68,1.3-.89l6.63-5.03c-.15,0-.3-.02-.45-.04-5.85.17-13.21,2.62-16.51,7.48.95.84,2.1,1.56,3.34,2.17.32-1.08,1.14-1.95,2.29-2.2Zm1.93,1.88c0-.87.28-1.72.74-2.45-1.3,0-2.1,1.11-2.1,2.23,0,4.54.76,10.56,4.8,12.66-2.91-2.98-3.43-8.28-3.43-12.45Zm.17,10.82c-2.06-2.99-2.54-7.38-2.54-11.03,0-.15.01-.29.03-.44-.66.41-1.03,1.2-1.03,1.94,0,3.29.85,7.6,3.54,9.53Zm-1.19,6.31l2.53-4.39c-1.14-.57-2.06-1.15-2.93-1.82l-3.3,2.66c1.19,1.45,2.43,2.62,3.7,3.54Zm7.33-2.7c-1.29-.28-2.61-.7-3.89-1.26l-2.61,4.52c1.96,1.23,3.97,1.86,6.04,1.99l.46-5.26Zm2.46-.66c.52.03.92.04,1.43,0,.47-.09.76-.45.75-.79,0-.33-.28-.45-.61-.45-3.6,0-5.98-1.42-7.01-4.86-.7-2.35-.7-5.46-.7-7.94,0-1.37,1.33-2.17,2.32-1.69.25.12.35.42.23.67-.12.25-.42.35-.67.23-.32-.16-.88.15-.88.79,0,.17.05.3.19.4.13.1.35.17.63.17,1.77,0,2.53-2.29.81-3.46-1.91-1.29-4.26,1.01-4.26,3.17,0,3.41.36,7.78,2.25,10.64,1.28,1.93,3.09,2.96,5.51,3.13Zm2.01.95c-.15.02-.31.04-.48.05-.12.02-.3.04-.42.02-.86.03-1.74-.05-2.58-.19l-.44,5.1c1.63-.02,3.33-.33,5.09-.93l-1.17-4.05Zm-3.56-16.39c.03.47-.06.94-.24,1.37-.57,1.31-2.18,1.89-3.34,1.45.06,5.87.64,10.22,6.4,10.37.07-.11.14-.22.2-.32.07-.23.17-.68.07-.9-.29-.58-2.77.16-3.91-1.27-.17-.22-.14-.53.08-.7s.53-.14.7.08c.72.89,2.42.37,3.43.87-.18-.6-.58-1.25-.24-2.27.32-.98.79-1.67,1.38-2.49-1.38-.41-1.6-.43-2.39-.89-.61-.36-1.17-.8-1.66-.32-.08.08-.13.16-.16.25-.08.26-.37.41-.63.32-.26-.08-.41-.37-.32-.63.22-.69.91-1.16,1.62-1.16.95,0,1.57.8,2.62,1.11.03-.4.14-.78.35-1.14-.29-.05-.53-.07-.78-.05-.28.02-.51-.19-.53-.46-.02-.28.19-.51.46-.53.27-.02.41,0,.6,0-.58-.53-.5-1.17-.5-1.89,0-.53-.08-.75-.59-.89-.73-.2-1.81-.09-2.61.09Zm7.18-16.28c-.55-1.83-1.44-3.72-3-4.83,0,13.64.01,12.95-.01,13.07-.02.13-.1.23-.18.3,0,.02.06-.04-6.49,4.93.94.2,1.76.86,2.17,1.63l7.52-5.71v-9.4Zm4.55-5.13c0-17.37,0-16.34-.01-16.63-2.64,3.35-7.02,5.43-11.15,6.44,2.4,2.59,3.54,5.83,3.6,9.31,1.83,1.01,2.94,2.83,3.65,4.79l3.91-3.91Zm1.63,10.62h.04c.16,0,.3-.13.3-.28,0-.2-.16-.46-.29-.61-.44-.57-1.13-.98-1.58-1.76-.06-.08-.1-.19-.1-.3v-6.25l-3.48,3.48c.88,2.5,2.49,5.36,5.1,5.73Zm2.37-3.2v.7c.24-.03.45-.09.61-.16.62-.27.78-.72.19-1.1-.39-.27-1.84-.35-2.34-.35-.28,0-.5-.23-.5-.5s.23-.5.5-.5c.77,0,2.19.1,2.85.5.09-.41-.16-.71-.51-.94-.39-.27-1.84-.35-2.34-.35-.28,0-.5-.23-.5-.5,0-.28.23-.5.5-.5.77,0,2.21.1,2.87.51.01-.35-.23-.61-.53-.8-.4-.26-1.76-.46-2.34-.46-.28,0-.5-.23-.5-.5,0-.28.23-.5.5-.5.67,0,1.89.17,2.56.45.02-.19-.04-.38-.1-.47-.04-.07-.22-.25-.6-.39-.39-.15-.99-.27-1.86-.27-.28,0-.5-.22-.5-.5s.22-.5.5-.5c.19,0,.36,0,.53.02v-18.06h-2v25.28c.45.74,1.39,1.21,1.81,2.15.49,1.08-.26,1.96-1.14,1.96-.19,0-.49-.06-.67-.11,0,5.92,0,5.69-.01,5.78-.01.06-.04.13-.08.18-.05.07-.05.07-1.92,1.73,1.87,1.66,1.87,1.65,1.92,1.73.03.05.07.12.08.18.02.08.01-.09.01,3.1h2v-16.79c0-.28.22-.5.5-.5s.5.22.5.5Zm4.69,12.29h-4.69v1.02c1.58.4,3.15,1.26,4.18,2.55.28-.93.48-2.1.52-3.58Zm0-1c-.04-1.47-.24-2.65-.52-3.58-1.02,1.28-2.58,2.15-4.17,2.55v1.02h4.69Zm3.01.5c0-2.42-.47-5.47-2.27-7.09-.09.73-.29,1.37-.57,1.93,1.13,2.88,1.13,7.45,0,10.32.28.56.48,1.21.57,1.93,1.8-1.62,2.27-4.66,2.27-7.09Z"/></g></g></svg>