<?xml version="1.0" encoding="UTF-8"?><svg id="Grouped" xmlns="http://www.w3.org/2000/svg" viewBox="0 0 80 112"><defs><style>.cls-1{fill:#f9cb19;}.cls-2{fill:#fff;}.cls-3{fill:#c93112;}.cls-4{fill:#1f1f1f;}.cls-5{fill:#234bc2;}</style></defs><g id="Jack"><rect id="BG-2" class="cls-2" x="0" width="80" height="112" rx="5" ry="5"/><g id="Suit"><g id="Suit-2"><g id="Suit-3"><path class="cls-3" d="m13.62,21c-.7,0-1.3.39-1.62.96-.32-.57-.93-.96-1.62-.96-1.04,0-1.87.84-1.87,1.88,0,2.07,2.95,3.18,3.5,4.5.55-1.32,3.5-2.43,3.5-4.5,0-1.04-.84-1.88-1.87-1.88Z"/><path class="cls-3" d="m66.37,90.5c.7,0,1.3-.39,1.62-.96.32.57.93.96,1.62.96,1.04,0,1.87-.84,1.87-1.88,0-2.07-2.95-3.18-3.5-4.5-.55,1.32-3.5,2.43-3.5,4.5,0,1.04.84,1.88,1.87,1.88Z"/></g><g id="Value"><path class="cls-3" d="m13.12,8.54c-.1.02-.17.06-.22.12-.05.06-.07.14-.07.23v5.53c0,.67-.04,1.25-.11,1.73-.07.48-.22.89-.44,1.24-.22.35-.53.65-.93.91-.4.26-.93.51-1.58.75l-.33-.69c.37-.24.68-.47.91-.7.23-.22.42-.47.54-.74.13-.27.21-.59.26-.95.05-.36.07-.8.07-1.3v-5.78c0-.1-.03-.18-.07-.24-.05-.06-.12-.1-.22-.12l-.92-.18v-.69h3.91v.69l-.81.18Z"/><path class="cls-3" d="m66.87,102.96c.1-.02.17-.06.22-.12.05-.06.07-.14.07-.23v-5.53c0-.67.04-1.25.11-1.73.07-.48.22-.89.44-1.24.22-.35.53-.65.93-.91.4-.26.93-.51,1.58-.75l.33.69c-.37.24-.68.47-.91.7-.23.22-.42.47-.54.74-.13.27-.22.59-.26.95-.05.36-.07.8-.07,1.3v5.78c0,.1.03.18.07.24.05.06.12.1.22.12l.92.18v.69h-3.91v-.69l.81-.18Z"/></g></g><g id="Value-2"><path class="cls-3" d="m64.25,13.5c-1.4,0-2.61.78-3.25,1.91-.64-1.14-1.85-1.91-3.25-1.91-2.07,0-3.75,1.68-3.75,3.75,0,4.14,5.9,6.36,7,9,1.1-2.64,7-4.86,7-9,0-2.07-1.68-3.75-3.75-3.75Z"/><path class="cls-3" d="m22.25,98.51c-1.4,0-2.61-.78-3.25-1.91-.64,1.14-1.85,1.91-3.25,1.91-2.07,0-3.75-1.68-3.75-3.75,0-4.14,5.9-6.36,7-9,1.1,2.64,7,4.86,7,9,0,2.07-1.68,3.75-3.75,3.75Z"/></g></g><path id="Frame" class="cls-4" d="m72,80h-1V9H22v-1h49.5l.5.5v71.5ZM8,32v71.5l.5.5h49.5v-1H9V32h-1Z"/><g id="Illustration"><g id="Color"><path class="cls-1" d="m42.39,94.5c.22.98.78,2.92,1.98,3.66.4.26.86.28,1.36.2l-.34-3.94c-.85.13-2.19.15-3,.08Z"/><path class="cls-3" d="m41.77,95.94c-.24,1.12-.68,2.4-1.58,3.16,1.16.1,2.36.08,3.58-.16-1.02-.66-1.64-1.92-2-3Z"/><path class="cls-1" d="m39.61,94.04c-1.19-.25-1.76-.61-2.38-.82-.6.94-1.54,2.84-1.14,4.12.34,1.07,1.32,1.19,2.14,1.42,1.99.17,2.64-2.58,2.74-4.44-.46-.08-.9-.18-1.36-.28Z"/><path class="cls-3" d="m32.45,94.94c-.1,0-.22-.02-.32-.02.88,1.02,1.88,1.86,2.98,2.52-.3-1.26.2-2.72.72-3.76-.9.6-2.16,1.26-3.38,1.26Z"/><path class="cls-1" d="m35.81,92.48c-.88-.5-1.75-1.15-2.5-1.78l-2.34,2.52c.34.36.7.63,1.16.7,1.32.2,2.84-.8,3.68-1.44Z"/><path class="cls-5" d="m38.91,92.62c-.08-.1-.18-.16-.24-.24-2.12-2.3-2.62-5.92-2.4-8.34.04-.52.04-1-.02-1.44-.36.14-.74.18-1.1.14-.34,3.28-.1,8.14,3.76,9.88Z"/><path class="cls-5" d="m35.29,90.58c-1.16-2.12-1.34-4.8-1.22-7-.26.1-.52.16-.8.16,0,0-.04-.02-.06-.02-.44,1.8.02,5.22,2.08,6.86Z"/><path class="cls-5" d="m32.13,84.18c.02-.26.06-.48.12-.7-.58-.28-.94-.78-1.02-1.36-.57.44-.79,1.54-.18,1.92.32.2.7.22,1.08.14Z"/><path class="cls-5" d="m32.19,81.9c0,.73,1.21,1.21,1.98.44-.72-.52-1.03-1.38-.88-2.12-.6.14-1.1.5-1.1,1.68Z"/><path class="cls-5" d="m44.31,93.54c1.45-.16,1.4-1.2.26-1.36-1.22-.14-3-.5-4.34-1.94-1.89-2-1.45-4.8-1.5-7.38-.06-2.86-.98-4.08-2.88-4.08-.64,0-1.6.72-1.6,1.74,0,.87.77,1.56,1.8,1.04-.1-.26-.2-.5-.34-.72-.37-.51.46-1.11.84-.54.62.94.86,2.24.72,3.84-.16,1.76.12,5.36,2.14,7.56,1.33,1.45,2.98,1.84,4.9,1.84Z"/><path class="cls-5" d="m51.19,65.64c-.42,2.85-2.6,4.49-5.52,4.74-1.27,0-2.67.8-3.66,1.68l.78,3.84c4.46-.74,8.04-3.52,10.62-8.26-.88-.48-1.6-1.18-2.22-2Z"/><rect class="cls-1" x="55.17" y="64.54" width="2" height="17.8"/><path class="cls-1" d="m55.17,56.9c2.39,0,1.64.02,2,.02v-9.36c-.5,1.08-1.16,2.18-2,3.32v6.02Z"/><path class="cls-3" d="m49.51,60.72c.52-2.1-.56-4.28-2.84-5.9-.26.4-.48.68-.58.84-.1,1.62-1.44,2.92-3.1,2.92-1.46,0-2.7-1.04-3.02-2.42l-1.84.72c.28,7.61,9.91,9.77,11.38,3.84Z"/><path class="cls-1" d="m31.97,58c-2.3,3.52-8.26,14.32-.92,22.44.36-.66.72-1.18,2.08-1.26,1.09-1.83,3.41-1.75,4.72-.44.41-4.25,2.64-7.24,5-8.5-5.47-.99-10.25-5.51-10.88-12.24Z"/><path class="cls-3" d="m30.77,58.02c-.66-.48-1.24-.98-1.7-1.52-8.81,7.83-11.58,15.52-1.2,21-3.56-7.5.68-15.9,2.9-19.48Z"/><path class="cls-5" d="m30.49,51.28c-.52,2.1.54,4.28,2.84,5.9.26-.4.46-.68.58-.84.1-1.62,1.44-2.92,3.08-2.92,1.48,0,2.72,1.04,3.04,2.42l1.84-.72c-.28-7.64-9.98-9.74-11.38-3.84Z"/><path class="cls-1" d="m24.83,55.1c-2.39,0-1.64-.02-2-.02v9.36c.5-1.08,1.16-2.18,2-3.32v-6.02Z"/><rect class="cls-1" x="22.83" y="29.66" width="2" height="17.8"/><path class="cls-5" d="m49.21,53.98c.66.48,1.24.98,1.72,1.52,8.81-7.82,11.53-15.54,1.2-21,3.56,7.5-.68,15.9-2.92,19.48Z"/><path class="cls-1" d="m48.03,54c2.3-3.52,8.26-14.32.9-22.44-.3.67-.79,1.2-2.08,1.28-1.1,1.81-3.41,1.73-4.72.42-.32,3.3-1.62,5.64-3.18,7.16-.02,0-.04.02-.04.02-.56.54-1.16.98-1.74,1.32,5.33.98,10.22,5.43,10.86,12.24Z"/><path class="cls-3" d="m28.79,46.36c.42-2.64,2.34-4.46,5.54-4.74,1.25,0,2.66-.8,3.64-1.68l-.76-3.84c-4.48.74-8.04,3.52-10.62,8.26.86.48,1.6,1.18,2.2,2Z"/><path class="cls-5" d="m47.87,27.82c-.02.26-.06.48-.12.7.56.28.94.78,1.02,1.36.57-.44.8-1.57.16-1.92-.3-.2-.68-.22-1.06-.14Z"/><path class="cls-5" d="m47.81,30.1c0-.73-1.21-1.21-1.98-.44.72.52,1.03,1.38.88,2.12.62-.15,1.1-.57,1.1-1.68Z"/><path class="cls-5" d="m44.71,21.42c1.16,2.14,1.34,4.8,1.2,7.02.28-.12.58-.18.88-.18.42-1.8-.02-5.2-2.08-6.84Z"/><path class="cls-5" d="m41.07,19.4c.08.08.18.14.26.22,2.15,2.25,2.6,5.92,2.4,8.34-.06.52-.04,1,0,1.44.38-.14.74-.18,1.12-.14.32-3.28.1-8.14-3.78-9.86Z"/><path class="cls-5" d="m35.71,18.46c-.76.08-1.12.4-1.14.7,0,1.16,2.87.13,5.2,2.6,2.06,2.22,1.41,5.67,1.5,7.38.12,2.86.98,4.08,2.86,4.08.66,0,1.62-.72,1.62-1.74,0-.89-.8-1.56-1.8-1.04.08.26.2.5.34.72.35.55-.47,1.08-.84.54-.64-.93-.86-2.24-.72-3.84.16-1.76-.12-5.36-2.14-7.56-1.33-1.46-2.95-1.84-4.88-1.84Z"/><path class="cls-1" d="m44.19,19.52c.87.5,1.86,1.22,2.48,1.78l2.36-2.52c-.34-.36-.72-.62-1.18-.7-1.28-.18-2.82.82-3.66,1.44Z"/><path class="cls-3" d="m47.87,17.1c-.88-1.04-1.9-1.88-2.98-2.54.3,1.26-.2,2.72-.74,3.76,1-.66,2.38-1.36,3.72-1.22Z"/><path class="cls-1" d="m40.39,17.96c.83.17,1.93.62,2.36.84.6-.96,1.56-2.86,1.14-4.14-.31-.97-1.15-1.19-2.14-1.42-1.95-.18-2.61,2.5-2.74,4.42.46.08.92.18,1.38.3Z"/><path class="cls-3" d="m38.23,16.06c.22-1.12.68-2.4,1.58-3.16-1.16-.12-2.36-.08-3.58.16,1,.66,1.64,1.92,2,3Z"/><path class="cls-1" d="m36.23,17.46v.02c.2,0,.21-.06,1.38.02-.22-.98-.8-2.92-1.98-3.66-.4-.26-.88-.28-1.38-.2l.34,3.94c.33-.04,1.59-.12,1.64-.12Z"/></g><path id="Line" class="cls-4" d="m36.22,24.64q0,.37,0,.75c0,.28-.22.5-.49.51-.28,0-.5-.22-.51-.49q0-.37,0-.75c0-.28.22-.5.49-.51.28,0,.5.22.51.49Zm7.43,30.47c-.19.19-.19.51,0,.71.19.19.51.2.71,0,.19-.19.19-.51,0-.71s-.51-.2-.71,0Zm-1.92-5.64c.16.23.47.29.69.13s.29-.47.13-.7c-.16-.23-.47-.29-.69-.13-.23.16-.29.47-.13.7Zm-4.62-4.72c-.26-.09-.55.05-.64.31-.09.26.05.55.31.64.26.09.55-.05.64-.31s-.05-.55-.31-.64Zm-3.45-.53c-.28.01-.49.25-.47.53s.25.49.53.47.49-.25.47-.53c-.01-.28-.25-.49-.53-.47Zm5.81,2.26c-.17.22-.12.53.1.7.22.17.53.12.7-.1.17-.22.12-.53-.09-.7-.22-.17-.53-.12-.7.1Zm4.23,6.17c.27-.08.42-.35.34-.62-.08-.27-.35-.42-.62-.34-.27.08-.42.35-.34.62.08.27.35.42.62.34Zm-13.1-7.35c-.28,0-.5.22-.5.5s.22.5.5.5.5-.22.5-.5-.22-.5-.5-.5Zm13.7,42.55c.28,0,.5-.23.49-.51q0-.38,0-.75c0-.28-.23-.5-.51-.49s-.5.23-.49.51q0,.38,0,.75c0,.28.23.5.51.49Zm-7.93-30.96c.19-.19.19-.51,0-.71-.19-.19-.51-.2-.71,0-.19.19-.19.51,0,.71.19.19.51.2.71,0Zm6.54,10.36c.26.09.55-.05.64-.31.09-.26-.05-.55-.31-.64-.26-.09-.55.05-.64.31-.09.26.05.55.31.64Zm3.46.53c.28-.01.49-.25.47-.53s-.25-.49-.53-.47c-.28.01-.49.25-.47.53.01.28.25.49.53.47Zm-10.04-8.43c-.27.08-.42.35-.34.62.08.27.35.42.62.34.27-.08.42-.35.34-.62-.08-.27-.35-.42-.62-.34Zm4.23,6.17c.17-.22.12-.53-.09-.7-.22-.17-.53-.12-.7.09s-.12.53.1.7c.22.17.53.12.7-.1Zm-2.4-2.29c.23-.16.29-.47.13-.69-.16-.23-.47-.29-.69-.13-.23.16-.29.47-.13.69.16.23.47.29.7.13Zm11.27,3.46c.28,0,.5-.22.5-.5s-.22-.5-.5-.5-.5.22-.5.5.22.5.5.5Zm15.98,16.22c-.78,1.61-1.9,3-3.24,4.31l-.76-.08-2.1-3.14.22-.74c.75-.32,1.28-1.07,1.28-1.94,0-1.25-1.08-2.16-2.12-2.11v3.62l-.5.5h-3l-.5-.5v-3.36c-.87.32-1.3.89-1.81,1.7l-.71.14c-.34-.24-.54-.57-.54-.99,0-.73.6-1.28-1.23-2.58-.28-.2-.28-.62,0-.81.55-.39.83-.71.98-.96.2-.34.19-.58.15-.97-.04-.36-.07-.7.11-1.06.11-.22.29-.42.52-.59l.71.14c.5.8.93,1.38,1.81,1.7v-5.98c-2.41,3.92-5.8,6.76-10.34,7.63.86-.04,1.96.07,2.47.76.66.87.04,2.06.54,2.43.27.19.29.61,0,.82.18.05.6.17.74.27l.07.07.06.08c.12.2.09.46-.09.63-.07.07-.16.09-.28.24-.18.22-.33.61-.32,1.07l.89.26.27.76c-.36.52-.69.95-.97,1.39-.3.46-.77,1.33-.77,1.88,0,.76.75,1.45.33,2.87-.16.55-.51,1.17-.74,1.49.37.42.5.99.27,1.54l.54.43.42,4.93c-.36.57-.32.51-.34.52-6.84,2.49-13.21-.1-16.56-5.8l.06-.59,2.85-3.07c-.82-1.35-1.21-3-1.23-4.57-1.21.13-2.37-.65-2.37-1.84,0-.93.35-1.78,1.16-2.24-.63-.68-1.16-1.39-1.62-2.11-5.06-2.35-9.3-6.06-8.39-11.58v-12.51c-1.13-.23-2.03-.76-2.03-1.92,0-.24.04-.47.15-.69-.54-.61-.58-1.39-.25-2-.32-.59-.27-1.27.08-1.77-.43-.96.25-2.14,2.05-2.33v-9.71c-.45-.02-1.06.18-1.5.62-1.06,1.07-.7,2.85.66,3.44l.02.6.2.13-2.1,3.14-.76.08c-1.35-1.31-2.46-2.7-3.24-4.31-1.63-3.36-1.63-7.82,0-11.17.78-1.61,1.9-3,3.24-4.31l.76.08,2.1,3.14-.33.22.11.52c-1.36.59-1.72,2.38-.66,3.44.43.43,1.03.64,1.5.62v-3.62l.5-.5h3l.5.5v3.36c.88-.32,1.31-.9,1.81-1.7l.71-.14c.23.17.41.36.52.59.53,1.06-.72,1.59,1.24,2.99.28.2.28.61,0,.81-.56.4-1.33,1.02-1.33,1.71,0,.49.4,1.26-.44,1.86l-.71-.14c-.51-.81-.93-1.38-1.81-1.7v5.98c2.41-3.92,5.8-6.76,10.34-7.63-1.17.05-2.44-.16-2.73-1.3-.2-.77.12-1.59-.29-1.88-.27-.19-.29-.61,0-.82-.19-.05-.63-.17-.78-.3-.26-.23-.2-.64.08-.8.37-.22.52-.82.51-1.25l-.89-.26-.27-.76c.71-1.02,1.3-1.71,1.66-2.8.1-.32.1-.56.03-.85-.23-.87-.98-1.83.46-3.98-.37-.42-.5-.99-.26-1.54l-.54-.43-.42-4.93c.36-.57.32-.51.34-.52,6.84-2.49,13.21.1,16.56,5.8l-.06.59-2.85,3.07c.82,1.35,1.21,3,1.23,4.57,1.22-.13,2.37.65,2.37,1.84,0,.93-.35,1.78-1.16,2.24.63.68,1.16,1.39,1.62,2.11,5.09,2.36,9.3,6.07,8.39,11.58v12.51c1.13.23,2.03.76,2.03,1.92,0,.24-.04.47-.15.69.53.6.58,1.39.25,2,.32.59.26,1.27-.08,1.77.43.95-.25,2.14-2.05,2.33v9.71c.45.02,1.06-.18,1.5-.62,1.07-1.07.7-2.85-.66-3.44l-.3-.46.08-.28,2.1-3.14.76-.08c1.35,1.31,2.46,2.7,3.24,4.31,1.63,3.36,1.63,7.81,0,11.17ZM25.33,34.17h2.7c-.36-.44-.57-.92-.57-1.49,0-.23.03-.42.05-.61-.58.78-1.21,1.24-2.18,1.52v.59Zm0,1.59c.85.24,1.44.63,1.97,1.25-.07-.73.2-1.3.69-1.84h-2.66v.59Zm29.33,42.08h-2.66c.49.54.76,1.12.69,1.85.54-.63,1.12-1.02,1.97-1.26v-.59Zm0-1.59c-.94-.26-1.58-.72-2.18-1.51.02.18.05.37.05.61,0,.58-.21,1.06-.57,1.49h2.7v-.59Zm-3.53-41.75c2.99,6.25.77,13.65-2.9,19.48.68.48,1.25.99,1.72,1.53,8.75-7.79,11.54-15.52,1.18-21.01Zm4.53,16.4v6.01c1.67,0,1.7,0,2,.01v-9.29c-.55,1.16-1.24,2.24-2,3.26Zm-9.55,4.56c0-13.72-17.83-16.86-17.4-7.68.25.46.47.92.66,1.39,3-4.23,9.61-2.23,11.75,2.58.48,1.07.76,2.32.76,3.71,0,1.87,2.28,2.83,3.61,1.5.38-.38.62-.91.62-1.5Zm-2.11,3.12c-1.48,0-2.71-1.03-3.03-2.42l-1.84.72c.06,1.73.61,3.15,1.42,4.26,1.41,1.95,3.67,3,5.58,3,4.22,0,6.86-5.58,1.57-9.33-.27.4-.47.68-.58.83-.09,1.64-1.45,2.93-3.11,2.94Zm-11.69-1.39c.27-.4.47-.68.58-.83.09-1.64,1.45-2.93,3.11-2.94,1.48,0,2.72,1.03,3.03,2.41l1.84-.72c-.06-1.73-.61-3.15-1.42-4.26-1.41-1.95-3.68-3-5.58-3-4.23,0-6.85,5.58-1.57,9.33Zm-3.24-2.09h-3.73v4.76c1.11-1.32,2.47-2.7,4.1-4.15-.11-.16-.2-.29-.37-.61Zm4.82,1.45c0,5.78,3.25,10.21,7.89,12.08,1.37.55,2.9.88,4.39.81.12-.01.24-.02.36-.02,3-.26,4.9-2.07,4.75-5.18-.25-.46-.47-.92-.66-1.39-1.97,2.77-5.59,2.95-8.57,1.07-2.42-1.52-3.94-4.14-3.94-7.36,0-1.18-.95-2.11-2.12-2.11-1.18,0-2.11.96-2.11,2.12Zm17.05.37h3.73v-4.76c-1.11,1.32-2.47,2.7-4.1,4.15.11.16.2.29.37.61Zm-2.95-25.32c-.42.82-1.18,1.22-2.12,1.26-.47.78-1.35,1.36-2.22,1.37-.95,0-1.83-.25-2.5-.91-.34,3.5-1.95,6.75-4.93,8.44,4,.75,7.83,3.55,9.68,7.71.6,1.34,1,2.86,1.16,4.52.5-.76,1.17-1.85,1.83-3.17,3.34-6.64,4.05-13.74-.9-19.22Zm-4.71-4.64c0,1.02-.14,1.52-.05,2.45.4-.15.76-.19,1.12-.14.34-3.27.03-7.2-2.57-9.19-.4-.31-.87-.57-1.18-.68,1.9,1.87,2.68,4.89,2.68,7.57Zm-7.66-8.49h-.02c-.19,0-.15,0-.33,0-.4.03-.95.16-1.13.52-.1.2-.03.4.13.56.13.12.35.24.67.28,1.69.2,3.19.71,4.35,1.96,1.27,1.36,1.52,3.13,1.53,4.97,0,1.38-.29,4.24.83,5.64.5.62,1.2.84,2.01.84.48,0,1.16-.41,1.45-1.06.56-1.21-.48-2.37-1.67-1.77.12.35.25.59.36.76.15.23.09.54-.15.69-.23.15-.54.09-.69-.15-.73-1.11-.84-2.52-.72-3.84.1-1.18,0-2.66-.34-4.01-.83-3.3-2.87-5.4-6.28-5.4Zm2.22,20.64c1.15-1.36,2.08-3.32,2.32-6.01-.9.84-1.98,1.5-3.15,1.84l.83,4.17Zm9.5-10.56c.52.28.89.76.96,1.35.39-.31.52-.78.52-1.28,0-.64-.77-.96-1.42-.82-.09.86-.18.69-.07.76Zm-2,1.1c.69.49.99,1.32.89,2.16.8-.2,1.08-.88,1.08-1.69,0-.78-1.25-1.18-1.97-.47Zm.79-5.15c-.34-1.2-.94-2.35-1.93-3.11,1.16,2.08,1.38,4.68,1.23,7.04.3-.12.58-.16.89-.15.22-.95.2-2.38-.19-3.78Zm-2.91-4.97c.96.56,1.7,1.11,2.47,1.8l2.37-2.56c-1.23-1.42-3.35-.36-4.85.76Zm-.03-1.2c1.07-.71,2.43-1.36,3.71-1.23-.87-1.02-1.87-1.88-2.98-2.56.32,1.23-.16,2.65-.73,3.8Zm-3.67-4.72c-1.01.8-1.38,2.77-1.47,4.06.46.08.92.18,1.37.29.62.15,1.2.32,1.71.56.22.09.44.18.66.28.41-.65.79-1.41,1.02-2.14.49-1.56.24-2.73-1.32-3.26-.7-.23-1.38-.26-1.97.21Zm-4.28-.56c1.01.66,1.63,1.87,2.02,3,.24-1.16.69-2.45,1.61-3.2-1.16-.11-2.34-.05-3.63.2Zm-1.61,4.54c1.1-.14,2.11-.14,3-.08-.43-1.89-1.43-4.24-3.35-3.9l.34,3.98Zm6.55,14.05c-1.01-3.17.6-6.81-1.6-9.18-1-1.07-2.3-1.48-3.73-1.65-.18-.02-.35-.06-.51-.11-.09.14-.18.27-.25.4-.07.23-.17.68-.07.9.29.58,2.77-.16,3.91,1.27.17.22.14.53-.08.7-.22.17-.53.14-.7-.08-.71-.89-2.43-.37-3.43-.87.18.6.58,1.25.24,2.27-.32.98-.79,1.67-1.38,2.49,1.87.55,1.26.38,2.34.66.61.16,1.26.33,1.62.8.33.43.3.99,0,1.47-.15.23-.46.3-.69.15s-.3-.46-.15-.69c.03-.04.05-.09.07-.13.04-.1.02-.15-.01-.2-.21-.29-1.17-.44-2.24-.75-.03.4-.14.78-.35,1.14.29.05.53.07.79.05.28-.02.51.19.53.46s-.19.51-.46.53c-.28.02-.41,0-.6,0,.58.53.49,1.17.5,1.89,0,.53.08.75.59.89.23.06.56.11,1.01.11,1.36,0,3.25-.81,4.68-2.53Zm-14.56,12.72c.89.48,1.58,1.15,2.2,1.98.49-3.04,2.95-4.62,5.98-4.76.91-.11,2.09-.61,3.21-1.6l-.77-3.89c-4.82.8-8.26,3.93-10.62,8.27Zm-3.25,3.11h2v-17.79h-2v17.79Zm-1-11.91v-.38h-4.55c.04.98.22,1.87.51,2.7.09.26-.05.55-.31.64-.26.09-.55-.05-.64-.31-.78-2.23-.76-4.89,0-7.06.09-.26.38-.4.64-.31.26.09.4.38.31.64-.29.83-.46,1.72-.51,2.7h4.55v-.38c-2.52,0-3.96-2.82-2.59-4.85.22-.33.51-.62.84-.84l-1.46-2.18c-2.48,2.55-3.73,5.16-3.73,8.75,0,3.58,1.25,6.2,3.73,8.75l1.46-2.18c-.33-.22-.62-.51-.84-.84-1.37-2.03.07-4.85,2.59-4.85Zm1.5,18.55h5.81c-.42-1.3-.37-2.6.1-3.78-.67-1.84-1.75-3.92-3.41-4.96v2.6l-.5.5h-3l-.5-.5v-.7c-.39.06-.9.2-1.11.54-.17.28.02.54.3.72.06.04.21.1.4.15.54.14,1.38.2,1.94.2.28,0,.5.23.5.5,0,.28-.23.5-.5.5-.73,0-2.18-.09-2.85-.5-.05.24.01.46.17.65.3.36.73.49,1.18.57.35.06.72.08,1,.08.28,0,.5.23.5.5s-.23.5-.5.5c-.75,0-1.73-.11-2.37-.51,0,.2.06.36.19.51.36.44,1.28.75,1.68.75.28,0,.5.22.5.5s-.22.5-.5.5c-.48,0-1.11-.21-1.56-.44-.01.19.04.37.1.45.11.17.41.32.6.39.39.15.98.27,1.83.27Zm-.5.99v9.29c.55-1.16,1.24-2.24,2-3.26v-6.01c-1.67,0-1.7,0-2-.01Zm6.53,22.43c-2.98-6.23-.79-13.62,2.9-19.48-.68-.48-1.25-.99-1.72-1.53-8.79,7.83-11.5,15.54-1.18,21.01Zm3.16,2.9c.43-.83,1.2-1.22,2.12-1.26.47-.78,1.35-1.36,2.22-1.37.95,0,1.83.25,2.5.91.34-3.47,1.94-6.75,4.93-8.44-4-.75-7.83-3.55-9.68-7.71-.6-1.34-1-2.86-1.16-4.52-.5.76-1.17,1.85-1.83,3.17-3.34,6.64-4.04,13.74.9,19.22Zm4.71,4.64c0-1.04.14-1.51.05-2.45-.4.15-.76.19-1.12.14-.34,3.27-.03,7.2,2.57,9.19.41.31.87.57,1.18.68-1.9-1.88-2.68-4.9-2.68-7.57Zm7.66,8.49h.02c.18,0,.17,0,.33,0,.4-.03.95-.16,1.13-.52.1-.2.03-.4-.13-.56-.13-.12-.35-.24-.67-.28-1.69-.2-3.19-.71-4.35-1.96-1.27-1.36-1.52-3.13-1.53-4.97,0-1.38.29-4.25-.83-5.64-.5-.62-1.2-.84-2.01-.84-.48,0-1.16.41-1.45,1.06-.56,1.21.47,2.37,1.67,1.77-.12-.35-.25-.59-.36-.76-.15-.23-.09-.54.14-.69.23-.15.54-.09.69.14.72,1.1.84,2.52.72,3.84-.1,1.18,0,2.66.34,4.01.83,3.3,2.87,5.4,6.28,5.4Zm-2.22-20.64c-1.15,1.36-2.08,3.32-2.32,6.01.9-.84,1.98-1.5,3.15-1.84l-.83-4.17Zm-9.5,10.56c-.52-.28-.89-.76-.96-1.35-.39.31-.52.79-.52,1.28,0,.64.77.96,1.42.82.09-.86.18-.69.07-.76Zm2-1.1c-.69-.5-.99-1.32-.89-2.16-.8.2-1.08.88-1.08,1.69,0,.78,1.25,1.18,1.97.47Zm-.79,5.15c.34,1.2.94,2.35,1.93,3.11-1.16-2.07-1.38-4.67-1.23-7.04-.31.12-.59.16-.89.15-.22.95-.2,2.38.19,3.78Zm2.91,4.97c-.96-.56-1.7-1.11-2.47-1.8l-2.37,2.56c1.23,1.42,3.35.36,4.85-.76Zm.03,1.2c-1.08.72-2.43,1.36-3.71,1.23.87,1.02,1.87,1.88,2.98,2.56-.32-1.23.16-2.65.73-3.8Zm3.67,4.72c1.01-.8,1.38-2.77,1.47-4.06-.46-.08-.92-.18-1.37-.29-.62-.15-1.2-.32-1.71-.56-.22-.09-.44-.18-.66-.28-.41.65-.79,1.41-1.02,2.14-.49,1.57-.24,2.73,1.32,3.26.71.24,1.39.26,1.97-.21Zm4.28.56c-1.01-.66-1.63-1.86-2.02-3-.24,1.17-.69,2.45-1.61,3.2,1.13.1,2.31.06,3.63-.2Zm1.61-4.54c-1.09.13-2.09.14-3,.08.43,1.89,1.43,4.24,3.35,3.9l-.34-3.98Zm-6.55-14.05c.81,2.53-.01,4.84.58,7.2.38,1.54,1.35,2.59,2.8,3.17,1.17.46,1.88.37,2.47.57.05-.09.11-.17.25-.4.07-.23.17-.68.07-.9-.29-.58-2.77.16-3.91-1.27-.17-.22-.14-.53.08-.7.22-.17.53-.14.7.08.72.89,2.42.37,3.43.87-.18-.6-.58-1.25-.24-2.27.32-.98.79-1.67,1.38-2.49-1.87-.55-1.26-.38-2.34-.66-.62-.16-1.26-.33-1.62-.8-.34-.44-.3-1,0-1.47.15-.23.46-.3.69-.15.23.15.3.46.15.69-.03.04-.05.09-.07.13-.04.1-.02.15.01.2.21.28,1.15.43,2.24.75.03-.4.14-.78.35-1.14-.28-.05-.53-.07-.78-.05-.28.02-.51-.19-.53-.46-.02-.28.19-.51.46-.53.27-.02.41,0,.6,0-.58-.53-.49-1.17-.5-1.89,0-.53-.08-.75-.59-.89-.23-.06-.56-.11-1.01-.11-1.36,0-3.25.81-4.68,2.53Zm14.56-12.72c-.89-.48-1.58-1.15-2.2-1.98-.48,3.01-2.92,4.62-5.98,4.76-.91.11-2.09.61-3.22,1.6l.77,3.89c4.82-.8,8.26-3.93,10.62-8.27Zm3.25-3.11h-2v17.79h2v-17.79Zm1-.5v.7c.24-.03.45-.09.61-.16.62-.27.78-.72.19-1.1-.39-.27-1.84-.35-2.34-.35-.28,0-.5-.23-.5-.5,0-.28.23-.5.5-.5.76,0,2.19.1,2.85.5.09-.41-.16-.71-.51-.94-.42-.28-1.34-.35-1.84-.35-.28,0-.5-.23-.5-.5s.23-.5.5-.5c.75,0,1.73.11,2.37.51,0-.35-.23-.61-.53-.8-.43-.28-1.07-.46-1.34-.46-.28,0-.5-.22-.5-.5s.22-.5.5-.5c.47,0,1.09.2,1.56.44.01-.18-.03-.35-.1-.45-.11-.17-.41-.32-.6-.39-.39-.15-.98-.27-1.83-.27h-5.81c.42,1.3.37,2.6-.1,3.78.67,1.84,1.75,3.93,3.41,4.96v-2.6l.5-.5h3l.5.5Zm6.94,13.29c0-3.59-1.25-6.2-3.73-8.75l-1.46,2.18c.33.22.62.51.84.84,1.37,2.03-.07,4.85-2.59,4.85v.38h4.55c-.04-.98-.22-1.87-.51-2.7-.09-.26.05-.55.31-.64.26-.09.55.05.64.31.78,2.24.75,4.9,0,7.06-.09.26-.38.4-.64.31-.26-.09-.4-.38-.31-.64.29-.83.46-1.72.51-2.7h-4.55v.38c2.52,0,3.96,2.82,2.59,4.85-.22.33-.51.62-.84.84l1.46,2.18c2.48-2.55,3.73-5.16,3.73-8.75Z"/></g></g></svg>