<?xml version="1.0" encoding="UTF-8"?><svg id="Grouped" xmlns="http://www.w3.org/2000/svg" viewBox="0 0 80 112"><defs><style>.cls-1{fill:#f9cb19;}.cls-2{fill:#fff;}.cls-3{fill:#c93112;}.cls-4{fill:#1f1f1f;}.cls-5{fill:#234bc2;}</style></defs><g id="Queen"><rect id="BG-2" class="cls-2" width="80" height="112" rx="5" ry="5"/><g id="Suit"><g id="Suit-2"><g id="Suit-3"><path class="cls-4" d="m15.06,23.06c-.59-.59-1.54-.59-2.12,0l-.64.64c.16-.58.49-.87.77-1.15.59-.59.59-1.54,0-2.12-.29-.29-.67-.44-1.06-.44s-.77.15-1.06.44c-.59.59-.59,1.54,0,2.12.27.27.6.57.77,1.15l-.64-.64c-.59-.59-1.54-.59-2.12,0-.59.59-.59,1.54,0,2.12.59.59,1.54.59,2.12,0l.74-.74v.04c.02.65-.09,1.67-.8,2.39v.25h2v-.25c-.71-.71-.82-1.73-.81-2.38v-.05s.74.74.74.74c.59.59,1.54.59,2.12,0s.59-1.54,0-2.12Z"/><path class="cls-4" d="m64.94,88.94c.59.59,1.54.59,2.12,0l.64-.64c-.16.58-.49.87-.77,1.15-.59.59-.59,1.54,0,2.12.29.29.67.44,1.06.44s.77-.15,1.06-.44c.59-.59.59-1.54,0-2.12-.27-.27-.6-.57-.77-1.15l.64.64c.59.59,1.54.59,2.12,0s.59-1.54,0-2.12c-.59-.59-1.54-.59-2.12,0l-.74.74v-.04c-.02-.65.09-1.67.8-2.39v-.25h-2v.25c.71.71.82,1.73.81,2.38v.05s-.75-.74-.75-.74c-.59-.59-1.54-.59-2.12,0-.59.59-.59,1.54,0,2.12Z"/></g><g id="Value"><path class="cls-4" d="m15.34,19.43c-.42,0-.79-.09-1.09-.27-.3-.18-.58-.39-.84-.63s-.51-.49-.77-.75c-.25-.26-.54-.46-.87-.62-.63,0-1.19-.12-1.66-.34-.47-.22-.87-.52-1.18-.92s-.54-.87-.7-1.43c-.16-.56-.23-1.18-.23-1.87,0-.77.1-1.45.29-2.06.19-.61.46-1.11.82-1.53.36-.41.79-.73,1.31-.95.52-.22,1.09-.33,1.73-.33s1.21.11,1.69.32c.48.21.88.52,1.2.91.32.39.55.87.71,1.43.16.56.24,1.19.24,1.88,0,1.23-.25,2.24-.74,3.05-.5.81-1.17,1.35-2.04,1.62.21.08.41.17.59.28s.37.22.56.34c.3.2.59.37.87.51.29.14.61.2.95.2.11,0,.21,0,.31-.01s.19-.02.27-.03l.16.6c-.13.13-.34.26-.64.39s-.61.2-.96.2Zm-3.33-10.92c-.72,0-1.27.32-1.66.96-.39.64-.59,1.64-.59,3.02s.19,2.31.55,2.95c.37.64.92.96,1.66.96s1.27-.32,1.67-.97c.39-.64.59-1.65.59-3.03s-.19-2.31-.55-2.94c-.37-.64-.92-.95-1.66-.95Z"/><path class="cls-4" d="m64.65,92.57c.42,0,.79.09,1.09.27.3.18.58.39.84.63.26.24.51.49.77.75.25.26.54.46.87.62.63,0,1.19.12,1.66.34.47.22.87.52,1.18.92s.54.87.7,1.43c.16.56.23,1.18.23,1.87,0,.77-.1,1.45-.29,2.06-.19.61-.46,1.11-.82,1.53-.36.41-.79.73-1.31.95-.52.22-1.09.33-1.73.33s-1.21-.11-1.69-.32c-.48-.21-.88-.52-1.2-.91-.32-.39-.55-.87-.71-1.43-.16-.56-.24-1.19-.24-1.88,0-1.23.25-2.24.74-3.05.5-.81,1.17-1.35,2.04-1.62-.21-.08-.41-.17-.59-.28s-.37-.22-.56-.34c-.3-.2-.59-.37-.87-.51-.29-.14-.61-.2-.95-.2-.11,0-.21,0-.31.01-.1,0-.19.02-.27.03l-.16-.6c.13-.13.34-.26.64-.39s.61-.2.96-.2Zm3.33,10.92c.72,0,1.27-.32,1.66-.96.39-.64.59-1.64.59-3.02s-.19-2.31-.55-2.95c-.37-.64-.92-.96-1.66-.96s-1.27.32-1.67.97c-.39.64-.59,1.65-.59,3.03s.19,2.31.55,2.94c.37.64.92.95,1.66.95Z"/></g></g><g id="Value-2"><path class="cls-4" d="m67.12,17.13c-1.17-1.17-3.07-1.17-4.24,0l-1.29,1.29c.32-1.16.98-1.75,1.53-2.3,1.17-1.17,1.17-3.07,0-4.24-.58-.58-1.35-.88-2.11-.88s-1.54.29-2.13.88c-1.17,1.17-1.17,3.07,0,4.24.55.55,1.21,1.14,1.53,2.3l-1.29-1.29c-1.17-1.17-3.07-1.17-4.24,0s-1.17,3.07,0,4.24,3.07,1.17,4.24,0l1.48-1.48s0,.05,0,.08c.03,1.3-.18,3.35-1.61,4.78v.5h4v-.5c-1.42-1.42-1.62-3.46-1.61-4.76,0-.04,0-.07,0-.1l1.48,1.48c1.17,1.17,3.07,1.17,4.24,0,1.17-1.17,1.17-3.07,0-4.24Z"/><path class="cls-4" d="m25.12,94.88c-1.17,1.17-3.07,1.17-4.24,0l-1.29-1.29c.32,1.15.98,1.75,1.53,2.3,1.17,1.17,1.17,3.07,0,4.24-.58.58-1.35.88-2.11.88s-1.54-.29-2.13-.88c-1.17-1.17-1.17-3.07,0-4.24.55-.55,1.21-1.14,1.53-2.3l-1.29,1.29c-1.17,1.17-3.07,1.17-4.24,0-1.17-1.17-1.17-3.07,0-4.24,1.17-1.17,3.07-1.17,4.24,0l1.48,1.48s0-.05,0-.08c.03-1.3-.18-3.35-1.61-4.78v-.5h4v.5c-1.42,1.42-1.62,3.46-1.61,4.76,0,.04,0,.07,0,.1l1.48-1.48c1.17-1.17,3.07-1.17,4.24,0,1.17,1.17,1.17,3.07,0,4.24Z"/></g></g><path id="Frame" class="cls-4" d="m72,80h-1V9H22v-1h49.5l.5.5v71.5ZM8,32v71.5l.5.5h49.5v-1H9V32h-1Z"/><g id="Illustration"><g id="Color"><path class="cls-1" d="m45.29,98.86c-1.74-.18-3.2-.86-4.46-2.1l-.72.02c-1.14,1.3-2.56,2.06-4.34,2.36-1.24-1.34-1.9-2.86-2-4.62l-.66-.44c-1.72.62-3.4.6-5.08-.04,2.11-1.85,2.61-3.36,3.18-4.94,2.91,2.91,7.29,4.44,11.36,4.36.2,0,.4-.04.58-.04.02,0,.04.02.06.02.04,0,.06-.02.1-.02.02,0,.06-.02.06-.02.32-.02.62-.04.94-.08-.16,1.73.37,3.92.98,5.54Z"/><path class="cls-5" d="m44.59,91.52c.04.34-.28.74-.9.9-4.4.28-6.75-2.09-6.86-5.56,0-2.24.92-4.31,0-5.78-3.17-5.14,1.63-4.2,2-8.68.45-.1.81-.03,2.72-.96.74,1.34.57,3.51-.82,4.22-3.54,1.84-4.61,4.29-1.92,7.36,1.29,1.46-1.11,4.83.48,6.68,1.55,1.88,5.17.48,5.3,1.82Z"/><path class="cls-5" d="m35.83,86.88c.02.68.22,3.08,1.98,4.78-7.05-2.81-3.27-10.56-4-12.9-.83-2.66-.96-4.33,1.28-6.7.92.34,1.84.48,2.72.46-.46,3.53-5.31,3.49-1.82,9.08.64,1.05-.16,3.21-.16,5.28Z"/><path class="cls-5" d="m33.37,89.22c-.57-.47-.58-.42-1.4-1.3-4.55-5.62-.77-8.3-.62-10.72.06-.74-.28-1.48-.64-2.18-1.1-2.15,1.21-4.32,3.38-3.32-2.58,2.92-1.9,5.24-1.32,7.1.55,1.77-1.46,6.57.6,10.42Z"/><path class="cls-3" d="m48.05,68.78l-5.94-3.76c4.4-1.98,7.48-3.94,9.14-7.3.92-1.9,1.16-3.8.78-5.98,2.16-1.02,3.88-2.8,4.8-5,3.62,9.58-.18,17.28-8.78,22.04Z"/><path class="cls-3" d="m37.91,46.98c-4.42,1.98-7.5,3.94-9.14,7.3-.94,1.9-1.18,3.8-.8,5.98-2.14,1.02-3.86,2.8-4.78,5-3.66-9.68.24-17.35,8.78-22.04l5.94,3.76Z"/><path class="cls-1" d="m34.85,61.62c-5.55-3.62-13.42.3-13.42,7.38,0,4.66,3.68,8.46,8.28,8.72.17-.62.33-.87-.4-2.24-1.52-3.03,1.71-6.12,4.76-4.68,1.7.8,3.2.96,4.74.48,2.17-.67,2.24-1.16,2.72-.84.04.02.08.02.12.06.02.02.02.06.04.08h.02c0,.13.06-.09.48.94,1.54-.64,3.2-1.36,4.82-2.2l-12.16-7.7Zm-11.89,6.78c.09-1.08.42-2.11.96-3.05l.86.51c-.47.81-.75,1.69-.83,2.62l-1-.08Zm3.03,6.51c-.87-.62-1.61-1.44-2.13-2.38l.87-.49c.45.8,1.09,1.51,1.84,2.05l-.58.81Zm1.48-11.53l-.44-.9c.98-.47,2.03-.72,3.12-.72v1c-.94,0-1.84.21-2.68.62Zm8.72,2.03l-2.53-1.61.54-.84,2.53,1.61-.54.84Zm5.91,3.75l-2.53-1.61.54-.84,2.53,1.61-.53.84Z"/><path class="cls-1" d="m50.29,34.28c-.18.65-.32.9.4,2.24,1.52,3.05-1.7,6.12-4.76,4.68-2.24-1.05-4.08-1.06-6.96.42-.22.11-.4.06-.56-.1-.02,0-.04,0-.04-.02l-.06-.06s0-.03-.02-.03c-.2-.26-.34-.59-.46-.93-1.56.64-3.2,1.36-4.84,2.2l12.16,7.7c5.73,3.68,13.42-.46,13.42-7.38,0-4.66-3.68-8.46-8.28-8.72Zm-10.38,11.01l-2.53-1.61.53-.84,2.53,1.61-.53.84Zm5.91,3.75l-2.53-1.61.54-.84,2.53,1.61-.54.84Zm4.04,1.21v-1c.94,0,1.84-.21,2.68-.62l.44.9c-.98.47-2.03.72-3.12.72Zm3.58-12.34l.58-.81c.87.62,1.61,1.44,2.13,2.38l-.87.49c-.45-.8-1.09-1.51-1.84-2.05Zm2.65,8.75l-.86-.51c.47-.81.75-1.69.83-2.62l1,.08c-.09,1.08-.42,2.11-.96,3.05Z"/><path class="cls-5" d="m49.29,36.98c1.11,2.11-1.18,4.33-3.38,3.32,2.58-2.92,1.92-5.24,1.32-7.1-.45-1.97,1.41-6.66-.6-10.42.4.33.49.31,1.4,1.3,4.59,5.63.77,8.25.62,10.72-.06.74.28,1.48.64,2.18Z"/><path class="cls-5" d="m44.93,39.94c-.94-.34-1.84-.48-2.74-.46.46-3.48,5.31-3.5,1.82-9.08-.66-1.08.21-3.16.16-5.28-.02-.7-.2-3.08-1.98-4.78,7.07,2.83,3.27,10.55,4.1,13.14.6,1.87,1.14,3.8-1.36,6.46Z"/><path class="cls-5" d="m41.17,39.6c-.44.1-.81.03-2.72.96-.74-1.34-.57-3.49.82-4.22,2.35-1.22,4.11-2.96,3.18-5.44h-.02c-1.02-2.63-2.14-1.25-1.4-4.96.26-1.32.52-2.66-.3-3.64-1.59-1.87-5.22-.5-5.32-1.82-.03-.34.28-.76.92-.9,4.3-.31,6.73,2.05,6.84,5.56.05,1.99-.94,4.27,0,5.78,3.17,5.14-1.63,4.2-2,8.68Z"/><path class="cls-1" d="m51.97,17.96c-2.11,1.9-2.59,3.36-3.16,4.94-.12-.1-.22-.2-.34-.32-1.47-1.41-3.28-2.42-5.2-3.1-.04-.02-.06-.04-.08-.04-.37,0-1.85-.9-5.76-.9,0,0-.04.02-.06.02-.18,0-.36.02-.56.04-.04,0-.06-.04-.1-.02-.04,0-.08.02-.12.04-.3.02-.6.02-.9.06.16-1.79-.36-3.89-.98-5.54,1.74.18,3.2.86,4.46,2.1l.72-.02c1.16-1.3,2.58-2.06,4.36-2.36,1.24,1.34,1.88,2.86,1.98,4.62l.66.44c1.74-.62,3.4-.6,5.08.04Z"/><path class="cls-5" d="m45.57,52.16c-.1,6.08-5.53,9.06-8.01,9.34-1.15-.73-1.75-1.18-3.13-1.66.12-6.08,5.54-9.06,8.02-9.34,1.14.73,1.74,1.18,3.12,1.66Z"/></g><path id="Line" class="cls-4" d="m37.15,25c0,.26,0,.51,0,.77,0,.28-.22.5-.5.5s-.5-.22-.5-.5c0-.26,0-.51,0-.77,0-.28.22-.5.5-.5.28,0,.5.22.5.5Zm25.23,54.55c-.26.39-.67.69-1.19.75-.25.03-.5.02-.73.01.27.24.58.55.72.87.23.55.15,1.16-.15,1.63-.77,1.17-2.54,1-3.08-.29-.13-.33-.13-.77-.11-1.12-.46.51-.86.85-1.54.85-1.39,0-2.23-1.55-1.46-2.71.26-.39.67-.69,1.19-.75.5-.06,1.19.02,1.69.09-.42-1.02-.69-2.26-.67-3.37-.42-.03-.96-.1-1.36-.2l-.13-.06c-1.33-.81-2.24-2.43-3.15-3.66-3.54,2.07-7.27,3.38-10.43,4.83l.23,1.29c.78-.26,1.85-.52,2.64-.3,1.53.42.85,2.21,1.18,2.57.02.02.05.04.1.07.37.17.38.69.03.89.21.06.73.22.89.38.25.25.18.65-.12.8-.31.16-.42.63-.41.99l.8.24.27.76c-.62.89-1.19,1.66-1.52,2.68-.43,1.31.39,1.91-.2,4.01.31.49.31,1.07.03,1.58l.45.41c-.05.87-.06.95-.06,1.22,0,1.61.58,3.74,1.22,5.21l-.46.7c-2.24-.03-4.06-.78-5.54-2.09-1.35,1.35-2.98,2.1-4.85,2.36l-.43-.15c-1.32-1.35-2.15-2.94-2.39-4.82-1.95.54-3.94.41-5.98-.58l-.08-.86c1.25-.94,2.58-2.48,3.12-4.01l.54-1.53c-2.49-3.2-2.62-5.72-1.7-8.16.19-.5.4-.95.58-1.36-2.69-.24-5.15-1.61-6.89-3.79-3.82-4.78-6.88-10.34-6.88-16.49,0-4.85,1.92-9.64,4.98-13.14-.05-.04-.53-.48-.53-.48-1.71-.12-2.24-1.34-1.75-2.28-.24-.44-.22-.93,0-1.34-.24-.45-.21-.93,0-1.34-.47-.86.06-1.97,1.23-2.25.02-.42.27-.75.65-.92.26-.12.55-.17.83-.19.02-1.03-.26-2.2-.63-3.07-.32.44-.78,1.03-1.19,1.36-.26.21-.59.37-1.05.37-1.39,0-2.22-1.55-1.46-2.71.26-.39.67-.69,1.19-.75.26-.03.5-.02.73-.01-.27-.24-.58-.55-.72-.87-.23-.55-.16-1.15.15-1.63.77-1.17,2.54-1.01,3.08.29.13.33.13.77.11,1.12.45-.51.85-.85,1.54-.85,1.39,0,2.23,1.54,1.46,2.71-.26.39-.67.69-1.19.75-.5.06-1.2-.02-1.69-.09.41,1.02.69,2.26.67,3.37.42.03.96.1,1.36.2l.13.06c1.33.81,2.24,2.43,3.15,3.66,3.54-2.06,7.27-3.38,10.43-4.83l-.23-1.29c-1.19.4-3,.74-3.52-.38-.34-.73-.07-1.64-.3-1.88-.02-.02-.05-.04-.1-.07-.37-.17-.38-.69-.03-.89-.23-.06-.65-.2-.83-.33-.31-.22-.27-.68.05-.85.31-.16.42-.63.41-.99l-.8-.24-.27-.76c.62-.89,1.19-1.66,1.52-2.68.43-1.32-.39-1.9.2-4.01-.31-.48-.31-1.07-.03-1.58l-.45-.41c.05-.81.06-.95.06-1.22,0-1.6-.58-3.74-1.22-5.21l.46-.7c2.24.03,4.06.78,5.54,2.09,1.34-1.35,2.98-2.1,4.85-2.36l.43.15c1.32,1.36,2.15,2.94,2.39,4.82,1.95-.54,3.94-.41,5.98.58l.08.86c-1.25.94-2.58,2.49-3.12,4.01l-.54,1.53c2.49,3.2,2.62,5.72,1.7,8.16-.19.5-.4.95-.58,1.36,2.37.21,4.5,1.26,6.08,2.86.02.02.11.12.11.12,4.29,4.93,7.58,10.78,7.58,17.31,0,4.83-1.91,9.63-4.98,13.14.05.04.53.48.53.48,1.72.12,2.24,1.35,1.75,2.28.24.44.22.93,0,1.34.24.45.21.93,0,1.35.47.87-.06,1.97-1.23,2.24-.02.42-.27.75-.65.92-.25.12-.55.17-.83.19-.02,1.03.26,2.2.63,3.07.32-.43.77-1.02,1.19-1.36.26-.21.59-.37,1.05-.37,1.39,0,2.23,1.55,1.46,2.71ZM20.54,32.81c-.42-.07-1.19-.17-1.61-.12-.07,0-.14.03-.14.03-.15.06-.26.16-.34.28-.33.5.03,1.16.63,1.16.22,0,.33-.07.42-.15.34-.27.79-.86,1.04-1.21Zm.63-2.53c0-.1,0-.34-.04-.42-.23-.56-.99-.63-1.32-.13-.16.24-.18.58.02.83.27.34.86.79,1.21,1.04.07-.42.13-.94.13-1.33Zm13.26,29.54c1.24.44,1.88.9,3.12,1.69,2.43-.28,5.68-2.43,7.14-5.51.52-1.11.85-2.37.88-3.81-1.24-.44-1.88-.9-3.13-1.69-2.43.28-5.68,2.43-7.14,5.51-.52,1.11-.85,2.37-.88,3.81Zm1.05-6.01c1.53-2.05,3.74-3.49,5.75-4.08l-3.32-2.1c-3.69,1.62-7.48,3.49-9.25,7.1-.82,1.66-1.05,3.28-.77,5.11,1.82-.65,3.75-.73,5.54-.31.1-2.28.91-4.21,2.04-5.72Zm3.3,8.48l3.32,2.1c3.68-1.61,7.47-3.48,9.25-7.1.82-1.66,1.05-3.27.77-5.11-1.82.65-3.75.73-5.54.31-.19,4.17-2.82,7.55-6.31,9.23-.51.24-1.01.43-1.48.57Zm4.33,2.75l5.94,3.77c3.71-2.05,6.72-4.64,8.58-8.42,2.19-4.45,2-8.95.21-13.66-.92,2.22-2.63,4.02-4.78,5.06.11.63.17,1.23.17,1.82,0,3.43-1.92,6.41-4.82,8.51-1.5,1.09-3.28,2-5.3,2.91Zm4.37-41.02c-.42-.45-.87-.87-1.35-1.26,1.52,2.79.87,6.01.56,8.74-.04.35-.13,1.13-.02,1.46.27.88.62,1.89.63,3.07,0,1.66-.74,3.06-1.85,4.31,1.82.8,3.64-.57,3.64-2.21,0-.85-.4-1.21-.73-2.11-.14-.39-.23-.79-.2-1.19.19-2.52,3.98-5.15-.67-10.8Zm-3.95,6.39c3,4.83-.28,5.65-1.45,7.81-.2.36-.34.76-.41,1.26.97-.04,1.89.13,2.8.46,2.54-2.69,1.89-4.59,1.25-6.68-.59-1.94,2.12-8.23-1.72-11.59-.67-.58-1.54-1.07-2.35-1.34.87.81,1.4,1.8,1.7,2.75,1,3.2-.67,5.94.19,7.33Zm-8.82-11.71c2.51-.33,5.07-.07,7.43.74.07.02.06.02.12.04,2.07.78,4,1.9,5.56,3.44l.35-1c.54-1.52,1.63-2.89,2.82-3.95-1.73-.65-3.4-.63-5.08-.03l-.67-.44c-.09-1.68-.7-3.22-1.99-4.62-1.82.31-3.24,1.12-4.34,2.37l-.73.02c-1.29-1.28-2.78-1.94-4.46-2.1.66,1.78,1.09,3.64.99,5.54Zm6.22,12.38c-.24-.51-.6-.99-.98-1.41-.48-.54-.65-1.21-.65-1.94,0-2.85,2.2-5.55-2.72-5.55-.45,0-.98.01-1.57-.24-.02.12-.04.23-.05.34,0,.14.03.21.06.25.31.46,1.92.25,2.97.84.24.14.33.44.19.68-.14.24-.44.33-.68.19-.62-.35-1.7-.3-2.48-.56.1.66.12,1.17-.12,1.88-.3.9-.73,1.6-1.26,2.37l1.11.33c.26.08.42.36.34.62-.08.26-.34.41-.6.34-.03.33-.11.64-.28.93.26.06.46.07.67.07.28,0,.5.22.51.49,0,.28-.22.5-.49.51-.52,0-.39-.1-.15.18.56.65.21,1.61.45,2.11.03.05.08.09.14.11,1.01.43,4.63-.95,5.59-2.54Zm-2.17,2.86l.21,1.18c1.06-.64,2.19-1.57,2.24-2.8-.67.67-1.59,1.23-2.45,1.62Zm-.83,6.63c.78-.37,1.86-.8,2.73-.97.22-2.77,2.49-3.59,3-5.12.37-1.12-.34-2.52-.97-3.53-1.3-2.1,1.07-5.11-.68-8.5-1.18-2.28-3.56-3.02-6.13-2.86-1.26.27-1.39,1.6.44,1.6,1.28,0,2.89.07,3.8,1,1.81,1.83-.74,5.32.59,6.82,2.65,2.99,1.71,5.47-1.92,7.36-1.48.77-1.48,3.02-.86,4.2Zm-1.11-.06c-1.58.66-3.23,1.37-4.83,2.19l12.17,7.72c1.35.86,2.96,1.35,4.68,1.35,4.84,0,8.75-3.92,8.75-8.75,0-1.99-.63-3.85-1.78-5.29-.21-.27-.44-.53-.67-.78-1.53-1.66-3.64-2.56-5.84-2.67-.25.75-.2,1.09.4,2.27,1.54,3.01-1.7,6.12-4.76,4.67-1.56-.74-3.1-.99-4.74-.47-2.07.65-2.19,1.09-2.63.93-.33-.13-.64-.83-.75-1.17Zm-14.57-8.38c.42.07,1.19.17,1.61.12.07,0,.14-.03.14-.03.15-.06.26-.16.34-.28.33-.5-.03-1.16-.63-1.16-.22,0-.33.07-.42.15-.34.27-.79.86-1.04,1.21Zm-.04,12.46c1.37-1.42,2.87-2.59,4.53-3.63-.82-1.13-1.69-2.62-2.75-3.29-.59-.14-1.87-.26-2.4-.06-.1.03-.1.05-.12.07,0,.02.03.09.05.11.05.07.15.16.29.24.29.17.77.31,1.4.31l.48.35.54,1.7c.08.26-.06.54-.33.63-.26.08-.54-.06-.63-.33l-.43-1.36c-.69-.05-1.45-.26-1.94-.74-1.23.09-1.28,1.62,1.23,1.16.27-.05.53.13.58.4.05.27-.13.53-.4.58-.73.13-1.55.17-2.23-.12.01.11.06.21.2.32.45.34,1.31.26,1.86.16.27-.05.53.13.58.4s-.13.53-.4.58c-.74.14-1.56.17-2.24-.12.01.11.06.21.2.32.44.33,1.27.26,1.81.17.27-.05.53.13.58.4.05.27-.13.53-.4.58-.72.13-1.52.16-2.19-.13.04.43.7.56,1.14.57.26,0,.38.18.99.73Zm-.51,22.21c-2.27-5.32-2.72-10.48-.21-15.59,3.07-6.25,8.84-9.08,15.1-11.69-.1-.77-.04-1.55.22-2.27-4.54,1.95-9.53,3.8-13.39,7.54-3.8,3.68-5.86,8.79-5.86,13.67,0,4.43,1.62,8.6,4.04,12.32-.25-1.37-.2-2.7.1-3.99Zm.48-1.49c.92-2.22,2.63-4.02,4.78-5.06-.11-.63-.17-1.23-.17-1.82,0-3.43,1.92-6.41,4.82-8.51,1.5-1.09,3.28-2,5.3-2.91l-5.94-3.77c-3.71,2.05-6.72,4.64-8.58,8.42-2.19,4.45-2,8.95-.21,13.66Zm10.36,22.71c.42.45.87.87,1.35,1.26-2.05-3.8-.13-8.92-.54-10.2-.27-.88-.62-1.89-.63-3.07,0-1.66.74-3.06,1.85-4.31-2.18-.96-4.45,1.2-3.36,3.34.74,1.46.85,2.08.32,3.44-.4,1.05-1.31,2.48-1.31,4.28,0,1.96,1.07,3.75,2.31,5.26Zm4.21-5.26c0-.39-.05-.8-.25-1.13-3-4.84.28-5.65,1.45-7.81.2-.36.34-.76.41-1.26-.97.04-1.89-.13-2.8-.46-2.54,2.68-1.9,4.58-1.25,6.68.59,1.95-2.12,8.23,1.72,11.59.67.59,1.55,1.07,2.35,1.34-.87-.81-1.4-1.8-1.7-2.75-.79-2.55.07-4.52.06-6.2Zm8.56,10.81v-.22c-2.47.33-5.02.08-7.41-.74-.07-.02-.07-.02-.12-.04-2.07-.78-4-1.9-5.56-3.44l-.36,1c-.54,1.52-1.63,2.89-2.82,3.95,1.63.61,3.3.66,5.08.03l.67.44c.09,1.68.7,3.22,1.99,4.62,1.83-.31,3.24-1.12,4.34-2.37l.73-.02c1.29,1.28,2.78,1.94,4.46,2.1-.59-1.6-1.1-3.6-1-5.31Zm-6.21-12.6c.24.51.6.99.98,1.41.48.54.65,1.21.65,1.94,0,2.85-2.2,5.55,2.72,5.55.45,0,.98-.01,1.57.24.02-.12.04-.23.05-.34,0-.14-.03-.21-.06-.25-.31-.46-1.92-.25-2.97-.84-.24-.14-.33-.44-.19-.68.14-.24.44-.33.68-.19.62.35,1.71.3,2.48.56-.1-.67-.11-1.18.12-1.88.3-.9.73-1.6,1.26-2.37l-1.1-.33c-.26-.08-.42-.36-.34-.62.08-.26.34-.41.6-.34.03-.33.11-.64.28-.93-.25-.06-.46-.07-.67-.07-.28,0-.5-.21-.51-.49s.21-.5.49-.51c.52-.01.4.1.15-.18-.56-.65-.21-1.61-.45-2.11-.03-.05-.08-.09-.14-.11-1-.42-4.62.93-5.59,2.54Zm2.17-2.86l-.21-1.18c-1.06.64-2.19,1.57-2.24,2.8.67-.67,1.59-1.23,2.45-1.62Zm.83-6.63c-.78.37-1.86.8-2.73.97-.22,2.77-2.49,3.6-3,5.12-.37,1.13.34,2.52.97,3.53,1.3,2.1-1.07,5.11.68,8.5,1.19,2.29,3.58,3.02,6.14,2.86,1.26-.27,1.39-1.6-.44-1.59-1.27,0-2.89-.06-3.8-1-1.8-1.83.73-5.32-.59-6.82-2.67-3.02-1.67-5.49,1.92-7.36,1.48-.77,1.48-3.01.86-4.2Zm1.11.07c1.58-.66,3.23-1.37,4.83-2.19l-12.17-7.72c-3.43-2.17-7.95-1.71-10.87,1.21-3.42,3.42-3.4,8.93-.04,12.34,1.49,1.5,3.51,2.47,5.76,2.58.18-.56.2-.86,0-1.4-.31-.86-.79-1.31-.79-2.45,0-2.43,2.68-4.26,5.15-3.08,1.56.74,3.09.99,4.74.47,2.05-.64,2.19-1.09,2.62-.93.33.13.64.83.76,1.17Zm17.22-9.53c3.49-7.1,2.26-14.16-2.01-20.75.25,1.37.2,2.7-.1,3.99,2.26,5.31,2.73,10.47.21,15.59-3.07,6.25-8.84,9.08-15.1,11.69.1.77.04,1.56-.22,2.27,6.48-2.78,13.56-5.35,17.22-12.79Zm-2.66,17.91c-.42-.07-1.19-.17-1.61-.12-.07,0-.13.03-.13.03-.15.06-.26.16-.34.28-.33.5.03,1.16.63,1.16.22,0,.33-.07.42-.15.34-.27.79-.86,1.04-1.21Zm.4-5.41c.1-.02.27-.05.35-.11l.02-.02s-.03-.08-.05-.11c-.05-.07-.15-.16-.29-.24-.29-.17-.77-.31-1.4-.31l-.48-.35-.54-1.7c-.08-.26.06-.54.33-.63.26-.08.54.06.63.33l.43,1.36c.69.05,1.45.26,1.94.74,1.23-.09,1.28-1.62-1.23-1.16-.27.05-.53-.13-.58-.4s.13-.53.4-.58c.73-.13,1.55-.17,2.22.12-.01-.11-.06-.22-.2-.32-.45-.34-1.31-.26-1.86-.16-.27.05-.53-.13-.58-.4s.13-.53.4-.58c.74-.14,1.56-.17,2.24.12-.01-.11-.06-.21-.2-.32-.44-.33-1.28-.26-1.81-.17-.27.05-.53-.13-.58-.4-.05-.27.13-.53.4-.58.72-.13,1.52-.16,2.19.13-.04-.43-.71-.56-1.14-.57-.26,0-.38-.18-.99-.73-1.34,1.4-2.84,2.56-4.53,3.63.82,1.13,1.69,2.62,2.75,3.29.56.13,1.56.22,2.15.13Zm2.01,6.95c-.27-.34-.86-.79-1.21-1.04-.07.42-.13.94-.13,1.33,0,.11,0,.35.04.42.23.56.99.63,1.32.12.16-.24.18-.58-.02-.83Zm.75-3.6c-.21,0-.33.07-.42.15-.34.27-.79.86-1.04,1.21.42.07,1.19.17,1.61.12.07,0,.13-.03.13-.03.15-.06.26-.16.34-.28.33-.5-.03-1.16-.63-1.16Zm-41.5-12.49l.41.92.91-.41-.41-.92-.91.41Zm7.88-21.7l-.59-.81-.81.59.59.81c.5-.36.33-.24.81-.59Zm2.6-1.6l-.5-.87-.87.5.5.87c.55-.31.35-.2.87-.5Zm-4.98,3.5l-.7-.72-.72.7.7.72c.43-.41.27-.27.72-.7Zm-2.05,2.23l-.81-.59-.59.81.81.59c.37-.5.24-.32.59-.81Zm9.78-7.1l-.43-.9-.91.43.43.9c.56-.27.36-.17.91-.43Zm-13.13,21.37l-.97.23.23.98.97-.23c-.14-.6-.09-.39-.23-.98Zm.51-8.95l-.96-.29-.29.96.96.29c.18-.6.12-.38.29-.96Zm-.71,2.94l-.99-.12-.12,1,.99.12c.07-.62.05-.4.12-1Zm1.91-5.71l-.9-.45-.45.9.9.45c.28-.56.18-.36.45-.9Zm-2.08,8.73l-1,.06.06,1,1-.06c-.04-.63-.03-.4-.06-1Zm16.34-19.63l-.41-.91-.92.41.41.91.92-.41Zm7.85,48.1c.28,0,.5-.22.5-.5,0-.26,0-.51,0-.77,0-.28-.22-.5-.5-.5-.28,0-.5.22-.5.5,0,.26,0,.51,0,.77,0,.28.22.5.5.5Zm16.82-41.76l-.91.41.41.92.91-.41-.41-.92Zm-.06,15.51l-.9-.44c-.28.56-.18.36-.45.9l.9.45.45-.9Zm-12.76,10.1l.43.9.91-.43-.43-.9c-.55.26-.37.18-.91.43Zm11.18-7.32l-.81-.59c-.37.51-.22.3-.59.81l.81.59.59-.81Zm-8.43,5.94l.49.87.87-.5-.5-.87c-.54.31-.35.2-.87.5Zm2.6-1.6l.59.81.81-.59-.59-.81c-.5.36-.33.24-.81.59Zm8.15-15.39l1-.06-.06-1-1,.06c.04.63.03.4.06,1Zm-.17,3.01l.99.12.12-1-.99-.12c-.07.63-.05.4-.12,1Zm.54,2.27l-.96-.29c-.1.33-.19.62-.29.96l.96.29.29-.96Zm-.74-8.29l.97-.23-.23-.98-.97.23c.14.61.09.39.23.98Zm-5.41,16.5l.7.72.72-.7-.7-.72c-.45.44-.28.28-.72.7Zm-10.55,6.11l.36.93.93-.36-.36-.93-.93.36Zm-6.2-22.81l-.45-.89-.9.45.45.89.9-.45Zm-7.45,5.62l.9.43c.27-.57.17-.36.44-.9l-.9-.43-.44.9Zm4.46-5.14l-.82.58.58.82c.51-.36.31-.22.82-.58l-.58-.82Zm-2.94,2.61l.75.66c.42-.47.25-.28.67-.75l-.75-.66-.67.75Zm-2.22,5.43l1,.1.1-1-.99-.1-.1,1Zm12.85,4.42l-.45-.89-.9.45.45.89.9-.45Zm4.58-3.54l-.75-.66-.67.75.75.66c.42-.47.26-.3.67-.75Zm-2.11,2.03l-.58-.82-.82.58.58.82c.51-.36.33-.23.82-.58Zm3.64-4.56l-.9-.43-.44.9.9.43c.27-.57.17-.36.44-.9Zm.69-2.91l-1-.09-.09,1,1,.09.09-1Zm4.45-13.77l.87-.49c-.53-.94-1.26-1.75-2.13-2.38l-.58.81c.75.54,1.39,1.24,1.84,2.05Zm-15.38,5.33l.54-.84-2.53-1.61-.54.84,2.53,1.61Zm15.32.85l.86.51c.53-.91.87-1.94.97-3.05l-1-.08c-.08.95-.37,1.84-.83,2.62Zm-8.87,2.05l-2.53-1.61-.54.84,2.53,1.61.54-.84Zm6.19.43c-.81.39-1.72.62-2.68.62v1c1.11,0,2.17-.26,3.12-.72l-.44-.9Zm-25.76,17.24l-.86-.51c-.53.91-.87,1.94-.97,3.05l1,.08c.08-.95.37-1.84.83-2.62Zm15.32.85l-.54.84,2.53,1.61.54-.84-2.53-1.61Zm-15.37,5.33l-.87.49c.53.94,1.26,1.75,2.13,2.38l.58-.81c-.75-.54-1.39-1.24-1.84-2.05Zm8.93-8.24l2.53,1.61.54-.84-2.53-1.61-.54.84Zm-6.19-.43c.81-.39,1.72-.62,2.68-.62v-1c-1.11,0-2.17.26-3.12.72l.44.9Z"/></g></g></svg>