<?xml version="1.0" encoding="UTF-8"?><svg id="Grouped" xmlns="http://www.w3.org/2000/svg" viewBox="0 0 80 112"><defs><style>.cls-1{fill:#f9cb19;}.cls-2{fill:#fff;}.cls-3{fill:#c93112;}.cls-4{fill:#1f1f1f;}.cls-5{fill:#234bc2;}</style></defs><g id="King"><rect id="BG-2" class="cls-2" width="80" height="112" rx="5" ry="5"/><g id="Suit"><g id="Suit-2"><g id="Suit-3"><path class="cls-4" d="m15.06,23.06c-.59-.59-1.54-.59-2.12,0l-.64.64c.16-.58.49-.87.77-1.15.59-.59.59-1.54,0-2.12-.29-.29-.67-.44-1.06-.44s-.77.15-1.06.44c-.59.59-.59,1.54,0,2.12.27.27.6.57.77,1.15l-.64-.64c-.59-.59-1.54-.59-2.12,0s-.59,1.54,0,2.12,1.54.59,2.12,0l.74-.74v.04c.02.65-.09,1.67-.8,2.39v.25h2v-.25c-.71-.71-.82-1.73-.81-2.38v-.05s.75.74.75.74c.59.59,1.54.59,2.12,0s.59-1.54,0-2.12Z"/><path class="cls-4" d="m64.94,88.94c.59.59,1.54.59,2.12,0l.64-.64c-.16.58-.49.87-.76,1.15-.59.59-.59,1.54,0,2.12.29.29.67.44,1.06.44s.77-.15,1.06-.44c.59-.59.59-1.54,0-2.12-.27-.27-.6-.57-.77-1.15l.64.64c.59.59,1.54.59,2.12,0s.59-1.54,0-2.12c-.59-.59-1.54-.59-2.12,0l-.74.74v-.04c-.02-.65.09-1.67.8-2.39v-.25h-2v.25c.71.71.82,1.73.81,2.38v.05s-.74-.74-.74-.74c-.59-.59-1.54-.59-2.12,0-.59.59-.59,1.54,0,2.12Z"/></g><g id="Value"><path class="cls-4" d="m12.03,16.33v.67h-4.07v-.67l.91-.17c.1-.02.17-.06.22-.11.05-.06.08-.13.08-.23v-6.67c0-.1-.03-.18-.08-.24-.05-.06-.12-.1-.22-.12l-.91-.18v-.69h4.02v.69l-.93.18c-.09.02-.17.06-.21.12-.05.06-.08.14-.08.24v3.66l3.42-4-1.05-.2v-.69h3.3v.69l-.86.18c-.08.02-.15.04-.2.07-.06.03-.12.07-.17.13l-2.26,2.51c.2.24.4.5.58.79.18.29.39.63.63,1.04l1.41,2.4c.07.12.14.22.21.29.07.07.17.12.31.15l.62.15v.67h-2.09c-.14,0-.29-.11-.46-.34-.16-.22-.34-.52-.54-.9,0,0-1.21-2.3-1.34-2.51-.12-.22-.24-.41-.36-.59l-1.15,1.3v1.87c0,.1.03.17.08.23.05.06.13.09.23.11l.95.17Z"/><path class="cls-4" d="m67.96,95.67v-.67h4.07v.67l-.91.17c-.1.02-.17.06-.22.11-.05.06-.08.13-.08.23v6.67c0,.1.03.18.08.24.05.06.12.1.22.12l.91.18v.69h-4.02v-.69l.93-.18c.09-.02.16-.06.21-.12.05-.06.07-.14.07-.24v-3.66l-3.42,4,1.05.2v.69h-3.3v-.69l.86-.18c.08-.02.15-.04.2-.07.06-.03.12-.07.17-.13l2.26-2.51c-.2-.24-.4-.5-.58-.79-.18-.29-.39-.63-.63-1.04l-1.41-2.4c-.07-.12-.15-.22-.21-.29-.07-.07-.17-.12-.31-.15l-.62-.15v-.67h2.09c.14,0,.29.11.45.33.16.22.34.52.55.9,0,0,1.21,2.3,1.34,2.51.12.22.24.41.36.59l1.14-1.3v-1.87c0-.1-.03-.17-.08-.23-.05-.06-.13-.09-.23-.11l-.95-.17Z"/></g></g><g id="Value-2"><path class="cls-4" d="m67.12,17.13c-1.17-1.17-3.07-1.17-4.24,0l-1.29,1.29c.32-1.16.98-1.75,1.53-2.3,1.17-1.17,1.17-3.07,0-4.24-.58-.58-1.35-.88-2.11-.88s-1.54.29-2.13.88c-1.17,1.17-1.17,3.07,0,4.24.55.55,1.21,1.14,1.53,2.3l-1.29-1.29c-1.17-1.17-3.07-1.17-4.24,0s-1.17,3.07,0,4.24,3.07,1.17,4.24,0l1.48-1.48s0,.05,0,.08c.03,1.3-.18,3.35-1.61,4.78v.5h4v-.5c-1.42-1.42-1.62-3.46-1.61-4.76,0-.04,0-.07,0-.1l1.48,1.48c1.17,1.17,3.07,1.17,4.24,0,1.17-1.17,1.17-3.07,0-4.24Z"/><path class="cls-4" d="m25.12,94.88c-1.17,1.17-3.07,1.17-4.24,0l-1.29-1.29c.32,1.15.98,1.75,1.53,2.3,1.17,1.17,1.17,3.07,0,4.24-.58.58-1.35.88-2.11.88s-1.54-.29-2.13-.88c-1.17-1.17-1.17-3.07,0-4.24.55-.55,1.21-1.14,1.53-2.3l-1.29,1.29c-1.17,1.17-3.07,1.17-4.24,0-1.17-1.17-1.17-3.07,0-4.24s3.07-1.17,4.24,0l1.48,1.48s0-.05,0-.08c.03-1.3-.18-3.35-1.61-4.78v-.5h4v.5c-1.42,1.42-1.62,3.46-1.61,4.76,0,.04,0,.07,0,.1l1.48-1.48c1.17-1.17,3.07-1.17,4.24,0,1.17,1.17,1.17,3.07,0,4.24Z"/></g></g><path id="Frame" class="cls-4" d="m72,80h-1V9H22v-1h49.5l.5.5v71.5ZM8,32v71.5l.5.5h49.5v-1H9V32h-1Z"/><g id="Illustration"><g id="Color"><path class="cls-1" d="m45.96,98.64c.2,0-2.06.21-4.3-1.4.24-.4.5-.78.72-1.22l-.92-.42c-1.04,2.26-2.66,3.66-4.94,4.28-1.78-1.56-2.62-3.54-2.54-6.04l-1-.02c-.02.48.04.94.1,1.4-1.56.68-3.14.8-4.78.38,1.57-1.74,1.97-2.88,2.44-4.28,4.59-.38,7.1-.75,13.74,2.46.16,1.88.98,3.84,1.48,4.86Z"/><path class="cls-1" d="m62.72,79.46c-.28-.28-.72-.84-1.44-1.9l-.9.2c-.26,1.44-.84,2.84-1.68,4.04-.86-1.2-1.44-2.6-1.7-4.04l-.9-.2c-.72,1.06-1.16,1.6-1.44,1.88.31-1.86,1.09-3.47,2.82-4.26l-.42-.92c-.28.14-.56.32-.82.5-.24-1.7,1.03-2.92,2.46-2.92s2.5,1.12,2.5,2.5c0,.14-.04.28-.06.42-.26-.18-.54-.36-.82-.5l-.42.92c1.74.79,2.53,2.42,2.82,4.28Z"/><path class="cls-1" d="m59.82,63.94v7.1c-.78-.26-1.44-.27-2.26,0v-7.1h2.26Z"/><path class="cls-5" d="m55.84,66.2c-2.98,1.86-5.16,3.66-7.14,5.56-.68-.2-1.42-.32-2.22-.34,2.32-2.22,4.86-4.18,7.64-5.84.54.3,1.12.52,1.72.62Z"/><path class="cls-1" d="m37.9,90.28c-.4-.06-.8-.12-1.18-.16.54-1.9-.46-3.88-2.74-5.22-2.12-1.26-4.72-3.2-4.4-6.2,1.03,3.88,5.62,4.41,7.62,7.14.92,1.28,1.16,2.98.7,4.44Z"/><path class="cls-1" d="m35.7,90.04c-.46-.02-.92-.02-1.34,0,.6-3.41-5.14-4.28-5.06-8.18.76,1.4,2.14,2.7,4.18,3.9,1.92,1.14,2.76,2.78,2.22,4.28Z"/><path class="cls-1" d="m33.32,90.1c-.36.02-.74.06-1.08.1-1.32-.88-2.53-3.72-2.98-5.42,1.63,2.23,4.66,3.29,4.06,5.32Z"/><path class="cls-3" d="m53.2,64.98c-3,1.84-5.78,4.02-8.24,6.52-5.16.61-10.36,4.63-11.86,10.38-.92-.58-1.78-1.22-2.4-2.06-.74-.98-.98-2.24-.62-3.18,5.74-6.4,13.44-11,21.84-13,.4.52.82.96,1.28,1.34Z"/><path class="cls-1" d="m25.98,49.4c-1.5,1-9.18,6.66-9.18,17.2,0,4.86,4.02,8.64,9.18,8.64s9.18-3.78,9.18-8.64c0-10.56-7.68-16.2-9.18-17.2Zm-.32,3.04h.64c1.66,1.4,3.94,3.84,5.36,7.38l-.94.36c-1.24-3.12-3.2-5.34-4.74-6.7-1.54,1.36-3.5,3.58-4.74,6.7l-.94-.36c1.42-3.54,3.7-5.98,5.36-7.38Zm-5.8,14.46l-.98.18c-.23-1.27-.15-2.75.4-4.1l.92.38c-.33.9-.63,2.07-.34,3.54Zm2.14,4.84c-.79-.51-1.56-1.26-2.06-2.06l.84-.54c.42.65,1.03,1.28,1.78,1.78l-.56.82Zm2.6,1.06l.18-.98c.8.16,1.6.16,2.38,0l.2.98c-.86.19-1.9.19-2.76,0Zm1.38-2.82c-2.36,0-4.26-1.92-4.26-4.28h1c0,1.82,1.46,3.28,3.26,3.28s3.26-1.46,3.26-3.28h1c0,2.36-1.9,4.28-4.26,4.28Zm3.98,1.76l-.56-.82c.76-.5,1.36-1.13,1.78-1.78l.84.54c-.59.88-1.37,1.61-2.06,2.06Zm2.14-4.84c.23-1.55.04-2.51-.34-3.54l.92-.38c.55,1.34.63,2.82.4,4.1l-.98-.18Z"/><path class="cls-5" d="m46.96,59.1c-3.88,1.4-7.54,3.36-10.88,5.78-.08-1.02-.22-2.02-.44-2.96l7.12-10.64c.94,3.26,2.58,5.88,4.2,7.82Z"/><path class="cls-3" d="m44.42,49.96l-7.1,10.66c-.96-3.28-2.58-5.88-4.2-7.84,3.88-1.4,7.52-3.34,10.86-5.78.08,1.04.24,2.02.44,2.96Z"/><path class="cls-1" d="m54.08,36.64c-5.14,0-9.18,3.8-9.18,8.64,0,10.58,7.68,16.2,9.18,17.2,1.52-1,9.2-6.64,9.2-17.2,0-4.84-4.04-8.64-9.2-8.64Zm3.98,3.5c.82.54,1.48,1.16,2.06,2.06l-.82.56c-.5-.75-1.12-1.36-1.78-1.78l.54-.84Zm-2.58-1.06l-.2.98c-.78-.14-1.6-.14-2.38,0l-.2-.98c.92-.16,1.86-.16,2.78,0Zm-1.4,2.84c2.36,0,4.28,1.9,4.28,4.26h-1c0-1.8-1.46-3.26-3.28-3.26s-3.26,1.46-3.26,3.26h-1c0-2.36,1.92-4.26,4.26-4.26Zm-3.96-1.78l.54.84c-.66.43-1.29,1.04-1.78,1.78l-.82-.56c.51-.78,1.25-1.56,2.06-2.06Zm-2.72,8.76c-.57-1.4-.66-2.88-.4-4.1l.98.2c-.27,1.27-.04,2.66.34,3.52l-.92.38Zm7.02,10.56h-.66c-1.66-1.42-3.94-3.84-5.34-7.38l.92-.38c1.24,3.12,3.22,5.34,4.74,6.72,1.54-1.38,3.5-3.58,4.76-6.72l.92.38c-1.42,3.54-3.68,5.96-5.34,7.38Zm6.36-10.56l-.92-.38c.38-.86.61-2.24.34-3.52l.98-.2c.26,1.21.18,2.69-.4,4.1Z"/><path class="cls-5" d="m50,35.24c-5.76,6.42-13.44,11.02-21.84,13-.4-.52-.84-.96-1.3-1.32,3.02-1.86,5.8-4.04,8.26-6.54,5.24-.62,10.36-4.7,11.84-10.36.92.56,1.8,1.2,2.42,2.04.74,1,.96,2.24.62,3.18Z"/><path class="cls-3" d="m33.6,40.46c-2.32,2.22-4.88,4.2-7.64,5.84-.54-.28-1.12-.5-1.74-.62,2.75-1.72,4.97-3.46,7.16-5.56.7.2,1.44.32,2.22.34Z"/><path class="cls-1" d="m22.5,40.84v7.1h-2.24v-7.1c.79.26,1.43.27,2.24,0Z"/><path class="cls-1" d="m25.4,32.44c-.04.38-.18.92-.42,1.62-.4,1.16-1.3,2.16-2.38,2.66l.4.9c.3-.12.56-.3.84-.48.24,1.67-1.03,2.9-2.46,2.9s-2.7-1.22-2.46-2.9c.26.18.54.36.82.48l.42-.9c-1.7-.79-2.51-2.44-2.82-4.28.28.28.74.82,1.44,1.88l.92-.2c.26-1.44.84-2.82,1.68-4.02.84,1.2,1.42,2.58,1.68,4.02l.9.2c.72-1.06,1.18-1.6,1.44-1.88Z"/><path class="cls-1" d="m50.82,27.12c-1.72-2.33-4.67-3.33-4.08-5.34.38-.02.74-.06,1.08-.1,1.32.88,2.55,3.75,3,5.44Z"/><path class="cls-1" d="m50.78,30.02c-.78-1.38-2.16-2.68-4.18-3.88-1.94-1.16-2.78-2.8-2.22-4.32.98.08.94.02,1.34.02-.63,3.36,5.1,4.33,5.06,8.18Z"/><path class="cls-1" d="m50.48,33.2c-1.04-3.91-5.56-4.38-7.6-7.16-.94-1.26-1.18-2.96-.72-4.44.42.08.82.12,1.2.16-.56,1.92.44,3.88,2.72,5.24,2.12,1.24,4.72,3.2,4.4,6.2Z"/><path class="cls-1" d="m51.76,16.3c-1.57,1.7-1.99,2.97-2.42,4.26-5.58.93-9.26-.33-13.76-2.46-.16-1.88-.98-3.84-1.48-4.86.23,0,2.24-.11,4.32,1.42-.26.38-.52.76-.72,1.22l.9.42c1.04-2.26,2.66-3.68,4.96-4.3,1.78,1.58,2.6,3.56,2.54,6.04l1,.02c0-.48-.06-.94-.12-1.4,1.58-.66,3.14-.8,4.78-.36Z"/></g><path id="Line" class="cls-4" d="m37.17,24.01l.02.8c0,.28-.21.51-.48.52-.28,0-.51-.21-.51-.48,0-.27-.02-.53-.02-.8,0-.28.21-.51.48-.51.28,0,.51.21.51.48Zm26.57,53.5c.22.63.5,1.59.51,2.26,0,.94-.67,1.21-1.32.75-.46-.32-.98-1-1.33-1.47-.41,1.41-1.09,2.75-2.02,3.89h-.78c-.92-1.15-1.61-2.48-2.02-3.9-.56.77-1.55,2.11-2.31,1.55-.27-.19-.33-.51-.34-.85,0-.67.28-1.62.5-2.25.27-.75.7-1.45,1.24-2.03-.51-1.45,0-3.01,1.18-3.91,0-.02,0,.1,0-4.35-2.3,1.47-4.39,3.1-6.33,4.93.65.31,1.25.73,1.77,1.25l-.2.83c-.63.2-1.17.4-1.62.63-1.21.61-1.72,1.4-1.65,2.87.08,1.63-.37,3.23-1.76,4.08.46.86.31,1.8-.51,2.46.23.1.45.21.68.31l.16.8c-1.9,2.01-1.78,2.45-1.78,4.49,0,.94-.05,1.92-.57,2.7.3.14.6.28.9.42.17.08.28.25.29.43.07,1.69.94,3.99,1.77,5.45l-.39.75c-2.21.19-4.09-.35-5.72-1.52-1.21,1.49-2.78,2.4-4.59,2.84l-.44-.1c-1.55-1.3-2.46-2.83-2.86-4.56-1.9.74-3.89.8-6.01.02l-.16-.84c1.16-1.06,2.32-2.74,2.7-4.3l.1-.39c.05-.2.21-.35.43-.38.05,0,.1-.01.16-.02-2.53-2.83-3.5-8.6-5.68-11.69-1.85-2.63-4.64-3.45-6.77-6.01-1.42-1.71-2.18-3.84-2.18-6.06,0-3.57.82-7.04,2.62-10.3-1.01-.13-2.21-.47-2.85-1.25-.37-.46-.48-1.14-.23-1.66.07-.16.09-.1.03-.15-.71-.66-.73-1.53-.31-2.15-.43-.64-.34-1.41.11-1.93-.26-.48-.2-.99.12-1.41.53-.7,1.6-.98,2.48-1.07,0-6.46,0-6.34,0-6.36-1.18-.9-1.69-2.46-1.18-3.91-.69-.73-1.22-1.61-1.6-3.22-.15-.65-.32-1.54.18-1.91.18-.14.44-.18.72-.06.55.23,1.23,1.13,1.59,1.62.41-1.41,1.09-2.75,2.02-3.89h.78c.92,1.15,1.61,2.48,2.02,3.9.31-.42.73-.97,1.13-1.31.22-.19.48-.36.78-.36.26,0,.51.14.63.42.2.44.07,1.11-.05,1.62-.37,1.59-.9,2.48-1.59,3.21.51,1.45,0,3.01-1.18,3.91,0,.02,0-.1,0,4.35,2.3-1.47,4.39-3.1,6.33-4.93-.65-.31-1.25-.73-1.77-1.25l.2-.83c.89-.28,2.04-.69,2.66-1.39.75-.84.6-1.87.6-2.48,0-1.51.49-2.94,1.77-3.72-.46-.85-.31-1.8.51-2.46-.23-.1-.45-.21-.68-.31l-.16-.8c.38-.4.74-.8,1.04-1.21.67-.93.75-1.52.74-2.62,0-1.17-.07-2.4.56-3.36-.3-.14-.6-.28-.9-.42-.17-.08-.28-.25-.29-.43-.07-1.74-.99-4.08-1.77-5.45l.39-.75c2.15-.19,4.05.32,5.72,1.52,1.16-1.43,2.69-2.38,4.59-2.84l.44.1c1.56,1.3,2.46,2.83,2.86,4.56,1.9-.75,3.9-.79,6.01-.02l.16.84c-1.15,1.06-2.32,2.73-2.7,4.31l-.1.39c-.05.2-.21.35-.43.38-.05,0-.1.01-.16.02,2.53,2.83,3.5,8.6,5.68,11.69,1.83,2.6,4.6,3.46,6.7,5.92,1.47,1.73,2.26,3.9,2.26,6.13,0,3.58-.83,7.05-2.62,10.3,1.46.18,3.21.82,3.21,2.29,0,.26-.06.51-.2.74.73.65.79,1.52.34,2.18.43.64.35,1.4-.11,1.93.34.63.17,1.44-.8,1.98-.46.25-1.06.42-1.79.5,0,6.42,0,6.34,0,6.36,1.18.9,1.69,2.46,1.18,3.91.55.58.98,1.27,1.24,2.03Zm-3.68-37.94c-3.3-3.64-9.5-3.96-13.11-.78-.18.16-.35.31-.53.48-1.63,1.53-2.52,3.71-2.52,6.02,0,4.99,1.7,9.41,4.67,13.04,1.91,2.34,3.84,3.71,4.51,4.16,3.11-2.05,6.11-5.58,7.71-9.52.89-2.18,1.48-4.74,1.48-7.69,0-2.19-.83-4.2-2.22-5.72Zm-22.82,50.55c.39.04.79.09,1.21.16.47-1.51.16-3.2-.75-4.44-1.96-2.68-6.56-3.33-7.61-7.07-.25,2.77,2.01,4.71,4.4,6.12,1.97,1.16,3.36,3.07,2.75,5.23Zm-2.36-.08c.44-.01.84-.01,1.33,0,.34-.92.15-1.84-.4-2.65-1-1.49-2.29-1.65-4.17-3.28-.7-.61-1.37-1.34-1.86-2.21-.06,3.81,5.69,4.75,5.1,8.14Zm-.81-8.18c1.5-5.71,6.75-9.77,11.9-10.38,2.44-2.47,5.2-4.66,8.2-6.5-.48-.39-.91-.84-1.28-1.34-6.85,1.63-13.4,4.89-18.54,9.7-.28.26-1.52,1.31-3.26,3.25-.42,1.05-.06,2.34.61,3.22.62.84,1.49,1.47,2.38,2.03Zm8.77-60.09c-.39-.04-.79-.09-1.21-.16-.47,1.51-.16,3.2.75,4.44,1.96,2.68,6.56,3.33,7.61,7.07.25-2.76-2-4.71-4.4-6.12-1.96-1.16-3.36-3.06-2.75-5.23Zm2.36.08c-.44.01-.84.01-1.33,0-.34.92-.15,1.84.4,2.65,1,1.49,2.29,1.65,4.17,3.28.7.61,1.37,1.34,1.86,2.21.06-3.81-5.69-4.75-5.1-8.14Zm.81,8.18c-1.5,5.71-6.75,9.77-11.9,10.38-2.44,2.47-5.2,4.66-8.2,6.5.48.39.91.84,1.28,1.34,6.85-1.63,13.4-4.88,18.54-9.7.28-.26,1.5-1.29,3.26-3.25.42-1.05.05-2.34-.61-3.22-.62-.84-1.49-1.47-2.38-2.03Zm1.91,29.06c-1.93-2.32-3.35-4.94-4.17-7.8l-7.08,10.61c.21.93.36,1.91.44,2.94,3.31-2.41,6.96-4.35,10.81-5.75Zm-10.75,6.95c.04,1.5-.12,2.83-.77,4.33,4.6-3.49,9.9-6.07,15.49-7.51-1.1-.81-2.22-1.81-3.26-2.96-4.1,1.45-7.98,3.53-11.46,6.14Zm-8.97-17.02c1.1.81,2.22,1.81,3.26,2.96,4.1-1.45,7.98-3.53,11.46-6.14-.04-1.47.11-2.81.77-4.33-4.6,3.49-9.9,6.07-15.49,7.51Zm3.97,3.77c1.92,2.31,3.34,4.93,4.17,7.8l7.08-10.61c-.21-.93-.36-1.91-.44-2.94-3.31,2.41-6.96,4.35-10.81,5.75Zm18.39-17.79c-.13.2-.9,1.05-1.06,1.23,1.93-.66,4.06-.75,5.98-.34-1.9-1.59-2.75-3.12-3.76-5.59-.02,1.56-.35,3.17-1.16,4.7Zm-3.21-13.31c-.36.04-.73.08-1.11.11-.59,2.02,2.42,3.06,4.08,5.28-.21-.82-.5-1.65-.91-2.5-.43-.88-1.25-2.34-2.06-2.89Zm-9.17-2.03c2.01.72,3.15.85,3.31.91,2.57.48,4.39.3,6.87,0,.39-1.6,1.32-3.06,2.42-4.27-1.59-.42-3.15-.34-4.73.33.06.5.07.96.06,1.44l-1-.03c.07-2.5-.77-4.47-2.54-6.04-2.24.61-3.89,1.98-4.95,4.29l-.91-.42c.2-.45.43-.87.69-1.27-1.31-.95-2.73-1.37-4.29-1.37.71,1.46,1.36,3.25,1.5,4.88,1.18.56,2.36,1.11,3.57,1.54Zm6.94,9.82c-1.31-.79-2.62-1.6-3.54-2.85-1.07-1.47-1.45-3.44-.93-5.22-1.81-.4-3.36-.98-4.9-1.67-.15.18-.19.29-.23.4-.05.22-.15.7-.04.89.02.04.03.05.08.08.12.07.37.11.51.12,1.46.18,1.13.08,2.6.62.26.1.39.38.3.64-.1.26-.38.39-.64.29l-.78-.29c-.8-.3-1.65-.19-2.27-.43,0,2.01,0,2.84-1.58,4.61.65.3,1.95.89,1.95.89,2.13.97,1.77,2.78,2.22,3.39.32.43.93.6,1.38.45.49-.16.86-.67.86-1.18,0-.34-.16-.62-.41-.84l.66-.75c1.62,1.41.4,3.89-1.58,3.82-1.78-.06-4-.39-5.33-1.59-1.14.61-1.46,1.96-1.39,3.25.11,2.29-1,3.42-3.13,4.21,4.6,3.34,14.3-.78,16.21-8.85Zm-10.35,1.11c.53.29,1.23.54,2.12.7-.48-.97-.14-2.11-1.67-2.81-.27-.12-.53-.24-.8-.36-1.4.61-.99,1.73.36,2.48Zm-11.48,15.09c.62.11,1.2.32,1.72.61,2.76-1.66,5.32-3.61,7.61-5.81-.78-.02-1.53-.13-2.24-.34-2.06,1.99-4.39,3.85-7.09,5.54Zm-2.39-5.64c1.54,0,2.72-1.38,2.46-2.9-.26.18-.54.35-.83.48l-.42-.91c1.08-.49,1.98-1.5,2.39-2.66.17-.48.35-1.1.42-1.61-.47.48-1.06,1.32-1.43,1.87l-.91-.19c-.26-1.44-.84-2.83-1.68-4.03-.84,1.2-1.43,2.59-1.68,4.03l-.91.19c-.38-.56-.97-1.4-1.44-1.88.07.51.25,1.13.42,1.62.4,1.16,1.31,2.17,2.39,2.66l-.42.91c-.29-.13-.57-.3-.83-.48-.26,1.52.92,2.9,2.46,2.9Zm-1.12.81v7.09h2.24v-7.09c-.77.26-1.54.24-2.24,0Zm.21,14.49c1.7-2.75,4.03-5.13,6.29-6.67-.85-1.06-1.91-1.82-3.26-2.03v1.79l-.5.5h-3.24l-.5-.5v-.75c-.51.06-1.37.25-1.68.66-.11.15-.11.25.02.41.54.67,2.33.76,3.2.76.28,0,.5.22.5.5,0,.28-.23.5-.5.5-1.05,0-2.52-.11-3.41-.66-.2.3-.1.6.16.84.65.61,1.9.72,2.79.75.28.01.49.24.48.52-.01.28-.24.49-.52.48-.42-.02-.91-.05-1.37-.13-.83-.14-1.23-.32-1.61-.55-.18.48.29.83.75,1.06.45.22,1.13.37,1.63.44.27.04.46.29.42.57-.04.27-.29.46-.57.42-.59-.09-1.26-.23-1.8-.48-.08.14-.05.44.09.61.52.63,1.8.88,2.63.93Zm.05,16.97c3.3,3.63,9.49,3.98,13.11.78.18-.16.35-.31.52-.48,1.63-1.53,2.52-3.71,2.52-6.02,0-4.98-1.7-9.4-4.67-13.04-1.91-2.34-3.84-3.71-4.51-4.16-3.1,2.04-6.11,5.56-7.71,9.52-.89,2.18-1.48,4.74-1.48,7.69,0,2.19.83,4.2,2.22,5.72Zm9.51,4.56c.13-.2.9-1.05,1.06-1.23-1.94.66-4.06.75-5.98.34,1.49,1.24,2.47,2.44,3.76,5.59.02-1.56.35-3.17,1.16-4.7Zm3.21,13.31c.36-.04.73-.08,1.11-.11.59-2.02-2.43-3.06-4.08-5.28.36,1.4.92,2.67,1.56,3.71.32.53.89,1.34,1.41,1.68Zm9.17,2.03c-2.01-.72-3.15-.85-3.31-.91-2.57-.48-4.39-.3-6.87,0-.39,1.6-1.31,3.06-2.42,4.27,1.6.42,3.16.33,4.73-.33-.06-.51-.07-.97-.06-1.44l1,.03c-.07,2.5.77,4.47,2.54,6.04,2.23-.61,3.88-1.97,4.95-4.29l.91.42c-.2.45-.43.87-.69,1.27,1.31.95,2.75,1.38,4.29,1.37-.72-1.46-1.36-3.25-1.5-4.88-1.18-.56-2.36-1.11-3.57-1.54Zm-6.94-9.82c1.31.79,2.62,1.6,3.53,2.85,1.07,1.47,1.45,3.44.93,5.22,1.81.4,3.35.98,4.9,1.67.15-.18.19-.29.23-.4.05-.22.15-.7.04-.89-.02-.04-.03-.05-.08-.08-.12-.07-.36-.11-.51-.12-1.46-.18-1.13-.08-2.6-.62-.26-.1-.39-.38-.29-.64.1-.26.38-.39.64-.3l.78.29c.81.3,1.64.19,2.27.43,0-2,0-2.83,1.59-4.61-.65-.3-1.95-.89-1.95-.89-2.13-.97-1.77-2.78-2.22-3.39-.32-.43-.93-.59-1.38-.45-.49.16-.86.67-.86,1.18,0,.34.15.61.41.84l-.66.75c-1.62-1.41-.4-3.89,1.59-3.82,1.78.06,4,.39,5.33,1.59,1.14-.61,1.45-1.95,1.39-3.25-.11-2.28.99-3.41,3.13-4.21-4.56-3.31-14.29.75-16.21,8.85Zm8.23-1.81c.48.97.14,2.11,1.67,2.81.27.12.53.24.8.36,1.88-.82.56-2.64-2.47-3.17Zm13.6-14.39c-.62-.11-1.2-.32-1.72-.61-2.76,1.66-5.32,3.61-7.61,5.81.78.02,1.53.13,2.24.34,2.07-1.99,4.39-3.85,7.09-5.54Zm.77-3.26h3.24l.5.5v.75c.52-.06,1.37-.25,1.68-.66.11-.15.11-.25-.02-.41-.54-.67-2.34-.76-3.2-.76-.28,0-.5-.23-.5-.5,0-.28.23-.5.5-.5,1.05,0,2.52.11,3.41.66.2-.3.1-.6-.16-.84-.65-.61-1.9-.72-2.79-.75-.28-.01-.49-.24-.48-.52s.24-.49.52-.48c.42.02.91.05,1.37.13.83.14,1.23.32,1.61.55.18-.48-.29-.83-.75-1.06-.45-.23-1.14-.37-1.63-.44-.27-.04-.46-.29-.42-.57.04-.27.29-.46.57-.42.59.09,1.26.23,1.8.48.08-.14.05-.45-.09-.61-.52-.63-1.8-.88-2.63-.93-1.7,2.76-4.03,5.13-6.29,6.67.85,1.06,1.91,1.82,3.26,2.03v-1.79l.5-.5Zm.5,1v7.09c.74-.25,1.51-.25,2.24,0v-7.09h-2.24Zm5.15,15.5c-.07-.51-.25-1.13-.42-1.62-.4-1.16-1.31-2.17-2.39-2.66l.42-.91c.29.13.57.3.83.48.26-1.51-.92-2.9-2.46-2.9-1.53,0-2.72,1.38-2.46,2.9.26-.18.54-.35.83-.48l.42.91c-1.08.49-1.98,1.5-2.39,2.66-.17.48-.35,1.11-.42,1.61.47-.48,1.06-1.31,1.43-1.87l.91.19c.26,1.44.84,2.83,1.68,4.03.84-1.2,1.43-2.59,1.68-4.03l.91-.19c.38.56.96,1.4,1.44,1.88Zm-36.24-25.97c1.49,1.33,3.49,3.55,4.75,6.71l.93-.37c-1.44-3.6-3.76-6.03-5.35-7.38h-.65c-1.59,1.35-3.91,3.79-5.35,7.38l.93.37c1.26-3.16,3.26-5.38,4.75-6.71Zm4.27,12.23h-1c0,1.79-1.45,3.27-3.26,3.27-1.79,0-3.27-1.46-3.27-3.27h-1c0,2.36,1.91,4.27,4.26,4.27,2.36,0,4.27-1.92,4.27-4.27Zm-2.89,7.1l-.19-.98c-.77.15-1.58.16-2.38,0l-.19.98c.89.17,1.83.18,2.76,0Zm2.05-1.89l.55.83c.8-.52,1.51-1.23,2.06-2.06l-.83-.55c-.46.7-1.07,1.31-1.78,1.78Zm2.69-4.01l.98.19c.27-1.38.13-2.81-.4-4.1l-.93.38c.45,1.11.57,2.34.34,3.53Zm-11.89-3.53l-.93-.38c-.53,1.3-.66,2.73-.4,4.1l.98-.19c-.23-1.16-.12-2.39.34-3.53Zm.57,5.77l-.83.55c.53.8,1.23,1.51,2.06,2.06l.55-.83c-.7-.46-1.31-1.07-1.78-1.78Zm20.32-24.04l-.55-.83-.83.56.55.83.83-.56Zm-2.28,1.51l-.52-.86-.86.52.52.86c.54-.32.34-.21.86-.52Zm-2.38,1.36l-.46-.89-.89.46.46.89c.56-.29.36-.18.89-.46Zm-2.47,1.2l-.39-.92-.92.39.39.92c.58-.25.37-.16.92-.39Zm-2.54,1.02l-.33-.94-.95.33.33.94.95-.33Zm10.98,38.19c.28,0,.49-.24.48-.51,0-.27-.02-.53-.02-.8,0-.28-.24-.49-.51-.48-.28,0-.49.24-.48.51,0,.27.02.53.02.8,0,.28.24.49.51.48Zm9.67-29.96c-1.49-1.33-3.49-3.55-4.75-6.71l-.93.37c1.44,3.6,3.76,6.03,5.35,7.38h.65c1.59-1.35,3.91-3.79,5.35-7.38l-.93-.37c-1.26,3.16-3.26,5.38-4.75,6.71Zm-4.27-12.23h1c0-1.79,1.45-3.27,3.27-3.27,1.79,0,3.27,1.45,3.27,3.27h1c0-2.36-1.91-4.27-4.27-4.27-2.36,0-4.27,1.91-4.27,4.27Zm2.89-7.1l.19.98c.78-.15,1.59-.15,2.38,0l.19-.98c-.91-.18-1.85-.18-2.76,0Zm-2.05,1.89l-.55-.83c-.8.53-1.51,1.23-2.06,2.06l.83.55c.46-.7,1.07-1.31,1.78-1.78Zm-2.69,4.01l-.98-.19c-.26,1.37-.13,2.79.4,4.1l.93-.38c-.45-1.11-.57-2.34-.34-3.53Zm11.89,3.53l.93.38c.51-1.26.67-2.68.4-4.1l-.98.19c.22,1.16.12,2.39-.34,3.53Zm-.57-5.77l.83-.55c-.53-.8-1.23-1.51-2.06-2.06l-.55.83c.7.46,1.31,1.07,1.78,1.78Zm-18.93,24.32l-.55-.83-.83.56.55.83.83-.56Zm4.62-2.71l-.46-.89c-.53.27-.34.18-.89.46l.46.89.89-.46Zm2.43-1.1l-.39-.92c-.58.25-.37.16-.92.39l.39.92.92-.39Zm-4.79,2.37l-.52-.86c-.5.3-.33.2-.86.52l.52.86.86-.52Zm7.28-3.28l-.29-.96-.96.29.29.96.96-.29Z"/></g></g></svg>