<?xml version="1.0" encoding="UTF-8"?><svg id="Grouped" xmlns="http://www.w3.org/2000/svg" viewBox="0 0 80 112"><defs><style>.cls-1{fill:#f9cb19;}.cls-2{fill:#fff;}.cls-3{fill:#c93112;}.cls-4{fill:#1f1f1f;}.cls-5{fill:#234bc2;}</style></defs><g id="King"><rect id="BG-2" class="cls-2" y="0" width="80" height="112" rx="5" ry="5"/><g id="Suit"><g id="Suit-2"><g id="Suit-3"><path class="cls-3" d="m12,26.75c-.9-1.4-2.1-2.6-3.5-3.5,1.4-.9,2.6-2.1,3.5-3.5.9,1.4,2.1,2.6,3.5,3.5-1.4.9-2.6,2.1-3.5,3.5Z"/><path class="cls-3" d="m68,83.75c.9,1.4,2.1,2.6,3.5,3.5-1.4.9-2.6,2.1-3.5,3.5-.9-1.4-2.1-2.6-3.5-3.5,1.4-.9,2.6-2.1,3.5-3.5Z"/></g><g id="Value"><path class="cls-3" d="m12.03,15.58v.67h-4.07v-.67l.91-.17c.1-.02.17-.06.22-.11.05-.06.08-.13.08-.23v-6.67c0-.1-.03-.18-.08-.24-.05-.06-.12-.1-.22-.12l-.91-.18v-.69h4.02v.69l-.93.18c-.09.02-.17.06-.21.12-.05.06-.08.14-.08.24v3.66l3.42-4-1.05-.2v-.69h3.3v.69l-.86.18c-.08.02-.15.04-.2.07-.06.03-.12.07-.17.13l-2.26,2.51c.2.24.4.5.58.79.18.29.39.63.63,1.04l1.41,2.4c.07.12.14.22.21.29.07.07.17.12.31.15l.62.15v.67h-2.09c-.14,0-.29-.11-.46-.33-.16-.22-.34-.52-.54-.9,0,0-1.21-2.3-1.34-2.51-.12-.22-.24-.41-.36-.59l-1.15,1.3v1.87c0,.1.03.17.08.23.05.06.13.09.23.11l.95.17Z"/><path class="cls-3" d="m67.96,94.93v-.68h4.07v.68l-.91.17c-.1.02-.17.06-.22.11-.05.06-.08.13-.08.23v6.67c0,.1.03.18.08.24.05.06.12.1.22.12l.91.18v.69h-4.02v-.69l.93-.18c.09-.02.16-.06.21-.12.05-.06.07-.14.07-.24v-3.66l-3.42,4,1.05.2v.69h-3.3v-.69l.86-.18c.08-.02.15-.04.2-.07.06-.03.12-.07.17-.13l2.26-2.51c-.2-.24-.4-.5-.58-.79-.18-.29-.39-.63-.63-1.04l-1.41-2.4c-.07-.12-.15-.22-.21-.29-.07-.07-.17-.12-.31-.15l-.62-.15v-.68h2.09c.14,0,.29.11.45.34.16.22.34.52.55.9,0,0,1.21,2.3,1.34,2.52.12.21.24.41.36.59l1.14-1.3v-1.87c0-.1-.03-.17-.08-.23-.05-.06-.13-.09-.23-.11l-.95-.17Z"/></g></g><g id="Value-2"><path class="cls-3" d="m61,26c-1.8-2.81-4.19-5.2-7-7,2.81-1.8,5.2-4.19,7-7,1.8,2.81,4.19,5.2,7,7-2.81,1.8-5.2,4.19-7,7Z"/><path class="cls-3" d="m26,93c-2.81,1.8-5.2,4.19-7,7-1.8-2.81-4.19-5.2-7-7,2.81-1.8,5.2-4.19,7-7,1.8,2.81,4.19,5.2,7,7Z"/></g></g><path id="Frame" class="cls-4" d="m72,80h-1V9H22v-1h49.5l.5.5v71.5ZM8,32v71.5l.5.5h49.5v-1H9V32h-1Z"/><g id="Illustration"><g id="Color"><path class="cls-1" d="m58.7,64.96c0-.24.21-.48.52-.48.13,0,.32,0,.52.01v-.95c-.18,0-.37-.02-.54-.02-.66,0-.67-1,.02-1,.13,0,.32,0,.52.01v-.89c-.19-.01-.38-.03-.54-.03-.66,0-.67-1,.02-1,.16,0,.34.01.52.03v-.89c-.24-.04-.5-.08-.78-.11-.28-.04-.46-.28-.44-.56.09-.58.69-.42,1.22-.32v-7.56c-.78.64-1.56,1.38-2.24,2.18,0,17.3-.13,13.32.36,14.78.14.42.06.88-.22,1.24-.04.04-.1.06-.14.1,0,6.08.06,5.71-.14,6.12-.44.42-.88.8-1.36,1.14.24.18.48.38.7.58,1.2-.77,2.63-.78,3.84,0,.22-.2.46-.4.7-.58-.31-.22-1.24-.95-1.4-1.26-.14-.29-.1.93-.1-10-.18,0-.37-.02-.54-.02-.26,0-.5-.24-.5-.52Z"/><path class="cls-1" d="m61.24,83.76c-1,.74-1.88,1.62-2.62,2.62-.72-1-1.62-1.88-2.62-2.62.36-.24.66-.53.98-.84.02-.02.06-.02.1-.04,0-.17.66-.49,1.54-1.74.28.38,1.36,1.64,1.64,1.78.32.3.62.58.98.84Z"/><path class="cls-1" d="m44.52,96.58c-1.8-1.32-3.22-.74-3.7.96-.02.02-.04.02-.06.02-.91-1.96-2.89-1.98-4.16-.02-.5-2.25-2.29-2.88-3.84-1.46-.02-.03-.02-.02-.02-.02.16-1.68-.97-2.79-3.04-2.26.42-.76.76-1.56.98-2.48,2.9-.19,5.19-.9,10.22.92,1.2.42,2.38.98,3.52,1.5-.1,1-.08,1.94.1,2.84Z"/><path class="cls-1" d="m37.12,90.16c-.42-.04-.84-.08-1.24-.1-.1-3.04-1.02-5.34-2.78-6.6-1.9-1.39-5.12-1.69-6.78-.12.65-1.29,3.05-1.92,4.6-1.92,4,0,6.06,2.96,6.2,8.74Z"/><path class="cls-1" d="m34.88,90.04c-1.07,0-.78.05-.84-.08-1.47-1.6-1.87-7.07-6.78-6.08,1.15-.86,3.6-.83,5.26.38,1.46,1.06,2.26,3.12,2.36,5.78Z"/><path class="cls-1" d="m32.96,90.12c-.32.04-.64.06-.94.1-2.82-1.65-1.88-4.26-3.98-5.42,3.2-.22,3.5,3.27,4.92,5.32Z"/><path class="cls-1" d="m53.14,68.62c-2.16,1.78-4.16,3.8-5.92,5.96-.42-.38-.96-.68-1.6-.88,2.19-2.82,4.02-4.55,6.24-6.4.36.48.8.92,1.28,1.32Z"/><path class="cls-3" d="m51.28,66.46c-2.14,1.72-4.63,4.21-6.76,6.98-3.76-.44-8.48,1.71-10.48,5.6-.18-1.32-.62-3-1.56-4.8,5.19-5.02,11.3-8.34,17.66-10.12.3.78.66,1.58,1.14,2.34Z"/><path class="cls-5" d="m33.16,80.94c-2.03-.87-4.82-.6-6.68.48,1.08-1.92,3.16-4.34,5.26-6.44,1.26,2.58,1.44,4.86,1.42,5.96Z"/><path class="cls-1" d="m60.64,48.94c-2.34,1.52-6.1,4.52-6.38,8.2-8.05,1.39-15.66,5.15-21.32,10.3,7.54-10.5,17.9-17.44,27.7-18.5Z"/><path class="cls-5" d="m29.14,71.24c-2.18,2.42-4.08,5-4.4,6.86-7.4-.42-8.64-11.08-8.82-13.86,5.8,1.48,10.26,3.84,13.22,7Z"/><path class="cls-3" d="m64.16,47.64c-5.82-1.48-10.26-3.84-13.22-7,2.16-2.4,4.06-5,4.4-6.84,7.38.42,8.62,11.08,8.82,13.84Z"/><path class="cls-1" d="m47.14,44.44c-7.54,10.5-17.9,17.46-27.7,18.5,2.34-1.52,6.08-4.52,6.36-8.2,8.08-1.37,15.7-5.17,21.34-10.3Z"/><path class="cls-1" d="m23.36,34.54c-1.19.81-2.77.74-3.82,0-.24.2-.46.4-.7.58.46.36.92.74,1.34,1.14v.02c.21.21.14.19.14,10.12.18,0,.35.02.54.02.66,0,.66,1,0,1-.14,0-.33,0-.54-.01v.95c.18,0,.35.02.54.02.67,0,.65,1,0,1-.14,0-.33-.01-.54-.02v.89c.19.02.38.03.54.03.66,0,.66,1,0,1-.17,0-.35-.01-.54-.03v.87c.24.04.5.08.78.11.65.09.55,1-.06,1-.06,0-.52-.08-.72-.1v7.54c.78-.62,1.58-1.36,2.24-2.18,0-17,.14-13.4-.36-14.76-.14-.42-.04-.9.24-1.24.04-.06.08-.06.12-.1,0-5.83-.07-5.89.16-6.12v-.02c.42-.4.86-.78,1.34-1.14-.24-.18-.46-.38-.7-.58Z"/><path class="cls-1" d="m24.06,28.12c-.34.26-.66.56-.96.84-.04.02-.08.02-.1.04s0,.04-.02.06c-.55.53-1.08,1.06-1.54,1.68-.81-1.14-1.54-1.58-1.54-1.74-.02-.02-.06-.02-.1-.04-.32-.28-.62-.58-.96-.84.98-.72,1.88-1.62,2.6-2.62.74,1,1.62,1.9,2.62,2.62Z"/><path class="cls-5" d="m47.58,37.66c-5.15,4.98-11.3,8.31-17.66,10.12-.28-.78-.66-1.6-1.12-2.36,2.44-2.05,4.51-4.07,6.76-7,3.88.49,8.53-1.77,10.46-5.56.18,1.3.62,2.98,1.56,4.8Z"/><path class="cls-1" d="m34.46,38.18c-1.99,2.56-4,4.55-6.24,6.42-.38-.5-.8-.94-1.3-1.32,2.18-1.8,4.18-3.8,5.94-5.98.42.38.98.68,1.6.88Z"/><path class="cls-3" d="m53.6,30.48c-1.1,1.92-3.18,4.34-5.26,6.44-1.28-2.58-1.46-4.88-1.44-5.96,2.14.86,4.82.56,6.7-.48Z"/><path class="cls-1" d="m52.02,27.08c-3.08.24-3.46-3.04-4.9-5.32.32-.02.62-.06.94-.1,2.78,1.65,1.87,4.31,3.96,5.42Z"/><path class="cls-1" d="m52.82,28c-1.5,1.04-3.88.64-5.28-.38-1.44-1.04-2.26-3.1-2.34-5.76.28,0,.52-.02.8-.04.31.63.23.06,1.16,2.18,1.26,2.83,2.48,4.64,5.66,4Z"/><path class="cls-1" d="m53.74,28.54c-.67,1.35-3.08,1.92-4.6,1.92-4,0-6.06-2.96-6.2-8.76.44.06.86.1,1.24.12.18,5.5,3.06,7.78,6.52,7.78,1.38,0,2.39-.45,3.04-1.06Z"/><path class="cls-1" d="m47.32,15.82c-1.63,1.51-3.42.61-3.84-1.46-1.2,1.87-3.2,1.98-4.18-.02h-.06c-.54,1.92-2.08,2.16-3.7.94.18.92.22,1.86.12,2.86,5.01,2.37,8.11,3.22,13.72,2.42.22-.9.56-1.72.98-2.46-2.17.51-3.16-.66-3.04-2.28Z"/><path class="cls-5" d="m61.86,48.04c-2.38.32-4.78.98-7.16,1.92-2.58-1.1-4.98-2.48-7.32-4.14,1.02-1.4,2.02-2.86,2.94-4.36,2.74,2.86,6.6,5.06,11.54,6.58Z"/><path class="cls-3" d="m53.44,50.48c-1.66.74-3.3,1.62-4.9,2.62-1.86-.94-3.56-1.92-4.94-2.76,1.1-1.18,2.14-2.42,3.16-3.74,2.14,1.54,4.34,2.82,6.68,3.88Z"/><path class="cls-5" d="m47.56,53.72c-1.38.92-2.74,1.92-4.06,3.02-.74-.4-3.48-1.94-4.12-2.28,1.2-1.06,2.38-2.18,3.52-3.36,1.3.76,2.9,1.7,4.66,2.62Z"/><path class="cls-3" d="m40.7,57.44c-1.22,1.04-2.4,2.16-3.54,3.36-1.28-.78-2.88-1.7-4.64-2.62,1.38-.92,2.74-1.94,4.06-3.04.74.42,3.48,1.94,4.12,2.3Z"/><path class="cls-5" d="m36.46,61.54c-1.08,1.18-2.14,2.44-3.14,3.74-2.16-1.52-4.36-2.8-6.7-3.88,1.66-.72,3.3-1.6,4.92-2.62,1.86.96,3.54,1.94,4.92,2.76Z"/><path class="cls-3" d="m32.7,66.08c-1.04,1.38-2.02,2.84-2.96,4.36-2.72-2.86-6.6-5.08-11.52-6.6,2.36-.32,4.76-.98,7.14-1.92,2.6,1.12,5,2.48,7.34,4.16Z"/></g><path id="Line" class="cls-4" d="m37.17,24.01l.02.8c0,.28-.21.51-.48.51-.28,0-.51-.21-.51-.48,0-.27-.02-.53-.02-.8,0-.28.21-.51.48-.51.28,0,.51.21.51.48Zm14.74,11.44c.28,0,.5-.22.5-.5s-.22-.5-.5-.5-.5.22-.5.5.22.5.5.5Zm-16.38,12.36c-.25.12-.36.42-.24.67s.42.36.67.24c.25-.12.36-.42.24-.67s-.42-.36-.67-.24Zm-2.74,1.19c-.26.1-.38.39-.28.65s.39.38.65.28c.26-.1.38-.39.28-.65-.1-.26-.39-.38-.65-.28Zm10.38-5.84c-.22.17-.26.48-.09.7s.48.26.7.09c.22-.17.26-.48.09-.7-.17-.22-.48-.26-.7-.09Zm-2.44,1.73c-.23.15-.29.46-.14.69s.46.29.69.14c.23-.15.29-.46.14-.69-.15-.23-.46-.29-.69-.14Zm-2.55,1.55c-.24.14-.33.44-.19.68.14.24.44.33.68.19.24-.14.33-.44.19-.68-.14-.24-.44-.33-.68-.19Zm9.42-6.57c.2.19.51.19.71,0,.19-.2.19-.51,0-.71-.2-.19-.51-.19-.71,0-.19.2-.19.51,0,.71Zm-2.16,1.37c-.2.19-.22.5-.03.71s.5.22.71.03c.2-.19.22-.5.03-.71s-.5-.22-.71-.03Zm4.95-3.61c.18-.21.16-.52-.05-.71-.21-.18-.52-.16-.71.05-.18.21-.16.52.05.71.21.18.52.16.71-.05Zm-20.41,12.35c-.26.08-.41.36-.33.63.08.26.36.41.63.33s.41-.36.33-.63c-.08-.26-.36-.41-.63-.33Zm-2.76.77c-.28,0-.5.22-.5.5s.22.5.5.5.5-.22.5-.5-.22-.5-.5-.5Zm16.21,37.61c.28,0,.49-.24.48-.51,0-.27-.02-.53-.02-.8,0-.28-.24-.49-.51-.48-.28,0-.49.24-.48.51,0,.27.02.53.02.8,0,.28.24.49.51.48Zm20.42-22.53c.35.63.17,1.44-.8,1.98-.46.25-1.06.43-1.79.5v6.73c.51.48,1.06.92,1.65,1.3v.84c-.39.25-.76.52-1.11.81,1.12,1.32,1.11,3.23,0,4.53.35.29.72.57,1.1.81v.84c-1.34.86-2.49,2.01-3.35,3.35h-.84c-.86-1.34-2.01-2.49-3.35-3.35v-.84c.39-.25.75-.52,1.1-.81-1.1-1.3-1.12-3.22,0-4.53-.35-.29-.72-.56-1.11-.81v-.84c.59-.38,1.14-.81,1.65-1.3v-5.19c-.58-.06-1.33-.28-2.03-.67-2.3,1.88-4.34,3.95-6.12,6.17,1.07,1.87-.09,4.24-1.35,5.99.86.94.69,2.24-.47,3.05.15.07.29.13.42.19l.16.8c-.67.71-1.72,1.82-1.72,2.87,0,1.16,1,2.9-.5,4.38.82.39.82.38.91.46.09.09.14.21.15.34,0,.19-.3,1.74.19,3.55.85-.01,1.52.67,1.52,1.5,0,.83-.67,1.5-1.5,1.5-1.15,0-1.87-1.24-1.31-2.23-.49-.46-1.34-1.1-1.96-.84-.31.13-.48.47-.59.79.45.26.75.74.75,1.3,0,.83-.67,1.5-1.5,1.5-1.29,0-1.96-1.52-1.13-2.48-.58-1.29-1.63-1.19-2.41-.07.92.94.26,2.55-1.07,2.55-.83,0-1.5-.67-1.5-1.5,0-.54.29-1.01.71-1.27-.27-1.29-1.17-1.89-2.21-.95.2.43.18.9-.02,1.3-.37.74-1.27,1.04-2.01.67-1.23-.61-1.06-2.46.31-2.8.05-.55-.04-1.04-.56-1.23-.53-.18-1.27.02-1.79.23.28.97-.45,1.92-1.44,1.92-.83,0-1.5-.67-1.5-1.5,0-1.06,1.07-1.79,2.06-1.39.65-.93,1.08-1.99,1.34-3.17.01-.05.03-.1.06-.14.04-.09.11-.17.2-.23-.47-.41-.82-.85-1.08-1.29-1.25-2.1-.62-3.8-3.66-3.8-.19,0-.37-.11-.46-.3-.23-.52-.28-.99-.21-1.45v-4.48c-6.22-.34-8.82-6.95-9.6-13.13-.04-.35-.25-2.26-.19-2.53.11-.45.49-.24,2.94-2v-8.5c-.74-.16-1.71-.44-2.19-1.02-.37-.45-.48-1.14-.23-1.66.07-.16.09-.1.03-.15-.71-.66-.73-1.53-.31-2.15-.44-.66-.33-1.42.11-1.93-.34-.63-.17-1.44.8-1.98.46-.25,1.06-.43,1.79-.5v-6.73c-.51-.48-1.06-.92-1.65-1.3v-.84c.39-.25.76-.52,1.11-.81-1.12-1.32-1.11-3.23,0-4.53-.35-.29-.72-.57-1.1-.81v-.84c1.34-.86,2.49-2.01,3.35-3.35h.84c.86,1.34,2.01,2.49,3.35,3.35v.84c-.39.25-.75.52-1.1.81,1.11,1.3,1.12,3.22,0,4.53.35.29.72.56,1.11.81v.84c-.59.38-1.14.82-1.65,1.3v5.19c.59.06,1.34.29,2.03.67,2.3-1.88,4.34-3.95,6.12-6.17-1.06-1.87.09-4.24,1.35-5.99-.86-.94-.7-2.23.47-3.05-.15-.07-.29-.13-.42-.19l-.16-.8c.69-.73,1.44-1.54,1.68-2.5.28-1.15-1.11-3.12.54-4.75-.79-.37-.82-.37-.91-.46-.09-.09-.14-.22-.15-.34,0-.18.3-1.75-.19-3.55-.42,0-.81-.16-1.08-.44-.94-.94-.28-2.56,1.06-2.56,1.15,0,1.87,1.24,1.31,2.23.49.47,1.34,1.1,1.96.84.31-.13.48-.47.59-.79-.48-.28-.75-.78-.75-1.3,0-1.34,1.63-2,2.56-1.06.55.55.6,1.44.07,2.04.58,1.29,1.63,1.19,2.41.07-.92-.94-.26-2.55,1.07-2.55.83,0,1.5.67,1.5,1.5,0,.5-.25.99-.71,1.28.27,1.29,1.17,1.89,2.21.95-.33-.72-.05-1.53.58-1.91,1-.6,2.28.11,2.28,1.28,0,.66-.44,1.28-1.14,1.45-.05.55.04,1.05.56,1.23.53.18,1.27-.02,1.79-.23-.28-.97.45-1.92,1.44-1.92,1.34,0,2,1.63,1.06,2.56-.42.42-1.05.56-1.62.33-1.12,1.61-1.26,3.08-1.39,3.31-.04.09-.11.17-.2.23,1.71,1.49,1.7,3.3,2.42,4.26.52.7,1.43.83,2.31.83.19,0,.37.11.46.3.23.52.28,1,.21,1.45v4.48c6.22.34,8.82,6.95,9.6,13.13.03.23.26,2.28.18,2.56-.13.43-.51.23-2.93,1.97v8.5c.74.17,1.71.44,2.19,1.02.44.54.47,1.3.17,1.78.73.65.79,1.52.34,2.18.44.65.33,1.42-.11,1.93Zm-13.04-48.96c.2.2.51.19.71,0,.2-.2.19-.51,0-.71-.2-.2-.51-.19-.71,0-.2.2-.19.51,0,.71Zm-16.87-3.47c0-.28-.22-.5-.5-.5-.28,0-.5.22-.5.5,0,.28.22.5.5.5.28,0,.5-.22.5-.5Zm-4.64,81.61c-.2-.2-.51-.19-.71,0-.2.2-.19.51,0,.71.2.2.51.19.71,0,.2-.2.2-.51,0-.71Zm16.87,3.47c0,.28.22.5.5.5.28,0,.5-.22.5-.5,0-.28-.22-.5-.5-.5-.28,0-.5.22-.5.5Zm15.5-49.54c-11.01,1.15-21.17,9.46-27.7,18.48,5.59-5.09,13.25-8.9,21.31-10.28.25-3.4,3.51-6.33,6.39-8.2Zm-27.34,16.33c1-1.28,2.05-2.53,3.16-3.72-1.56-.93-3.18-1.87-4.92-2.75-1.59,1-3.21,1.88-4.88,2.62,2.58,1.19,4.76,2.51,6.64,3.86Zm-7.9-3.33c-2.33.93-4.72,1.59-7.14,1.91,5.47,1.69,9.09,4.07,11.47,6.56.91-1.48,1.9-2.94,2.96-4.35-2.03-1.45-4.41-2.88-7.29-4.12Zm19.35-15.32c-1,1.28-2.06,2.53-3.16,3.72,1.56.93,3.18,1.87,4.92,2.75,1.59-1,3.21-1.87,4.88-2.62-2.58-1.19-4.76-2.51-6.64-3.86Zm7.9,3.33c2.33-.93,4.72-1.59,7.14-1.91-5.47-1.69-9.09-4.07-11.47-6.56-.91,1.48-1.9,2.94-2.96,4.35,2.03,1.45,4.41,2.88,7.29,4.12Zm-11.76,1.14c-1.13,1.18-2.3,2.3-3.52,3.36,1.38.77,2.75,1.54,4.13,2.3,1.3-1.08,2.58-2.06,4.04-3.03-1.64-.86-3.18-1.75-4.65-2.63Zm-4.34,4.05c-1.33,1.11-2.62,2.08-4.04,3.03,1.64.86,3.18,1.75,4.65,2.63,1.13-1.18,2.3-2.3,3.52-3.36-1.38-.77-2.75-1.54-4.13-2.3Zm12.36-14.49c2.51,2.69,6.6,5.32,13.24,7.01-.26-3.95-1.45-9.21-4.34-11.96-1.26-1.2-2.75-1.85-4.48-1.94-.37,2.18-2.96,5.26-4.43,6.89Zm3.48-9.56c-1.96,3.38-6.64,8.07-9.53,10.28-5.51,4.22-12.02,7.13-18.86,8.34l-.15,4.01c6.67-1.18,13.03-4.02,18.4-8.14,2.91-2.23,8.55-7.84,9.87-11.19.18-.46.27-.85.27-1.15v-2.16Zm-8.37,1.81c-.76,1.45-1.85,2.63-3.17,3.55-2.33,1.62-5.12,2.26-7.29,1.99-2,2.6-4.25,4.91-6.77,6.98.47.75.84,1.55,1.14,2.36,5.17-1.47,10.05-3.93,14.32-7.2.91-.7,2.09-1.73,3.32-2.91-.93-1.79-1.36-3.45-1.55-4.76Zm2.3,4.03c1.75-1.75,4.04-4.29,5.27-6.44-1.85,1.03-4.6,1.32-6.69.47-.02,1.82.43,3.95,1.43,5.97Zm5.97-8.45c-1.63,1.66-4.92,1.34-6.84-.05-2.03-1.47-2.72-4.11-2.8-6.6-.4-.02-.81-.06-1.23-.11.07,3.38.84,7.22,4.01,8.38,1.39.51,3.07.44,4.46.02.88-.27,2.01-.81,2.4-1.64Zm-.98-.48c-1.04.21-2.08.19-3.03-.35-1.51-.85-2.16-2.63-2.86-4.18-.61-1.36-.86-1.47-.95-1.64-.26.01-.53.02-.81.02.07,2.14.65,4.5,2.38,5.76,1.42,1.03,3.9,1.39,5.27.38Zm-4.74-6.34c-.3.03-.61.07-.92.1,1.36,2.1,1.72,5.65,4.9,5.35-2.15-1.12-1.17-3.78-3.98-5.45Zm-.8-6.73c.33.17.72-.08.72-.45,0-.39-.43-.63-.76-.43-.33.2-.32.7.04.87Zm-4.49-1.69c.2.2.51.19.71,0,.2-.2.19-.51,0-.71-.2-.2-.51-.19-.71,0-.2.2-.19.51,0,.71Zm-4.61,0c.2.2.51.19.71,0,.2-.2.19-.51,0-.71-.2-.2-.51-.19-.71,0-.2.2-.19.51,0,.71Zm4.34,7.42c2.39.37,4.11.18,6.33-.09.21-.86.52-1.68.94-2.44-1.96.47-3.09-.54-2.93-2.28h-.03c-1.57,1.44-3.41.66-3.87-1.43-1.19,1.83-3.23,1.91-4.17-.05h-.03c-.49,1.72-1.99,2.25-3.71.94.18.94.2,1.88.11,2.84,2.51,1.19,4.55,2.06,7.36,2.51Zm-7.58,9.68c.96,0,2.08-.64,3.06-.33-.32-.45-1.02-.84-1.51-1.11-.55-.29-1.17-.59-1.73-.85-.44.05-.92.4-1.12.78-.4.74.41,1.51,1.31,1.51Zm-.44,6.98c1.84.47,4.13-.02,5.88-.88,2.45-1.19,4.37-3.26,4.99-6.02-2.74-1.81-3.4-5.56-3.45-8.86-2.07-.37-3.9-1.02-5.75-1.85-.31.23-.51.46-.63.68-.06.11-.17.39-.14.5.1.16.75.25.94.27,1.66.23,1.45.19,2.79.69.26.1.39.38.3.64-.1.26-.38.39-.64.29l-.78-.29c-.79-.3-1.81-.27-2.58-.5.14.75.36,1.5.17,2.24-.23.94-.8,1.71-1.45,2.43.89.4,1.94.87,2.8,1.33.59.32,1.23.69,1.67,1.19.59.66.7,1.4.42,2.16l-.92.04c-.11-.22-.24-.39-.48-.45-.82-.19-2.32.81-3.77.18-.53.73-.91,1.4-1.17,2-.98,2.29-.17,3.71,1.79,4.2Zm-8.05,5.97c.55.44.91.85,1.27,1.31,2.29-1.89,4.36-3.98,6.25-6.39-.6-.19-1.15-.46-1.62-.88-1.74,2.13-3.7,4.13-5.91,5.96Zm-3.02-.27c-.21,0-.35.2-.28.4.38,1.14,2.04,1.49,2.36,3.68.04.27-.15.53-.42.57-.27.04-.53-.15-.57-.42-.07-.49-.27-.96-.58-1.34-.11-.14-.24-.27-.38-.41v11.55c.47-.85.76-1.75.76-2.71l.19-5.05.42-.47c1.19-.2,2.37-.45,3.53-.75-.64-1.69-1.67-3.45-3.22-4.39-.64-.39-1.37-.61-1.81-.64Zm-4.61-14.9c1,.73,1.89,1.62,2.62,2.62.48-.65,1.01-1.25,1.61-1.79.16-.14.47-.43,1.01-.83-1-.73-1.89-1.62-2.62-2.62-.73,1-1.62,1.89-2.62,2.62Zm4.54,1.91c-.56.56-1.07,1.19-1.5,1.86h-.84c-.43-.67-.94-1.3-1.5-1.86-.83,1-.75,2.45.15,3.36.98.98,2.56.98,3.54,0,.91-.91.98-2.36.15-3.36Zm-2.26,22.21c.27.03.47.28.43.56s-.28.47-.56.43c-.21-.03-.43-.06-.66-.09v7.55c.81-.66,1.58-1.39,2.24-2.19v-14.06c-.15-.21-.28-.45-.36-.7-.16-.47-.04-1.01.36-1.38,0-6.17-.03-5.8.06-5.96.01-.02.03-.06.09-.12.42-.41.87-.8,1.35-1.14-.25-.18-.49-.37-.72-.57-1.16.75-2.65.75-3.81,0-.23.2-.47.39-.72.57.48.35.93.73,1.35,1.15.06.06.07.09.08.11.1.17.07-.28.07,8.95,0,.28-.22.5-.5.5s-.5-.22-.5-.5v-.75c-.51.06-1.37.25-1.68.66-.11.15-.11.25.02.41.54.67,2.34.76,3.2.76.28,0,.5.23.5.5,0,.28-.23.5-.5.5-1.05,0-2.52-.11-3.41-.66-.43.64.5,1.2,1.24,1.38.65.16,1.5.22,2.17.22.28,0,.5.22.5.5,0,.28-.23.5-.5.5-.76,0-1.68-.07-2.41-.25-.46-.12-.74-.24-1.06-.44-.18.48.28.83.75,1.06.67.34,1.97.53,2.73.53.28,0,.5.23.5.5,0,.28-.23.5-.5.5-.92,0-2.2-.2-3.05-.58-.08.13-.05.44.09.62.45.55,2.5.85,3.2.94Zm-2.19,10.7c11.01-1.15,21.17-9.46,27.7-18.48-5.6,5.1-13.25,8.9-21.31,10.28-.25,3.41-3.52,6.33-6.39,8.2Zm11.73,8.29c-2.52-2.69-6.6-5.32-13.24-7.01.26,3.98,1.46,9.22,4.34,11.96,1.26,1.2,2.75,1.85,4.48,1.94.37-2.18,2.96-5.26,4.43-6.89Zm-3.48,9.56c1.96-3.38,6.64-8.07,9.53-10.28,5.51-4.22,12.02-7.13,18.86-8.34l.15-4.01c-6.67,1.18-13.03,4.02-18.4,8.14-2.91,2.23-8.55,7.84-9.87,11.19-.18.46-.27.85-.27,1.15v2.16Zm8.37-1.81c.76-1.45,1.85-2.63,3.17-3.55,2.33-1.62,5.12-2.26,7.29-1.99,2-2.6,4.25-4.91,6.77-6.98-.47-.75-.84-1.55-1.14-2.36-5.17,1.47-10.05,3.93-14.32,7.2-.91.7-2.09,1.73-3.32,2.91.93,1.79,1.36,3.45,1.55,4.76Zm-2.3-4.03c-1.75,1.74-4.05,4.31-5.27,6.44,1.84-1.03,4.6-1.32,6.69-.47.02-1.8-.42-3.93-1.43-5.97Zm-5.97,8.45c1.63-1.66,4.93-1.33,6.84.05,2.03,1.47,2.72,4.11,2.8,6.6.4.02.81.06,1.23.11-.07-3.38-.84-7.22-4.01-8.38-1.39-.51-3.07-.44-4.46-.02-.88.27-2.01.8-2.4,1.64Zm4,.82c1.52.85,2.16,2.63,2.87,4.18.61,1.34.85,1.46.95,1.64.27-.01.53-.02.81-.02-.07-2.14-.65-4.5-2.38-5.76-1.42-1.03-3.91-1.39-5.27-.38,1.04-.21,2.08-.19,3.03.35Zm1.72,6c.3-.03.61-.07.92-.1-1.35-2.09-1.73-5.65-4.9-5.35,2.15,1.12,1.17,3.78,3.98,5.45Zm.8,6.73c-.33-.17-.72.08-.72.45,0,.39.42.63.76.43.33-.2.32-.7-.04-.87Zm4.49,1.69c-.2-.2-.51-.19-.71,0-.2.2-.2.51,0,.71.2.2.51.19.71,0,.2-.2.2-.51,0-.71Zm4.61,0c-.2-.2-.51-.19-.71,0-.2.2-.2.51,0,.71.2.2.51.19.71,0,.2-.2.2-.51,0-.71Zm-4.34-7.42c-2.39-.37-4.11-.18-6.33.09-.21.86-.52,1.68-.94,2.44,1.96-.47,3.09.55,2.93,2.28h.03c1.57-1.44,3.41-.67,3.87,1.43,1.2-1.84,3.23-1.9,4.17.05h.03c.5-1.73,1.99-2.24,3.71-.94-.17-.89-.21-1.83-.11-2.84-2.52-1.19-4.57-2.07-7.36-2.51Zm7.58-9.68c-.99,0-2.06.65-3.06.33.32.45,1.02.84,1.51,1.11.54.29,1.17.59,1.73.85.44-.05.92-.4,1.12-.78.4-.73-.4-1.51-1.31-1.51Zm.44-6.98c-1.84-.47-4.13.02-5.88.88-2.45,1.19-4.37,3.26-4.99,6.02,2.74,1.81,3.4,5.56,3.45,8.86,2.07.37,3.9,1.02,5.75,1.85.31-.23.51-.46.63-.68.06-.11.17-.39.14-.5-.1-.16-.76-.25-.94-.27-1.68-.24-1.47-.2-2.79-.69-.26-.1-.39-.38-.29-.64.1-.26.38-.39.64-.3l.78.29c.79.29,1.81.27,2.58.5-.26-1.45-.72-2.45,1.27-4.67-.89-.4-1.94-.87-2.8-1.33-.59-.32-1.23-.69-1.67-1.19-.59-.66-.7-1.4-.42-2.16l.92-.04c.11.22.24.39.48.45.82.19,2.32-.81,3.77-.18.53-.73.91-1.4,1.17-2,.96-2.25.22-3.7-1.79-4.2Zm8.05-5.97c-.55-.44-.92-.85-1.27-1.31-2.3,1.89-4.37,3.99-6.26,6.39.6.19,1.15.46,1.62.88,1.73-2.13,3.7-4.13,5.91-5.96Zm3.02.27c.21,0,.35-.2.28-.39-.38-1.14-2.04-1.48-2.36-3.68-.04-.27.15-.53.42-.57s.53.15.57.42c.07.49.27.96.58,1.34.11.14.24.27.38.41v-11.55c-.46.85-.76,1.75-.76,2.71l-.19,5.05-.42.47c-1.19.2-2.37.45-3.53.75.64,1.68,1.67,3.45,3.22,4.39.64.39,1.38.61,1.81.64Zm4.61,14.9c-.98-.71-1.87-1.59-2.62-2.62-.48.65-1.02,1.25-1.61,1.79-.1.09-.44.41-1.01.83,1,.73,1.89,1.62,2.62,2.62.73-1,1.62-1.89,2.62-2.62Zm-4.54-1.91c.56-.56,1.07-1.19,1.5-1.86h.84c.43.67.94,1.3,1.5,1.86.83-1,.76-2.45-.15-3.36-.98-.98-2.56-.98-3.54,0-.91.91-.98,2.36-.15,3.36Zm4.68-18.11c-.65-.16-1.5-.22-2.17-.22-.28,0-.5-.23-.5-.5,0-.28.23-.5.5-.5.76,0,1.68.07,2.41.25.46.12.74.24,1.06.44.18-.48-.29-.83-.75-1.06-.67-.34-1.97-.53-2.73-.53-.28,0-.5-.23-.5-.5,0-.28.23-.5.5-.5.92,0,2.2.2,3.05.58.08-.13.05-.44-.09-.62-.45-.55-2.5-.85-3.2-.94-.27-.03-.47-.28-.43-.56.03-.27.28-.47.56-.43.21.03.43.06.66.09v-7.55c-.8.65-1.58,1.38-2.24,2.19v14.06c.22.31.43.73.43,1.12,0,.35-.14.7-.43.96,0,7.66,0,5.25,0,5.73,0,.14-.06.27-.15.35-.42.41-.87.8-1.35,1.14.25.18.49.37.72.57,1.16-.76,2.65-.75,3.81,0,.23-.2.47-.39.72-.57-.48-.35-.93-.73-1.35-1.15-.21-.21-.15-.05-.15-9.07,0-.28.22-.5.5-.5s.5.22.5.5v.75c.51-.06,1.37-.25,1.68-.66.11-.15.11-.25-.02-.41-.54-.67-2.33-.76-3.2-.76-.28,0-.5-.23-.5-.5,0-.28.23-.5.5-.5,1.05,0,2.52.11,3.41.66.43-.64-.5-1.2-1.24-1.38Zm-33.72,12.7c-.28,0-.5.22-.5.5s.22.5.5.5.5-.22.5-.5-.22-.5-.5-.5Zm19.12-13.54c.26-.1.38-.39.28-.65s-.39-.38-.65-.28c-.26.1-.38.39-.28.65.1.26.39.38.65.28Zm-10.38,5.84c.22-.17.26-.48.09-.7-.17-.22-.48-.26-.7-.09-.22.17-.26.48-.09.7.17.22.48.26.7.09Zm4.99-3.28c.24-.14.33-.44.19-.68-.14-.24-.44-.33-.68-.19-.24.14-.33.44-.19.68.14.24.44.33.68.19Zm8.21-3.55c.26-.08.41-.36.33-.63-.08-.26-.36-.41-.63-.33-.26.08-.41.36-.33.63.08.26.36.41.63.33Zm-17.63,10.11c-.2-.19-.51-.19-.71,0s-.19.51,0,.71c.2.19.51.19.71,0,.19-.2.19-.51,0-.71Zm6.87-5.01c.23-.15.29-.46.14-.69-.15-.23-.46-.29-.69-.14-.23.15-.29.46-.14.69.15.23.46.29.69.14Zm-9.66,7.25c-.18.21-.16.52.05.71.21.18.52.16.71-.05.18-.21.16-.52-.05-.71-.21-.18-.52-.16-.71.05Zm4.95-3.61c.2-.19.22-.5.03-.71-.19-.2-.5-.22-.71-.03-.2.19-.22.5-.03.71.19.2.5.22.71.03Zm9.91-6.57c.25-.12.36-.42.24-.67s-.42-.36-.67-.24c-.25.12-.36.42-.24.67.12.25.42.36.67.24Zm8.32-2.95c.28,0,.5-.22.5-.5s-.22-.5-.5-.5-.5.22-.5.5.22.5.5.5Z"/></g></g></svg>