<?xml version="1.0" encoding="UTF-8"?><svg id="Grouped" xmlns="http://www.w3.org/2000/svg" viewBox="0 0 80 112"><defs><style>.cls-1{fill:#f9cb19;}.cls-2{fill:#fff;}.cls-3{fill:#c93112;}.cls-4{fill:#1f1f1f;}.cls-5{fill:#234bc2;}</style></defs><g id="King"><rect id="BG-2" class="cls-2" width="80" height="112" rx="5" ry="5"/><g id="Suit"><g id="Suit-2"><g id="Suit-3"><path class="cls-4" d="m12,19.38c-.54,1.38-3.25,1.88-3.25,4,0,.97.78,1.75,1.75,1.75.51,0,.96-.22,1.28-.57-.06.59-.25,1.29-.78,1.82v.25h2v-.25c-.53-.53-.72-1.23-.78-1.82.32.35.77.57,1.28.57.97,0,1.75-.78,1.75-1.75,0-2.12-2.71-2.62-3.25-4Z"/><path class="cls-4" d="m68,91.62c.54-1.38,3.25-1.88,3.25-4,0-.97-.78-1.75-1.75-1.75-.51,0-.96.22-1.28.57.06-.59.25-1.29.78-1.82v-.25h-2v.25c.53.53.72,1.23.78,1.82-.32-.35-.77-.57-1.28-.57-.97,0-1.75.78-1.75,1.75,0,2.12,2.71,2.62,3.25,4Z"/></g><g id="Value"><path class="cls-4" d="m12.03,15.83v.67h-4.07v-.67l.91-.17c.1-.02.17-.06.22-.11.05-.06.08-.13.08-.23v-6.67c0-.1-.03-.18-.08-.24-.05-.06-.12-.1-.22-.12l-.91-.18v-.69h4.02v.69l-.93.18c-.09.02-.17.06-.21.12-.05.06-.08.14-.08.24v3.66l3.42-4-1.05-.2v-.69h3.3v.69l-.86.18c-.08.02-.15.04-.2.07-.06.03-.12.07-.17.13l-2.26,2.51c.2.24.4.5.58.79.18.29.39.63.63,1.04l1.41,2.4c.07.12.14.22.21.29.07.07.17.12.31.15l.62.15v.67h-2.09c-.14,0-.29-.11-.46-.33-.16-.22-.34-.52-.54-.9,0,0-1.21-2.3-1.34-2.51-.12-.22-.24-.41-.36-.59l-1.15,1.3v1.87c0,.1.03.17.08.23.05.06.13.09.23.11l.95.17Z"/><path class="cls-4" d="m67.96,95.17v-.67h4.07v.67l-.91.17c-.1.02-.17.06-.22.11-.05.06-.08.13-.08.23v6.67c0,.1.03.18.08.24.05.06.12.1.22.12l.91.18v.69h-4.02v-.69l.93-.18c.09-.02.16-.06.21-.12.05-.06.07-.14.07-.24v-3.66l-3.42,4,1.05.2v.69h-3.3v-.69l.86-.18c.08-.02.15-.04.2-.07.06-.03.12-.07.17-.13l2.26-2.51c-.2-.24-.4-.5-.58-.79-.18-.29-.39-.63-.63-1.04l-1.41-2.4c-.07-.12-.15-.22-.21-.29-.07-.07-.17-.12-.31-.15l-.62-.15v-.67h2.09c.14,0,.29.11.45.33.16.22.34.52.55.9,0,0,1.21,2.3,1.34,2.51.12.22.24.41.36.59l1.14-1.3v-1.87c0-.1-.03-.17-.08-.23-.05-.06-.13-.09-.23-.11l-.95-.17Z"/></g></g><g id="Value-2"><path class="cls-4" d="m61,10.75c-1.08,2.76-6.5,3.76-6.5,8,0,1.93,1.57,3.5,3.5,3.5,1.02,0,1.93-.44,2.57-1.14-.12,1.18-.51,2.58-1.57,3.64v.5h4v-.5c-1.06-1.06-1.45-2.45-1.57-3.63.64.69,1.55,1.13,2.56,1.13,1.93,0,3.5-1.57,3.5-3.5,0-4.24-5.42-5.24-6.5-8Z"/><path class="cls-4" d="m19,101.26c-1.08-2.76-6.5-3.76-6.5-8,0-1.93,1.57-3.5,3.5-3.5,1.02,0,1.93.44,2.57,1.14-.12-1.18-.51-2.58-1.57-3.64v-.5h4v.5c-1.06,1.06-1.45,2.45-1.57,3.63.64-.69,1.55-1.13,2.56-1.13,1.93,0,3.5,1.57,3.5,3.5,0,4.24-5.42,5.24-6.5,8Z"/></g></g><path id="Frame" class="cls-4" d="m72,80h-1V9H22v-1h49.5l.5.5v71.5ZM8,32v71.5l.5.5h49.5v-1H9V32h-1Z"/><g id="Illustration"><g id="Color"><path class="cls-3" d="m55.12,57.87c-4.94,2.66-10.26,2.5-14.7.2l2.86-4.3-.18-.7c-2.2-1.24-4.62-1.94-7.08-2.1,4.42-1.58,8.56-3.88,12.28-6.8-1.97,6.01,1.71,12.03,6.82,13.7Z"/><path class="cls-3" d="m44.5,98.36c-4.64,2.88-10.49,1.69-13.77-2.5,4.62-.02,9.25.82,13.77,2.5Z"/><path class="cls-1" d="m45.54,97.68c-5.1-1.98-10.33-2.93-15.51-2.81,1.13-1.57,1.35-2.58,1.64-3.43,2.73-.45,5.06-.34,6.94.02,0,.02,0,0,0,0,.51,0,2.65.68,3.24.89,1.2.44,2.36.98,3.48,1.5,0,.2-.31,1.55.22,3.83Z"/><path class="cls-5" d="m37.78,90.4c-.46-.08-.9-.14-1.3-.18-.02-2.06-.58-4.74-2.2-6.58-1.91-2.1-5.88-1.9-4.38-5.52.49,3.91,9.89-.68,7.88,12.28Z"/><path class="cls-5" d="m35.48,90.16c-.54-.02-1.02-.02-1.5,0-1.02-5.91-4.48-5.54-4.7-8.72,1.17,1.33,3.3,1.8,4.24,2.86,1.42,1.6,1.92,3.98,1.96,5.86Z"/><path class="cls-5" d="m32.98,90.24c-.28.02-.54.04-.8.06-.94-.59-2.74-3.28-3.24-6.7,1.09,1.8,3.25,2.3,4.04,6.64Z"/><path class="cls-1" d="m58.7,63.98c0-.26.21-.5.52-.5.13,0,.32,0,.52.01v-.95c-.18,0-.37-.02-.54-.02-.66,0-.67-1,.02-1,.13,0,.32,0,.52.01v-.89c-.19-.01-.38-.03-.54-.03-.66,0-.67-1,.02-1,.16,0,.34.01.52.03v-1.18c-1.43-.36-1.52-.15-2.24-.09,0,11.6-.12,8.35.36,9.78.14.42.06.9-.22,1.24-.2.2-.14-1.05-.14,8.72.2-.08.42-.12.66-.16.26-.06.52.16.56.42.04.28-.16.54-.44.58-1.22.16-2.16,1.22-2.16,2.46.08.26,1.28,2.62,2.5,4.94,1.22-2.32,2.42-4.68,2.52-5.02-.02-.76-.44-1.56-1.16-2.02-.33-.2-.24.5-.24-14.82-.18,0-.37-.02-.54-.02-.26,0-.5-.24-.5-.5Z"/><path class="cls-5" d="m52.8,68.34c-1.5,1.12-2.94,2.34-4.32,3.66-.72-.16-1.52-.2-2.36-.18,1.49-1.49,2.68-2.78,5.5-4.84.34.5.74.96,1.18,1.36Z"/><path class="cls-1" d="m51.08,66.14c-2.33,1.69-4.47,3.62-6.46,5.8-4.74.7-9.52,3.66-11.86,7.36-.1-.02-.2-.06-.28-.08-2.21-.56-3.09-.77-.76-4.3,5.12-5.06,11.52-8.76,18.46-10.72.24.64.54,1.3.9,1.94Z"/><path class="cls-1" d="m24.06,54.46c-5.68,0-9.5,5.08-9.5,9.86s3.82,9.86,9.5,9.86,9.5-5.1,9.5-9.86-3.8-9.86-9.5-9.86Zm1.48,2.24l-.18.98c-.84-.16-1.74-.16-2.58,0l-.2-.98c.98-.18,2-.18,2.96,0Zm-5.74,1.14l.56.84c-.74.47-1.43,1.18-1.94,1.92l-.82-.56c.53-.84,1.42-1.7,2.2-2.2Zm-2.36,7.76l-.98.2c-.2-.99-.18-2.11,0-2.96l.98.18c-.16.82-.16,1.72,0,2.58Zm2.36,5.18c-.82-.52-1.65-1.33-2.2-2.2l.84-.56c.47.74,1.18,1.43,1.92,1.94l-.56.82Zm2.78,1.14l.2-.98c.84.16,1.74.16,2.58,0l.18.98c-.84.18-1.97.2-2.96,0Zm1.48-2.84c-2.62,0-4.76-2.14-4.76-4.76s2.14-4.78,4.76-4.78,4.78,2.14,4.78,4.78-2.14,4.76-4.78,4.76Zm4.28,1.7l-.56-.82c.73-.5,1.44-1.19,1.92-1.94l.84.56c-.62.94-1.45,1.72-2.2,2.2Zm1.36-10.18c-.46-.72-1.19-1.46-1.92-1.92l.56-.84c.74.47,1.61,1.32,2.2,2.2l-.84.56Zm1,5c.16-.86.16-1.77,0-2.58l.98-.18c.18.86.2,1.98,0,2.96l-.98-.2Z"/><path class="cls-1" d="m56,37.72c-5.68,0-9.5,5.1-9.5,9.86s3.82,9.86,9.5,9.86,9.5-5.1,9.5-9.86-3.82-9.86-9.5-9.86Zm1.48,2.24l-.2,1c-.84-.18-1.72-.18-2.56,0l-.2-1c.96-.18,2-.18,2.96,0Zm-5.74,1.14l.54.84c-.8.55-1.36,1.08-1.92,1.92l-.84-.54c.47-.73,1.22-1.54,2.22-2.22Zm-2.36,7.76l-.98.2c-.2-1-.23-1.88,0-2.96,1.86.34.39-.32.98,2.76Zm2.36,5.2c-.95-.65-1.61-1.33-2.22-2.22l.84-.54c.56.84,1.12,1.37,1.92,1.92l-.54.84Zm2.78,1.12l.18-.98c.86.16,1.74.16,2.6,0l.18.98c-.9.19-2.06.19-2.96,0Zm1.48-2.82c-2.64,0-4.78-2.14-4.78-4.78s2.14-4.78,4.78-4.78,4.78,2.14,4.78,4.78-2.14,4.78-4.78,4.78Zm4.26,1.7l-.54-.84c.8-.55,1.36-1.08,1.92-1.92l.84.54c-.61.89-1.27,1.57-2.22,2.22Zm1.38-10.2c-.56-.84-1.12-1.37-1.92-1.92l.54-.84c1,.68,1.75,1.49,2.22,2.22l-.84.54Zm.98,2.42l.98-.18c.23,1.08.2,1.95,0,2.96-1.85-.38-.42.31-.98-2.78Z"/><path class="cls-5" d="m32,67.64c1.97-5.92-1.68-12.02-6.82-13.7,4.88-2.63,10.3-2.49,14.72-.2l-2.86,4.3.16.72c2.22,1.24,4.64,1.92,7.12,2.08-4.42,1.58-8.58,3.88-12.32,6.8Z"/><path class="cls-1" d="m48.34,36.96c-5.12,5.06-11.5,8.78-18.44,10.72-.26-.64-.56-1.28-.92-1.92,2.57-1.87,4.62-3.77,6.46-5.8,4.74-.7,9.52-3.66,11.88-7.36,2.66.66,3.3.89,1.02,4.36Z"/><path class="cls-3" d="m33.92,40.08c-1.56,1.75-3.6,3.44-5.48,4.84-.34-.5-.72-.98-1.18-1.38,1.52-1.12,2.96-2.34,4.32-3.66.66.15,1.68.31,2.34.2Z"/><path class="cls-5" d="m51.14,28.3c-1.14-1.83-3.25-2.3-4.04-6.64.28-.02.52-.06.78-.08.96.58,2.8,3.47,3.26,6.72Z"/><path class="cls-5" d="m50.8,30.46c-1.11-1.26-3.38-1.84-4.26-2.88-1.42-1.6-1.92-3.98-1.94-5.86.43.04,1.05.01,1.48-.02,1.06,5.99,4.45,5.51,4.72,8.76Z"/><path class="cls-5" d="m50.16,33.76c-.49-3.93-9.87.73-7.86-12.26.44.08.88.14,1.3.18.02,2.06.58,4.74,2.2,6.56,1.75,2.06,5.89,1.84,4.36,5.52Z"/><path class="cls-1" d="m51.04,17.02c-1.21,1.77-1.36,2.61-1.64,3.44-4.78.4-6.83.81-13.66-2.42l.02-.02c.2-1.32.02-2.68-.22-3.8,5.08,1.98,10.32,2.92,15.5,2.8Z"/><path class="cls-3" d="m50.32,16.02c-4.62.02-9.24-.82-13.76-2.5,4.8-2.93,10.58-1.61,13.76,2.5Z"/><path class="cls-1" d="m21.78,32.94c1.24-.16,2.16-1.24,2.16-2.48-.08-.26-1.28-2.6-2.5-4.92-1.22,2.32-2.4,4.68-2.5,5,0,.78.44,1.56,1.16,2.02.29.19.22-.43.22,14.84.18,0,.35.02.54.02.66,0,.66,1,0,1-.14,0-.33,0-.54-.01v.95c.18,0,.35.02.54.02.67,0,.65,1,0,1-.14,0-.33-.01-.54-.02v.89c.19.02.38.03.54.03.66,0,.66,1,0,1-.17,0-.35-.01-.54-.03v1.15c1.27.32,1.54.2,2.24.09v-9.1c-.43-.62-.64-1.27-.12-1.9.17-.26.12,1.17.12-8.72-.13.04-.6.16-.72.16-.6,0-.68-.91-.06-1Z"/><path class="cls-5" d="m59.78,47.58c0,2.08-1.7,3.78-3.78,3.78s-3.78-1.7-3.78-3.78,1.7-3.78,3.78-3.78,3.78,1.7,3.78,3.78Z"/><path class="cls-3" d="m27.84,64.32c0,2.08-1.68,3.76-3.78,3.76s-3.76-1.68-3.76-3.76,1.68-3.78,3.76-3.78,3.78,1.68,3.78,3.78Z"/></g><path id="Line" class="cls-4" d="m42.83,87.99c0-.26-.02-.53-.02-.8,0-.28.21-.51.48-.51.28,0,.51.21.51.48,0,.26.02.53.02.8,0,.28-.21.51-.48.52-.28,0-.51-.21-.51-.48Zm15.46-47.04l.19-.98c-.98-.19-1.98-.19-2.96,0l.19.98c.84-.16,1.72-.17,2.58,0Zm-5,.99l-.55-.83c-.87.58-1.63,1.33-2.21,2.21l.83.55c.49-.75,1.15-1.41,1.92-1.92Zm-3.89,4.16c-.18.94-.19,1.95,0,2.96l.98-.19c-.17-.86-.16-1.74,0-2.58l-.98-.19Zm15.22,0l-.98.19c.16.83.17,1.7,0,2.58l.98.19c.18-.95.19-1.95,0-2.96Zm-3.34-4.99l-.55.83c.75.5,1.41,1.15,1.92,1.92l.83-.55c-.58-.87-1.33-1.63-2.21-2.21Zm-.33,16.52c.57.17,1.13.38,1.6.63.75.41,1.26.88,1.27,1.73,0,.26-.06.51-.2.74.73.65.79,1.52.34,2.18.44.65.33,1.42-.11,1.93.35.64.17,1.44-.8,1.98-.46.25-1.06.43-1.79.5v11.33c.84.64,1.38,1.65,1.38,2.78,0,.43-1.12,2.49-3.5,7.07-.3-.57-3.37-6.33-3.49-6.96,0-.03-.01-.06-.01-.11,0-1.06.48-2.09,1.38-2.78v-8.79c-.64-.06-1.47-.33-2.2-.77-.06-.04-.12-.08-.18-.12-1.4,1.03-2.74,2.16-4.01,3.35,1.98.79,3.19,2.52,3.54,4.51v.09s0,.1,0,.1l-.03.09s-.02.04-.03.06c-.02.03,0,.01-.05.07-.03.03,0,.02-.07.07-.04.03,0,.01-.07.05-.06.03-.03.02-.14.05h-.09s-.1,0-.1,0c-.1-.02-2.2-1.01-3.49-.45-.48.21-.72.59-.82,1.11-.29,1.6-.85,3.28-2.3,4,.33.77.01,1.64-.65,2.13.36.16.72.33,1.08.49l.16.8c-.69.73-1.44,1.54-1.68,2.5-.32,1.27.26,3.28-.67,4.69.95.44,1,.45,1.1.6.22.33-.06.53-.06,1.82,0,1.22.27,2.45.51,3.27l-.67.6c-.13-.05-.25-.1-.38-.15-5.21,3.71-12.54,2.46-16.19-2.93-.16,0-.32,0-.48.02l-.42-.81c2.37-2.96,1.86-4.3,2.44-4.56.1-.05.19-.05.31-.06-1.66-1.86-3.07-5.37-3.07-8.61,0-1.49.28-3.04.99-4.51-.99-.9-1.98-1.8-2.97-2.71-2.39.82-5.1.71-7.49-.41-3.81-1.8-6.24-5.88-6.24-9.91,0-4.12,2.56-8.33,6.56-10.05-.57-.17-1.13-.38-1.6-.63-.74-.4-1.26-.87-1.27-1.73,0-.26.06-.51.2-.74-.73-.64-.79-1.52-.34-2.18-.44-.65-.34-1.41.11-1.93-.26-.48-.2-.99.12-1.41.53-.7,1.6-.98,2.48-1.07v-11.33c-.84-.64-1.38-1.65-1.38-2.78,0-.38.6-1.48,3.5-7.07.41.79,3.17,5.99,3.46,6.83.03.08.04.15.04.24,0,1.06-.48,2.09-1.38,2.78v8.79c.64.06,1.47.33,2.2.77.06.04.12.08.18.12,1.4-1.03,2.74-2.15,4.01-3.35-1.99-.8-3.2-2.56-3.54-4.51,0-.03,0-.02,0-.04,0-.07,0-.07,0-.11,0-.05,0-.05.03-.11v-.04s.06-.09.06-.09l.06-.07c.15-.14.37-.17.54-.1.82.36,1.72.59,2.45.59.95,0,1.6-.35,1.77-1.28.29-1.6.85-3.28,2.3-4-.33-.77,0-1.64.65-2.13-.36-.16-.72-.33-1.08-.49l-.16-.8c1.52-1.61,1.79-2.17,1.79-3.83,0-1.21-.07-2.41.56-3.36-.04-.02-.83-.39-.92-.44-.12-.06-.2-.17-.24-.29-.04-.15-.01-.24.04-.62.21-1.38-.04-2.99-.44-4.34l.67-.6c.13.05.25.1.38.15,5.21-3.71,12.54-2.46,16.19,2.93.16,0,.32,0,.48-.02l.42.81c-2.01,2.51-2.05,4.04-2.2,4.33-.06.12-.16.21-.28.25-.06.02-.17.03-.26.04.63.71,1.19,1.65,1.61,2.5,1.6,3.31,2.07,7.27.47,10.61.99.9,1.98,1.8,2.97,2.71,1-.34,2.09-.54,3.23-.54,7.8,0,13.46,9.13,8.81,16.64-1.15,1.86-2.82,3.39-4.88,4.27Zm-10.72-22.26c-5.96,6.84-14.01,11.64-22.62,13.71.62.83,1.34,1.66,2.06,2.42.19-.05.39-.09.58-.14,6.49-1.58,12.6-4.74,17.67-9.09,1.17-2.1,2.88-3.68,4.82-4.6-.84-.77-1.68-1.53-2.52-2.3Zm-3.18,8.9c-3.68,2.88-7.82,5.18-12.22,6.76,2.5.17,4.91.9,7.04,2.1l.17.71-2.86,4.29c2.19,1.13,4.65,1.76,7.19,1.76s5.22-.66,7.57-1.94c-5.33-1.72-8.78-7.89-6.89-13.68Zm-14.01,23.34c3.68-2.88,7.82-5.18,12.22-6.76-2.5-.17-4.91-.9-7.04-2.1l-.17-.71,2.86-4.29c-4.68-2.42-10.17-2.32-14.76.19,5.21,1.69,8.82,7.77,6.89,13.68Zm10.04-45.94c-.41-.04-.84-.09-1.29-.16-2.03,13,7.48,8.38,7.91,12.22.32-.78.51-1.62.07-2.34-.79-1.3-3.23-1.74-4.47-3.14-1.53-1.73-2.2-4.3-2.22-6.57Zm2.97,5.91c.96,1.09,3.12,1.56,4.25,2.84-.27-3.23-3.68-2.75-4.72-8.7-.54.02-.96.03-1.5,0,.04,2.01.63,4.33,1.97,5.85Zm.28,5.01c-2.46,3.86-7.43,6.71-11.9,7.37-1.87,2.06-3.96,3.98-6.43,5.8.36.62.66,1.28.91,1.94,6.91-1.95,13.32-5.68,18.43-10.73.47-.72,1.38-2.16,1.37-3.01,0-.21-.05-.38-.19-.53-.37-.4-1.46-.64-2.18-.83Zm1.37-10.78c-.11-.1-.21-.18-.29-.23-.27.03-.55.06-.83.08.79,4.33,2.91,4.78,4.07,6.64-.43-2.86-1.85-5.46-2.95-6.49Zm-12.19-8.3c4.6,1.71,9.19,2.54,13.83,2.51-3.3-4.27-9.28-5.33-13.83-2.51Zm5.95,6.91s.06.01.09.02c2.58.48,4.4.3,6.86,0,.24-.99.71-2.11,1.63-3.43-5.03.12-10.2-.74-15.51-2.8.28,1.24.41,2.56.21,3.83,2.17,1.02,4.32,1.97,6.71,2.39Zm3.87,11.88c-1.5-.48-2.73-1.2-3.6-2.53-1.53-2.32-1.35-5.73-.92-8.46-1.83-.39-3.42-.99-5-1.69-.15.18-.19.29-.23.4-.04.16-.09.47-.02.62.22.43,2.18.23,3.82,1.69.21.18.22.5.04.71-.18.21-.5.22-.71.04-1.25-1.11-2.54-.99-3.39-1.38,0,.07,0,.64,0,.86,0,1.58-.19,2.44-1.59,4,.65.3,1.95.89,1.95.89,1.11.45,1.66,1.25,1.81,2.44.06.49.06,1.01.05,1.5l-.64.47c-.72-.21-2.42-.8-3.1-1.25-.17.08-.37.14-.64.37-.81.67-1.16,1.98-1.35,3.02-.12.66-.43,1.25-1,1.63-1.03.69-2.49.51-3.67.14.25.69.64,1.34,1.2,1.9,3.41,3.43,13.15.34,16.99-5.37Zm-11.27-2.84c.1.19.26.3.45.4.53.29,1.47.64,2.04.83-.02-1.16-.21-1.9-1.26-2.32-.83-.33-1.51.53-1.23,1.09Zm-7.78,14.09c.49.45.82.84,1.19,1.36,2.06-1.52,3.85-3.12,5.48-4.82-.8.03-1.59-.02-2.38-.2-1.35,1.31-2.78,2.53-4.29,3.66Zm-3.33-.54c-.17,0-.3.13-.3.3,0,.16.18.47.29.6.35.45.88.82,1.3,1.35.69.86.95,2,.76,3.03-.05.27-.31.45-.58.4s-.45-.31-.4-.58c.14-.78-.08-1.62-.56-2.23-.11-.14-.24-.27-.38-.41v7.96c.58,0,1.14.05,1.68.14,1.19-.75,2.45-1.34,3.82-1.79-1.39-1.5-2.24-2.76-2.24-2.76l.31-.77c.43-.1.87-.2,1.3-.31-.64-1.65-1.66-3.38-3.18-4.31-.64-.39-1.37-.61-1.81-.64Zm-1.72,10.6c.08,0,.27-.06.85-.12v-9.07c-.22-.31-.43-.73-.43-1.12,0-.35.14-.7.43-.96v-8.58c-.21.07-.43.12-.65.15-.27.04-.53-.16-.56-.43s.16-.53.43-.56c1.2-.16,2.13-1.17,2.16-2.42-.22-.6-2.42-4.84-2.5-4.98-.35.66-2.23,4.27-2.5,4.98.02.86.47,1.61,1.15,2.05.18.12.26.33.21.53.02.1.02-.84.02,13.24,0,.28-.22.5-.5.5s-.5-.22-.5-.5v-.75c-.51.06-1.37.25-1.68.66-.11.14-.11.25.02.41.54.67,2.34.76,3.2.76.28,0,.5.23.5.5,0,.28-.23.5-.5.5-1.06,0-2.52-.11-3.41-.66-.43.64.5,1.2,1.24,1.38.65.16,1.5.22,2.17.22.28,0,.5.22.5.5,0,.28-.23.5-.5.5-.76,0-1.68-.07-2.41-.25-.46-.12-.74-.24-1.06-.44-.18.48.29.83.75,1.06.67.34,1.97.53,2.73.53.28,0,.5.23.5.5,0,.28-.23.5-.5.5-.92,0-2.2-.2-3.05-.58-.08.13-.05.44.09.62.5.62,2.73,1.31,3.82,1.31Zm5.68,19.7c3.42-1.62,5.67-5.33,5.67-9.01,0-3.66-2.23-7.38-5.67-9.01-2.42-1.14-5.25-1.14-7.66,0-3.41,1.61-5.67,5.32-5.67,9.01,0,3.66,2.23,7.38,5.67,9.01,2.42,1.14,5.25,1.14,7.66,0Zm2.95,3.2c6.08-6.98,14.18-11.68,22.62-13.71-.62-.83-1.34-1.66-2.06-2.42-.19.05-.39.09-.58.14-6.49,1.58-12.6,4.74-17.67,9.09-1.1,1.98-2.76,3.62-4.82,4.6.84.77,1.68,1.53,2.52,2.3Zm7.14,13.7c.41.04.84.09,1.29.16,2.03-13-7.48-8.38-7.91-12.22-.32.78-.5,1.62-.07,2.34.79,1.3,3.23,1.74,4.47,3.14,1.52,1.73,2.19,4.3,2.22,6.57Zm-2.97-5.91c-.96-1.09-3.12-1.56-4.25-2.84.05.58.18,1.01.37,1.38.93,1.79,3.48,2.38,4.35,7.32.54-.02.97-.03,1.5,0-.04-2-.63-4.33-1.97-5.85Zm-.28-5.01c2.46-3.86,7.43-6.71,11.9-7.37,1.89-2.08,3.99-4,6.43-5.8-.36-.62-.66-1.28-.91-1.94-6.91,1.95-13.32,5.68-18.43,10.73-.47.72-1.38,2.16-1.37,3.01,0,.21.05.38.19.53.37.4,1.46.64,2.18.83Zm-1.37,10.78c.11.1.21.18.29.23.27-.03.55-.06.83-.08-.79-4.33-2.91-4.78-4.07-6.64.43,2.85,1.85,5.46,2.95,6.49Zm12.19,8.3c-4.6-1.71-9.18-2.54-13.82-2.51,3.31,4.28,9.28,5.33,13.82,2.51Zm-5.95-6.92s-.06,0-.09-.02c-2.57-.48-4.38-.3-6.86,0-.24.98-.71,2.1-1.64,3.43,5.03-.12,10.2.74,15.51,2.81-.28-1.25-.41-2.57-.22-3.83-2.16-1.02-4.33-1.98-6.72-2.39Zm-3.86-11.87c1.5.48,2.73,1.2,3.6,2.52,1.53,2.32,1.35,5.73.93,8.46,1.83.39,3.42.99,5,1.69.15-.18.19-.29.23-.4.04-.16.09-.47.02-.62-.22-.43-2.18-.23-3.82-1.69-.21-.18-.22-.5-.04-.71.18-.21.5-.22.71-.04,1.25,1.11,2.54.99,3.39,1.38,0-.07,0-.64,0-.86,0-1.59.2-2.45,1.59-4-.65-.3-1.95-.89-1.95-.89-1.75-.71-1.9-2.15-1.86-3.94l.64-.47c.71.21,2.42.8,3.1,1.25.17-.08.37-.14.64-.37.81-.67,1.16-1.98,1.35-3.02.12-.66.44-1.25,1-1.63,1.03-.69,2.49-.51,3.67-.14-.25-.69-.64-1.34-1.2-1.9-3.41-3.43-13.15-.34-16.99,5.37Zm11.27,2.84c-.1-.19-.26-.3-.45-.4-.53-.29-1.47-.64-2.04-.83.02,1.15.21,1.9,1.26,2.33.82.33,1.51-.53,1.23-1.09Zm7.78-14.09c-.49-.45-.82-.83-1.19-1.36-2.07,1.52-3.86,3.12-5.48,4.82.8-.03,1.59.03,2.38.2,1.35-1.31,2.78-2.53,4.29-3.66Zm3.33.54c.17,0,.3-.14.3-.3,0-.16-.19-.47-.29-.6-.35-.45-.88-.83-1.3-1.35-.69-.86-.95-1.99-.76-3.03.05-.27.31-.45.58-.4s.45.31.4.58c-.14.78.08,1.62.56,2.23.11.14.24.27.38.41v-7.96c-.58,0-1.14-.05-1.68-.14-1.18.74-2.43,1.34-3.82,1.79,1.39,1.5,2.24,2.76,2.24,2.76l-.31.77c-.43.1-.87.2-1.3.31.64,1.65,1.66,3.38,3.18,4.31.64.39,1.38.61,1.81.64Zm1.72-10.6c-.08,0-.26.06-.85.12v9.07c.22.31.43.73.43,1.12,0,.35-.14.7-.43.96v8.58c.21-.07.43-.12.65-.15.27-.04.53.16.56.43.04.27-.16.53-.43.56-1.2.16-2.13,1.17-2.16,2.42.22.6,2.42,4.83,2.5,4.98.34-.65,2.24-4.28,2.5-4.98-.02-.86-.47-1.61-1.15-2.05-.18-.12-.26-.33-.21-.53-.02-.1-.02.84-.02-13.24,0-.28.22-.5.5-.5s.5.22.5.5v.75c.51-.06,1.37-.25,1.68-.66.11-.15.11-.25-.02-.41-.54-.67-2.33-.76-3.2-.76-.28,0-.5-.23-.5-.5,0-.28.23-.5.5-.5,1.06,0,2.52.11,3.41.66.43-.64-.5-1.2-1.24-1.38-.65-.16-1.5-.22-2.17-.22-.28,0-.5-.22-.5-.5,0-.28.23-.5.5-.5.76,0,1.68.07,2.41.25.47.12.74.24,1.06.44.18-.48-.29-.84-.75-1.06-.68-.34-1.97-.53-2.73-.53-.28,0-.5-.23-.5-.5,0-.28.23-.5.5-.5.92,0,2.2.2,3.05.58.08-.13.05-.44-.09-.62-.49-.61-2.7-1.31-3.82-1.31Zm7.65-10.69c0-3.66-2.23-7.38-5.67-9.01-2.42-1.14-5.25-1.14-7.66,0-3.41,1.61-5.67,5.32-5.67,9.01,0,3.66,2.23,7.38,5.67,9.01,2.42,1.14,5.25,1.14,7.66,0,3.41-1.61,5.67-5.32,5.67-9.01Zm-4.72,0c0,2.64-2.14,4.78-4.78,4.78-2.64,0-4.78-2.14-4.78-4.78,0-2.64,2.14-4.78,4.78-4.78,2.64,0,4.78,2.14,4.78,4.78Zm-2.11-2.67c-1.48-1.47-3.86-1.48-5.34,0-1.48,1.48-1.48,3.86,0,5.34,1.48,1.48,3.86,1.48,5.34,0,1.47-1.48,1.48-3.86,0-5.34Zm-3.96,9.3l-.19.98c.98.19,1.98.19,2.96,0l-.19-.98c-.84.16-1.71.17-2.58,0Zm-4.35-2.91l-.83.55c.58.88,1.33,1.63,2.21,2.21l.55-.83c-.75-.49-1.41-1.15-1.92-1.92Zm9.35,1.92l.55.83c.87-.58,1.63-1.33,2.21-2.21l-.83-.55c-.49.75-1.15,1.41-1.92,1.92Zm-31.55,20.67l-.68.73.73.68.68-.73-.73-.68Zm5.1-3.36l-.63-.77c-.48.39-.31.25-.78.64l.63.77.78-.64Zm-2.26,1.94l-.69-.73c-.46.43-.29.27-.73.69l.69.73.73-.69Zm4.65-3.72l-.58-.82c-.51.36-.33.23-.82.58l.58.82.82-.58Zm7.82-4.31l-.4-.92c-.57.25-.37.16-.92.4l.4.92.92-.4Zm-2.7,1.26l-.46-.89c-.56.29-.35.18-.89.47l.46.89.89-.46Zm-2.61,1.44l-.52-.85c-.53.33-.34.21-.86.52l.52.85.86-.52Zm8.09-3.78l-.34-.94c-.59.21-.35.13-.94.34l.34.94.94-.34Zm2.83-.87l-.24-.97-.97.24.24.97.97-.24Zm-13.36-39.09c-.28,0-.49.24-.48.51,0,.27.02.53.02.8,0,.28.24.49.51.48.28,0,.49-.24.48-.51,0-.27-.02-.53-.02-.8,0-.28-.24-.49-.51-.48Zm-14.94,47.53l-.19.98c.98.19,1.98.19,2.96,0l-.19-.98c-.85.16-1.72.17-2.58,0Zm6.93-2.91c-.5.76-1.16,1.42-1.92,1.92l.55.83c.86-.57,1.62-1.32,2.21-2.21l-.83-.55Zm1.97-2.23c.18-.95.2-1.95,0-2.96l-.98.19c.16.83.17,1.71,0,2.58l.98.19Zm-14.23-2.77l-.98-.19c-.18.95-.19,1.95,0,2.96l.98-.19c-.16-.85-.16-1.73,0-2.58Zm.99,5l-.83.55c.56.85,1.31,1.61,2.21,2.21l.55-.83c-.76-.5-1.42-1.16-1.92-1.92Zm10.41-3.71c0,2.64-2.14,4.77-4.77,4.77-2.64,0-4.78-2.14-4.78-4.78,0-2.64,2.14-4.78,4.78-4.78,2.64,0,4.77,2.14,4.77,4.78Zm-2.1-2.68c-1.48-1.48-3.86-1.48-5.34,0-1.47,1.48-1.48,3.86,0,5.34,1.48,1.47,3.86,1.48,5.34,0,1.47-1.48,1.48-3.86,0-5.34Zm-1.38-3.95l.19-.98c-.98-.19-1.98-.19-2.96,0l.19.98c.85-.16,1.73-.16,2.58,0Zm4.35,2.91l.83-.55c-.57-.86-1.32-1.62-2.21-2.21l-.55.83c.76.5,1.42,1.16,1.92,1.92Zm-9.35-1.92l-.55-.83c-.87.58-1.63,1.33-2.21,2.21l.83.55c.5-.76,1.16-1.42,1.92-1.92Zm31.55-20.67l.68-.73-.73-.68-.68.73.73.68Zm-5.1,3.36l.63.77c.48-.39.31-.25.78-.64l-.63-.77-.78.64Zm-2.39,1.78l.58.82c.29-.21.53-.38.82-.58l-.58-.82-.82.58Zm4.65-3.72l.69.73c.45-.43.29-.27.73-.69l-.69-.73-.73.69Zm-9.77,6.76l.46.89c.55-.29.35-.19.89-.46l-.46-.89-.89.46Zm-5.48,2.34l.34.94c.58-.21.38-.14.94-.34l-.34-.94-.94.34Zm8.09-3.78l.52.85c.53-.33.34-.21.86-.52l-.52-.85-.86.52Zm-5.31,2.7l.4.92c.54-.24.35-.15.92-.4l-.4-.91-.92.4Zm-5.61,1.94l.24.97.97-.24-.24-.97-.97.24Z"/></g></g></svg>