<?xml version="1.0" encoding="UTF-8"?><svg id="Grouped" xmlns="http://www.w3.org/2000/svg" viewBox="0 0 80 112"><defs><style>.cls-1{fill:#fff;}.cls-2{fill:#1f1f1f;}</style></defs><g id="Ace"><rect id="BG-2" class="cls-1" x="0" width="80" height="112" rx="5" ry="5"/><g id="Suit"><g id="Suit-2"><g id="Suit-3"><path class="cls-2" d="m15.06,23.06c-.59-.59-1.54-.59-2.12,0l-.64.64c.16-.58.49-.87.76-1.15.59-.59.59-1.54,0-2.12-.29-.29-.67-.44-1.06-.44s-.77.15-1.06.44c-.59.59-.59,1.54,0,2.12.27.27.6.57.77,1.15l-.64-.64c-.59-.59-1.54-.59-2.12,0-.59.59-.59,1.54,0,2.12.59.59,1.54.59,2.12,0l.74-.74v.04c.02.65-.09,1.67-.8,2.39v.25h2v-.25c-.71-.71-.82-1.73-.81-2.38v-.05s.74.74.74.74c.59.59,1.54.59,2.12,0s.59-1.54,0-2.12Z"/><path class="cls-2" d="m64.94,88.94c.59.59,1.54.59,2.12,0l.64-.64c-.16.58-.49.87-.77,1.15-.59.59-.59,1.54,0,2.12.29.29.67.44,1.06.44s.77-.15,1.06-.44c.59-.59.59-1.54,0-2.12-.27-.27-.6-.57-.77-1.15l.64.64c.59.59,1.54.59,2.12,0,.59-.59.59-1.54,0-2.12s-1.54-.59-2.12,0l-.74.74v-.04c-.02-.65.09-1.67.8-2.39v-.25h-2v.25c.71.71.82,1.73.81,2.38v.05s-.74-.74-.74-.74c-.59-.59-1.54-.59-2.12,0-.59.59-.59,1.54,0,2.12Z"/></g><g id="Value"><path class="cls-2" d="m10.78,16.33v.67h-3.15v-.67l.75-.18c.09-.02.16-.05.21-.1.05-.05.1-.11.12-.2l2.73-7.96h1.52l2.82,7.96c.03.09.07.15.12.2.05.04.12.08.21.1l.69.18v.67h-3.75v-.67l1.13-.2-.62-1.86h-3.32l-.59,1.86,1.13.2Zm2.51-2.87l-1.43-4.26-1.36,4.26h2.79Z"/><path class="cls-2" d="m69.23,95.67v-.67h3.15v.67l-.75.18c-.08.02-.16.05-.21.1-.05.05-.1.11-.12.2l-2.73,7.96h-1.52l-2.82-7.96c-.03-.09-.07-.15-.12-.2-.05-.04-.12-.08-.21-.1l-.69-.18v-.67h3.75v.67l-1.13.2.62,1.86h3.32l.59-1.86-1.13-.2Zm-2.51,2.87l1.43,4.26,1.36-4.26h-2.79Z"/></g></g><path id="Value-2" class="cls-2" d="m52.24,52.25c-2.34-2.34-6.14-2.34-8.49,0l-2.58,2.58c.65-2.31,1.96-3.49,3.06-4.59,2.34-2.34,2.34-6.14,0-8.49-1.17-1.17-2.7-1.75-4.23-1.76h-.03c-1.53,0-3.06.59-4.23,1.76-2.34,2.34-2.34,6.14,0,8.49,1.1,1.1,2.41,2.28,3.06,4.59l-2.58-2.58c-2.34-2.34-6.14-2.34-8.49,0s-2.34,6.14,0,8.49,6.14,2.34,8.49,0l2.96-2.96c0,.06,0,.11,0,.17.05,2.6-.36,6.7-3.22,9.56v1h8v-1c-2.84-2.84-3.25-6.91-3.22-9.51,0-.08.01-.13.02-.21l2.96,2.96c2.34,2.34,6.14,2.34,8.49,0,2.34-2.34,2.34-6.14,0-8.49Z"/></g></g></svg>