<?xml version="1.0" encoding="UTF-8"?><svg id="Grouped" xmlns="http://www.w3.org/2000/svg" viewBox="0 0 80 112"><defs><style>.cls-1{fill:#fff;}.cls-2{fill:#c93112;}</style></defs><g id="Ace"><rect id="BG-2" class="cls-1" x="0" width="80" height="112" rx="5" ry="5"/><g id="Suit"><g id="Suit-2"><g id="Suit-3"><path class="cls-2" d="m12,26.75c-.9-1.4-2.1-2.6-3.5-3.5,1.4-.9,2.6-2.1,3.5-3.5.9,1.4,2.1,2.6,3.5,3.5-1.4.9-2.6,2.1-3.5,3.5Z"/><path class="cls-2" d="m68,83.75c.9,1.4,2.1,2.6,3.5,3.5-1.4.9-2.6,2.1-3.5,3.5-.9-1.4-2.1-2.6-3.5-3.5,1.4-.9,2.6-2.1,3.5-3.5Z"/></g><g id="Value"><path class="cls-2" d="m10.78,15.58v.67h-3.15v-.67l.75-.18c.09-.02.16-.05.21-.1.05-.05.1-.11.12-.2l2.73-7.96h1.52l2.82,7.96c.03.09.07.15.12.2.05.04.12.08.21.1l.69.18v.67h-3.75v-.67l1.13-.2-.62-1.86h-3.32l-.59,1.86,1.13.2Zm2.51-2.87l-1.43-4.26-1.36,4.26h2.79Z"/><path class="cls-2" d="m69.23,94.93v-.68h3.15v.68l-.75.18c-.08.02-.16.05-.21.1-.05.05-.1.11-.12.2l-2.73,7.96h-1.52l-2.82-7.96c-.03-.09-.07-.15-.12-.2-.05-.04-.12-.08-.21-.1l-.69-.18v-.68h3.75v.68l-1.13.2.62,1.86h3.32l.59-1.86-1.13-.2Zm-2.51,2.87l1.43,4.26,1.36-4.26h-2.79Z"/></g></g><path id="Value-2" class="cls-2" d="m40,69.25c-3.6-5.62-8.38-10.4-14-14,5.62-3.6,10.4-8.38,14-14,3.6,5.62,8.38,10.4,14,14-5.62,3.6-10.4,8.38-14,14Z"/></g></g></svg>