<?xml version="1.0" encoding="UTF-8"?><svg id="Grouped" xmlns="http://www.w3.org/2000/svg" viewBox="0 0 80 112"><defs><style>.cls-1{fill:#fff;}.cls-2{fill:#c93112;}</style></defs><g id="Ace"><rect id="BG-2" class="cls-1" x="0" width="80" height="112" rx="5" ry="5"/><g id="Suit"><g id="Suit-2"><g id="Suit-3"><path class="cls-2" d="m13.63,21c-.7,0-1.3.39-1.62.96-.32-.57-.93-.96-1.62-.96-1.04,0-1.88.84-1.88,1.88,0,2.07,2.95,3.18,3.5,4.5.55-1.32,3.5-2.43,3.5-4.5,0-1.04-.84-1.88-1.88-1.88Z"/><path class="cls-2" d="m66.37,90.5c.7,0,1.3-.39,1.62-.96.32.57.93.96,1.62.96,1.04,0,1.87-.84,1.87-1.88,0-2.07-2.95-3.18-3.5-4.5-.55,1.32-3.5,2.43-3.5,4.5,0,1.04.84,1.88,1.87,1.88Z"/></g><g id="Value"><path class="cls-2" d="m10.78,16.08v.67h-3.15v-.67l.75-.18c.09-.02.16-.05.21-.1.05-.05.1-.11.12-.2l2.73-7.96h1.52l2.82,7.96c.03.09.07.15.12.2.05.04.12.08.21.1l.69.18v.67h-3.75v-.67l1.13-.2-.62-1.86h-3.32l-.59,1.86,1.13.2Zm2.51-2.87l-1.43-4.26-1.36,4.26h2.79Z"/><path class="cls-2" d="m69.23,95.42v-.67h3.15v.67l-.75.18c-.08.02-.16.05-.21.1-.05.05-.1.11-.12.2l-2.73,7.96h-1.52l-2.82-7.96c-.03-.09-.07-.15-.12-.2-.05-.04-.12-.08-.21-.1l-.69-.18v-.67h3.75v.67l-1.13.2.62,1.86h3.32l.59-1.86-1.13-.2Zm-2.51,2.87l1.43,4.26,1.36-4.26h-2.79Z"/></g></g><path id="Value-2" class="cls-2" d="m46.5,44.75c-2.8,0-5.21,1.55-6.5,3.82-1.29-2.27-3.7-3.82-6.5-3.82-4.14,0-7.5,3.36-7.5,7.5,0,8.28,11.8,12.73,14,18,2.2-5.27,14-9.72,14-18,0-4.14-3.36-7.5-7.5-7.5Z"/></g></g></svg>