<?xml version="1.0" encoding="UTF-8"?><svg id="Grouped" xmlns="http://www.w3.org/2000/svg" viewBox="0 0 80 112"><defs><style>.cls-1{fill:#fff;}.cls-2{fill:#1f1f1f;}</style></defs><g id="Ace"><rect id="BG-2" class="cls-1" x="0" width="80" height="112" rx="5" ry="5"/><g id="Suit"><g id="Suit-2"><g id="Suit-3"><path class="cls-2" d="m12,19.38c-.54,1.38-3.25,1.88-3.25,4,0,.97.78,1.75,1.75,1.75.51,0,.96-.22,1.28-.57-.06.59-.25,1.29-.78,1.82v.25h2v-.25c-.53-.53-.72-1.23-.78-1.82.32.35.77.57,1.28.57.97,0,1.75-.78,1.75-1.75,0-2.12-2.71-2.62-3.25-4Z"/><path class="cls-2" d="m68,91.62c.54-1.38,3.25-1.88,3.25-4,0-.97-.78-1.75-1.75-1.75-.51,0-.96.22-1.28.57.06-.59.25-1.29.78-1.82v-.25h-2v.25c.53.53.72,1.23.78,1.82-.32-.35-.77-.57-1.28-.57-.97,0-1.75.78-1.75,1.75,0,2.12,2.71,2.62,3.25,4Z"/></g><g id="Value"><path class="cls-2" d="m10.78,15.83v.67h-3.15v-.67l.75-.18c.09-.02.16-.05.21-.1.05-.05.1-.11.12-.2l2.73-7.96h1.52l2.82,7.96c.03.09.07.15.12.2.05.04.12.08.21.1l.69.18v.67h-3.75v-.67l1.13-.2-.62-1.86h-3.32l-.59,1.86,1.13.2Zm2.51-2.87l-1.43-4.26-1.36,4.26h2.79Z"/><path class="cls-2" d="m69.23,95.17v-.67h3.15v.67l-.75.18c-.08.02-.16.05-.21.1-.05.05-.1.11-.12.2l-2.73,7.96h-1.52l-2.82-7.96c-.03-.09-.07-.15-.12-.2-.05-.04-.12-.08-.21-.1l-.69-.18v-.67h3.75v.67l-1.13.2.62,1.86h3.32l.59-1.86-1.13-.2Zm-2.51,2.87l1.43,4.26,1.36-4.26h-2.79Z"/></g></g><path id="Value-2" class="cls-2" d="m40,39c-2.17,5.51-13,7.53-13,16,0,3.87,3.13,7,7,7,2.04,0,3.85-.88,5.13-2.27-.24,2.36-1.02,5.16-3.13,7.27v1h8v-1c-2.11-2.11-2.89-4.91-3.13-7.27,1.28,1.39,3.09,2.27,5.13,2.27,3.87,0,7-3.13,7-7,0-8.47-10.83-10.49-13-16Z"/></g></g></svg>