<?xml version="1.0" encoding="UTF-8"?><svg id="Grouped" xmlns="http://www.w3.org/2000/svg" viewBox="0 0 80 112"><defs><style>.cls-1{fill:#fff;}.cls-2{fill:#1f1f1f;}</style></defs><g id="_2"><rect id="BG-2" class="cls-1" x="0" width="80" height="112" rx="5" ry="5"/><g id="Suit"><g id="Suit-2"><g id="Suit-3"><path class="cls-2" d="m15.06,23.06c-.59-.59-1.54-.59-2.12,0l-.64.64c.16-.58.49-.87.77-1.15.59-.59.59-1.54,0-2.12-.29-.29-.67-.44-1.06-.44s-.77.15-1.06.44c-.59.59-.59,1.54,0,2.12.27.27.6.57.77,1.15l-.64-.64c-.59-.59-1.54-.59-2.12,0-.59.59-.59,1.54,0,2.12.59.59,1.54.59,2.12,0l.74-.74v.04c.02.65-.09,1.67-.8,2.39v.25h2v-.25c-.71-.71-.82-1.73-.81-2.38v-.05s.74.74.74.74c.59.59,1.54.59,2.12,0,.59-.59.59-1.54,0-2.12Z"/><path class="cls-2" d="m64.94,88.94c.59.59,1.54.59,2.12,0l.64-.64c-.16.58-.49.87-.77,1.15-.59.59-.59,1.54,0,2.12.29.29.67.44,1.06.44s.77-.15,1.06-.44c.59-.59.59-1.54,0-2.12-.27-.27-.6-.57-.77-1.15l.64.64c.59.59,1.54.59,2.12,0s.59-1.54,0-2.12c-.59-.59-1.54-.59-2.12,0l-.74.74v-.04c-.02-.65.09-1.67.8-2.39v-.25h-2v.25c.71.71.82,1.73.81,2.38v.05s-.74-.74-.74-.74c-.59-.59-1.54-.59-2.12,0-.59.59-.59,1.54,0,2.12Z"/></g><g id="Value"><path class="cls-2" d="m14.64,17h-5.39l-.31-.87c.72-.64,1.33-1.19,1.83-1.66.5-.46.89-.87,1.19-1.23.3-.35.51-.67.65-.96.13-.29.2-.57.2-.86,0-.45-.14-.79-.41-1.03-.28-.24-.6-.36-.98-.36-.34,0-.64.09-.92.28-.28.18-.52.45-.74.79l-.52-.43c.08-.24.2-.47.36-.7.16-.22.35-.42.58-.59.23-.17.49-.31.8-.41.3-.1.64-.15,1.01-.15s.68.05.99.16c.31.11.57.26.79.46.22.2.4.44.53.73.13.29.19.61.19.97,0,.4-.08.79-.25,1.16-.17.37-.42.74-.76,1.12-.34.37-.77.77-1.29,1.18s-1.12.86-1.82,1.34h1.49c.28,0,.54,0,.78-.02.24-.02.42-.04.55-.06.14-.03.25-.07.31-.12.06-.05.11-.12.14-.21l.44-1.05.8.1c0,.38-.02.78-.06,1.21-.04.43-.09.83-.17,1.2Z"/><path class="cls-2" d="m65.36,95h5.39l.31.87c-.72.64-1.33,1.19-1.83,1.66-.5.46-.89.87-1.19,1.23-.3.35-.51.67-.65.96-.13.29-.2.57-.2.86,0,.45.14.79.41,1.03.28.24.6.36.98.36.34,0,.64-.09.92-.28.28-.18.52-.45.74-.79l.52.43c-.08.24-.2.47-.36.7-.16.22-.35.42-.58.59-.23.17-.49.31-.8.41-.3.1-.64.15-1.01.15s-.68-.05-.99-.16c-.31-.11-.57-.26-.79-.46-.22-.2-.4-.44-.53-.73-.13-.29-.19-.61-.19-.97,0-.4.08-.79.25-1.16.17-.37.42-.74.76-1.12.34-.37.77-.77,1.29-1.18s1.12-.86,1.82-1.34h-1.49c-.28,0-.54,0-.78.02-.24.02-.42.04-.55.06-.14.03-.24.07-.31.12-.06.05-.11.12-.14.21l-.44,1.05-.8-.1c0-.38.02-.78.06-1.21.04-.43.09-.83.17-1.2Z"/></g></g><g id="Value-2"><path class="cls-2" d="m49.18,36.19c-1.76-1.76-4.61-1.76-6.36,0l-1.93,1.93c.48-1.73,1.47-2.62,2.3-3.44,1.76-1.76,1.76-4.61,0-6.36-.88-.88-2.02-1.32-3.17-1.32h-.02c-1.15,0-2.29.44-3.17,1.32-1.76,1.76-1.76,4.61,0,6.36.82.82,1.81,1.71,2.3,3.44l-1.93-1.93c-1.76-1.76-4.61-1.76-6.36,0-1.76,1.76-1.76,4.61,0,6.36,1.76,1.76,4.61,1.76,6.36,0l2.22-2.22s0,.08,0,.12c.04,1.95-.27,5.02-2.41,7.17v.75h6v-.75c-2.13-2.13-2.43-5.18-2.42-7.13,0-.06.01-.1.01-.16l2.22,2.22c1.76,1.76,4.61,1.76,6.36,0s1.76-4.61,0-6.36Z"/><path class="cls-2" d="m49.18,75.81c-1.76,1.76-4.61,1.76-6.36,0l-1.93-1.93c.48,1.73,1.47,2.62,2.3,3.44,1.76,1.76,1.76,4.61,0,6.36-.88.88-2.02,1.32-3.17,1.32h-.02c-1.15,0-2.29-.44-3.17-1.32-1.76-1.76-1.76-4.61,0-6.36.82-.82,1.81-1.71,2.3-3.44l-1.93,1.93c-1.76,1.76-4.61,1.76-6.36,0-1.76-1.76-1.76-4.61,0-6.36,1.76-1.76,4.61-1.76,6.36,0l2.22,2.22s0-.08,0-.12c.04-1.95-.27-5.02-2.41-7.17v-.75h6v.75c-2.13,2.13-2.43,5.18-2.42,7.13,0,.06.01.1.01.16l2.22-2.22c1.76-1.76,4.61-1.76,6.36,0s1.76,4.61,0,6.36Z"/></g></g></g></svg>