<?xml version="1.0" encoding="UTF-8"?><svg id="Grouped" xmlns="http://www.w3.org/2000/svg" viewBox="0 0 80 112"><defs><style>.cls-1{fill:#fff;}.cls-2{fill:#c93112;}</style></defs><g id="_2"><rect id="BG-2" class="cls-1" x="0" width="80" height="112" rx="5" ry="5"/><g id="Suit"><g id="Suit-2"><g id="Suit-3"><path class="cls-2" d="m13.63,21c-.7,0-1.3.39-1.62.96-.32-.57-.93-.96-1.62-.96-1.04,0-1.87.84-1.87,1.88,0,2.07,2.95,3.18,3.5,4.5.55-1.32,3.5-2.43,3.5-4.5,0-1.04-.84-1.88-1.87-1.88Z"/><path class="cls-2" d="m66.38,90.5c.7,0,1.3-.39,1.62-.96.32.57.93.96,1.62.96,1.04,0,1.87-.84,1.87-1.88,0-2.07-2.95-3.18-3.5-4.5-.55,1.32-3.5,2.43-3.5,4.5,0,1.04.84,1.88,1.87,1.88Z"/></g><g id="Value"><path class="cls-2" d="m14.64,16.75h-5.39l-.31-.87c.72-.64,1.33-1.19,1.83-1.66.5-.46.89-.87,1.19-1.23.3-.35.51-.67.65-.96.13-.29.2-.57.2-.86,0-.45-.14-.79-.41-1.03-.28-.24-.6-.36-.98-.36-.34,0-.64.09-.92.28-.28.18-.52.45-.74.79l-.52-.43c.08-.24.2-.47.36-.7.16-.22.35-.42.58-.59.23-.17.49-.31.8-.41.3-.1.64-.15,1.01-.15s.68.05.99.16c.31.11.57.26.79.46.22.2.4.44.53.73.13.29.19.61.19.97,0,.4-.08.79-.25,1.16-.17.37-.42.74-.76,1.12-.34.37-.77.77-1.29,1.18s-1.12.86-1.82,1.34h1.49c.28,0,.54,0,.78-.02.24-.02.42-.04.55-.06.14-.03.25-.07.31-.12.06-.05.11-.12.14-.21l.44-1.05.8.1c0,.38-.02.78-.06,1.21-.04.43-.09.83-.17,1.2Z"/><path class="cls-2" d="m65.36,94.75h5.39l.31.87c-.72.64-1.33,1.19-1.83,1.66-.5.46-.89.87-1.19,1.23-.3.35-.51.67-.65.96-.13.29-.2.57-.2.86,0,.45.14.79.41,1.03.28.24.6.36.98.36.34,0,.64-.09.92-.28.28-.18.52-.45.74-.79l.52.43c-.08.24-.2.47-.36.7-.16.22-.35.42-.58.59-.23.17-.49.31-.8.41-.3.1-.64.15-1.01.15s-.68-.05-.99-.16c-.31-.11-.57-.26-.79-.46-.22-.2-.4-.44-.53-.73-.13-.29-.19-.61-.19-.97,0-.4.08-.79.25-1.16.17-.37.42-.74.76-1.12.34-.37.77-.77,1.29-1.18s1.12-.86,1.82-1.34h-1.49c-.28,0-.54,0-.78.02-.24.02-.42.04-.55.06-.14.03-.24.07-.31.12-.06.05-.11.12-.14.21l-.44,1.05-.8-.1c0-.38.02-.78.06-1.21.04-.43.09-.83.17-1.2Z"/></g></g><g id="Value-2"><path class="cls-2" d="m44.87,30.5c-2.1,0-3.91,1.16-4.87,2.87-.97-1.7-2.78-2.87-4.87-2.87-3.11,0-5.62,2.52-5.62,5.62,0,6.21,8.85,9.55,10.5,13.5,1.65-3.95,10.5-7.29,10.5-13.5,0-3.11-2.52-5.62-5.62-5.62Z"/><path class="cls-2" d="m44.87,81c-2.1,0-3.91-1.16-4.87-2.87-.97,1.7-2.78,2.87-4.87,2.87-3.11,0-5.62-2.52-5.62-5.62,0-6.21,8.85-9.55,10.5-13.5,1.65,3.95,10.5,7.29,10.5,13.5,0,3.11-2.52,5.62-5.62,5.62Z"/></g></g></g></svg>