<?xml version="1.0" encoding="UTF-8"?><svg id="Grouped" xmlns="http://www.w3.org/2000/svg" viewBox="0 0 80 112"><defs><style>.cls-1{fill:#fff;}.cls-2{fill:#1f1f1f;}</style></defs><g id="_2"><rect id="BG-2" class="cls-1" x="0" width="80" height="112" rx="5" ry="5"/><g id="Suit"><g id="Suit-2"><g id="Suit-3"><path class="cls-2" d="m12,19.38c-.54,1.38-3.25,1.88-3.25,4,0,.97.78,1.75,1.75,1.75.51,0,.96-.22,1.28-.57-.06.59-.25,1.29-.78,1.82v.25h2v-.25c-.53-.53-.72-1.23-.78-1.82.32.35.77.57,1.28.57.97,0,1.75-.78,1.75-1.75,0-2.12-2.71-2.62-3.25-4Z"/><path class="cls-2" d="m68,91.62c.54-1.38,3.25-1.88,3.25-4,0-.97-.78-1.75-1.75-1.75-.51,0-.96.22-1.28.57.06-.59.25-1.29.78-1.82v-.25h-2v.25c.53.53.72,1.23.78,1.82-.32-.35-.77-.57-1.28-.57-.97,0-1.75.78-1.75,1.75,0,2.12,2.71,2.62,3.25,4Z"/></g><g id="Value"><path class="cls-2" d="m14.64,16.5h-5.39l-.31-.87c.72-.64,1.33-1.19,1.83-1.66.5-.46.89-.87,1.19-1.23.3-.35.51-.67.65-.96.13-.29.2-.57.2-.86,0-.45-.14-.79-.41-1.03-.28-.24-.6-.36-.98-.36-.34,0-.64.09-.92.28-.28.18-.52.45-.74.79l-.52-.43c.08-.24.2-.47.36-.7.16-.22.35-.42.58-.59.23-.17.49-.31.8-.41.3-.1.64-.15,1.01-.15s.68.05.99.16c.31.11.57.26.79.46.22.2.4.44.53.73.13.29.19.61.19.97,0,.4-.08.79-.25,1.16-.17.37-.42.74-.76,1.12-.34.37-.77.77-1.29,1.18s-1.12.86-1.82,1.34h1.49c.28,0,.54,0,.78-.02.24-.02.42-.04.55-.06.14-.03.25-.07.31-.12.06-.05.11-.12.14-.21l.44-1.05.8.1c0,.38-.02.78-.06,1.21-.04.43-.09.83-.17,1.2Z"/><path class="cls-2" d="m65.36,94.5h5.39l.31.87c-.72.64-1.33,1.19-1.83,1.66-.5.46-.89.87-1.19,1.23-.3.35-.51.67-.65.96-.13.29-.2.57-.2.86,0,.45.14.79.41,1.03.28.24.6.36.98.36.34,0,.64-.09.92-.28.28-.18.52-.45.74-.79l.52.43c-.08.24-.2.47-.36.7-.16.22-.35.42-.58.59-.23.17-.49.31-.8.41-.3.1-.64.15-1.01.15s-.68-.05-.99-.16c-.31-.11-.57-.26-.79-.46-.22-.2-.4-.44-.53-.73-.13-.29-.19-.61-.19-.97,0-.4.08-.79.25-1.16.17-.37.42-.74.76-1.12.34-.37.77-.77,1.29-1.18s1.12-.86,1.82-1.34h-1.49c-.28,0-.54,0-.78.02-.24.02-.42.04-.55.06-.14.03-.24.07-.31.12-.06.05-.11.12-.14.21l-.44,1.05-.8-.1c0-.38.02-.78.06-1.21.04-.43.09-.83.17-1.2Z"/></g></g><g id="Value-2"><path class="cls-2" d="m40,26.12c-1.62,4.13-9.75,5.65-9.75,12,0,2.9,2.35,5.25,5.25,5.25,1.53,0,2.89-.66,3.85-1.71-.18,1.77-.76,3.87-2.35,5.46v.75h6v-.75c-1.58-1.58-2.17-3.68-2.35-5.45.96,1.04,2.32,1.7,3.85,1.7,2.9,0,5.25-2.35,5.25-5.25,0-6.35-8.12-7.87-9.75-12Z"/><path class="cls-2" d="m40,84.88c-1.62-4.13-9.75-5.65-9.75-12,0-2.9,2.35-5.25,5.25-5.25,1.53,0,2.89.66,3.85,1.71-.18-1.77-.76-3.87-2.35-5.46v-.75h6v.75c-1.58,1.58-2.17,3.68-2.35,5.45.96-1.04,2.32-1.7,3.85-1.7,2.9,0,5.25,2.35,5.25,5.25,0,6.35-8.12,7.87-9.75,12Z"/></g></g></g></svg>