<?xml version="1.0" encoding="UTF-8"?><svg id="Grouped" xmlns="http://www.w3.org/2000/svg" viewBox="0 0 80 112"><defs><style>.cls-1{fill:#fff;}.cls-2{fill:#c93112;}</style></defs><g id="_3"><rect id="BG-2" class="cls-1" x="0" width="80" height="112" rx="5" ry="5"/><g id="Suit"><g id="Suit-2"><g id="Suit-3"><path class="cls-2" d="m13.62,21c-.7,0-1.3.39-1.62.96-.32-.57-.93-.96-1.62-.96-1.04,0-1.87.84-1.87,1.88,0,2.07,2.95,3.18,3.5,4.5.55-1.32,3.5-2.43,3.5-4.5,0-1.04-.84-1.88-1.87-1.88Z"/><path class="cls-2" d="m66.37,90.5c.7,0,1.3-.39,1.62-.96.32.57.93.96,1.62.96,1.04,0,1.87-.84,1.87-1.88,0-2.07-2.95-3.18-3.5-4.5-.55,1.32-3.5,2.43-3.5,4.5,0,1.04.84,1.88,1.87,1.88Z"/></g><g id="Value"><path class="cls-2" d="m14.76,14.43c0,.36-.08.7-.24,1.01-.16.31-.38.57-.66.79-.28.22-.61.39-.99.51-.38.12-.78.18-1.2.18-.58,0-1.09-.1-1.54-.31-.44-.2-.8-.43-1.06-.69l.4-.56c.25.17.53.31.84.42.31.11.66.17,1.03.17.23,0,.45-.03.65-.08.21-.06.39-.14.54-.26.16-.12.28-.27.38-.46.09-.19.14-.42.15-.69,0-.43-.12-.79-.37-1.05-.25-.27-.59-.43-1.01-.48-.14.04-.28.07-.44.1-.16.04-.3.06-.44.08l-.2-.73c.29-.06.56-.14.81-.24.25-.1.47-.22.66-.36.19-.14.34-.31.45-.49.11-.19.16-.4.16-.64,0-.29-.1-.53-.3-.72-.2-.2-.48-.29-.82-.29s-.65.08-.94.26c-.29.17-.54.36-.73.57l-.47-.45c.23-.4.57-.73,1.02-1,.45-.27.98-.4,1.61-.4.3,0,.59.04.87.12.28.08.52.2.72.35.21.15.37.34.49.57.12.23.18.49.18.79,0,.26-.05.5-.16.72-.11.22-.24.43-.41.6-.17.18-.36.33-.57.45-.21.13-.42.22-.63.28.25,0,.5.03.76.1.26.07.5.19.71.35.21.16.39.37.53.62s.21.55.21.89Z"/><path class="cls-2" d="m65.24,97.07c0-.36.08-.7.24-1.01.16-.31.38-.57.66-.79.28-.22.61-.39.99-.51.38-.12.78-.18,1.2-.18.58,0,1.09.1,1.54.31.44.2.8.43,1.06.69l-.4.56c-.25-.17-.53-.31-.84-.42-.31-.11-.66-.17-1.03-.17-.23,0-.45.03-.65.08-.21.06-.39.14-.54.26-.16.12-.28.27-.38.46-.09.19-.14.42-.15.69,0,.43.12.79.37,1.05.25.27.59.43,1.01.48.14-.04.28-.07.44-.1s.3-.06.44-.08l.2.73c-.29.06-.56.14-.81.24-.25.1-.47.22-.66.36-.19.14-.34.31-.45.49-.11.19-.16.4-.16.64,0,.29.1.53.3.72.2.2.48.29.82.29s.65-.08.94-.26c.29-.17.54-.36.73-.57l.47.45c-.23.4-.57.73-1.02,1-.45.27-.98.4-1.61.4-.3,0-.59-.04-.87-.12-.28-.08-.52-.2-.72-.35-.21-.15-.37-.34-.49-.57-.12-.23-.18-.49-.18-.79,0-.26.05-.5.16-.72.11-.22.24-.43.41-.6.17-.18.36-.33.57-.45.21-.13.42-.22.63-.28-.25,0-.5-.03-.76-.1-.26-.07-.5-.19-.71-.35-.21-.16-.39-.37-.53-.62s-.21-.55-.21-.89Z"/></g></g><g id="Value-2"><path class="cls-2" d="m42.26,18.1c-1.82,0-3.39,1.01-4.22,2.49-.84-1.48-2.41-2.49-4.22-2.49-2.69,0-4.87,2.18-4.87,4.88,0,5.38,7.67,8.27,9.1,11.7,1.43-3.43,9.1-6.32,9.1-11.7,0-2.69-2.18-4.88-4.87-4.88Z"/><path class="cls-2" d="m42.26,48.1c-1.82,0-3.39,1.01-4.22,2.49-.84-1.48-2.41-2.49-4.22-2.49-2.69,0-4.87,2.18-4.87,4.88,0,5.38,7.67,8.27,9.1,11.7,1.43-3.43,9.1-6.32,9.1-11.7,0-2.69-2.18-4.88-4.87-4.88Z"/><path class="cls-2" d="m42.26,93.4c-1.82,0-3.39-1.01-4.22-2.49-.84,1.48-2.41,2.49-4.22,2.49-2.69,0-4.87-2.18-4.87-4.88,0-5.38,7.67-8.27,9.1-11.7,1.43,3.43,9.1,6.32,9.1,11.7,0,2.69-2.18,4.88-4.87,4.88Z"/></g></g></g></svg>