<?xml version="1.0" encoding="UTF-8"?><svg id="Grouped" xmlns="http://www.w3.org/2000/svg" viewBox="0 0 80 112"><defs><style>.cls-1{fill:#fff;}.cls-2{fill:#1f1f1f;}</style></defs><g id="_4"><rect id="BG-2" class="cls-1" x="0" width="80" height="112" rx="5" ry="5"/><g id="Suit"><g id="Suit-2"><g id="Suit-3"><path class="cls-2" d="m15.06,23.06c-.59-.59-1.54-.59-2.12,0l-.64.64c.16-.58.49-.87.77-1.15.59-.59.59-1.54,0-2.12-.29-.29-.67-.44-1.06-.44s-.77.15-1.06.44c-.59.59-.59,1.54,0,2.12.27.27.6.57.77,1.15l-.64-.64c-.59-.59-1.54-.59-2.12,0s-.59,1.54,0,2.12,1.54.59,2.12,0l.74-.74v.04c.02.65-.09,1.67-.8,2.39v.25h2v-.25c-.71-.71-.82-1.73-.81-2.38v-.05s.74.74.74.74c.59.59,1.54.59,2.12,0s.59-1.54,0-2.12Z"/><path class="cls-2" d="m64.94,88.94c.59.59,1.54.59,2.12,0l.64-.64c-.16.58-.49.87-.76,1.15-.59.59-.59,1.54,0,2.12.29.29.67.44,1.06.44s.77-.15,1.06-.44c.59-.59.59-1.54,0-2.12-.27-.27-.6-.57-.77-1.15l.64.64c.59.59,1.54.59,2.12,0s.59-1.54,0-2.12c-.59-.59-1.54-.59-2.12,0l-.74.74v-.04c-.02-.65.09-1.67.8-2.39v-.25h-2v.25c.71.71.82,1.73.81,2.38v.05s-.74-.74-.74-.74c-.59-.59-1.54-.59-2.12,0-.59.59-.59,1.54,0,2.12Z"/></g><g id="Value"><path class="cls-2" d="m15.21,15.5h-1.26v1.5h-1.46v-1.5h-3.5l-.39-.76c.57-.91,1.12-1.86,1.65-2.83.54-.97,1.05-1.97,1.54-3h1.4l.21.34c-.37.69-.72,1.32-1.03,1.87-.31.56-.61,1.06-.89,1.5-.28.44-.55.84-.82,1.18-.27.34-.54.65-.82.91l2.67-.12.15-1.88,1.29-.07v1.88l1.26-.05v1.02Z"/><path class="cls-2" d="m64.78,96.5h1.26v-1.5h1.46v1.5h3.5l.39.76c-.57.92-1.12,1.86-1.65,2.83-.54.97-1.05,1.97-1.54,3h-1.4l-.21-.34c.37-.69.72-1.32,1.03-1.87.31-.56.61-1.06.89-1.5.28-.44.55-.83.82-1.18.27-.34.54-.65.82-.91l-2.67.12-.15,1.88-1.29.07v-1.88l-1.26.05v-1.02Z"/></g></g><g id="Value-2"><path class="cls-2" d="m32.12,21.13c-1.17-1.17-3.07-1.17-4.24,0l-1.29,1.29c.32-1.16.98-1.75,1.53-2.3,1.17-1.17,1.17-3.07,0-4.24-.58-.58-1.35-.88-2.11-.88s-1.54.29-2.13.88c-1.17,1.17-1.17,3.07,0,4.24.55.55,1.21,1.14,1.53,2.3l-1.29-1.29c-1.17-1.17-3.07-1.17-4.24,0-1.17,1.17-1.17,3.07,0,4.24,1.17,1.17,3.07,1.17,4.24,0l1.48-1.48s0,.05,0,.08c.03,1.3-.18,3.35-1.61,4.78v.5h4v-.5c-1.42-1.42-1.62-3.46-1.61-4.76,0-.04,0-.07,0-.1l1.48,1.48c1.17,1.17,3.07,1.17,4.24,0,1.17-1.17,1.17-3.07,0-4.24Z"/><path class="cls-2" d="m60.12,21.13c-1.17-1.17-3.07-1.17-4.24,0l-1.29,1.29c.32-1.16.98-1.75,1.53-2.3,1.17-1.17,1.17-3.07,0-4.24-.58-.58-1.35-.88-2.11-.88s-1.54.29-2.13.88c-1.17,1.17-1.17,3.07,0,4.24.55.55,1.21,1.14,1.53,2.3l-1.29-1.29c-1.17-1.17-3.07-1.17-4.24,0-1.17,1.17-1.17,3.07,0,4.24,1.17,1.17,3.07,1.17,4.24,0l1.48-1.48s0,.05,0,.08c.03,1.3-.18,3.35-1.61,4.78v.5h4v-.5c-1.42-1.42-1.62-3.46-1.61-4.76,0-.04,0-.07,0-.1l1.48,1.48c1.17,1.17,3.07,1.17,4.24,0,1.17-1.17,1.17-3.07,0-4.24Z"/><path class="cls-2" d="m32.73,91.06c-1.29,1.29-3.38,1.29-4.67,0l-1.42-1.42c.36,1.27,1.08,1.92,1.68,2.52,1.29,1.29,1.29,3.38,0,4.67-.64.64-1.48.97-2.33.97s-1.7-.32-2.34-.97c-1.29-1.29-1.29-3.38,0-4.67.6-.6,1.33-1.25,1.68-2.52l-1.42,1.42c-1.29,1.29-3.38,1.29-4.67,0-1.29-1.29-1.29-3.38,0-4.67,1.29-1.29,3.38-1.29,4.67,0l1.63,1.63s0-.06,0-.09c.03-1.43-.2-3.68-1.77-5.26v-.55h4.4v.55c-1.56,1.56-1.79,3.8-1.77,5.23,0,.04,0,.07,0,.11l1.63-1.63c1.29-1.29,3.38-1.29,4.67,0,1.29,1.29,1.29,3.38,0,4.67Z"/><path class="cls-2" d="m60.12,90.87c-1.17,1.17-3.07,1.17-4.24,0l-1.29-1.29c.32,1.16.98,1.75,1.53,2.3,1.17,1.17,1.17,3.07,0,4.24-.58.58-1.35.88-2.11.88s-1.54-.29-2.13-.88c-1.17-1.17-1.17-3.07,0-4.24.55-.55,1.21-1.14,1.53-2.3l-1.29,1.29c-1.17,1.17-3.07,1.17-4.24,0-1.17-1.17-1.17-3.07,0-4.24,1.17-1.17,3.07-1.17,4.24,0l1.48,1.48s0-.05,0-.08c.03-1.3-.18-3.35-1.61-4.78v-.5h4v.5c-1.42,1.42-1.62,3.46-1.61,4.76,0,.04,0,.07,0,.1l1.48-1.48c1.17-1.17,3.07-1.17,4.24,0,1.17,1.17,1.17,3.07,0,4.24Z"/></g></g></g></svg>