<?xml version="1.0" encoding="UTF-8"?><svg id="Grouped" xmlns="http://www.w3.org/2000/svg" viewBox="0 0 80 112"><defs><style>.cls-1{fill:#fff;}.cls-2{fill:#c93112;}</style></defs><g id="_4"><rect id="BG-2" class="cls-1" x="0" y="0" width="80" height="112" rx="5" ry="5"/><g id="Suit"><g id="Suit-2"><g id="Suit-3"><path class="cls-2" d="m12,26.75c-.9-1.4-2.1-2.6-3.5-3.5,1.4-.9,2.6-2.1,3.5-3.5.9,1.4,2.1,2.6,3.5,3.5-1.4.9-2.6,2.1-3.5,3.5Z"/><path class="cls-2" d="m68,83.75c.9,1.4,2.1,2.6,3.5,3.5-1.4.9-2.6,2.1-3.5,3.5-.9-1.4-2.1-2.6-3.5-3.5,1.4-.9,2.6-2.1,3.5-3.5Z"/></g><g id="Value"><path class="cls-2" d="m15.21,14.75h-1.26v1.5h-1.46v-1.5h-3.5l-.39-.76c.57-.92,1.12-1.86,1.65-2.83.54-.97,1.05-1.97,1.54-3h1.4l.21.34c-.37.69-.72,1.32-1.03,1.87-.31.56-.61,1.06-.89,1.5-.28.44-.55.83-.82,1.18-.27.34-.54.65-.82.91l2.67-.12.15-1.88,1.29-.07v1.88l1.26-.05v1.02Z"/><path class="cls-2" d="m64.78,95.75h1.26v-1.5h1.46v1.5h3.5l.39.76c-.57.91-1.12,1.86-1.65,2.83-.54.97-1.05,1.97-1.54,3h-1.4l-.21-.34c.37-.69.72-1.32,1.03-1.88.31-.56.61-1.06.89-1.5.28-.44.55-.84.82-1.18.27-.34.54-.65.82-.91l-2.67.12-.15,1.88-1.29.07v-1.88l-1.26.05v-1.02Z"/></g></g><g id="Value-2"><path class="cls-2" d="m26,29.25c-1.8-2.81-4.19-5.2-7-7,2.81-1.8,5.2-4.19,7-7,1.8,2.81,4.19,5.2,7,7-2.81,1.8-5.2,4.19-7,7Z"/><path class="cls-2" d="m54,29.25c-1.8-2.81-4.19-5.2-7-7,2.81-1.8,5.2-4.19,7-7,1.8,2.81,4.19,5.2,7,7-2.81,1.8-5.2,4.19-7,7Z"/><path class="cls-2" d="m33.7,88.25c-3.09,1.98-5.72,4.61-7.7,7.7-1.98-3.09-4.61-5.72-7.7-7.7,3.09-1.98,5.72-4.61,7.7-7.7,1.98,3.09,4.61,5.72,7.7,7.7Z"/><path class="cls-2" d="m61,88.25c-2.81,1.8-5.2,4.19-7,7-1.8-2.81-4.19-5.2-7-7,2.81-1.8,5.2-4.19,7-7,1.8,2.81,4.19,5.2,7,7Z"/></g></g></g></svg>