<?xml version="1.0" encoding="UTF-8"?><svg id="Grouped" xmlns="http://www.w3.org/2000/svg" viewBox="0 0 80 112"><defs><style>.cls-1{fill:#fff;}.cls-2{fill:#c93112;}</style></defs><g id="_4"><rect id="BG-2" class="cls-1" x="0" width="80" height="112" rx="5" ry="5"/><g id="Suit"><g id="Suit-2"><g id="Suit-3"><path class="cls-2" d="m13.63,21c-.7,0-1.3.39-1.62.96-.32-.57-.93-.96-1.62-.96-1.04,0-1.87.84-1.87,1.88,0,2.07,2.95,3.18,3.5,4.5.55-1.32,3.5-2.43,3.5-4.5,0-1.04-.84-1.88-1.87-1.88Z"/><path class="cls-2" d="m66.37,90.5c.7,0,1.3-.39,1.62-.96.32.57.93.96,1.62.96,1.04,0,1.87-.84,1.87-1.88,0-2.07-2.95-3.18-3.5-4.5-.55,1.32-3.5,2.43-3.5,4.5,0,1.04.84,1.88,1.87,1.88Z"/></g><g id="Value"><path class="cls-2" d="m15.21,15.25h-1.26v1.5h-1.46v-1.5h-3.5l-.39-.76c.57-.91,1.12-1.86,1.65-2.83.54-.97,1.05-1.97,1.54-3h1.4l.21.34c-.37.69-.72,1.32-1.03,1.87-.31.56-.61,1.06-.89,1.5-.28.44-.55.84-.82,1.18-.27.34-.54.65-.82.91l2.67-.12.15-1.88,1.29-.07v1.88l1.26-.05v1.02Z"/><path class="cls-2" d="m64.78,96.25h1.26v-1.5h1.46v1.5h3.5l.39.76c-.57.91-1.12,1.86-1.65,2.83-.54.97-1.05,1.97-1.54,3h-1.4l-.21-.34c.37-.69.72-1.32,1.03-1.87.31-.56.61-1.06.89-1.5.28-.44.55-.84.82-1.18.27-.34.54-.65.82-.91l-2.67.12-.15,1.88-1.29.07v-1.88l-1.26.05v-1.02Z"/></g></g><g id="Value-2"><path class="cls-2" d="m29.25,17.25c-1.4,0-2.61.78-3.25,1.91-.64-1.14-1.85-1.91-3.25-1.91-2.07,0-3.75,1.68-3.75,3.75,0,4.14,5.9,6.36,7,9,1.1-2.64,7-4.86,7-9,0-2.07-1.68-3.75-3.75-3.75Z"/><path class="cls-2" d="m57.25,17.25c-1.4,0-2.61.78-3.25,1.91-.64-1.14-1.85-1.91-3.25-1.91-2.07,0-3.75,1.68-3.75,3.75,0,4.14,5.9,6.36,7,9,1.1-2.64,7-4.86,7-9,0-2.07-1.68-3.75-3.75-3.75Z"/><path class="cls-2" d="m29.58,94.8c-1.54,0-2.87-.85-3.57-2.1-.71,1.25-2.04,2.1-3.57,2.1-2.28,0-4.12-1.85-4.12-4.12,0-4.56,6.49-7,7.7-9.9,1.21,2.9,7.7,5.35,7.7,9.9,0,2.28-1.85,4.12-4.12,4.12Z"/><path class="cls-2" d="m57.25,94.25c-1.4,0-2.61-.78-3.25-1.91-.64,1.14-1.85,1.91-3.25,1.91-2.07,0-3.75-1.68-3.75-3.75,0-4.14,5.9-6.36,7-9,1.1,2.64,7,4.86,7,9,0,2.07-1.68,3.75-3.75,3.75Z"/></g></g></g></svg>