<?xml version="1.0" encoding="UTF-8"?><svg id="Grouped" xmlns="http://www.w3.org/2000/svg" viewBox="0 0 80 112"><defs><style>.cls-1{fill:#fff;}.cls-2{fill:#1f1f1f;}</style></defs><g id="_4"><rect id="BG-2" class="cls-1" x="0" width="80" height="112" rx="5" ry="5"/><g id="Suit"><g id="Suit-2"><g id="Suit-3"><path class="cls-2" d="m12,19.38c-.54,1.38-3.25,1.88-3.25,4,0,.97.78,1.75,1.75,1.75.51,0,.96-.22,1.28-.57-.06.59-.25,1.29-.78,1.82v.25h2v-.25c-.53-.53-.72-1.23-.78-1.82.32.35.77.57,1.28.57.97,0,1.75-.78,1.75-1.75,0-2.12-2.71-2.62-3.25-4Z"/><path class="cls-2" d="m68,91.62c.54-1.38,3.25-1.88,3.25-4,0-.97-.78-1.75-1.75-1.75-.51,0-.96.22-1.28.57.06-.59.25-1.29.78-1.82v-.25h-2v.25c.53.53.72,1.23.78,1.82-.32-.35-.77-.57-1.28-.57-.97,0-1.75.78-1.75,1.75,0,2.12,2.71,2.62,3.25,4Z"/></g><g id="Value"><path class="cls-2" d="m15.21,15h-1.26v1.5h-1.46v-1.5h-3.5l-.39-.76c.57-.92,1.12-1.86,1.65-2.83.54-.97,1.05-1.97,1.54-3h1.4l.21.34c-.37.69-.72,1.32-1.03,1.87-.31.56-.61,1.06-.89,1.5-.28.44-.55.83-.82,1.18-.27.34-.54.65-.82.91l2.67-.12.15-1.88,1.29-.07v1.88l1.26-.05v1.02Z"/><path class="cls-2" d="m64.78,96h1.26v-1.5h1.46v1.5h3.5l.39.76c-.57.92-1.12,1.86-1.65,2.83-.54.97-1.05,1.97-1.54,3h-1.4l-.21-.34c.37-.69.72-1.32,1.03-1.87.31-.56.61-1.06.89-1.5.28-.44.55-.83.82-1.18.27-.34.54-.65.82-.91l-2.67.12-.15,1.88-1.29.07v-1.88l-1.26.05v-1.02Z"/></g></g><g id="Value-2"><path class="cls-2" d="m26,14.25c-1.08,2.76-6.5,3.76-6.5,8,0,1.93,1.57,3.5,3.5,3.5,1.02,0,1.93-.44,2.57-1.14-.12,1.18-.51,2.58-1.56,3.64v.5h4v-.5c-1.06-1.06-1.45-2.45-1.57-3.63.64.69,1.55,1.13,2.56,1.13,1.93,0,3.5-1.57,3.5-3.5,0-4.24-5.42-5.24-6.5-8Z"/><path class="cls-2" d="m54,14.25c-1.08,2.76-6.5,3.76-6.5,8,0,1.93,1.57,3.5,3.5,3.5,1.02,0,1.93-.44,2.57-1.14-.12,1.18-.51,2.58-1.56,3.64v.5h4v-.5c-1.06-1.06-1.45-2.45-1.57-3.63.64.69,1.55,1.13,2.56,1.13,1.93,0,3.5-1.57,3.5-3.5,0-4.24-5.42-5.24-6.5-8Z"/><path class="cls-2" d="m26,97.58c-1.19-3.03-7.15-4.14-7.15-8.8,0-2.13,1.72-3.85,3.85-3.85,1.12,0,2.12.49,2.82,1.25-.13-1.3-.56-2.84-1.72-4v-.55h4.4v.55c-1.16,1.16-1.59,2.7-1.72,4,.7-.76,1.7-1.25,2.82-1.25,2.13,0,3.85,1.72,3.85,3.85,0,4.66-5.96,5.77-7.15,8.8Z"/><path class="cls-2" d="m54,96.75c-1.08-2.76-6.5-3.76-6.5-8,0-1.93,1.57-3.5,3.5-3.5,1.02,0,1.93.44,2.57,1.14-.12-1.18-.51-2.58-1.56-3.64v-.5h4v.5c-1.06,1.06-1.45,2.45-1.57,3.63.64-.69,1.55-1.13,2.56-1.13,1.93,0,3.5,1.57,3.5,3.5,0,4.24-5.42,5.24-6.5,8Z"/></g></g></g></svg>