<?xml version="1.0" encoding="UTF-8"?><svg id="Grouped" xmlns="http://www.w3.org/2000/svg" viewBox="0 0 80 112"><defs><style>.cls-1{fill:#fff;}.cls-2{fill:#c93112;}</style></defs><g id="_5"><rect id="BG-2" class="cls-1" x="0" y="0" width="80" height="112" rx="5" ry="5"/><g id="Suit"><g id="Suit-2"><g id="Suit-3"><path class="cls-2" d="m12,26.75c-.9-1.4-2.1-2.6-3.5-3.5,1.4-.9,2.6-2.1,3.5-3.5.9,1.4,2.1,2.6,3.5,3.5-1.4.9-2.6,2.1-3.5,3.5Z"/><path class="cls-2" d="m68,83.75c.9,1.4,2.1,2.6,3.5,3.5-1.4.9-2.6,2.1-3.5,3.5-.9-1.4-2.1-2.6-3.5-3.5,1.4-.9,2.6-2.1,3.5-3.5Z"/></g><g id="Value"><path class="cls-2" d="m9.48,14.76c.24.19.51.35.82.48.31.13.64.2,1,.2.53,0,.96-.15,1.3-.46.34-.31.51-.74.51-1.29,0-.49-.14-.88-.42-1.18-.28-.3-.67-.45-1.17-.45-.22,0-.44.03-.67.1-.22.07-.45.16-.68.28l-.55-.37.26-3.82h4.5l-.14,1.16h-3.41l-.22,2.15c.24-.19.51-.31.79-.38.28-.07.55-.1.82-.1.79,0,1.42.22,1.88.67.46.45.7,1.04.7,1.79,0,.43-.08.82-.24,1.18-.16.36-.37.66-.65.91-.28.25-.61.44-1,.58-.39.14-.81.21-1.26.21-.56,0-1.07-.1-1.52-.3-.45-.2-.81-.46-1.07-.77l.42-.58Z"/><path class="cls-2" d="m70.52,95.74c-.24-.19-.51-.35-.82-.48-.31-.13-.64-.2-1-.2-.53,0-.96.15-1.3.46-.34.31-.51.74-.51,1.29,0,.48.14.88.42,1.18.28.3.67.46,1.17.46.22,0,.44-.03.67-.1.22-.07.45-.16.68-.28l.55.37-.26,3.82h-4.5l.14-1.16h3.41l.22-2.15c-.24.19-.51.31-.79.38-.28.07-.55.1-.82.1-.79,0-1.42-.22-1.88-.67-.46-.45-.7-1.04-.7-1.79,0-.43.08-.82.24-1.18.16-.36.37-.66.65-.91s.61-.44,1-.58c.39-.14.81-.21,1.26-.21.56,0,1.07.1,1.52.3.45.2.81.46,1.07.77l-.42.58Z"/></g></g><g id="Value-2"><path class="cls-2" d="m26,29.25c-1.8-2.81-4.19-5.2-7-7,2.81-1.8,5.2-4.19,7-7,1.8,2.81,4.19,5.2,7,7-2.81,1.8-5.2,4.19-7,7Z"/><path class="cls-2" d="m54,29.25c-1.8-2.81-4.19-5.2-7-7,2.81-1.8,5.2-4.19,7-7,1.8,2.81,4.19,5.2,7,7-2.81,1.8-5.2,4.19-7,7Z"/><path class="cls-2" d="m40,61.75c-1.8-2.81-4.19-5.2-7-7,2.81-1.8,5.2-4.19,7-7,1.8,2.81,4.19,5.2,7,7-2.81,1.8-5.2,4.19-7,7Z"/><path class="cls-2" d="m33,88.25c-2.81,1.8-5.2,4.19-7,7-1.8-2.81-4.19-5.2-7-7,2.81-1.8,5.2-4.19,7-7,1.8,2.81,4.19,5.2,7,7Z"/><path class="cls-2" d="m61,88.25c-2.81,1.8-5.2,4.19-7,7-1.8-2.81-4.19-5.2-7-7,2.81-1.8,5.2-4.19,7-7,1.8,2.81,4.19,5.2,7,7Z"/></g></g></g></svg>