<?xml version="1.0" encoding="UTF-8"?><svg id="Grouped" xmlns="http://www.w3.org/2000/svg" viewBox="0 0 80 112"><defs><style>.cls-1{fill:#fff;}.cls-2{fill:#1f1f1f;}</style></defs><g id="_5"><rect id="BG-2" class="cls-1" x="0" width="80" height="112" rx="5" ry="5"/><g id="Suit"><g id="Suit-2"><g id="Suit-3"><path class="cls-2" d="m12,19.38c-.54,1.38-3.25,1.88-3.25,4,0,.97.78,1.75,1.75,1.75.51,0,.96-.22,1.28-.57-.06.59-.25,1.29-.78,1.82v.25h2v-.25c-.53-.53-.72-1.23-.78-1.82.32.35.77.57,1.28.57.97,0,1.75-.78,1.75-1.75,0-2.12-2.71-2.62-3.25-4Z"/><path class="cls-2" d="m68,91.62c.54-1.38,3.25-1.88,3.25-4,0-.97-.78-1.75-1.75-1.75-.51,0-.96.22-1.28.57.06-.59.25-1.29.78-1.82v-.25h-2v.25c.53.53.72,1.23.78,1.82-.32-.35-.77-.57-1.28-.57-.97,0-1.75.78-1.75,1.75,0,2.12,2.71,2.62,3.25,4Z"/></g><g id="Value"><path class="cls-2" d="m9.48,15.01c.24.19.51.35.82.48.31.13.64.2,1,.2.53,0,.96-.15,1.3-.46.34-.31.51-.74.51-1.29,0-.49-.14-.88-.42-1.18-.28-.3-.67-.45-1.17-.45-.22,0-.44.03-.67.1-.22.07-.45.16-.68.28l-.55-.37.26-3.82h4.5l-.14,1.16h-3.41l-.22,2.15c.24-.19.51-.31.79-.38.28-.07.55-.1.82-.1.79,0,1.42.22,1.88.67.46.45.7,1.04.7,1.79,0,.43-.08.82-.24,1.18-.16.36-.37.66-.65.91-.28.25-.61.44-1,.58-.39.14-.81.21-1.26.21-.56,0-1.07-.1-1.52-.3-.45-.2-.81-.46-1.07-.77l.42-.58Z"/><path class="cls-2" d="m70.52,95.99c-.24-.19-.51-.35-.82-.48-.31-.13-.64-.2-1-.2-.53,0-.96.15-1.3.46-.34.31-.51.74-.51,1.29,0,.49.14.88.42,1.18.28.3.67.45,1.17.45.22,0,.44-.03.67-.1.22-.07.45-.16.68-.28l.55.37-.26,3.82h-4.5l.14-1.16h3.41l.22-2.15c-.24.19-.51.31-.79.38-.28.07-.55.1-.82.1-.79,0-1.42-.22-1.88-.67-.46-.45-.7-1.04-.7-1.79,0-.43.08-.82.24-1.18.16-.36.37-.66.65-.91.28-.25.61-.44,1-.58.39-.14.81-.21,1.26-.21.56,0,1.07.1,1.52.3.45.2.81.46,1.07.77l-.42.58Z"/></g></g><g id="Value-2"><path class="cls-2" d="m26,14.25c-1.08,2.76-6.5,3.76-6.5,8,0,1.93,1.57,3.5,3.5,3.5,1.02,0,1.93-.44,2.57-1.14-.12,1.18-.51,2.58-1.57,3.64v.5h4v-.5c-1.06-1.06-1.45-2.45-1.57-3.63.64.69,1.55,1.13,2.56,1.13,1.93,0,3.5-1.57,3.5-3.5,0-4.24-5.42-5.24-6.5-8Z"/><path class="cls-2" d="m54,14.25c-1.08,2.76-6.5,3.76-6.5,8,0,1.93,1.57,3.5,3.5,3.5,1.02,0,1.93-.44,2.57-1.14-.12,1.18-.51,2.58-1.57,3.64v.5h4v-.5c-1.06-1.06-1.45-2.45-1.57-3.63.64.69,1.55,1.13,2.56,1.13,1.93,0,3.5-1.57,3.5-3.5,0-4.24-5.42-5.24-6.5-8Z"/><path class="cls-2" d="m40,46.75c-1.08,2.76-6.5,3.76-6.5,8,0,1.93,1.57,3.5,3.5,3.5,1.02,0,1.93-.44,2.57-1.14-.12,1.18-.51,2.58-1.57,3.64v.5h4v-.5c-1.06-1.06-1.45-2.45-1.57-3.63.64.69,1.55,1.13,2.56,1.13,1.93,0,3.5-1.57,3.5-3.5,0-4.24-5.42-5.24-6.5-8Z"/><path class="cls-2" d="m26,96.75c-1.08-2.76-6.5-3.76-6.5-8,0-1.93,1.57-3.5,3.5-3.5,1.02,0,1.93.44,2.57,1.14-.12-1.18-.51-2.58-1.57-3.64v-.5h4v.5c-1.06,1.06-1.45,2.45-1.57,3.63.64-.69,1.55-1.13,2.56-1.13,1.93,0,3.5,1.57,3.5,3.5,0,4.24-5.42,5.24-6.5,8Z"/><path class="cls-2" d="m54,96.75c-1.08-2.76-6.5-3.76-6.5-8,0-1.93,1.57-3.5,3.5-3.5,1.02,0,1.93.44,2.57,1.14-.12-1.18-.51-2.58-1.57-3.64v-.5h4v.5c-1.06,1.06-1.45,2.45-1.57,3.63.64-.69,1.55-1.13,2.56-1.13,1.93,0,3.5,1.57,3.5,3.5,0,4.24-5.42,5.24-6.5,8Z"/></g></g></g></svg>