<?xml version="1.0" encoding="UTF-8"?><svg id="Grouped" xmlns="http://www.w3.org/2000/svg" viewBox="0 0 80 112"><defs><style>.cls-1{fill:#fff;}.cls-2{fill:#c93112;}</style></defs><g id="_6"><rect id="BG-2" class="cls-1" x="0" y="-.16" width="80" height="112" rx="5" ry="5"/><g id="Suit"><g id="Suit-2"><g id="Suit-3"><path class="cls-2" d="m12,26.59c-.9-1.4-2.1-2.6-3.5-3.5,1.4-.9,2.6-2.1,3.5-3.5.9,1.4,2.1,2.6,3.5,3.5-1.4.9-2.6,2.1-3.5,3.5Z"/><path class="cls-2" d="m68,83.59c.9,1.4,2.1,2.6,3.5,3.5-1.4.9-2.6,2.1-3.5,3.5-.9-1.4-2.1-2.6-3.5-3.5,1.4-.9,2.6-2.1,3.5-3.5Z"/></g><g id="Value"><path class="cls-2" d="m15.09,13.38c0,.41-.07.79-.21,1.14-.14.35-.34.66-.6.91-.26.26-.57.46-.94.6-.37.15-.78.22-1.24.22s-.9-.08-1.28-.24c-.39-.16-.71-.4-.98-.71s-.48-.7-.62-1.16c-.15-.46-.22-.99-.22-1.58,0-.68.09-1.3.28-1.88.19-.57.45-1.06.79-1.47.34-.41.75-.72,1.23-.95.48-.23,1.01-.34,1.59-.34.33,0,.65.04.95.11.31.07.58.18.81.33l-.24.69c-.21-.08-.4-.14-.6-.18-.19-.04-.37-.05-.54-.05-.71,0-1.3.25-1.75.76-.45.51-.73,1.18-.84,2.03.22-.23.5-.41.86-.54.36-.13.73-.19,1.11-.19s.71.06,1.01.19c.3.12.55.3.76.52.21.22.37.48.48.79.11.31.17.64.17,1Zm-2.9,2.1c.43,0,.76-.17.99-.51.23-.34.35-.78.35-1.33s-.13-1.01-.39-1.33c-.26-.32-.61-.48-1.05-.48-.22,0-.47.04-.74.11-.27.07-.5.18-.69.32v.53c0,.4.03.77.1,1.11.07.33.16.62.29.85.13.23.29.41.48.54.19.13.41.19.66.19Z"/><path class="cls-2" d="m64.9,96.8c0-.41.07-.79.21-1.14.14-.35.34-.65.6-.91.26-.25.57-.45.94-.6.37-.14.78-.22,1.24-.22s.9.08,1.28.25c.39.16.71.4.98.71s.48.7.62,1.16.22.99.22,1.58c0,.68-.09,1.3-.28,1.88-.19.57-.45,1.06-.79,1.47-.34.41-.75.72-1.23.95-.48.23-1.01.34-1.59.34-.33,0-.65-.04-.95-.11s-.58-.18-.81-.33l.24-.69c.21.08.4.14.6.18.19.04.37.05.54.05.71,0,1.3-.25,1.75-.76.45-.51.73-1.18.84-2.03-.22.23-.5.41-.86.54-.36.13-.73.19-1.11.19s-.71-.06-1.01-.19-.55-.3-.76-.52c-.21-.22-.37-.48-.48-.79-.11-.3-.17-.64-.17-1Zm2.9-2.1c-.43,0-.76.17-.99.51-.23.34-.35.78-.35,1.33s.13,1.01.39,1.33c.26.32.61.48,1.05.48.22,0,.47-.04.74-.11.27-.07.5-.18.69-.32v-.53c0-.4-.03-.77-.1-1.11-.07-.33-.16-.62-.29-.85-.13-.23-.29-.41-.48-.54-.19-.13-.41-.19-.66-.19Z"/></g></g><g id="Value-2"><path class="cls-2" d="m26,29.09c-1.8-2.81-4.19-5.2-7-7,2.81-1.8,5.2-4.19,7-7,1.8,2.81,4.19,5.2,7,7-2.81,1.8-5.2,4.19-7,7Z"/><path class="cls-2" d="m54,29.09c-1.8-2.81-4.19-5.2-7-7,2.81-1.8,5.2-4.19,7-7,1.8,2.81,4.19,5.2,7,7-2.81,1.8-5.2,4.19-7,7Z"/><path class="cls-2" d="m54,61.59c-1.8-2.81-4.19-5.2-7-7,2.81-1.8,5.2-4.19,7-7,1.8,2.81,4.19,5.2,7,7-2.81,1.8-5.2,4.19-7,7Z"/><path class="cls-2" d="m26,61.59c-1.8-2.81-4.19-5.2-7-7,2.81-1.8,5.2-4.19,7-7,1.8,2.81,4.19,5.2,7,7-2.81,1.8-5.2,4.19-7,7Z"/><path class="cls-2" d="m33,88.09c-2.81,1.8-5.2,4.19-7,7-1.8-2.81-4.19-5.2-7-7,2.81-1.8,5.2-4.19,7-7,1.8,2.81,4.19,5.2,7,7Z"/><path class="cls-2" d="m61,88.09c-2.81,1.8-5.2,4.19-7,7-1.8-2.81-4.19-5.2-7-7,2.81-1.8,5.2-4.19,7-7,1.8,2.81,4.19,5.2,7,7Z"/></g></g></g></svg>