<?xml version="1.0" encoding="UTF-8"?><svg id="Grouped" xmlns="http://www.w3.org/2000/svg" viewBox="0 0 80 112"><defs><style>.cls-1{fill:#fff;}.cls-2{fill:#c93112;}</style></defs><g id="_6"><rect id="BG-2" class="cls-1" x="0" width="80" height="112" rx="5" ry="5"/><g id="Suit"><g id="Suit-2"><g id="Suit-3"><path class="cls-2" d="m13.62,21c-.7,0-1.3.39-1.62.96-.32-.57-.93-.96-1.62-.96-1.04,0-1.87.84-1.87,1.88,0,2.07,2.95,3.18,3.5,4.5.55-1.32,3.5-2.43,3.5-4.5,0-1.04-.84-1.88-1.87-1.88Z"/><path class="cls-2" d="m66.37,90.5c.7,0,1.3-.39,1.62-.96.32.57.93.96,1.62.96,1.04,0,1.87-.84,1.87-1.88,0-2.07-2.95-3.18-3.5-4.5-.55,1.32-3.5,2.43-3.5,4.5,0,1.04.84,1.88,1.87,1.88Z"/></g><g id="Value"><path class="cls-2" d="m15.09,14.04c0,.41-.07.79-.21,1.14-.14.35-.34.66-.6.91-.26.26-.57.46-.94.6-.37.15-.78.22-1.24.22s-.9-.08-1.28-.24c-.39-.16-.71-.4-.98-.71s-.48-.7-.62-1.16c-.15-.46-.22-.99-.22-1.58,0-.68.09-1.3.28-1.88.19-.57.45-1.06.79-1.47.34-.41.75-.72,1.23-.95.48-.23,1.01-.34,1.59-.34.33,0,.65.04.95.11.31.07.58.18.81.33l-.24.69c-.21-.08-.4-.14-.6-.18-.19-.04-.37-.05-.54-.05-.71,0-1.3.25-1.75.76-.45.51-.73,1.18-.84,2.03.22-.23.5-.41.86-.54.36-.13.73-.19,1.11-.19s.71.06,1.01.19c.3.12.55.3.76.52.21.22.37.48.48.79.11.31.17.64.17,1Zm-2.9,2.1c.43,0,.76-.17.99-.51.23-.34.35-.78.35-1.33s-.13-1.01-.39-1.33c-.26-.32-.61-.48-1.05-.48-.22,0-.47.04-.74.11-.27.07-.5.18-.69.32v.53c0,.4.03.77.1,1.11.07.33.16.62.29.85.13.23.29.41.48.54.19.13.41.19.66.19Z"/><path class="cls-2" d="m64.9,97.46c0-.41.07-.79.21-1.14.14-.35.34-.66.6-.91.26-.26.57-.46.94-.6.37-.15.78-.22,1.24-.22s.9.08,1.28.24c.39.16.71.4.98.71s.48.7.62,1.16c.15.46.22.99.22,1.58,0,.68-.09,1.3-.28,1.88-.19.57-.45,1.06-.79,1.47-.34.41-.75.72-1.23.95-.48.23-1.01.34-1.59.34-.33,0-.65-.04-.95-.11-.31-.07-.58-.18-.81-.33l.24-.69c.21.08.4.14.6.18.19.04.37.05.54.05.71,0,1.3-.25,1.75-.76.45-.51.73-1.18.84-2.03-.22.23-.5.41-.86.54-.36.13-.73.19-1.11.19s-.71-.06-1.01-.19c-.3-.12-.55-.3-.76-.52-.21-.22-.37-.48-.48-.79-.11-.31-.17-.64-.17-1Zm2.9-2.1c-.43,0-.76.17-.99.51-.23.34-.35.78-.35,1.33s.13,1.01.39,1.33c.26.32.61.48,1.05.48.22,0,.47-.04.74-.11.27-.07.5-.18.69-.32v-.53c0-.4-.03-.77-.1-1.11-.07-.33-.16-.62-.29-.85-.13-.23-.29-.41-.48-.54-.19-.13-.41-.19-.66-.19Z"/></g></g><g id="Value-2"><path class="cls-2" d="m29.25,17.25c-1.4,0-2.61.78-3.25,1.91-.64-1.14-1.85-1.91-3.25-1.91-2.07,0-3.75,1.68-3.75,3.75,0,4.14,5.9,6.36,7,9,1.1-2.64,7-4.86,7-9,0-2.07-1.68-3.75-3.75-3.75Z"/><path class="cls-2" d="m57.25,17.25c-1.4,0-2.61.78-3.25,1.91-.64-1.14-1.85-1.91-3.25-1.91-2.07,0-3.75,1.68-3.75,3.75,0,4.14,5.9,6.36,7,9,1.1-2.64,7-4.86,7-9,0-2.07-1.68-3.75-3.75-3.75Z"/><path class="cls-2" d="m57.25,49.75c-1.4,0-2.61.78-3.25,1.91-.64-1.14-1.85-1.91-3.25-1.91-2.07,0-3.75,1.68-3.75,3.75,0,4.14,5.9,6.36,7,9,1.1-2.64,7-4.86,7-9,0-2.07-1.68-3.75-3.75-3.75Z"/><path class="cls-2" d="m29.25,49.75c-1.4,0-2.61.78-3.25,1.91-.64-1.14-1.85-1.91-3.25-1.91-2.07,0-3.75,1.68-3.75,3.75,0,4.14,5.9,6.36,7,9,1.1-2.64,7-4.86,7-9,0-2.07-1.68-3.75-3.75-3.75Z"/><path class="cls-2" d="m29.25,94.25c-1.4,0-2.61-.78-3.25-1.91-.64,1.14-1.85,1.91-3.25,1.91-2.07,0-3.75-1.68-3.75-3.75,0-4.14,5.9-6.36,7-9,1.1,2.64,7,4.86,7,9,0,2.07-1.68,3.75-3.75,3.75Z"/><path class="cls-2" d="m57.25,94.25c-1.4,0-2.61-.78-3.25-1.91-.64,1.14-1.85,1.91-3.25,1.91-2.07,0-3.75-1.68-3.75-3.75,0-4.14,5.9-6.36,7-9,1.1,2.64,7,4.86,7,9,0,2.07-1.68,3.75-3.75,3.75Z"/></g></g></g></svg>