<?xml version="1.0" encoding="UTF-8"?><svg id="Grouped" xmlns="http://www.w3.org/2000/svg" viewBox="0 0 80 112"><defs><style>.cls-1{fill:#fff;}.cls-2{fill:#c93112;}</style></defs><g id="_7"><rect id="BG-2" class="cls-1" x="0" y="0" width="80" height="112" rx="5" ry="5"/><g id="Suit"><g id="Suit-2"><g id="Suit-3"><path class="cls-2" d="m12,26.75c-.9-1.4-2.1-2.6-3.5-3.5,1.4-.9,2.6-2.1,3.5-3.5.9,1.4,2.1,2.6,3.5,3.5-1.4.9-2.6,2.1-3.5,3.5Z"/><path class="cls-2" d="m68,83.75c.9,1.4,2.1,2.6,3.5,3.5-1.4.9-2.6,2.1-3.5,3.5-.9-1.4-2.1-2.6-3.5-3.5,1.4-.9,2.6-2.1,3.5-3.5Z"/></g><g id="Value"><path class="cls-2" d="m14.04,9.27h-1.73c-.29,0-.56,0-.8.03-.24.02-.44.05-.58.08-.11.02-.19.06-.26.1-.06.04-.11.12-.15.23l-.42,1.29h-.82c-.03-.46-.03-.93,0-1.42.03-.48.08-.93.15-1.34h5.28l.38.85c-.71.92-1.32,1.96-1.81,3.12-.49,1.16-.79,2.51-.9,4.04h-1.42l-.24-.29c.06-.63.19-1.26.38-1.89.2-.63.44-1.23.74-1.8.29-.57.63-1.12,1.01-1.63.38-.51.77-.97,1.19-1.37Z"/><path class="cls-2" d="m65.96,101.23h1.73c.29,0,.56,0,.8-.03.24-.02.44-.05.59-.08.11-.02.19-.05.25-.1.06-.04.11-.12.15-.23l.42-1.29h.82c.03.46.03.93,0,1.42-.03.48-.08.93-.15,1.34h-5.28l-.39-.85c.71-.92,1.32-1.96,1.81-3.12.49-1.16.79-2.51.9-4.04h1.42l.24.29c-.06.63-.19,1.26-.38,1.89-.2.63-.44,1.23-.74,1.8-.29.57-.63,1.12-1.01,1.63-.38.51-.77.97-1.19,1.37Z"/></g></g><g id="Value-2"><path class="cls-2" d="m26,29.25c-1.8-2.81-4.19-5.2-7-7,2.81-1.8,5.2-4.19,7-7,1.8,2.81,4.19,5.2,7,7-2.81,1.8-5.2,4.19-7,7Z"/><path class="cls-2" d="m40,45.75c-1.8-2.81-4.19-5.2-7-7,2.81-1.8,5.2-4.19,7-7,1.8,2.81,4.19,5.2,7,7-2.81,1.8-5.2,4.19-7,7Z"/><path class="cls-2" d="m54,29.25c-1.8-2.81-4.19-5.2-7-7,2.81-1.8,5.2-4.19,7-7,1.8,2.81,4.19,5.2,7,7-2.81,1.8-5.2,4.19-7,7Z"/><path class="cls-2" d="m54,61.75c-1.8-2.81-4.19-5.2-7-7,2.81-1.8,5.2-4.19,7-7,1.8,2.81,4.19,5.2,7,7-2.81,1.8-5.2,4.19-7,7Z"/><path class="cls-2" d="m26,61.75c-1.8-2.81-4.19-5.2-7-7,2.81-1.8,5.2-4.19,7-7,1.8,2.81,4.19,5.2,7,7-2.81,1.8-5.2,4.19-7,7Z"/><path class="cls-2" d="m33,88.25c-2.81,1.8-5.2,4.19-7,7-1.8-2.81-4.19-5.2-7-7,2.81-1.8,5.2-4.19,7-7,1.8,2.81,4.19,5.2,7,7Z"/><path class="cls-2" d="m61,88.25c-2.81,1.8-5.2,4.19-7,7-1.8-2.81-4.19-5.2-7-7,2.81-1.8,5.2-4.19,7-7,1.8,2.81,4.19,5.2,7,7Z"/></g></g></g></svg>