<?xml version="1.0" encoding="UTF-8"?><svg id="Grouped" xmlns="http://www.w3.org/2000/svg" viewBox="0 0 80 112"><defs><style>.cls-1{fill:#fff;}.cls-2{fill:#c93112;}</style></defs><g id="_7"><rect id="BG-2" class="cls-1" x="0" width="80" height="112" rx="5" ry="5"/><g id="Suit"><g id="Suit-2"><g id="Suit-3"><path class="cls-2" d="m13.62,21c-.7,0-1.3.39-1.62.96-.32-.57-.93-.96-1.62-.96-1.04,0-1.87.84-1.87,1.88,0,2.07,2.95,3.18,3.5,4.5.55-1.32,3.5-2.43,3.5-4.5,0-1.04-.84-1.88-1.87-1.88Z"/><path class="cls-2" d="m66.37,90.5c.7,0,1.3-.39,1.62-.96.32.57.93.96,1.62.96,1.04,0,1.87-.84,1.87-1.88,0-2.07-2.95-3.18-3.5-4.5-.55,1.32-3.5,2.43-3.5,4.5,0,1.04.84,1.88,1.87,1.88Z"/></g><g id="Value"><path class="cls-2" d="m14.04,9.77h-1.73c-.29,0-.56,0-.8.03-.24.02-.44.05-.58.08-.11.02-.19.06-.26.1-.06.04-.11.12-.15.23l-.42,1.29h-.82c-.03-.46-.03-.93,0-1.42.03-.48.08-.93.15-1.34h5.28l.38.85c-.71.92-1.32,1.96-1.81,3.12-.49,1.16-.79,2.51-.9,4.04h-1.42l-.24-.29c.06-.63.19-1.26.38-1.89.2-.63.44-1.23.74-1.8.29-.57.63-1.12,1.01-1.63.38-.51.77-.97,1.19-1.37Z"/><path class="cls-2" d="m65.96,101.73h1.73c.29,0,.56,0,.8-.03.24-.02.44-.05.59-.08.11-.02.19-.06.25-.1.06-.04.11-.12.15-.23l.42-1.29h.82c.03.46.03.93,0,1.42-.03.48-.08.93-.15,1.34h-5.28l-.39-.85c.71-.92,1.32-1.96,1.81-3.12.49-1.16.79-2.51.9-4.04h1.42l.24.29c-.06.63-.19,1.26-.38,1.89-.2.63-.44,1.23-.74,1.8-.29.57-.63,1.12-1.01,1.63-.38.51-.77.97-1.19,1.37Z"/></g></g><g id="Value-2"><path class="cls-2" d="m29.25,17.25c-1.4,0-2.61.78-3.25,1.91-.64-1.14-1.85-1.91-3.25-1.91-2.07,0-3.75,1.68-3.75,3.75,0,4.14,5.9,6.36,7,9,1.1-2.64,7-4.86,7-9,0-2.07-1.68-3.75-3.75-3.75Z"/><path class="cls-2" d="m43.25,33.75c-1.4,0-2.61.78-3.25,1.91-.64-1.14-1.85-1.91-3.25-1.91-2.07,0-3.75,1.68-3.75,3.75,0,4.14,5.9,6.36,7,9,1.1-2.64,7-4.86,7-9,0-2.07-1.68-3.75-3.75-3.75Z"/><path class="cls-2" d="m57.25,17.25c-1.4,0-2.61.78-3.25,1.91-.64-1.14-1.85-1.91-3.25-1.91-2.07,0-3.75,1.68-3.75,3.75,0,4.14,5.9,6.36,7,9,1.1-2.64,7-4.86,7-9,0-2.07-1.68-3.75-3.75-3.75Z"/><path class="cls-2" d="m57.25,49.75c-1.4,0-2.61.78-3.25,1.91-.64-1.14-1.85-1.91-3.25-1.91-2.07,0-3.75,1.68-3.75,3.75,0,4.14,5.9,6.36,7,9,1.1-2.64,7-4.86,7-9,0-2.07-1.68-3.75-3.75-3.75Z"/><path class="cls-2" d="m29.25,49.75c-1.4,0-2.61.78-3.25,1.91-.64-1.14-1.85-1.91-3.25-1.91-2.07,0-3.75,1.68-3.75,3.75,0,4.14,5.9,6.36,7,9,1.1-2.64,7-4.86,7-9,0-2.07-1.68-3.75-3.75-3.75Z"/><path class="cls-2" d="m29.25,94.25c-1.4,0-2.61-.78-3.25-1.91-.64,1.14-1.85,1.91-3.25,1.91-2.07,0-3.75-1.68-3.75-3.75,0-4.14,5.9-6.36,7-9,1.1,2.64,7,4.86,7,9,0,2.07-1.68,3.75-3.75,3.75Z"/><path class="cls-2" d="m57.25,94.25c-1.4,0-2.61-.78-3.25-1.91-.64,1.14-1.85,1.91-3.25,1.91-2.07,0-3.75-1.68-3.75-3.75,0-4.14,5.9-6.36,7-9,1.1,2.64,7,4.86,7,9,0,2.07-1.68,3.75-3.75,3.75Z"/></g></g></g></svg>