<?xml version="1.0" encoding="UTF-8"?><svg id="Grouped" xmlns="http://www.w3.org/2000/svg" viewBox="0 0 80 112"><defs><style>.cls-1{fill:#fff;}.cls-2{fill:#1f1f1f;}</style></defs><g id="_7"><rect id="BG-2" class="cls-1" x="0" width="80" height="112" rx="5" ry="5"/><g id="Suit"><g id="Suit-2"><g id="Suit-3"><path class="cls-2" d="m12,19.38c-.54,1.38-3.25,1.88-3.25,4,0,.97.78,1.75,1.75,1.75.51,0,.96-.22,1.28-.57-.06.59-.25,1.29-.78,1.82v.25h2v-.25c-.53-.53-.72-1.23-.78-1.82.32.35.77.57,1.28.57.97,0,1.75-.78,1.75-1.75,0-2.12-2.71-2.62-3.25-4Z"/><path class="cls-2" d="m68,91.62c.54-1.38,3.25-1.88,3.25-4,0-.97-.78-1.75-1.75-1.75-.51,0-.96.22-1.28.57.06-.59.25-1.29.78-1.82v-.25h-2v.25c.53.53.72,1.23.78,1.82-.32-.35-.77-.57-1.28-.57-.97,0-1.75.78-1.75,1.75,0,2.12,2.71,2.62,3.25,4Z"/></g><g id="Value"><path class="cls-2" d="m14.04,9.52h-1.73c-.29,0-.56,0-.8.03-.24.02-.44.05-.58.08-.11.02-.19.06-.26.1-.06.04-.11.12-.15.23l-.42,1.29h-.82c-.03-.46-.03-.93,0-1.42.03-.48.08-.93.15-1.34h5.28l.38.85c-.71.92-1.32,1.96-1.81,3.12-.49,1.16-.79,2.51-.9,4.04h-1.42l-.24-.29c.06-.63.19-1.26.38-1.89.2-.63.44-1.23.74-1.8.29-.57.63-1.12,1.01-1.63.38-.51.77-.97,1.19-1.37Z"/><path class="cls-2" d="m65.96,101.48h1.73c.29,0,.56,0,.8-.03.24-.02.44-.05.59-.08.11-.02.19-.06.25-.1.06-.04.11-.12.15-.23l.42-1.29h.82c.03.46.03.93,0,1.42-.03.48-.08.93-.15,1.34h-5.28l-.39-.85c.71-.92,1.32-1.96,1.81-3.12.49-1.16.79-2.51.9-4.04h1.42l.24.29c-.06.63-.19,1.26-.38,1.89-.2.63-.44,1.23-.74,1.8-.29.57-.63,1.12-1.01,1.63-.38.51-.77.97-1.19,1.37Z"/></g></g><g id="Value-2"><path class="cls-2" d="m26,14.25c-1.08,2.76-6.5,3.76-6.5,8,0,1.93,1.57,3.5,3.5,3.5,1.02,0,1.93-.44,2.57-1.14-.12,1.18-.51,2.58-1.57,3.64v.5h4v-.5c-1.06-1.06-1.45-2.45-1.57-3.63.64.69,1.55,1.13,2.56,1.13,1.93,0,3.5-1.57,3.5-3.5,0-4.24-5.42-5.24-6.5-8Z"/><path class="cls-2" d="m40,30.75c-1.08,2.76-6.5,3.76-6.5,8,0,1.93,1.57,3.5,3.5,3.5,1.02,0,1.93-.44,2.57-1.14-.12,1.18-.51,2.58-1.56,3.64v.5h4v-.5c-1.06-1.06-1.45-2.45-1.57-3.63.64.69,1.55,1.13,2.56,1.13,1.93,0,3.5-1.57,3.5-3.5,0-4.24-5.42-5.24-6.5-8Z"/><path class="cls-2" d="m54,14.25c-1.08,2.76-6.5,3.76-6.5,8,0,1.93,1.57,3.5,3.5,3.5,1.02,0,1.93-.44,2.57-1.14-.12,1.18-.51,2.58-1.57,3.64v.5h4v-.5c-1.06-1.06-1.45-2.45-1.57-3.63.64.69,1.55,1.13,2.56,1.13,1.93,0,3.5-1.57,3.5-3.5,0-4.24-5.42-5.24-6.5-8Z"/><path class="cls-2" d="m54,46.75c-1.08,2.76-6.5,3.76-6.5,8,0,1.93,1.57,3.5,3.5,3.5,1.02,0,1.93-.44,2.57-1.14-.12,1.18-.51,2.58-1.57,3.64v.5h4v-.5c-1.06-1.06-1.45-2.45-1.57-3.63.64.69,1.55,1.13,2.56,1.13,1.93,0,3.5-1.57,3.5-3.5,0-4.24-5.42-5.24-6.5-8Z"/><path class="cls-2" d="m26,46.75c-1.08,2.76-6.5,3.76-6.5,8,0,1.93,1.57,3.5,3.5,3.5,1.02,0,1.93-.44,2.57-1.14-.12,1.18-.51,2.58-1.57,3.64v.5h4v-.5c-1.06-1.06-1.45-2.45-1.57-3.63.64.69,1.55,1.13,2.56,1.13,1.93,0,3.5-1.57,3.5-3.5,0-4.24-5.42-5.24-6.5-8Z"/><path class="cls-2" d="m26,96.75c-1.08-2.76-6.5-3.76-6.5-8,0-1.93,1.57-3.5,3.5-3.5,1.02,0,1.93.44,2.57,1.14-.12-1.18-.51-2.58-1.57-3.64v-.5h4v.5c-1.06,1.06-1.45,2.45-1.57,3.63.64-.69,1.55-1.13,2.56-1.13,1.93,0,3.5,1.57,3.5,3.5,0,4.24-5.42,5.24-6.5,8Z"/><path class="cls-2" d="m54,96.75c-1.08-2.76-6.5-3.76-6.5-8,0-1.93,1.57-3.5,3.5-3.5,1.02,0,1.93.44,2.57,1.14-.12-1.18-.51-2.58-1.57-3.64v-.5h4v.5c-1.06,1.06-1.45,2.45-1.57,3.63.64-.69,1.55-1.13,2.56-1.13,1.93,0,3.5,1.57,3.5,3.5,0,4.24-5.42,5.24-6.5,8Z"/></g></g></g></svg>