<?xml version="1.0" encoding="UTF-8"?><svg id="Grouped" xmlns="http://www.w3.org/2000/svg" viewBox="0 0 80 112"><defs><style>.cls-1{fill:#fff;}.cls-2{fill:#c93112;}</style></defs><g id="_8"><rect id="BG-2" class="cls-1" x="0" y="0" width="80" height="112" rx="5" ry="5"/><g id="Suit"><g id="Suit-2"><g id="Suit-3"><path class="cls-2" d="m12,26.61c-.86-1.35-2.01-2.5-3.36-3.36,1.35-.86,2.5-2.01,3.36-3.36.86,1.35,2.01,2.5,3.36,3.36-1.35.86-2.5,2.01-3.36,3.36Z"/><path class="cls-2" d="m68,83.75c.9,1.4,2.1,2.6,3.5,3.5-1.4.9-2.6,2.1-3.5,3.5-.9-1.4-2.1-2.6-3.5-3.5,1.4-.9,2.6-2.1,3.5-3.5Z"/></g><g id="Value"><path class="cls-2" d="m11.94,16.41c-.44,0-.84-.05-1.21-.15-.37-.1-.69-.24-.96-.42-.27-.18-.48-.4-.63-.67-.15-.27-.23-.57-.23-.91,0-.48.15-.91.46-1.29.3-.37.71-.64,1.23-.81-.34-.22-.64-.48-.89-.8-.25-.31-.37-.7-.37-1.16,0-.32.07-.61.2-.87.13-.26.32-.49.56-.67.24-.19.53-.33.87-.43.34-.1.71-.15,1.12-.15.38,0,.74.05,1.06.14.32.09.6.22.83.38.23.17.41.36.54.59.13.23.19.49.19.77,0,.43-.14.81-.43,1.15-.29.34-.65.6-1.08.77.25.13.49.26.72.41.23.14.43.3.6.48.17.18.31.38.41.6.1.22.15.48.15.77,0,.35-.08.67-.23.95-.15.28-.37.52-.64.72-.27.2-.61.35-.99.45-.39.11-.81.16-1.28.16Zm.1-.75c.45,0,.8-.12,1.05-.35.25-.23.38-.52.38-.87,0-.22-.05-.42-.15-.59-.1-.17-.24-.32-.41-.45s-.37-.25-.6-.36c-.23-.11-.99-.48-1.04-.5-.3.19-.53.42-.68.7-.15.28-.22.57-.22.89,0,.26.04.48.14.67.09.19.21.35.37.48.15.13.33.22.54.28.2.06.42.1.64.1Zm-1.29-5.81c0,.2.04.38.13.53.09.16.21.3.37.43.15.13.34.25.55.37.21.11.44.23.68.34.29-.19.51-.41.64-.66.13-.25.2-.51.2-.78,0-.41-.12-.73-.37-.95-.24-.22-.56-.33-.96-.33s-.7.1-.91.3c-.22.2-.33.45-.33.76Z"/><path class="cls-2" d="m68.06,94.09c.44,0,.84.05,1.21.15.37.1.69.24.96.42.27.18.48.4.63.67s.23.57.23.91c0,.48-.15.91-.46,1.29-.3.37-.71.64-1.23.81.34.22.64.48.89.8.25.31.38.7.38,1.16,0,.32-.07.61-.2.87-.13.26-.32.49-.56.68-.24.19-.53.33-.87.43-.34.1-.71.15-1.12.15-.38,0-.74-.05-1.06-.14-.32-.09-.6-.22-.83-.38-.23-.16-.41-.36-.54-.59-.13-.23-.2-.49-.2-.77,0-.43.14-.81.43-1.15.29-.34.65-.6,1.08-.77-.25-.13-.49-.26-.72-.41-.23-.14-.43-.3-.6-.48-.17-.18-.3-.38-.41-.6-.1-.22-.15-.48-.15-.77,0-.35.08-.67.23-.95.15-.28.37-.52.64-.72.27-.2.6-.35.99-.46.39-.11.81-.16,1.28-.16Zm-.1.75c-.45,0-.8.12-1.05.35-.25.23-.38.52-.38.87,0,.23.05.42.15.59.1.16.24.31.41.45.17.13.37.25.6.37.23.11.99.47,1.04.5.3-.19.53-.42.68-.7s.22-.57.22-.89c0-.26-.04-.48-.14-.67-.09-.19-.21-.35-.37-.48-.15-.13-.33-.22-.54-.28-.21-.06-.42-.1-.64-.1Zm1.29,5.81c0-.2-.04-.38-.13-.53-.09-.16-.21-.3-.37-.43-.16-.13-.34-.25-.55-.37-.21-.11-.44-.23-.68-.34-.3.19-.51.41-.64.66-.13.25-.2.51-.2.78,0,.41.12.73.37.95.24.22.56.33.96.33s.7-.1.91-.3.33-.45.33-.76Z"/></g></g><g id="Value-2"><path class="cls-2" d="m26,29.25c-1.8-2.81-4.19-5.2-7-7,2.81-1.8,5.2-4.19,7-7,1.8,2.81,4.19,5.2,7,7-2.81,1.8-5.2,4.19-7,7Z"/><path class="cls-2" d="m40,45.75c-1.8-2.81-4.19-5.2-7-7,2.81-1.8,5.2-4.19,7-7,1.8,2.81,4.19,5.2,7,7-2.81,1.8-5.2,4.19-7,7Z"/><path class="cls-2" d="m47,71.75c-2.81,1.8-5.2,4.19-7,7-1.8-2.81-4.19-5.2-7-7,2.81-1.8,5.2-4.19,7-7,1.8,2.81,4.19,5.2,7,7Z"/><path class="cls-2" d="m54,29.25c-1.8-2.81-4.19-5.2-7-7,2.81-1.8,5.2-4.19,7-7,1.8,2.81,4.19,5.2,7,7-2.81,1.8-5.2,4.19-7,7Z"/><path class="cls-2" d="m54,61.75c-1.8-2.81-4.19-5.2-7-7,2.81-1.8,5.2-4.19,7-7,1.8,2.81,4.19,5.2,7,7-2.81,1.8-5.2,4.19-7,7Z"/><path class="cls-2" d="m26,61.75c-1.8-2.81-4.19-5.2-7-7,2.81-1.8,5.2-4.19,7-7,1.8,2.81,4.19,5.2,7,7-2.81,1.8-5.2,4.19-7,7Z"/><path class="cls-2" d="m33,88.25c-2.81,1.8-5.2,4.19-7,7-1.8-2.81-4.19-5.2-7-7,2.81-1.8,5.2-4.19,7-7,1.8,2.81,4.19,5.2,7,7Z"/><path class="cls-2" d="m61,88.25c-2.81,1.8-5.2,4.19-7,7-1.8-2.81-4.19-5.2-7-7,2.81-1.8,5.2-4.19,7-7,1.8,2.81,4.19,5.2,7,7Z"/></g></g></g></svg>