<?xml version="1.0" encoding="UTF-8"?><svg id="Grouped" xmlns="http://www.w3.org/2000/svg" viewBox="0 0 80 112"><defs><style>.cls-1{fill:#fff;}.cls-2{fill:#c93112;}</style></defs><g id="_8"><rect id="BG-2" class="cls-1" x="0" width="80" height="112" rx="5" ry="5"/><g id="Suit"><g id="Suit-2"><g id="Suit-3"><path class="cls-2" d="m13.56,21.11c-.67,0-1.25.37-1.56.92-.31-.55-.89-.92-1.56-.92-.99,0-1.8.81-1.8,1.8,0,1.99,2.83,3.05,3.36,4.32.53-1.27,3.36-2.33,3.36-4.32,0-.99-.81-1.8-1.8-1.8Z"/><path class="cls-2" d="m66.37,90.5c.7,0,1.3-.39,1.62-.96.32.57.93.96,1.62.96,1.04,0,1.87-.84,1.87-1.88,0-2.07-2.95-3.18-3.5-4.5-.55,1.32-3.5,2.43-3.5,4.5,0,1.04.84,1.88,1.87,1.88Z"/></g><g id="Value"><path class="cls-2" d="m11.94,16.91c-.44,0-.84-.05-1.21-.15-.37-.1-.69-.24-.96-.42-.27-.18-.48-.4-.63-.67-.15-.27-.23-.57-.23-.91,0-.48.15-.91.46-1.29.3-.37.71-.64,1.23-.81-.34-.22-.64-.48-.89-.8-.25-.31-.37-.7-.37-1.16,0-.32.07-.61.2-.87.13-.26.32-.49.56-.67.24-.19.53-.33.87-.43.34-.1.71-.15,1.12-.15.38,0,.74.05,1.06.14.32.09.6.22.83.38.23.17.41.36.54.59.13.23.19.49.19.77,0,.43-.14.81-.43,1.15-.29.34-.65.6-1.08.77.25.13.49.26.72.41.23.14.43.3.6.48.17.18.31.38.41.6.1.22.15.48.15.77,0,.35-.08.67-.23.95-.15.28-.37.52-.64.72-.27.2-.61.35-.99.45-.39.11-.81.16-1.28.16Zm.1-.75c.45,0,.8-.12,1.05-.35.25-.23.38-.52.38-.87,0-.22-.05-.42-.15-.59-.1-.17-.24-.32-.41-.45s-.37-.25-.6-.36c-.23-.11-.99-.48-1.04-.5-.3.19-.53.42-.68.7-.15.28-.22.57-.22.89,0,.26.04.48.14.67.09.19.21.35.37.48.15.13.33.22.54.28.2.06.42.1.64.1Zm-1.29-5.81c0,.2.04.38.13.53.09.16.21.3.37.43.15.13.34.25.55.37.21.11.44.23.68.34.29-.19.51-.41.64-.66.13-.25.2-.51.2-.78,0-.41-.12-.73-.37-.95-.24-.22-.56-.33-.96-.33s-.7.1-.91.3c-.22.2-.33.45-.33.76Z"/><path class="cls-2" d="m68.06,94.59c.44,0,.84.05,1.21.15.37.1.69.24.96.42.27.18.48.4.63.67s.23.57.23.91c0,.48-.15.91-.46,1.29-.3.37-.71.64-1.23.81.34.22.64.48.89.8.25.31.38.7.38,1.16,0,.32-.07.61-.2.87-.13.26-.32.49-.56.67-.24.19-.53.33-.87.43-.34.1-.71.15-1.12.15-.38,0-.74-.05-1.06-.14-.32-.09-.6-.22-.83-.38-.23-.17-.41-.36-.54-.59-.13-.23-.2-.49-.2-.77,0-.43.14-.81.43-1.15.29-.34.65-.6,1.08-.77-.25-.13-.49-.26-.72-.41-.23-.14-.43-.3-.6-.48-.17-.18-.3-.38-.41-.6-.1-.22-.15-.48-.15-.77,0-.35.08-.67.23-.95.15-.28.37-.52.64-.72.27-.2.6-.35.99-.45.39-.11.81-.16,1.28-.16Zm-.1.74c-.45,0-.8.12-1.05.35-.25.23-.38.52-.38.87,0,.22.05.42.15.59.1.17.24.32.41.45.17.13.37.25.6.36.23.11.99.48,1.04.5.3-.19.53-.42.68-.7s.22-.57.22-.89c0-.26-.04-.48-.14-.67-.09-.19-.21-.35-.37-.48-.15-.13-.33-.22-.54-.28-.21-.06-.42-.1-.64-.1Zm1.29,5.81c0-.2-.04-.38-.13-.53-.09-.16-.21-.3-.37-.43-.16-.13-.34-.25-.55-.37-.21-.11-.44-.23-.68-.34-.3.19-.51.41-.64.66-.13.25-.2.51-.2.78,0,.41.12.73.37.95.24.22.56.33.96.33s.7-.1.91-.3c.22-.2.33-.45.33-.76Z"/></g></g><g id="Value-2"><path class="cls-2" d="m29.25,17.25c-1.4,0-2.61.78-3.25,1.91-.64-1.14-1.85-1.91-3.25-1.91-2.07,0-3.75,1.68-3.75,3.75,0,4.14,5.9,6.36,7,9,1.1-2.64,7-4.86,7-9,0-2.07-1.68-3.75-3.75-3.75Z"/><path class="cls-2" d="m43.25,33.75c-1.4,0-2.61.78-3.25,1.91-.64-1.14-1.85-1.91-3.25-1.91-2.07,0-3.75,1.68-3.75,3.75,0,4.14,5.9,6.36,7,9,1.1-2.64,7-4.86,7-9,0-2.07-1.68-3.75-3.75-3.75Z"/><path class="cls-2" d="m43.25,77.75c-1.4,0-2.61-.78-3.25-1.91-.64,1.14-1.85,1.91-3.25,1.91-2.07,0-3.75-1.68-3.75-3.75,0-4.14,5.9-6.36,7-9,1.1,2.64,7,4.86,7,9,0,2.07-1.68,3.75-3.75,3.75Z"/><path class="cls-2" d="m57.25,17.25c-1.4,0-2.61.78-3.25,1.91-.64-1.14-1.85-1.91-3.25-1.91-2.07,0-3.75,1.68-3.75,3.75,0,4.14,5.9,6.36,7,9,1.1-2.64,7-4.86,7-9,0-2.07-1.68-3.75-3.75-3.75Z"/><path class="cls-2" d="m57.25,49.75c-1.4,0-2.61.78-3.25,1.91-.64-1.14-1.85-1.91-3.25-1.91-2.07,0-3.75,1.68-3.75,3.75,0,4.14,5.9,6.36,7,9,1.1-2.64,7-4.86,7-9,0-2.07-1.68-3.75-3.75-3.75Z"/><path class="cls-2" d="m29.25,49.75c-1.4,0-2.61.78-3.25,1.91-.64-1.14-1.85-1.91-3.25-1.91-2.07,0-3.75,1.68-3.75,3.75,0,4.14,5.9,6.36,7,9,1.1-2.64,7-4.86,7-9,0-2.07-1.68-3.75-3.75-3.75Z"/><path class="cls-2" d="m29.25,94.25c-1.4,0-2.61-.78-3.25-1.91-.64,1.14-1.85,1.91-3.25,1.91-2.07,0-3.75-1.68-3.75-3.75,0-4.14,5.9-6.36,7-9,1.1,2.64,7,4.86,7,9,0,2.07-1.68,3.75-3.75,3.75Z"/><path class="cls-2" d="m57.25,94.25c-1.4,0-2.61-.78-3.25-1.91-.64,1.14-1.85,1.91-3.25,1.91-2.07,0-3.75-1.68-3.75-3.75,0-4.14,5.9-6.36,7-9,1.1,2.64,7,4.86,7,9,0,2.07-1.68,3.75-3.75,3.75Z"/></g></g></g></svg>